<svg id="Layer_2" xmlns="http://www.w3.org/2000/svg" viewBox="0 0 600 550"><style>.st0{fill:none}.st1{fill:#d387ff}.st2{fill:#fff}.st3{fill:#bff8e6}.st4{fill:#464853}</style><path id="XMLID_222_" class="st0" d="M202.76 104.22H336c1.17-7.93 8.02-14.04 16.27-14.04 9.07 0 16.45 7.38 16.45 16.45s-7.38 16.45-16.45 16.45c-8.25 0-15.1-6.11-16.27-14.04H216.27c2.45 1.5 4.73 3.32 6.77 5.44 6.03 6.27 9.35 14.49 9.35 23.14 0 8.89-3.49 17.28-9.82 23.61-1.94 1.94-4.07 3.61-6.35 5h13.41c.55-8.57 7.7-15.38 16.41-15.38 9.07 0 16.45 7.38 16.45 16.45s-7.38 16.45-16.45 16.45c-7.78 0-14.31-5.43-16.02-12.7H143.3v36.21c0 17.29 14.07 31.36 31.36 31.36h72.43c.45-14.65 6.36-28.35 16.77-38.76 10.84-10.84 25.24-16.8 40.57-16.8 10.31 0 20.41 2.76 29.23 7.99 8.1 4.81 14.92 11.56 19.81 19.59.88-.07 1.77-.11 2.67-.11 11.77 0 22.11 6.25 27.87 15.61v-28.53c-7.93-1.17-14.04-8.02-14.04-16.27 0-9.07 7.38-16.45 16.45-16.45s16.45 7.38 16.45 16.45c0 8.25-6.11 15.1-14.04 16.27v43.79c7.47 1.34 14.47 4.99 19.9 10.42 5.1 5.1 8.56 11.39 10.09 18.23h38.32c15.88 0 28.8-12.92 28.8-28.8v-53.38h-42.06c-14.43 0-26.17-11.74-26.17-26.17 0-6.96 2.73-13.53 7.69-18.48 1.05-1.05 2.19-2.01 3.4-2.86H292.55c-1.17 7.93-8.02 14.04-16.27 14.04-9.07 0-16.45-7.38-16.45-16.45s7.38-16.45 16.45-16.45c8.25 0 15.1 6.11 16.27 14.04h146.24c1.21-11.52 10.98-20.53 22.81-20.53.47 0 .94.01 1.4.04 3.36-5.38 7.98-9.9 13.45-13.14 2.96-1.75 6.13-3.11 9.42-4.03-.93-10.02-9.39-17.88-19.64-17.88h-269.5c3.94 7.33 6.03 15.56 6.03 24.12v.1zm-16.73 112.5c-6.55 0-11.87-5.33-11.87-11.87 0-6.55 5.33-11.87 11.87-11.87 6.55 0 11.87 5.33 11.87 11.87 0 6.54-5.33 11.87-11.87 11.87zm255.05-2.84c6.55 0 11.87 5.33 11.87 11.87 0 6.55-5.33 11.87-11.87 11.87-6.55 0-11.87-5.33-11.87-11.87-.01-6.54 5.32-11.87 11.87-11.87zm-109.62-63.03c6.55 0 11.87 5.33 11.87 11.87 0 6.55-5.33 11.87-11.87 11.87s-11.87-5.33-11.87-11.87c-.01-6.54 5.32-11.87 11.87-11.87zm85.25-58.06c6.55 0 11.87 5.33 11.87 11.87 0 6.55-5.33 11.87-11.87 11.87-6.55 0-11.87-5.33-11.87-11.87 0-6.54 5.32-11.87 11.87-11.87z"/><path id="XMLID_229_" class="st0" d="M224.58 304.75c-4.74-4.74-8.06-10.52-9.74-16.8H88.1c-1.17 7.93-8.02 14.04-16.27 14.04-9.07 0-16.45-7.38-16.45-16.45s7.38-16.45 16.45-16.45c8.25 0 15.1 6.11 16.27 14.04h125.79c-.21-1.59-.31-3.21-.31-4.84 0-9.69 3.72-18.9 10.48-25.92 3.79-3.94 8.29-6.95 13.22-8.91h-62.62c-19.95 0-36.19-16.23-36.19-36.19v-36.21h-37.7v53.71c7.93 1.17 14.04 8.02 14.04 16.27 0 9.07-7.38 16.45-16.45 16.45s-16.45-7.38-16.45-16.45c0-8.25 6.11-15.1 14.04-16.27v-53.71H82.82c-8.9 0-17.28-3.49-23.62-9.82-1.94-1.94-3.61-4.07-4.99-6.35v57.81c7.93 1.17 14.04 8.02 14.04 16.27 0 9.07-7.38 16.45-16.45 16.45s-16.45-7.38-16.45-16.45c0-8.25 6.11-15.1 14.04-16.27v-70.56c0-.33.07-.65.19-.94-.04-.39-.08-.77-.11-1.16h-3.19c-17.73 0-32.16 14.42-32.16 32.16v172.96c0 17.02 13.3 31 30.05 32.09.75-4.54 2.86-8.75 6.12-12.14 3.58-3.72 8.21-6.1 13.23-6.84.28-18.88 15.72-34.14 34.66-34.14 11.89 0 22.98 6.15 29.31 16.15.34-.02.69-.03 1.04-.03h38.95c1.17-7.93 8.02-14.04 16.27-14.04 9.07 0 16.45 7.38 16.45 16.45s-7.38 16.45-16.45 16.45c-8.25 0-15.1-6.11-16.27-14.04h-25.87c3.89 3.32 6.51 8.08 7.02 13.45 4.31.92 8.32 3.1 11.47 6.25 4.35 4.35 6.75 10.12 6.75 16.23 0 7.38-3.49 13.95-8.91 18.16h41.77c1.17-7.93 8.02-14.04 16.27-14.04 9.07 0 16.45 7.38 16.45 16.45s-7.38 16.45-16.45 16.45c-8.25 0-15.1-6.11-16.27-14.04h-91.94v7.98c0 16.42 13.36 29.78 29.78 29.78h92.42c16.42 0 29.78-13.36 29.78-29.78v-96.22h-8.72c-9.96.02-19.36-3.89-26.45-10.99zm-46.08-54.53c6.55 0 11.87 5.33 11.87 11.87 0 6.55-5.33 11.87-11.87 11.87-6.55 0-11.87-5.33-11.87-11.87 0-6.55 5.33-11.87 11.87-11.87zM37.75 350.57c-6.55 0-11.87-5.33-11.87-11.87 0-6.55 5.33-11.87 11.87-11.87 6.55 0 11.87 5.33 11.87 11.87 0 6.55-5.32 11.87-11.87 11.87zm106.16-25.35c-6.55 0-11.87-5.33-11.87-11.87 0-6.55 5.33-11.87 11.87-11.87 6.55 0 11.87 5.33 11.87 11.87 0 6.54-5.33 11.87-11.87 11.87zm88.1 36.82c-6.55 0-11.87-5.33-11.87-11.87 0-6.55 5.33-11.87 11.87-11.87 6.55 0 11.87 5.33 11.87 11.87 0 6.55-5.32 11.87-11.87 11.87z"/><path id="XMLID_235_" class="st0" d="M559 161.17c0 .18.01.37.01.56 0 6.96-2.73 13.53-7.68 18.48-4.96 4.96-11.52 7.69-18.48 7.69h-2.54v134.53c7.93 1.17 14.04 8.02 14.04 16.27 0 9.07-7.38 16.45-16.45 16.45s-16.45-7.38-16.45-16.45c0-8.25 6.11-15.1 14.04-16.27V187.89h-34.7v53.38c0 18.54-15.08 33.62-33.62 33.62H419.6c.1 1.12.16 2.26.16 3.4 0 9.97-3.91 19.37-11 26.46-7.1 7.1-16.49 11-26.46 11h-6.76v39.77c7.93 1.17 14.04 8.02 14.04 16.27 0 9.07-7.38 16.45-16.45 16.45s-16.45-7.38-16.45-16.45c0-8.25 6.11-15.1 14.04-16.27v-39.77H333.9v96.51c0 17.33 14.1 31.42 31.42 31.42h5.49c.59-7.96 3.99-15.37 9.73-21.11 4.8-4.8 10.98-8.04 17.58-9.27.96-15.25 13.67-27.36 29.16-27.36.37 0 .73.01 1.09.02v-31.01c-7.93-1.17-14.04-8.02-14.04-16.27 0-9.07 7.38-16.45 16.45-16.45s16.45 7.38 16.45 16.45c0 8.25-6.11 15.1-14.04 16.27v25.81c3.84-4.79 8.53-8.88 13.84-12.03 7.15-4.24 15.27-6.66 23.59-7.05v-32.05c-8.06-1.06-14.31-7.96-14.31-16.31 0-9.07 7.38-16.45 16.45-16.45s16.45 7.38 16.45 16.45c0 8.16-5.97 14.95-13.77 16.23v32.12c12.73.59 24.62 5.82 33.69 14.9 9.64 9.64 14.95 22.46 14.95 36.1v.29c7.7.88 14.83 4.41 20.28 10.08 5.47 5.69 8.71 12.97 9.26 20.72h2.98c16.15 0 29.28-13.14 29.28-29.28V190.35c-.01-15.34-11.86-27.96-26.88-29.18zm-7.72 236.54c-6.55 0-11.87-5.33-11.87-11.87 0-6.55 5.33-11.87 11.87-11.87s11.87 5.33 11.87 11.87c0 6.55-5.32 11.87-11.87 11.87zm5.31-113.36c-6.55 0-11.87-5.33-11.87-11.87 0-6.55 5.33-11.87 11.87-11.87 6.55 0 11.87 5.33 11.87 11.87 0 6.54-5.32 11.87-11.87 11.87z"/><path id="XMLID_248_" class="st1" d="M221.95 486.68c0-3.88-3.16-7.05-7.05-7.05-3.89 0-7.05 3.16-7.05 7.05 0 3.89 3.16 7.05 7.05 7.05 3.89-.01 7.05-3.17 7.05-7.05z"/><path id="XMLID_240_" class="st1" d="M193.07 204.85c0-3.89-3.16-7.05-7.05-7.05-3.89 0-7.05 3.16-7.05 7.05 0 3.89 3.16 7.05 7.05 7.05 3.89-.01 7.05-3.17 7.05-7.05z"/><path id="XMLID_244_" class="st2" d="M239.06 350.17c0-3.89-3.16-7.05-7.05-7.05-3.89 0-7.05 3.16-7.05 7.05 0 3.88 3.16 7.05 7.05 7.05 3.89 0 7.05-3.16 7.05-7.05z"/><circle id="XMLID_252_" class="st2" cx="388.11" cy="530.69" r="7.05"/><ellipse id="XMLID_256_" transform="rotate(-67.5 560.732344 496.125159)" class="st2" cx="560.74" cy="496.14" rx="7.05" ry="7.05"/><path id="XMLID_260_" class="st2" d="M331.46 470.17c-3.89 0-7.05 3.16-7.05 7.05 0 3.88 3.16 7.05 7.05 7.05s7.05-3.16 7.05-7.05c-.01-3.89-3.17-7.05-7.05-7.05z"/><circle id="XMLID_264_" class="st2" cx="134.45" cy="502.32" r="7.05"/><ellipse id="XMLID_268_" transform="rotate(-67.5 441.068431 225.748544)" class="st2" cx="441.08" cy="225.75" rx="7.05" ry="7.05"/><path id="XMLID_272_" class="st2" d="M178.5 269.14c3.89 0 7.05-3.16 7.05-7.05 0-3.88-3.16-7.05-7.05-7.05-3.89 0-7.05 3.16-7.05 7.05.01 3.89 3.17 7.05 7.05 7.05z"/><circle id="XMLID_276_" class="st2" cx="143.91" cy="313.35" r="7.05"/><path id="XMLID_280_" class="st2" d="M44.8 338.7c0-3.89-3.16-7.05-7.05-7.05-3.89 0-7.05 3.16-7.05 7.05 0 3.88 3.16 7.05 7.05 7.05 3.89 0 7.05-3.16 7.05-7.05z"/><circle id="XMLID_284_" class="st2" cx="416.71" cy="104.66" r="7.05"/><circle id="XMLID_288_" class="st2" cx="470.92" cy="53.12" r="7.05"/><ellipse id="XMLID_292_" transform="rotate(-67.5 182.355735 18.849442)" class="st2" cx="182.36" cy="18.85" rx="7.05" ry="7.05"/><circle id="XMLID_296_" class="st2" cx="416.71" cy="18.85" r="7.05"/><ellipse id="XMLID_300_" transform="rotate(-9.213 331.435837 162.680539)" class="st2" cx="331.46" cy="162.73" rx="7.05" ry="7.05"/><path id="XMLID_304_" class="st2" d="M556.59 265.43c-3.89 0-7.05 3.16-7.05 7.05s3.16 7.05 7.05 7.05c3.88 0 7.05-3.16 7.05-7.05s-3.16-7.05-7.05-7.05z"/><path id="XMLID_308_" class="st2" d="M551.28 378.79c-3.89 0-7.05 3.16-7.05 7.05 0 3.88 3.16 7.05 7.05 7.05s7.05-3.16 7.05-7.05c0-3.88-3.16-7.05-7.05-7.05z"/><path id="XMLID_330_" class="st2" d="M496.65 101.23c-6.26 0-12.39 1.68-17.74 4.85-5.2 3.08-9.53 7.49-12.53 12.73-.49.85-1.45 1.33-2.42 1.19-.76-.1-1.55-.15-2.36-.15-9.99 0-18.11 8.13-18.11 18.11v.06c.07 1.27-.86 2.35-2.12 2.51-4.7.56-9.16 2.74-12.54 6.12-4.04 4.04-6.27 9.4-6.27 15.07 0 11.77 9.58 21.34 21.34 21.34h88.94c5.67 0 11.03-2.23 15.07-6.27 4.04-4.05 6.27-9.4 6.27-15.07 0-5.52-2.12-10.76-5.97-14.76-3.84-4-8.98-6.32-14.46-6.56-.64-.03-1.25-.31-1.68-.79-.43-.48-.66-1.11-.62-1.75.03-.59.05-1.2.05-1.8-.01-19.2-15.64-34.83-34.85-34.83zm20.52 37.66c-1.33 0-2.41-1.08-2.41-2.41 0-10.1-8.22-18.31-18.31-18.31-1.33 0-2.41-1.08-2.41-2.41s1.08-2.41 2.41-2.41c12.76 0 23.14 10.38 23.14 23.14 0 1.32-1.09 2.4-2.42 2.4z"/><path id="XMLID_334_" class="st2" d="M62.61 157.83c5.42 5.42 12.6 8.41 20.2 8.41h116.14c7.61 0 14.78-2.99 20.2-8.41s8.4-12.6 8.4-20.2c0-7.39-2.84-14.42-8-19.79-5.15-5.35-12.03-8.48-19.38-8.79-.02 0-.05 0-.07-.01-.04 0-.08-.01-.12-.01-.04 0-.07-.01-.11-.02-.04-.01-.09-.02-.13-.03-.03-.01-.06-.02-.1-.02-.05-.01-.09-.03-.14-.04l-.09-.03c-.04-.02-.09-.03-.13-.05-.03-.01-.06-.03-.08-.04l-.12-.06c-.03-.02-.06-.03-.09-.05-.04-.02-.07-.05-.11-.07l-.09-.06c-.03-.03-.07-.05-.1-.08-.03-.02-.06-.05-.08-.08l-.09-.09-.04-.04c-.01-.01-.02-.03-.04-.04-.03-.03-.05-.06-.08-.1l-.06-.09c-.03-.04-.05-.07-.07-.11-.02-.03-.04-.06-.05-.09-.02-.04-.04-.08-.07-.12-.01-.03-.03-.06-.04-.08-.02-.04-.04-.09-.05-.13l-.03-.09c-.02-.04-.03-.09-.04-.14-.01-.03-.02-.06-.02-.09-.01-.04-.02-.09-.03-.13-.01-.04-.01-.07-.02-.11-.01-.04-.01-.08-.01-.12 0-.04-.01-.08-.01-.12v-.06-.06-.06c.04-.79.06-1.59.06-2.38 0-9.04-2.58-17.68-7.39-25.09-.07-.09-.13-.18-.18-.28-1.72-2.61-3.71-5.06-5.97-7.32-8.73-8.73-20.34-13.54-32.69-13.54-8.3 0-16.45 2.23-23.55 6.44-6.9 4.09-12.64 9.93-16.62 16.9-.49.85-1.44 1.33-2.42 1.19-1.03-.14-2.1-.21-3.18-.21-13.45 0-24.39 10.94-24.39 24.39v.1c.06 1.27-.86 2.37-2.12 2.52-6.31.75-12.28 3.67-16.81 8.2-5.42 5.42-8.41 12.6-8.41 20.2.02 7.59 3 14.76 8.42 20.18zm88.83-82.64c7.88 0 15.28 3.06 20.85 8.63 5.56 5.56 8.63 12.97 8.63 20.85 0 1.33-1.08 2.41-2.41 2.41s-2.41-1.08-2.41-2.41c0-13.59-11.06-24.65-24.65-24.65-1.33 0-2.41-1.08-2.41-2.41-.01-1.34 1.07-2.42 2.4-2.42z"/><path id="XMLID_338_" class="st2" d="M540.87 426.41c-5.15-5.35-12.03-8.48-19.38-8.79-.64-.03-1.25-.31-1.68-.79-.43-.48-.66-1.11-.63-1.75.04-.79.06-1.59.06-2.39 0-12.35-4.81-23.96-13.54-32.69-8.73-8.73-20.34-13.54-32.69-13.54-8.3 0-16.45 2.23-23.55 6.44-6.9 4.09-12.64 9.93-16.62 16.9-.03.04-.05.09-.08.13-.01.01-.01.02-.02.02-.04.06-.08.11-.13.17-.01.02-.03.03-.04.05-.03.04-.07.08-.1.11l-.05.05c-.04.04-.08.07-.12.11-.01.01-.03.02-.04.04-.05.04-.11.08-.16.12-.02.02-.05.03-.07.04-.03.02-.07.04-.11.06-.03.02-.06.03-.09.05-.03.02-.06.03-.09.05-.03.01-.06.03-.1.04-.06.02-.11.04-.17.06-.03.01-.07.02-.1.03-.04.01-.07.02-.11.03-.03.01-.06.01-.1.02-.04.01-.09.01-.13.02-.02 0-.05.01-.07.01-.07.01-.14.01-.21.01h-.07c-.05 0-.11 0-.16-.01-.03 0-.05 0-.08-.01h-.04c-1.03-.14-2.1-.21-3.18-.21-13.45 0-24.39 10.94-24.39 24.39v.1c.06 1.27-.87 2.36-2.12 2.51-6.31.75-12.28 3.67-16.81 8.2-5.42 5.42-8.41 12.6-8.41 20.2 0 7.61 2.99 14.78 8.41 20.2s12.6 8.41 20.2 8.41h116.14c7.61 0 14.78-2.99 20.2-8.41s8.4-12.6 8.4-20.2c.03-7.39-2.81-14.42-7.97-19.78zm-41.06-10.76c-1.33 0-2.41-1.08-2.41-2.41 0-13.59-11.06-24.65-24.65-24.65-1.33 0-2.41-1.08-2.41-2.41s1.08-2.41 2.41-2.41c7.88 0 15.28 3.06 20.85 8.63 5.56 5.56 8.63 12.97 8.63 20.85-.01 1.32-1.09 2.4-2.42 2.4z"/><path id="XMLID_342_" class="st2" d="M66.08 362.86c-4.67.2-9.03 2.18-12.3 5.58-3.28 3.41-5.08 7.87-5.08 12.56 0 4.83 1.89 9.38 5.34 12.82 3.44 3.44 8 5.34 12.82 5.34H143.88c10.01 0 18.16-8.15 18.16-18.16 0-4.83-1.9-9.38-5.34-12.82-2.88-2.88-6.67-4.73-10.67-5.21-1.25-.15-2.18-1.24-2.12-2.5v-.04c0-8.47-6.89-15.36-15.36-15.36-.68 0-1.36.04-2 .13-.97.13-1.93-.34-2.42-1.19-5.31-9.29-15.24-15.06-25.93-15.06-16.46 0-29.84 13.39-29.84 29.84 0 .51.01 1.03.04 1.54.03.64-.19 1.27-.62 1.75-.45.47-1.06.76-1.7.78zm32.28-24.08c1.33 0 2.41 1.08 2.41 2.41s-1.08 2.41-2.41 2.41c-8.57 0-15.54 6.97-15.54 15.54 0 1.33-1.08 2.41-2.41 2.41S78 360.47 78 359.14c0-11.22 9.14-20.36 20.36-20.36z"/><path id="XMLID_312_" class="st1" d="M86.74 32.89c0 5.58 3.96 10.26 9.22 11.37V32.89c0-1.33 1.08-2.41 2.41-2.41s2.41 1.08 2.41 2.41v11.37c5.26-1.11 9.22-5.79 9.22-11.37 0-6.41-5.22-11.63-11.63-11.63-6.42 0-11.63 5.22-11.63 11.63z"/><path id="XMLID_237_" class="st3" d="M183.77 345.07H172.4c1.11 5.26 5.79 9.22 11.37 9.22 6.41 0 11.63-5.22 11.63-11.63 0-6.41-5.22-11.63-11.63-11.63-5.58 0-10.26 3.96-11.37 9.22h11.37c1.33 0 2.41 1.08 2.41 2.41s-1.08 2.41-2.41 2.41z"/><path id="XMLID_238_" class="st3" d="M71.83 283.13H83.2c-1.11-5.26-5.79-9.22-11.37-9.22-6.41 0-11.63 5.22-11.63 11.63 0 6.41 5.22 11.63 11.63 11.63 5.58 0 10.26-3.96 11.37-9.22H71.83c-1.33 0-2.41-1.08-2.41-2.41-.01-1.33 1.07-2.41 2.41-2.41z"/><path id="XMLID_239_" class="st3" d="M86.74 241.05c0 6.41 5.22 11.63 11.63 11.63 6.41 0 11.63-5.22 11.63-11.63 0-5.58-3.96-10.26-9.22-11.37v11.37c0 1.33-1.08 2.41-2.41 2.41s-2.41-1.08-2.41-2.41v-11.37c-5.27 1.1-9.22 5.78-9.22 11.37z"/><path id="XMLID_313_" class="st3" d="M40.16 228.98c0 6.41 5.22 11.63 11.63 11.63 6.41 0 11.63-5.22 11.63-11.63 0-5.58-3.96-10.26-9.22-11.37v11.37c0 1.33-1.08 2.41-2.41 2.41s-2.41-1.08-2.41-2.41V217.6c-5.26 1.12-9.22 5.79-9.22 11.38z"/><path id="XMLID_314_" class="st3" d="M49.38 100.05V88.67c0-1.33 1.08-2.41 2.41-2.41s2.41 1.08 2.41 2.41v11.37c5.26-1.11 9.22-5.79 9.22-11.37 0-6.41-5.22-11.63-11.63-11.63-6.41 0-11.63 5.22-11.63 11.63 0 5.59 3.96 10.26 9.22 11.38z"/><path id="XMLID_315_" class="st3" d="M78.48 454.56c0-5.58-3.96-10.26-9.22-11.37v11.37c0 1.33-1.08 2.41-2.41 2.41s-2.41-1.08-2.41-2.41v-11.37c-5.26 1.11-9.22 5.79-9.22 11.37 0 6.41 5.22 11.63 11.63 11.63 6.41-.01 11.63-5.22 11.63-11.63z"/><path id="XMLID_316_" class="st3" d="M215.99 403.99h-11.37c1.11 5.26 5.79 9.22 11.37 9.22 6.41 0 11.63-5.22 11.63-11.63 0-6.41-5.22-11.63-11.63-11.63-5.58 0-10.26 3.96-11.37 9.22h11.37c1.33 0 2.41 1.08 2.41 2.41s-1.08 2.41-2.41 2.41z"/><path id="XMLID_319_" class="st1" d="M484.37 313.35c0-6.41-5.22-11.63-11.63-11.63-6.41 0-11.63 5.22-11.63 11.63 0 5.68 4.09 10.42 9.48 11.43v-11.43c0-1.33 1.08-2.41 2.41-2.41s2.41 1.08 2.41 2.41v11.31c5.14-1.21 8.96-5.82 8.96-11.31z"/><path id="XMLID_317_" class="st3" d="M298 509.86v10.22c0 1.33-1.08 2.41-2.41 2.41s-2.41-1.08-2.41-2.41v-10.22c-5.26 1.11-9.22 5.79-9.22 11.37 0 6.41 5.22 11.63 11.63 11.63s11.63-5.22 11.63-11.63c-.01-5.58-3.96-10.26-9.22-11.37z"/><path id="XMLID_318_" class="st3" d="M442.38 338.7c0-6.41-5.22-11.63-11.63-11.63s-11.63 5.22-11.63 11.63c0 5.58 3.96 10.26 9.22 11.37V338.7c0-1.33 1.08-2.41 2.41-2.41s2.41 1.08 2.41 2.41v11.37c5.26-1.11 9.22-5.78 9.22-11.37z"/><path id="XMLID_320_" class="st3" d="M475.16 493.69v11.37c0 1.33-1.08 2.41-2.41 2.41s-2.41-1.08-2.41-2.41v-11.37c-5.26 1.11-9.22 5.79-9.22 11.37 0 6.41 5.22 11.63 11.63 11.63 6.41 0 11.63-5.22 11.63-11.63-.01-5.58-3.96-10.25-9.22-11.37z"/><path id="XMLID_321_" class="st3" d="M516.26 338.7c0 6.41 5.22 11.63 11.63 11.63 6.41 0 11.63-5.22 11.63-11.63 0-5.58-3.96-10.26-9.22-11.37v11.37c0 1.33-1.08 2.41-2.41 2.41s-2.41-1.08-2.41-2.41v-11.37c-5.27 1.11-9.22 5.79-9.22 11.37z"/><path id="XMLID_322_" class="st3" d="M361.47 371.8c0 6.41 5.22 11.63 11.63 11.63 6.41 0 11.63-5.22 11.63-11.63 0-5.58-3.96-10.26-9.22-11.37v11.37c0 1.33-1.08 2.41-2.41 2.41s-2.41-1.08-2.41-2.41v-11.37c-5.26 1.11-9.22 5.79-9.22 11.37z"/><path id="XMLID_323_" class="st3" d="M398.05 181.35c0-6.41-5.22-11.63-11.63-11.63-6.41 0-11.63 5.22-11.63 11.63 0 5.58 3.96 10.26 9.22 11.37v-11.37c0-1.33 1.08-2.41 2.41-2.41s2.41 1.08 2.41 2.41v11.37c5.27-1.11 9.22-5.79 9.22-11.37z"/><path id="XMLID_324_" class="st3" d="M525.47 50.45V39.08c0-1.33 1.08-2.41 2.41-2.41s2.41 1.08 2.41 2.41v11.37c5.26-1.11 9.22-5.79 9.22-11.37 0-6.41-5.22-11.63-11.63-11.63-6.41 0-11.63 5.22-11.63 11.63.01 5.58 3.96 10.26 9.22 11.37z"/><path id="XMLID_325_" class="st3" d="M352.28 109.05H340.9c1.11 5.26 5.79 9.22 11.37 9.22 6.41 0 11.63-5.22 11.63-11.63 0-6.41-5.22-11.63-11.63-11.63-5.58 0-10.26 3.96-11.37 9.22h11.37c1.33 0 2.41 1.08 2.41 2.41.01 1.33-1.07 2.41-2.4 2.41z"/><path id="XMLID_326_" class="st3" d="M276.28 135.55h11.37c-1.11-5.26-5.79-9.22-11.37-9.22-6.41 0-11.63 5.22-11.63 11.63 0 6.41 5.22 11.63 11.63 11.63 5.58 0 10.26-3.96 11.37-9.22h-11.37c-1.33 0-2.41-1.08-2.41-2.41s1.08-2.41 2.41-2.41z"/><path id="XMLID_327_" class="st3" d="M246.05 171.06h-11c1.57 4.57 5.9 7.87 11 7.87 6.41 0 11.63-5.22 11.63-11.63s-5.22-11.63-11.63-11.63c-6.05 0-11.03 4.65-11.58 10.56h11.58c1.33 0 2.41 1.08 2.41 2.41s-1.08 2.42-2.41 2.42z"/><path id="XMLID_346_" class="st3" d="M405.32 301.34c6.18-6.18 9.59-14.37 9.59-23.05 0-8.68-3.41-16.86-9.59-23.05-5.18-5.18-11.99-8.5-19.18-9.36-.03 0-.06-.01-.09-.02-.04-.01-.08-.01-.12-.02-.03-.01-.07-.02-.1-.03l-.12-.03c-.04-.01-.07-.03-.11-.04-.04-.01-.07-.03-.11-.04-.05-.02-.09-.04-.14-.07-.02-.01-.05-.02-.07-.03-.14-.07-.26-.16-.38-.26l-.03-.03c-.05-.04-.09-.08-.14-.13-.02-.02-.04-.04-.05-.06-.03-.04-.07-.07-.1-.11-.02-.03-.04-.05-.06-.08-.03-.03-.05-.07-.08-.1l-.06-.09c-.02-.03-.04-.07-.06-.1-.02-.03-.03-.07-.05-.1-.02-.03-.03-.07-.05-.11-.01-.03-.03-.07-.04-.1-.01-.04-.03-.07-.04-.11-.01-.03-.02-.07-.03-.1l-.03-.12c-.01-.03-.01-.07-.02-.1-.01-.04-.01-.09-.02-.13 0-.03-.01-.07-.01-.1 0-.05-.01-.09-.01-.14v-.63c-.18-15.22-12.61-27.55-27.87-27.55-1.24 0-2.46.08-3.64.24-.97.13-1.93-.34-2.42-1.19-4.52-7.91-11.05-14.56-18.89-19.21-8.07-4.79-17.33-7.32-26.76-7.32-14.04 0-27.23 5.47-37.16 15.39-9.92 9.92-15.39 23.12-15.39 37.16v.03c.05.19.07.38.07.58 0 .18-.02.35-.06.52.01.53.03 1.06.06 1.58.03.64-.19 1.27-.62 1.75s-1.04.76-1.68.79c-8.39.36-16.24 3.92-22.11 10.03-5.89 6.13-9.13 14.14-9.13 22.58 0 8.68 3.4 16.86 9.59 23.05 6.18 6.18 14.37 9.59 23.05 9.59h131.23c8.66.01 16.85-3.39 23.03-9.58zm-100.59-88.46c-7.53 0-14.61 2.93-19.92 8.25-5.32 5.32-8.25 12.39-8.25 19.92 0 1.33-1.08 2.41-2.41 2.41s-2.41-1.08-2.41-2.41c0-8.82 3.43-17.11 9.66-23.34s14.52-9.66 23.34-9.66c1.33 0 2.41 1.08 2.41 2.41-.01 1.34-1.09 2.42-2.42 2.42z"/><path id="XMLID_243_" class="st4" d="M186.03 192.98c-6.55 0-11.87 5.33-11.87 11.87 0 6.55 5.33 11.87 11.87 11.87 6.55 0 11.87-5.33 11.87-11.87 0-6.55-5.33-11.87-11.87-11.87zm-7.05 11.87c0-3.89 3.16-7.05 7.05-7.05 3.89 0 7.05 3.16 7.05 7.05 0 3.89-3.16 7.05-7.05 7.05-3.89-.01-7.05-3.17-7.05-7.05z"/><path id="XMLID_247_" class="st4" d="M232.01 338.3c-6.55 0-11.87 5.33-11.87 11.87 0 6.55 5.33 11.87 11.87 11.87 6.55 0 11.87-5.33 11.87-11.87 0-6.54-5.32-11.87-11.87-11.87zm-7.05 11.87c0-3.89 3.16-7.05 7.05-7.05 3.89 0 7.05 3.16 7.05 7.05 0 3.88-3.16 7.05-7.05 7.05-3.88 0-7.05-3.16-7.05-7.05z"/><path id="XMLID_251_" class="st4" d="M214.91 474.81c-6.55 0-11.87 5.33-11.87 11.87 0 6.55 5.33 11.87 11.87 11.87 6.55 0 11.87-5.33 11.87-11.87 0-6.55-5.33-11.87-11.87-11.87zm-7.05 11.87c0-3.88 3.16-7.05 7.05-7.05 3.89 0 7.05 3.16 7.05 7.05 0 3.89-3.16 7.05-7.05 7.05-3.89-.01-7.05-3.17-7.05-7.05z"/><path id="XMLID_255_" class="st4" d="M388.11 518.82c-6.55 0-11.87 5.33-11.87 11.87s5.33 11.87 11.87 11.87c6.55 0 11.87-5.33 11.87-11.87s-5.32-11.87-11.87-11.87zm0 18.92c-3.89 0-7.05-3.16-7.05-7.05s3.16-7.05 7.05-7.05c3.89 0 7.05 3.16 7.05 7.05s-3.16 7.05-7.05 7.05z"/><path id="XMLID_259_" class="st4" d="M560.74 484.27c-6.55 0-11.87 5.33-11.87 11.87s5.33 11.87 11.87 11.87 11.87-5.33 11.87-11.87-5.32-11.87-11.87-11.87zm0 18.91c-3.89 0-7.05-3.16-7.05-7.05s3.16-7.05 7.05-7.05 7.05 3.16 7.05 7.05-3.16 7.05-7.05 7.05z"/><path id="XMLID_263_" class="st4" d="M331.46 465.35c-6.55 0-11.87 5.33-11.87 11.87 0 6.55 5.33 11.87 11.87 11.87s11.87-5.33 11.87-11.87c0-6.55-5.33-11.87-11.87-11.87zm0 18.92c-3.89 0-7.05-3.16-7.05-7.05 0-3.89 3.16-7.05 7.05-7.05s7.05 3.16 7.05 7.05c-.01 3.89-3.17 7.05-7.05 7.05z"/><path id="XMLID_267_" class="st4" d="M134.45 490.44c-6.55 0-11.87 5.33-11.87 11.87 0 6.55 5.33 11.87 11.87 11.87 6.55 0 11.87-5.33 11.87-11.87 0-6.54-5.32-11.87-11.87-11.87zm0 18.92c-3.89 0-7.05-3.16-7.05-7.05 0-3.89 3.16-7.05 7.05-7.05 3.89 0 7.05 3.16 7.05 7.05 0 3.89-3.17 7.05-7.05 7.05z"/><path id="XMLID_271_" class="st4" d="M441.08 237.63c6.55 0 11.87-5.33 11.87-11.87 0-6.55-5.33-11.87-11.87-11.87-6.55 0-11.87 5.33-11.87 11.87-.01 6.54 5.32 11.87 11.87 11.87zm7.04-11.88c0 3.89-3.16 7.05-7.05 7.05s-7.05-3.16-7.05-7.05c0-3.89 3.16-7.05 7.05-7.05s7.05 3.17 7.05 7.05z"/><path id="XMLID_275_" class="st4" d="M178.5 273.96c6.55 0 11.87-5.33 11.87-11.87 0-6.55-5.33-11.87-11.87-11.87-6.55 0-11.87 5.33-11.87 11.87 0 6.55 5.33 11.87 11.87 11.87zm0-18.92c3.89 0 7.05 3.16 7.05 7.05 0 3.89-3.16 7.05-7.05 7.05-3.89 0-7.05-3.16-7.05-7.05.01-3.89 3.17-7.05 7.05-7.05z"/><path id="XMLID_279_" class="st4" d="M143.91 301.47c-6.55 0-11.87 5.33-11.87 11.87 0 6.55 5.33 11.87 11.87 11.87 6.55 0 11.87-5.33 11.87-11.87 0-6.54-5.33-11.87-11.87-11.87zm0 18.92c-3.89 0-7.05-3.16-7.05-7.05 0-3.89 3.16-7.05 7.05-7.05 3.89 0 7.05 3.16 7.05 7.05-.01 3.89-3.17 7.05-7.05 7.05z"/><path id="XMLID_283_" class="st4" d="M37.75 326.83c-6.55 0-11.87 5.33-11.87 11.87 0 6.55 5.33 11.87 11.87 11.87 6.55 0 11.87-5.33 11.87-11.87 0-6.54-5.32-11.87-11.87-11.87zm-7.04 11.87c0-3.89 3.16-7.05 7.05-7.05 3.89 0 7.05 3.16 7.05 7.05 0 3.88-3.16 7.05-7.05 7.05-3.89 0-7.05-3.16-7.05-7.05z"/><path id="XMLID_287_" class="st4" d="M416.71 116.53c6.55 0 11.87-5.33 11.87-11.87 0-6.55-5.33-11.87-11.87-11.87-6.55 0-11.87 5.33-11.87 11.87 0 6.55 5.32 11.87 11.87 11.87zm7.05-11.87c0 3.89-3.16 7.05-7.05 7.05-3.89 0-7.05-3.16-7.05-7.05 0-3.89 3.16-7.05 7.05-7.05 3.89.01 7.05 3.17 7.05 7.05z"/><path id="XMLID_291_" class="st4" d="M470.92 64.99c6.55 0 11.87-5.33 11.87-11.87 0-6.55-5.33-11.87-11.87-11.87-6.55 0-11.87 5.33-11.87 11.87-.01 6.55 5.32 11.87 11.87 11.87zm7.04-11.87c0 3.89-3.16 7.05-7.05 7.05-3.89 0-7.05-3.16-7.05-7.05 0-3.89 3.16-7.05 7.05-7.05 3.89 0 7.05 3.16 7.05 7.05z"/><path id="XMLID_295_" class="st4" d="M182.36 30.72c6.55 0 11.87-5.33 11.87-11.87 0-6.55-5.33-11.87-11.87-11.87-6.55 0-11.87 5.33-11.87 11.87 0 6.55 5.32 11.87 11.87 11.87zm0-18.92c3.89 0 7.05 3.16 7.05 7.05 0 3.89-3.16 7.05-7.05 7.05-3.89 0-7.05-3.16-7.05-7.05 0-3.88 3.16-7.05 7.05-7.05z"/><path id="XMLID_299_" class="st4" d="M416.71 30.72c6.55 0 11.87-5.33 11.87-11.87 0-6.55-5.33-11.87-11.87-11.87-6.55 0-11.87 5.33-11.87 11.87 0 6.55 5.32 11.87 11.87 11.87zm7.05-11.87c0 3.89-3.16 7.05-7.05 7.05-3.89 0-7.05-3.16-7.05-7.05 0-3.89 3.16-7.05 7.05-7.05 3.89 0 7.05 3.17 7.05 7.05z"/><path id="XMLID_303_" class="st4" d="M331.46 174.6c6.55 0 11.87-5.33 11.87-11.87 0-6.55-5.33-11.87-11.87-11.87s-11.87 5.33-11.87 11.87c-.01 6.54 5.32 11.87 11.87 11.87zm7.04-11.87c0 3.89-3.16 7.05-7.05 7.05s-7.05-3.16-7.05-7.05c0-3.89 3.16-7.05 7.05-7.05s7.05 3.16 7.05 7.05z"/><path id="XMLID_307_" class="st4" d="M556.59 260.61c-6.55 0-11.87 5.33-11.87 11.87 0 6.55 5.33 11.87 11.87 11.87 6.55 0 11.87-5.33 11.87-11.87 0-6.55-5.32-11.87-11.87-11.87zm0 18.91c-3.89 0-7.05-3.16-7.05-7.05s3.16-7.05 7.05-7.05c3.88 0 7.05 3.16 7.05 7.05s-3.16 7.05-7.05 7.05z"/><path id="XMLID_311_" class="st4" d="M551.28 373.97c-6.55 0-11.87 5.33-11.87 11.87 0 6.55 5.33 11.87 11.87 11.87s11.87-5.33 11.87-11.87c0-6.55-5.32-11.87-11.87-11.87zm0 18.92c-3.89 0-7.05-3.16-7.05-7.05 0-3.89 3.16-7.05 7.05-7.05s7.05 3.16 7.05 7.05c0 3.89-3.16 7.05-7.05 7.05z"/><path id="XMLID_331_" class="st4" d="M496.45 113.34c-1.33 0-2.41 1.08-2.41 2.41s1.08 2.41 2.41 2.41c10.1 0 18.31 8.22 18.31 18.31 0 1.33 1.08 2.41 2.41 2.41s2.41-1.08 2.41-2.41c.01-12.75-10.37-23.13-23.13-23.13z"/><path id="XMLID_335_" class="st4" d="M151.44 80.01c13.59 0 24.65 11.06 24.65 24.65 0 1.33 1.08 2.41 2.41 2.41s2.41-1.08 2.41-2.41c0-7.88-3.06-15.28-8.63-20.85-5.56-5.56-12.97-8.63-20.85-8.63-1.33 0-2.41 1.08-2.41 2.41.01 1.34 1.09 2.42 2.42 2.42z"/><path id="XMLID_339_" class="st4" d="M472.75 383.76c-1.33 0-2.41 1.08-2.41 2.41s1.08 2.41 2.41 2.41c13.59 0 24.65 11.06 24.65 24.65 0 1.33 1.08 2.41 2.41 2.41s2.41-1.08 2.41-2.41c0-7.88-3.06-15.28-8.63-20.85-5.56-5.56-12.96-8.62-20.84-8.62z"/><path id="XMLID_343_" class="st4" d="M80.42 361.56c1.33 0 2.41-1.08 2.41-2.41 0-8.57 6.97-15.54 15.54-15.54 1.33 0 2.41-1.08 2.41-2.41s-1.08-2.41-2.41-2.41c-11.23 0-20.36 9.13-20.36 20.36-.01 1.33 1.07 2.41 2.41 2.41z"/><path id="XMLID_347_" class="st4" d="M304.73 208.05c-8.82 0-17.11 3.43-23.34 9.66s-9.66 14.52-9.66 23.34c0 1.33 1.08 2.41 2.41 2.41s2.41-1.08 2.41-2.41c0-7.53 2.93-14.61 8.25-19.92 5.32-5.32 12.39-8.25 19.92-8.25 1.33 0 2.41-1.08 2.41-2.41.01-1.34-1.07-2.42-2.4-2.42z"/><path id="XMLID_350_" class="st4" d="M558.43 156.29c-1-4.73-3.31-9.11-6.75-12.68-4.15-4.32-9.54-7.05-15.37-7.83-.05-7.59-2.25-14.68-6.01-20.69V55.35c7.93-1.17 14.04-8.02 14.04-16.27 0-9.07-7.38-16.45-16.45-16.45s-16.45 7.38-16.45 16.45c0 8.25 6.11 15.1 14.04 16.27v53.5c-7.24-7.66-17.48-12.45-28.82-12.45-2.03 0-4.05.16-6.04.46-1.43-12.19-11.82-21.68-24.39-21.68H193.78c-1.75-2.54-3.74-4.93-5.97-7.16-9.64-9.64-22.46-14.95-36.1-14.95-9.17 0-18.16 2.46-26.01 7.11-7.16 4.25-13.2 10.2-17.54 17.29-.73-.06-1.47-.08-2.22-.08-1.76 0-3.49.16-5.16.46V49.17c7.93-1.17 14.04-8.02 14.04-16.27 0-9.07-7.38-16.45-16.45-16.45S81.92 23.83 81.92 32.9c0 8.25 6.11 15.1 14.04 16.27v29.99c-10.65 3.89-18.42 13.8-19.17 25.59-6.6 1.22-12.78 4.47-17.58 9.27-1.94 1.94-3.61 4.07-4.99 6.35v-15.42c7.93-1.17 14.04-8.02 14.04-16.27 0-9.07-7.38-16.45-16.45-16.45S35.34 79.6 35.34 88.67c0 8.25 6.11 15.1 14.04 16.27v30.27h-3.1c-20.39 0-36.98 16.59-36.98 36.98v172.96c0 19.59 15.31 35.67 34.59 36.9.26 5.72 2.62 11.08 6.72 15.18 3.78 3.78 8.61 6.08 13.82 6.62v34.42c-7.93 1.17-14.04 8.02-14.04 16.27 0 9.07 7.38 16.45 16.45 16.45s16.45-7.38 16.45-16.45c0-8.25-6.11-15.1-14.04-16.27v-34.29h33.69v7.98c0 19.08 15.52 34.6 34.6 34.6h92.42c19.08 0 34.6-15.52 34.6-34.6v-96.22h28.59v189.2c-7.93 1.17-14.04 8.02-14.04 16.27 0 9.07 7.38 16.45 16.45 16.45s16.45-7.38 16.45-16.45c0-8.25-6.11-15.1-14.04-16.27v-189.2h31.04v96.51c0 19.99 16.26 36.25 36.25 36.25h5.48c.55 8.03 3.96 15.51 9.74 21.29 6.33 6.33 14.72 9.82 23.62 9.82h66.21v9.16c-7.93 1.17-14.04 8.02-14.04 16.27 0 9.07 7.38 16.45 16.45 16.45s16.45-7.38 16.45-16.45c0-8.25-6.11-15.1-14.04-16.27v-9.16h45.11c8.9 0 17.28-3.49 23.62-9.82 5.75-5.76 9.16-13.21 9.73-21.2h2.98c18.81 0 34.11-15.3 34.11-34.11V190.35c.02-18.19-14.29-33.1-32.25-34.06zM527.88 27.45c6.41 0 11.63 5.22 11.63 11.63 0 5.58-3.96 10.26-9.22 11.37V39.08c0-1.33-1.08-2.41-2.41-2.41s-2.41 1.08-2.41 2.41v11.37c-5.26-1.11-9.22-5.79-9.22-11.37.01-6.41 5.22-11.63 11.63-11.63zm-417.89 5.44c0 5.58-3.96 10.26-9.22 11.37V32.89c0-1.33-1.08-2.41-2.41-2.41s-2.41 1.08-2.41 2.41v11.37c-5.26-1.11-9.22-5.79-9.22-11.37 0-6.41 5.22-11.63 11.63-11.63 6.42 0 11.63 5.22 11.63 11.63zm185.6 499.97c-6.41 0-11.63-5.22-11.63-11.63 0-5.58 3.96-10.26 9.22-11.37v10.22c0 1.33 1.08 2.41 2.41 2.41s2.41-1.08 2.41-2.41v-10.22c5.26 1.11 9.22 5.79 9.22 11.37-.01 6.41-5.22 11.63-11.63 11.63zm177.16-16.16c-6.41 0-11.63-5.22-11.63-11.63 0-5.58 3.96-10.26 9.22-11.37v11.37c0 1.33 1.08 2.41 2.41 2.41s2.41-1.08 2.41-2.41V493.7c5.26 1.11 9.22 5.79 9.22 11.37-.01 6.41-5.22 11.63-11.63 11.63zm55.13-175.59c1.33 0 2.41-1.08 2.41-2.41v-11.37c5.26 1.11 9.22 5.79 9.22 11.37 0 6.41-5.22 11.63-11.63 11.63-6.41 0-11.63-5.22-11.63-11.63 0-5.58 3.96-10.26 9.22-11.37v11.37c0 1.33 1.08 2.41 2.41 2.41zm3.61-205.04c0 .6-.02 1.21-.05 1.8-.03.64.19 1.27.62 1.75s1.04.76 1.68.79c5.48.23 10.62 2.56 14.46 6.56 3.85 4.01 5.97 9.25 5.97 14.76 0 5.67-2.23 11.03-6.27 15.07-4.04 4.04-9.4 6.27-15.07 6.27h-88.94c-11.77 0-21.34-9.58-21.34-21.34 0-5.67 2.23-11.02 6.27-15.07 3.39-3.39 7.84-5.56 12.54-6.12 1.26-.15 2.19-1.24 2.12-2.51v-.06c0-9.99 8.13-18.11 18.11-18.11.81 0 1.6.05 2.36.15.97.13 1.93-.34 2.42-1.19 3-5.25 7.33-9.65 12.53-12.73 5.35-3.17 11.49-4.85 17.74-4.85 19.22-.01 34.85 15.62 34.85 34.83zm-65.27-56.06c10.26 0 18.71 7.87 19.64 17.88-3.29.93-6.46 2.28-9.42 4.03-5.46 3.24-10.09 7.76-13.45 13.14-.46-.03-.93-.04-1.4-.04-11.83 0-21.6 9.01-22.81 20.53H292.55c-1.17-7.93-8.02-14.04-16.27-14.04-9.07 0-16.45 7.38-16.45 16.45s7.38 16.45 16.45 16.45c8.25 0 15.1-6.11 16.27-14.04H428.8c-1.21.85-2.35 1.81-3.4 2.86-4.96 4.96-7.69 11.52-7.69 18.48 0 14.43 11.74 26.17 26.17 26.17h42.06v53.38c0 15.88-12.92 28.8-28.8 28.8h-38.32c-1.54-6.84-4.99-13.13-10.09-18.23-5.43-5.43-12.42-9.08-19.9-10.42v-43.79c7.93-1.17 14.04-8.02 14.04-16.27 0-9.07-7.38-16.45-16.45-16.45s-16.45 7.38-16.45 16.45c0 8.25 6.11 15.1 14.04 16.27v28.53c-5.76-9.36-16.1-15.61-27.87-15.61-.9 0-1.79.04-2.67.11-4.89-8.04-11.71-14.79-19.81-19.59-8.82-5.23-18.92-7.99-29.23-7.99-15.33 0-29.73 5.97-40.57 16.8-10.41 10.41-16.32 24.11-16.77 38.76h-72.43c-17.29 0-31.36-14.07-31.36-31.36v-36.21h86.74c1.7 7.27 8.24 12.7 16.02 12.7 9.07 0 16.45-7.38 16.45-16.45s-7.38-16.45-16.45-16.45c-8.71 0-15.86 6.81-16.41 15.38h-13.41c2.28-1.39 4.41-3.06 6.35-5 6.33-6.33 9.82-14.72 9.82-23.61 0-8.65-3.32-16.86-9.35-23.14-2.04-2.12-4.32-3.95-6.77-5.44H336c1.17 7.93 8.02 14.04 16.27 14.04 9.07 0 16.45-7.38 16.45-16.45s-7.38-16.45-16.45-16.45c-8.25 0-15.1 6.11-16.27 14.04H202.76v-.1c0-8.55-2.09-16.79-6.03-24.12h269.49zm-189.94 60.37h11.37c-1.11 5.26-5.79 9.22-11.37 9.22-6.41 0-11.63-5.22-11.63-11.63 0-6.41 5.22-11.63 11.63-11.63 5.58 0 10.26 3.96 11.37 9.22h-11.37c-1.33 0-2.41 1.08-2.41 2.41s1.08 2.41 2.41 2.41zm96.82 233.83c1.33 0 2.41-1.08 2.41-2.41v-11.37c5.26 1.11 9.22 5.79 9.22 11.37 0 6.41-5.22 11.63-11.63 11.63-6.41 0-11.63-5.22-11.63-11.63 0-5.58 3.96-10.26 9.22-11.37v11.37c0 1.33 1.08 2.41 2.41 2.41zm13.33-195.27c-1.33 0-2.41 1.08-2.41 2.41v11.37c-5.26-1.11-9.22-5.79-9.22-11.37 0-6.41 5.22-11.63 11.63-11.63 6.41 0 11.63 5.22 11.63 11.63 0 5.58-3.96 10.26-9.22 11.37v-11.37c0-1.33-1.08-2.41-2.41-2.41zM251.04 310.93c-8.68 0-16.86-3.41-23.05-9.59-6.18-6.19-9.59-14.37-9.59-23.05 0-8.44 3.24-16.45 9.13-22.58 5.87-6.11 13.73-9.67 22.11-10.03.64-.03 1.25-.31 1.68-.79.43-.48.66-1.11.62-1.75-.03-.52-.04-1.05-.06-1.58.04-.17.06-.34.06-.52 0-.2-.03-.39-.07-.58v-.03c0-14.04 5.47-27.23 15.39-37.16 9.92-9.92 23.12-15.39 37.16-15.39 9.44 0 18.69 2.53 26.76 7.32 7.84 4.65 14.37 11.29 18.89 19.21.49.85 1.45 1.33 2.42 1.19 1.17-.16 2.4-.24 3.64-.24 15.26 0 27.69 12.33 27.87 27.55v.63c0 .05 0 .09.01.14 0 .03.01.07.01.1.01.04.01.09.02.13.01.03.01.07.02.1l.03.12c.01.03.02.07.03.1.01.04.03.08.04.11.01.03.03.07.04.1.02.04.03.07.05.11.02.03.03.07.05.1.02.03.04.07.06.1l.06.09c.02.03.05.07.08.1.02.03.04.05.06.08.03.04.06.07.1.11.02.02.04.04.05.06.04.04.09.08.14.13l.03.03c.12.1.24.18.38.26.02.01.05.02.07.03.05.02.09.05.14.07.03.01.07.03.11.04.04.01.07.03.11.04l.12.03c.03.01.07.02.1.03.04.01.08.01.12.02.03.01.06.01.09.02 7.19.86 14.01 4.18 19.18 9.36 6.18 6.18 9.59 14.37 9.59 23.05 0 8.68-3.41 16.87-9.59 23.05s-14.37 9.59-23.05 9.59H251.04zM98.36 243.46c1.33 0 2.41-1.08 2.41-2.41v-11.37c5.26 1.11 9.22 5.79 9.22 11.37 0 6.41-5.22 11.63-11.63 11.63-6.41 0-11.63-5.22-11.63-11.63 0-5.58 3.96-10.26 9.22-11.37v11.37c0 1.33 1.08 2.41 2.41 2.41zm-46.57-12.07c1.33 0 2.41-1.08 2.41-2.41V217.6c5.26 1.11 9.22 5.79 9.22 11.37 0 6.41-5.22 11.63-11.63 11.63-6.41 0-11.63-5.22-11.63-11.63 0-5.58 3.96-10.26 9.22-11.37v11.37c0 1.34 1.08 2.42 2.41 2.42zm27.64-122.17c1.26-.15 2.19-1.25 2.12-2.52v-.1c0-13.45 10.94-24.39 24.39-24.39 1.09 0 2.16.07 3.18.21.98.13 1.93-.34 2.42-1.19 3.98-6.96 9.72-12.8 16.62-16.9 7.1-4.21 15.24-6.44 23.55-6.44 12.35 0 23.96 4.81 32.69 13.54 2.26 2.26 4.25 4.71 5.97 7.32.05.1.11.19.18.28 4.81 7.41 7.39 16.05 7.39 25.09 0 .8-.02 1.6-.06 2.38v.18c0 .04 0 .08.01.12 0 .04.01.08.01.12 0 .04.01.07.02.11.01.04.02.09.03.13.01.03.02.06.02.09.01.05.03.09.04.14l.03.09c.02.04.04.09.05.13.01.03.03.06.04.08.02.04.04.08.07.12.02.03.03.06.05.09.02.04.05.07.07.11l.06.09c.03.03.05.07.08.1.01.01.02.03.04.04l.04.04.09.09.08.08c.03.03.06.05.1.08l.09.06c.04.03.07.05.11.07.03.02.06.04.09.05l.12.06c.03.01.06.03.08.04.04.02.09.04.13.05l.09.03c.04.02.09.03.14.04.03.01.06.02.1.02.04.01.09.02.13.03.04.01.07.01.11.02.04.01.08.01.12.01.02 0 .05.01.07.01 7.35.31 14.23 3.43 19.38 8.79 5.16 5.37 8 12.4 8 19.79 0 7.61-2.98 14.78-8.4 20.2s-12.6 8.41-20.2 8.41H82.82c-7.61 0-14.78-2.99-20.2-8.41s-8.41-12.6-8.41-20.2 2.99-14.78 8.41-20.2c4.53-4.51 10.5-7.42 16.81-8.18zm166.62 57.02h-11.58c.54-5.91 5.53-10.56 11.58-10.56 6.41 0 11.63 5.22 11.63 11.63s-5.22 11.63-11.63 11.63c-5.1 0-9.44-3.3-11-7.87h11c1.33 0 2.41-1.08 2.41-2.41s-1.08-2.42-2.41-2.42zm106.23-62.02H340.9c1.11-5.26 5.79-9.22 11.37-9.22 6.41 0 11.63 5.22 11.63 11.63 0 6.41-5.22 11.63-11.63 11.63-5.58 0-10.26-3.96-11.37-9.22h11.37c1.33 0 2.41-1.08 2.41-2.41.01-1.33-1.07-2.41-2.4-2.41zM51.79 77.04c6.41 0 11.63 5.22 11.63 11.63 0 5.58-3.96 10.26-9.22 11.37V88.67c0-1.33-1.08-2.41-2.41-2.41s-2.41 1.08-2.41 2.41v11.37c-5.26-1.11-9.22-5.79-9.22-11.37 0-6.41 5.22-11.63 11.63-11.63zm16.59 283.29c-.03-.51-.04-1.02-.04-1.54 0-16.46 13.39-29.84 29.84-29.84 10.69 0 20.63 5.77 25.93 15.06.49.85 1.44 1.33 2.42 1.19.65-.09 1.32-.13 2-.13 8.47 0 15.36 6.89 15.36 15.36v.04c-.06 1.26.87 2.35 2.12 2.5 4 .48 7.79 2.33 10.67 5.21 3.44 3.44 5.34 7.99 5.34 12.82 0 10.01-8.15 18.16-18.16 18.16H66.85c-4.83 0-9.38-1.9-12.82-5.34-3.44-3.44-5.34-8-5.34-12.82 0-4.69 1.8-9.15 5.08-12.56 3.27-3.4 7.64-5.38 12.3-5.58.64-.03 1.25-.31 1.68-.79.44-.47.67-1.1.63-1.74zm-13.16 94.23c0-5.58 3.96-10.26 9.22-11.37v11.37c0 1.33 1.08 2.41 2.41 2.41s2.41-1.08 2.41-2.41v-11.37c5.26 1.11 9.22 5.79 9.22 11.37 0 6.41-5.22 11.63-11.63 11.63-6.41-.01-11.63-5.22-11.63-11.63zm204.54-42.58c0 16.42-13.36 29.78-29.78 29.78h-92.42c-16.42 0-29.78-13.36-29.78-29.78V404h91.94c1.17 7.93 8.02 14.04 16.27 14.04 9.07 0 16.45-7.38 16.45-16.45s-7.38-16.45-16.45-16.45c-8.25 0-15.1 6.11-16.27 14.04h-41.77c5.42-4.21 8.91-10.78 8.91-18.16 0-6.11-2.4-11.88-6.75-16.23-3.15-3.15-7.17-5.33-11.47-6.25-.51-5.37-3.13-10.13-7.02-13.45h25.87c1.17 7.93 8.02 14.04 16.27 14.04 9.07 0 16.45-7.38 16.45-16.45s-7.38-16.45-16.45-16.45c-8.25 0-15.1 6.11-16.27 14.04h-38.95c-.35 0-.69.01-1.04.03-6.33-10-17.42-16.15-29.31-16.15-18.94 0-34.38 15.27-34.66 34.14-5.02.73-9.65 3.11-13.23 6.84-3.26 3.39-5.37 7.61-6.12 12.14-16.75-1.09-30.05-15.06-30.05-32.09V172.2c0-17.73 14.43-32.16 32.16-32.16h3.19c.03.39.06.78.11 1.16-.12.29-.19.61-.19.94v70.56c-7.93 1.17-14.04 8.02-14.04 16.27 0 9.07 7.38 16.45 16.45 16.45s16.45-7.38 16.45-16.45c0-8.25-6.11-15.1-14.04-16.27v-57.8c1.39 2.28 3.06 4.41 4.99 6.35 6.33 6.33 14.72 9.82 23.62 9.82h13.14v53.71c-7.93 1.17-14.04 8.02-14.04 16.27 0 9.07 7.38 16.45 16.45 16.45s16.45-7.38 16.45-16.45c0-8.25-6.11-15.1-14.04-16.27v-53.71h37.7v36.21c0 19.95 16.23 36.19 36.19 36.19h62.62c-4.93 1.96-9.44 4.97-13.22 8.91-6.76 7.03-10.48 16.24-10.48 25.92 0 1.63.11 3.24.31 4.84H88.1c-1.17-7.93-8.02-14.04-16.27-14.04-9.07 0-16.45 7.38-16.45 16.45S62.76 302 71.83 302c8.25 0 15.1-6.11 16.27-14.04h126.74c1.68 6.28 4.99 12.06 9.74 16.8 7.1 7.1 16.49 11 26.46 11h8.72v96.22zm-43.77-12.81h-11.37c1.11-5.26 5.79-9.22 11.37-9.22 6.41 0 11.63 5.22 11.63 11.63 0 6.41-5.22 11.63-11.63 11.63-5.58 0-10.26-3.96-11.37-9.22h11.37c1.33 0 2.41-1.08 2.41-2.41s-1.08-2.41-2.41-2.41zm-32.22-58.92H172.4c1.11-5.26 5.79-9.22 11.37-9.22 6.41 0 11.63 5.22 11.63 11.63 0 6.41-5.22 11.63-11.63 11.63-5.58 0-10.26-3.96-11.37-9.22h11.37c1.33 0 2.41-1.08 2.41-2.41s-1.08-2.41-2.41-2.41zm-111.94-52.3H83.2c-1.11 5.26-5.79 9.22-11.37 9.22-6.41 0-11.63-5.22-11.63-11.63 0-6.41 5.22-11.63 11.63-11.63 5.58 0 10.26 3.96 11.37 9.22H71.83c-1.33 0-2.41 1.08-2.41 2.41-.01 1.33 1.07 2.41 2.41 2.41zm358.92 48.34c-1.33 0-2.41 1.08-2.41 2.41v11.37c-5.26-1.11-9.22-5.79-9.22-11.37 0-6.41 5.22-11.63 11.63-11.63s11.63 5.22 11.63 11.63c0 5.58-3.96 10.26-9.22 11.37V338.7c0-1.33-1.08-2.41-2.41-2.41zm42.26-25.36c-1.33 0-2.41 1.08-2.41 2.41v11.43c-5.39-1.01-9.48-5.75-9.48-11.43 0-6.41 5.22-11.63 11.63-11.63 6.41 0 11.63 5.22 11.63 11.63 0 5.49-3.83 10.1-8.95 11.31v-11.31c-.01-1.33-1.09-2.41-2.42-2.41zm47.25 163.88H404.12c-7.61 0-14.78-2.99-20.2-8.41s-8.41-12.6-8.41-20.2 2.99-14.78 8.41-20.2c4.54-4.54 10.51-7.45 16.81-8.2 1.26-.15 2.19-1.25 2.12-2.51v-.1c0-13.45 10.94-24.39 24.39-24.39 1.09 0 2.16.07 3.18.21h.04c.03 0 .05.01.08.01.05 0 .11.01.16.01h.07c.07 0 .14 0 .21-.01.03 0 .05-.01.07-.01.04-.01.09-.01.13-.02.03-.01.07-.01.1-.02.04-.01.07-.02.11-.03.03-.01.07-.02.1-.03.06-.02.11-.04.17-.06.03-.01.06-.03.1-.04.03-.01.06-.03.09-.05.03-.02.06-.03.09-.05.04-.02.07-.04.11-.06.02-.01.05-.03.07-.04.06-.04.11-.08.16-.12.01-.01.03-.02.04-.04.04-.03.08-.07.12-.11l.05-.05c.04-.04.07-.08.1-.11.01-.02.03-.03.04-.05.04-.05.09-.11.13-.17.01-.01.01-.02.02-.02.03-.04.06-.09.08-.13 3.98-6.96 9.72-12.8 16.62-16.9 7.1-4.21 15.24-6.44 23.55-6.44 12.35 0 23.96 4.81 32.69 13.54 8.73 8.73 13.54 20.34 13.54 32.69 0 .8-.02 1.6-.06 2.39-.03.64.19 1.27.63 1.75.43.48 1.04.76 1.68.79 7.35.31 14.23 3.43 19.38 8.79 5.16 5.37 8 12.4 8 19.79 0 7.61-2.98 14.78-8.4 20.2-5.44 5.41-12.62 8.4-20.23 8.4zm65.61-60.31c0 16.15-13.14 29.28-29.28 29.28h-2.98c-.56-7.75-3.8-15.04-9.26-20.72-5.45-5.67-12.58-9.2-20.28-10.08v-.29c0-13.64-5.31-26.46-14.95-36.1-9.07-9.07-20.96-14.31-33.69-14.9v-32.12c7.8-1.28 13.77-8.07 13.77-16.23 0-9.07-7.38-16.45-16.45-16.45s-16.45 7.38-16.45 16.45c0 8.34 6.25 15.25 14.31 16.31v32.05c-8.33.39-16.44 2.81-23.59 7.05-5.31 3.15-10 7.24-13.84 12.03v-25.81c7.93-1.17 14.04-8.02 14.04-16.27 0-9.07-7.38-16.45-16.45-16.45s-16.45 7.38-16.45 16.45c0 8.25 6.11 15.1 14.04 16.27v31.01c-.36-.01-.73-.02-1.09-.02-15.49 0-28.2 12.11-29.16 27.36-6.6 1.22-12.78 4.47-17.58 9.27-5.74 5.74-9.14 13.15-9.73 21.11h-5.49c-17.33 0-31.42-14.1-31.42-31.42v-96.51h36.82v39.77c-7.93 1.17-14.04 8.02-14.04 16.27 0 9.07 7.38 16.45 16.45 16.45s16.45-7.38 16.45-16.45c0-8.25-6.11-15.1-14.04-16.27v-39.77h6.76c9.97 0 19.37-3.91 26.46-11 7.1-7.1 11-16.49 11-26.46 0-1.14-.05-2.28-.16-3.4h37.57c18.54 0 33.62-15.08 33.62-33.62v-53.38h34.7v134.53c-7.93 1.17-14.04 8.02-14.04 16.27 0 9.07 7.38 16.45 16.45 16.45s16.45-7.38 16.45-16.45c0-8.25-6.11-15.1-14.04-16.27V187.89h2.54c6.96 0 13.53-2.73 18.48-7.69 4.95-4.96 7.68-11.52 7.68-18.48 0-.19 0-.37-.01-.56 15.03 1.23 26.88 13.85 26.88 29.18V414.5z"/></svg>