<svg id="Layer_4" xmlns="http://www.w3.org/2000/svg" viewBox="0 0 600 550"><style>.st0{fill:#bff8e6}.st1{fill:#fff}.st2{fill:#f0f2f4}.st3{fill:#d387ff}.st5{fill:#464853}</style><path id="XMLID_583_" class="st0" d="M226.61 427.82l-.1 28.72c0 1.42-1.16 2.57-2.57 2.57h-20.07l41.54 57.85 41.54-57.85h-19.47c-.68 0-1.34-.27-1.82-.76-.48-.48-.75-1.14-.75-1.83l.1-28.7h-38.4z"/><path id="XMLID_586_" class="st1" d="M364.61 118.55c.07.07.13.14.2.21 5.15 3.15 9.52 7.47 12.73 12.57.42-.02.84-.03 1.26-.03 11.84 0 21.6 9.11 22.63 20.69 4.9 1.02 9.46 3.49 13.04 7.06 4.9 4.9 7.6 11.4 7.6 18.28 0 8.42-4.04 15.91-10.29 20.65h55.36c7.73 0 15.03-3.04 20.54-8.55 5.51-5.51 8.54-12.81 8.54-20.54 0-7.52-2.89-14.66-8.14-20.12-5.23-5.44-12.23-8.62-19.7-8.93-.69-.03-1.33-.33-1.79-.84-.46-.51-.7-1.18-.67-1.87.04-.8.06-1.62.06-2.43 0-12.57-4.9-24.39-13.78-33.28s-20.71-13.78-33.28-13.78c-8.45 0-16.74 2.27-23.97 6.55-7.02 4.17-12.87 10.11-16.92 17.2-.52.91-1.54 1.42-2.58 1.27-1.04-.14-2.13-.21-3.23-.21-4.12 0-8 1.01-11.42 2.79 1.34 1.01 2.62 2.11 3.81 3.31zm54.05-13.51c8.07 0 15.66 3.14 21.36 8.84 5.7 5.7 8.84 13.28 8.84 21.36 0 1.42-1.15 2.57-2.57 2.57s-2.57-1.15-2.57-2.57c0-13.81-11.24-25.05-25.05-25.05-1.42 0-2.57-1.15-2.57-2.57-.01-1.42 1.14-2.58 2.56-2.58z"/><path id="XMLID_588_" class="st2" d="M396.19 198.06c11.44 0 20.74-9.3 20.74-20.74 0-5.51-2.16-10.71-6.1-14.64-3.29-3.29-7.62-5.4-12.19-5.95-1.34-.16-2.33-1.33-2.27-2.67v-.05c0-9.69-7.88-17.57-17.57-17.57-.78 0-1.55.05-2.29.15-.88.12-1.75-.23-2.31-.89.62 2.65.94 5.4.94 8.19 0 9.55-3.74 18.55-10.54 25.34-6.8 6.8-15.8 10.54-25.34 10.54H288.3c.54 4.59 2.61 8.86 5.95 12.2 3.93 3.93 9.13 6.09 14.65 6.09h87.29z"/><path id="XMLID_589_" class="st1" d="M219.7 88.25c1.81 2.02 3.44 4.2 4.88 6.51.59-.04 1.19-.06 1.8-.06 3.49 0 6.83.67 9.89 1.89 1.57-3.87 3.91-7.43 6.96-10.47 5.97-5.97 13.92-9.26 22.37-9.26 1.42 0 2.57 1.15 2.57 2.57S267.02 82 265.6 82c-11.25 0-20.88 7.05-24.71 16.96 6.86 4.44 11.58 11.92 12.23 20.52 5.93 1.16 11.48 4.11 15.8 8.43 5.8 5.8 8.99 13.48 8.99 21.63 0 10.35-5.16 19.52-13.05 25.06h74.41c8.17 0 15.88-3.21 21.7-9.03 5.82-5.82 9.03-13.53 9.03-21.7s-3.21-15.87-9.03-21.7c-4.87-4.87-11.29-8-18.06-8.81-1.35-.16-2.34-1.34-2.27-2.69v-.1c0-14.45-11.75-26.2-26.2-26.2-1.17 0-2.32.08-3.42.22-1.04.14-2.06-.36-2.58-1.27-4.27-7.48-10.44-13.75-17.85-18.15-7.62-4.52-16.37-6.91-25.29-6.91-13.26 0-25.73 5.16-35.11 14.54-4.5 4.53-8.03 9.76-10.49 15.45z"/><path id="XMLID_592_" class="st0" d="M124.29 167.54c4.83 4.83 11.22 7.49 17.99 7.49h105.01c6.77 0 13.16-2.66 17.99-7.49s7.49-11.22 7.49-17.99c0-6.77-2.66-13.16-7.49-17.99-4.04-4.04-9.36-6.63-14.97-7.31-1.34-.16-2.33-1.34-2.27-2.69v-.07c0-11.94-9.72-21.66-21.66-21.66-.96 0-1.91.06-2.82.19-1.04.14-2.06-.36-2.58-1.27-3.56-6.24-8.71-11.47-14.89-15.13-6.36-3.77-13.65-5.76-21.09-5.76-22.83 0-41.4 18.57-41.4 41.4 0 .71.02 1.43.06 2.14.04.69-.2 1.36-.67 1.87-.46.51-1.11.81-1.79.84-6.55.28-12.67 3.06-17.26 7.83-4.6 4.78-7.13 11.04-7.13 17.62 0 6.77 2.65 13.15 7.48 17.98zm60.95-74.83c1.42 0 2.57 1.15 2.57 2.57s-1.15 2.57-2.57 2.57c-12.07 0-21.9 9.82-21.9 21.9 0 1.42-1.15 2.57-2.57 2.57s-2.57-1.15-2.57-2.57c-.01-14.91 12.13-27.04 27.04-27.04z"/><path id="XMLID_596_" class="st0" d="M138.89 413.1c4.56 0 8.27-3.85 8.27-8.58s-3.71-8.58-8.27-8.58-8.27 3.85-8.27 8.58c.01 4.74 3.72 8.58 8.27 8.58zm-7.66-9.33c0-3.75 3-6.81 6.69-6.81 1.42 0 2.57 1.15 2.57 2.57s-1.15 2.57-2.57 2.57c-.85 0-1.54.74-1.54 1.66 0 1.42-1.15 2.57-2.57 2.57-1.43.01-2.58-1.14-2.58-2.56z"/><path id="XMLID_599_" class="st1" d="M126.19 417.69c2.12 2.18 2.77 5.3 1.89 8.06 1.24.67 2.53 1.23 3.86 1.66 1.3-2.58 3.93-4.3 6.95-4.3s5.65 1.72 6.96 4.3c1.33-.43 2.62-.98 3.86-1.65-.88-2.76-.23-5.89 1.89-8.07 2.13-2.19 5.17-2.88 7.88-2.01.67-1.3 1.21-2.66 1.63-4.07-2.53-1.33-4.21-4.01-4.21-7.08 0-3.07 1.69-5.75 4.22-7.08-.42-1.41-.97-2.77-1.63-4.07-2.71.87-5.75.18-7.88-2.01-2.12-2.18-2.77-5.31-1.89-8.07-1.24-.67-2.52-1.22-3.86-1.65-1.3 2.58-3.93 4.31-6.96 4.31-3.02 0-5.65-1.73-6.95-4.31-1.33.43-2.62.98-3.86 1.66.88 2.76.23 5.89-1.89 8.07-2.13 2.19-5.17 2.88-7.88 2.01-.67 1.3-1.21 2.66-1.63 4.07 2.53 1.33 4.22 4.01 4.22 7.08 0 3.07-1.69 5.75-4.22 7.08.42 1.41.96 2.77 1.63 4.07 2.7-.88 5.75-.19 7.87 2zm12.7-26.89c7.4 0 13.42 6.16 13.42 13.73s-6.02 13.73-13.42 13.73-13.42-6.16-13.42-13.73c.01-7.57 6.03-13.73 13.42-13.73z"/><path id="XMLID_607_" class="st0" d="M418.43 278.96h-183.9c-4.97 0-9.01 4.04-9.01 9.01v114.4h7.8V292.88c0-1.42 1.15-2.57 2.57-2.57h180.89c1.42 0 2.57 1.15 2.57 2.57v109.49h8.07v-114.4c.02-4.97-4.02-9.01-8.99-9.01z"/><path id="XMLID_610_" class="st3" d="M238.47 402.37h175.75V295.46H238.47v106.91z"/><path id="XMLID_611_" class="st0" d="M363.41 407.52v3.15c0 1.42-1.15 2.57-2.57 2.57h-68.98c-1.42 0-2.57-1.15-2.57-2.57v-3.15h-77.86v6.51c0 3.45 2.04 6.56 5.2 7.93 1.09.47 2.24.71 3.44.71h212.57c.6 0 1.2-.06 1.78-.18 3.98-.83 6.86-4.39 6.86-8.46v-6.51h-77.87z"/><path id="XMLID_642_" class="st2" d="M192.86 224.13v-11.38c0-3.02-2.46-5.47-5.47-5.47H97.72c-3.02 0-5.47 2.46-5.47 5.47v11.38h100.61zm-60.42-10.74h20.22c1.42 0 2.57 1.15 2.57 2.57s-1.15 2.57-2.57 2.57h-20.22c-1.42 0-2.57-1.15-2.57-2.57s1.15-2.57 2.57-2.57z"/><path id="XMLID_645_" class="st2" d="M185.24 335.15h-93v15.94c0 3.02 2.46 5.47 5.47 5.47h89.67c3.02 0 5.47-2.46 5.47-5.47v-15.94h-7.61zm-42.69 19.37c-4.99 0-9.04-4.06-9.04-9.04 0-4.99 4.06-9.04 9.04-9.04 4.99 0 9.04 4.06 9.04 9.04 0 4.98-4.05 9.04-9.04 9.04z"/><path id="XMLID_646_" class="st0" d="M142.55 341.58c-2.15 0-3.89 1.75-3.89 3.89 0 2.15 1.75 3.89 3.89 3.89s3.89-1.75 3.89-3.89-1.74-3.89-3.89-3.89z"/><path id="XMLID_649_" class="st1" d="M92.24 229.27V330h100.61V229.27H92.24z"/><path id="XMLID_664_" class="st0" d="M513.47 246.86v-14.4c0-2.52-2.05-4.58-4.58-4.58h-45.68c-2.52 0-4.58 2.05-4.58 4.58v14.4h54.84zm-34.14-11.81h13.46c1.42 0 2.57 1.15 2.57 2.57s-1.15 2.57-2.57 2.57h-13.46c-1.42 0-2.57-1.15-2.57-2.57s1.15-2.57 2.57-2.57z"/><path id="XMLID_667_" class="st0" d="M458.66 309.81h-.02v12.02c0 2.06 1.38 3.87 3.36 4.41.39.11.8.16 1.22.16h45.68c2.52 0 4.58-2.05 4.58-4.58V309.8h-54.82zm27.4 15.44c-3.79 0-6.88-3.1-6.88-6.92s3.09-6.92 6.88-6.92 6.88 3.1 6.88 6.92-3.09 6.92-6.88 6.92z"/><ellipse id="XMLID_668_" class="st0" cx="486.06" cy="318.33" rx="1.73" ry="1.77"/><path id="XMLID_669_" class="st1" d="M513.47 252.01h-54.83v52.65H513.47z"/><path id="XMLID_674_" class="st1" d="M58.63 386h7.57c-1.3-2.89-4.2-4.9-7.56-4.9-4.57 0-8.29 3.72-8.29 8.29 0 4.57 3.72 8.29 8.29 8.29 3.97 0 7.3-2.81 8.1-6.54-.21.01-.43.01-.65.01h-7.46c-1.42 0-2.57-1.15-2.57-2.57s1.15-2.58 2.57-2.58z"/><path id="XMLID_675_" class="st1" d="M556.13 298.9c-3.69 0-6.83 2.43-7.9 5.77h7.9c1.42 0 2.57 1.15 2.57 2.57s-1.15 2.57-2.57 2.57h-7.86c1.1 3.29 4.21 5.67 7.86 5.67 4.57 0 8.29-3.72 8.29-8.29s-3.71-8.29-8.29-8.29z"/><path id="XMLID_707_" class="st1" d="M360.84 49.61h-7.88c1.09 3.32 4.21 5.72 7.88 5.72 4.57 0 8.29-3.72 8.29-8.29 0-4.57-3.72-8.29-8.29-8.29-3.67 0-6.8 2.4-7.88 5.72h7.88c1.42 0 2.57 1.15 2.57 2.57s-1.15 2.57-2.57 2.57z"/><path id="XMLID_708_" class="st1" d="M547.84 241.56v7.88c0 1.42-1.15 2.57-2.57 2.57s-2.57-1.15-2.57-2.57v-7.88c-3.32 1.09-5.72 4.21-5.72 7.88 0 4.57 3.72 8.29 8.29 8.29s8.29-3.72 8.29-8.29c0-3.68-2.4-6.8-5.72-7.88z"/><path id="XMLID_709_" class="st1" d="M481.55 378.52c0 3.67 2.4 6.8 5.72 7.88v-7.88c0-1.42 1.15-2.57 2.57-2.57s2.57 1.15 2.57 2.57v7.88c3.32-1.09 5.72-4.21 5.72-7.88 0-4.57-3.72-8.29-8.29-8.29-4.57 0-8.29 3.72-8.29 8.29z"/><path id="XMLID_710_" class="st1" d="M454.25 504.22h-7.88c1.09 3.32 4.21 5.72 7.88 5.72 4.57 0 8.29-3.72 8.29-8.29s-3.72-8.29-8.29-8.29c-3.67 0-6.8 2.4-7.88 5.72h7.88c1.42 0 2.57 1.15 2.57 2.57.01 1.42-1.15 2.57-2.57 2.57z"/><path id="XMLID_711_" class="st1" d="M291 525.82h-7.88c-1.42 0-2.57-1.15-2.57-2.57s1.15-2.57 2.57-2.57H291c-1.09-3.32-4.21-5.72-7.88-5.72-4.57 0-8.29 3.72-8.29 8.29s3.72 8.29 8.29 8.29c3.67 0 6.79-2.4 7.88-5.72z"/><path id="XMLID_712_" class="st1" d="M58.63 182.03h7.88c-1.09-3.32-4.21-5.72-7.88-5.72-4.57 0-8.29 3.72-8.29 8.29 0 4.57 3.72 8.29 8.29 8.29 3.67 0 6.8-2.4 7.88-5.72h-7.88c-1.42 0-2.57-1.15-2.57-2.57s1.15-2.57 2.57-2.57z"/><ellipse id="XMLID_713_" transform="rotate(-13.286 285.51769 222.949738)" class="st0" cx="285.58" cy="222.99" rx="6.67" ry="6.67"/><path id="XMLID_717_" class="st0" d="M272.58 16.28c1.78 0 3.22-1.45 3.22-3.22 0-1.78-1.45-3.22-3.22-3.22-1.78 0-3.22 1.45-3.22 3.22 0 1.78 1.44 3.22 3.22 3.22z"/><path id="XMLID_721_" class="st0" d="M66 120.95c1.78 0 3.22-1.45 3.22-3.22 0-1.78-1.45-3.22-3.22-3.22-1.78 0-3.22 1.45-3.22 3.22 0 1.77 1.45 3.22 3.22 3.22z"/><circle id="XMLID_725_" class="st0" cx="486.06" cy="106.63" r="3.22"/><path id="XMLID_729_" class="st1" d="M221.79 202.16c0-2.27-1.85-4.12-4.12-4.12s-4.12 1.85-4.12 4.12 1.85 4.12 4.12 4.12c2.28 0 4.12-1.85 4.12-4.12z"/><path id="XMLID_733_" class="st1" d="M114.28 104.05c2.72 0 4.94-2.21 4.94-4.94 0-2.72-2.21-4.94-4.94-4.94-2.72 0-4.94 2.21-4.94 4.94.01 2.73 2.22 4.94 4.94 4.94z"/><ellipse id="XMLID_737_" transform="rotate(-13.286 373.989965 534.014558)" class="st1" cx="374.08" cy="534.12" rx="4.94" ry="4.94"/><circle id="XMLID_741_" class="st1" cx="180.62" cy="512.38" r="6.55"/><path id="XMLID_745_" class="st0" d="M137.92 462.67c-1.55 0-2.81 1.26-2.81 2.81s1.26 2.81 2.81 2.81 2.81-1.26 2.81-2.81-1.27-2.81-2.81-2.81z"/><path id="XMLID_749_" class="st0" d="M577.02 262.52c-1.55 0-2.81 1.26-2.81 2.81s1.26 2.81 2.81 2.81 2.81-1.26 2.81-2.81c0-1.56-1.26-2.81-2.81-2.81z"/><path id="XMLID_753_" class="st0" d="M391.53 25.35c1.55 0 2.81-1.26 2.81-2.81s-1.26-2.81-2.81-2.81-2.81 1.26-2.81 2.81c.01 1.55 1.27 2.81 2.81 2.81z"/><path id="XMLID_757_" class="st0" d="M360.84 80.26c-2.64 0-4.8 2.15-4.8 4.8 0 2.64 2.15 4.8 4.8 4.8 2.64 0 4.8-2.15 4.8-4.8-.01-2.65-2.16-4.8-4.8-4.8z"/><path id="XMLID_761_" class="st0" d="M213.4 46.68c2.64 0 4.8-2.15 4.8-4.8s-2.15-4.8-4.8-4.8c-2.64 0-4.8 2.15-4.8 4.8s2.15 4.8 4.8 4.8z"/><path id="XMLID_765_" class="st0" d="M25.03 272.95c-1.72 0-3.12 1.4-3.12 3.12 0 1.72 1.4 3.12 3.12 3.12 1.72 0 3.12-1.4 3.12-3.12-.01-1.72-1.4-3.12-3.12-3.12z"/><path id="XMLID_769_" class="st0" d="M545.27 392.38c-.55 0-1 .45-1 1s.45 1 1 1 1-.45 1-1c-.01-.55-.45-1-1-1z"/><path id="XMLID_773_" class="st0" d="M213.4 255.13c-.55 0-1 .45-1 1s.45 1 1 1 1-.45 1-1c-.01-.56-.45-1-1-1z"/><path id="XMLID_777_" class="st0" d="M69.5 442.87c-.55 0-1 .45-1 1s.45 1 1 1 1-.45 1-1c-.01-.55-.45-1-1-1z"/><path id="XMLID_781_" class="st1" d="M402.49 64.18c.61 0 1.11-.5 1.11-1.11 0-.61-.5-1.11-1.11-1.11-.61 0-1.11.5-1.11 1.11 0 .61.5 1.11 1.11 1.11z"/><path id="XMLID_785_" class="st1" d="M529.29 120.86c.61 0 1.11-.5 1.11-1.11 0-.61-.5-1.11-1.11-1.11-.61 0-1.11.5-1.11 1.11 0 .61.5 1.11 1.11 1.11z"/><path id="XMLID_789_" class="st1" d="M317.5 19.97c.61 0 1.11-.5 1.11-1.11s-.5-1.11-1.11-1.11c-.61 0-1.11.5-1.11 1.11s.5 1.11 1.11 1.11z"/><path id="XMLID_793_" class="st1" d="M142.55 48.15c.61 0 1.11-.5 1.11-1.11 0-.61-.5-1.11-1.11-1.11-.61 0-1.11.5-1.11 1.11 0 .61.5 1.11 1.11 1.11z"/><path id="XMLID_797_" class="st1" d="M334.44 251.32c-2.64 0-4.8 2.15-4.8 4.8 0 2.64 2.15 4.8 4.8 4.8 2.64 0 4.8-2.15 4.8-4.8 0-2.64-2.15-4.8-4.8-4.8z"/><path id="XMLID_801_" class="st1" d="M456.07 64.18c2.64 0 4.8-2.15 4.8-4.8 0-2.64-2.15-4.8-4.8-4.8-2.64 0-4.8 2.15-4.8 4.8s2.15 4.8 4.8 4.8z"/><circle id="XMLID_805_" class="st0" cx="55.81" cy="318.65" r="7.54"/><path id="XMLID_809_" class="st1" d="M55.81 243.37c2.64 0 4.8-2.15 4.8-4.8 0-2.64-2.15-4.8-4.8-4.8-2.64 0-4.8 2.15-4.8 4.8.01 2.65 2.16 4.8 4.8 4.8z"/><path id="XMLID_813_" class="st1" d="M510.7 430.67c-1.28 0-2.33 1.04-2.33 2.33 0 1.28 1.04 2.33 2.33 2.33 1.28 0 2.33-1.04 2.33-2.33 0-1.28-1.05-2.33-2.33-2.33z"/><path id="XMLID_817_" class="st1" d="M456.07 354.34c-2.64 0-4.8 2.15-4.8 4.8 0 2.64 2.15 4.8 4.8 4.8 2.64 0 4.8-2.15 4.8-4.8-.01-2.65-2.16-4.8-4.8-4.8z"/><path id="XMLID_821_" class="st0" d="M529.29 351.49c-1.4 0-2.54 1.14-2.54 2.54 0 1.4 1.14 2.54 2.54 2.54 1.4 0 2.54-1.14 2.54-2.54 0-1.41-1.14-2.54-2.54-2.54z"/><path id="XMLID_825_" class="st0" d="M192.86 386.5c0-1.4-1.14-2.54-2.54-2.54-1.4 0-2.54 1.14-2.54 2.54 0 1.4 1.14 2.54 2.54 2.54 1.4 0 2.54-1.14 2.54-2.54z"/><path id="XMLID_829_" class="st0" d="M451.27 458.11c0 2.64 2.15 4.8 4.8 4.8 2.64 0 4.8-2.15 4.8-4.8 0-2.64-2.15-4.8-4.8-4.8s-4.8 2.16-4.8 4.8z"/><path id="XMLID_833_" class="st0" d="M524.48 170.28c1.24 0 2.24-1.01 2.24-2.24 0-1.24-1.01-2.24-2.24-2.24-1.24 0-2.24 1.01-2.24 2.24-.01 1.23 1 2.24 2.24 2.24z"/><path id="XMLID_839_" class="st1" d="M392.39 261.65c16.64 0 31.02-18.55 34.79-23.84-3.77-5.29-18.18-23.84-34.79-23.84-16.64 0-31.02 18.55-34.79 23.84 3.77 5.29 18.19 23.84 34.79 23.84zm-20.88-23.84c0-11.52 9.37-20.88 20.88-20.88 11.52 0 20.88 9.37 20.88 20.88 0 11.52-9.37 20.88-20.88 20.88-11.51.01-20.88-9.36-20.88-20.88z"/><path id="XMLID_840_" class="st0" d="M381.97 235.24c1.16-4.68 5.39-8.16 10.42-8.16s9.27 3.48 10.42 8.16h5.1c-1.23-7.46-7.72-13.16-15.52-13.16s-14.29 5.71-15.52 13.16h5.1z"/><path id="XMLID_841_" class="st0" d="M392.39 253.55c7.8 0 14.29-5.71 15.52-13.16h-5.1c-1.16 4.68-5.39 8.16-10.42 8.16s-9.27-3.48-10.42-8.16h-5.1c1.24 7.45 7.72 13.16 15.52 13.16z"/><ellipse id="XMLID_847_" transform="rotate(-9.213 392.373926 237.751708)" class="st1" cx="392.39" cy="237.81" rx="5.59" ry="5.59"/><path id="XMLID_848_" class="st2" d="M349.86 483.74v15.33h66.84v-41.86h-47.78z"/><path id="XMLID_849_" class="st2" d="M416.7 452.06v-5.62h-16.8l-3.5 5.62z"/><path id="XMLID_850_" class="st1" d="M337.31 427.82l-.05 16.11c0 1.42-1.16 2.57-2.57 2.57h-9.96l22.78 31.72 22.78-31.72h-9.6c-.68 0-1.34-.27-1.82-.76-.48-.48-.75-1.14-.75-1.83l.05-16.09h-20.86z"/><path d="M354.97 352.34l-21.34 8.6c-2.38-.97-5.18-.79-7.49.73-3.72 2.46-4.75 7.47-2.3 11.19 2.46 3.72 7.47 4.75 11.19 2.3 2.31-1.52 3.58-4.03 3.62-6.6l16.32-16.22z" fill="#fd437c"/><path class="st1" d="M307.63 348.48s19.29-18.35 33.25 0l12.08-7.37s-27.29-27.61-45.33 7.37z"/><path class="st5" d="M418.66 110.19c13.81 0 25.05 11.24 25.05 25.05 0 1.42 1.15 2.57 2.57 2.57s2.57-1.15 2.57-2.57c0-8.07-3.14-15.66-8.84-21.36s-13.28-8.84-21.36-8.84c-1.42 0-2.57 1.15-2.57 2.57.01 1.43 1.16 2.58 2.58 2.58zM185.24 92.71c-14.91 0-27.04 12.13-27.04 27.04 0 1.42 1.15 2.57 2.57 2.57s2.57-1.15 2.57-2.57c0-12.07 9.82-21.9 21.9-21.9 1.42 0 2.57-1.15 2.57-2.57s-1.15-2.57-2.57-2.57zM164.45 401.72c.72-.07 1.38-.45 1.81-1.03.43-.58.6-1.32.45-2.03-.72-3.62-2.09-7.02-4.08-10.11-.4-.62-1.05-1.04-1.78-1.15-.73-.11-1.48.1-2.04.57-1.05.88-2.56.8-3.52-.19-1-1.03-1.08-2.71-.19-3.83.45-.56.64-1.28.53-1.99-.11-.71-.51-1.34-1.1-1.74-3.02-2.05-6.34-3.46-9.88-4.21-.72-.15-1.46.01-2.06.44-.59.43-.97 1.1-1.04 1.83-.14 1.44-1.28 2.53-2.66 2.53-1.38 0-2.52-1.09-2.66-2.53-.07-.73-.45-1.39-1.04-1.83-.59-.43-1.34-.59-2.05-.44-3.54.75-6.86 2.16-9.88 4.21-.59.4-.99 1.03-1.1 1.74-.11.71.08 1.43.53 1.99.89 1.12.81 2.8-.19 3.83-.96.99-2.48 1.07-3.53.19-.57-.48-1.31-.68-2.04-.57-.73.11-1.38.53-1.78 1.15-1.98 3.09-3.36 6.49-4.08 10.11-.14.71.02 1.45.45 2.03.43.58 1.09.96 1.81 1.03 1.37.14 2.41 1.35 2.41 2.81s-1.04 2.67-2.41 2.81c-.72.07-1.38.45-1.81 1.03-.43.58-.59 1.32-.45 2.03.72 3.61 2.09 7.02 4.07 10.11.4.62 1.05 1.04 1.78 1.16.73.11 1.48-.1 2.04-.58 1.05-.88 2.56-.8 3.52.19 1 1.02 1.08 2.7.19 3.83-.45.56-.64 1.28-.53 1.99.11.71.51 1.34 1.1 1.74 3.02 2.05 6.35 3.47 9.88 4.21.72.15 1.46-.01 2.05-.44.59-.43.97-1.1 1.04-1.83.14-1.44 1.28-2.52 2.66-2.52 1.38 0 2.52 1.09 2.66 2.52.07.73.45 1.39 1.04 1.83.45.33.98.5 1.52.5.18 0 .36-.02.53-.06 3.54-.75 6.86-2.17 9.88-4.21.59-.4.99-1.03 1.1-1.74.11-.71-.08-1.43-.53-1.99-.89-1.12-.81-2.8.19-3.83.96-.99 2.47-1.07 3.52-.19.57.48 1.31.69 2.04.58.73-.11 1.38-.53 1.78-1.16 1.98-3.09 3.35-6.5 4.07-10.11.14-.71-.02-1.45-.45-2.03s-1.09-.96-1.81-1.03c-1.37-.14-2.41-1.35-2.41-2.81.04-1.46 1.08-2.67 2.45-2.81zm-3.34 9.89c-.42 1.41-.96 2.77-1.63 4.07-2.71-.87-5.75-.18-7.88 2.01-2.12 2.18-2.77 5.3-1.89 8.07-1.24.67-2.52 1.22-3.86 1.65-1.3-2.58-3.94-4.3-6.96-4.3s-5.65 1.72-6.95 4.3c-1.33-.43-2.62-.98-3.86-1.66.88-2.76.23-5.89-1.89-8.06-2.13-2.19-5.17-2.88-7.88-2.01-.67-1.3-1.21-2.66-1.63-4.07 2.53-1.33 4.22-4.01 4.22-7.08 0-3.07-1.69-5.75-4.22-7.08.42-1.41.97-2.77 1.63-4.07 2.71.87 5.75.18 7.88-2.01 2.12-2.18 2.77-5.31 1.89-8.07 1.24-.67 2.53-1.23 3.86-1.66 1.3 2.58 3.93 4.31 6.95 4.31s5.65-1.72 6.96-4.31c1.33.43 2.62.98 3.86 1.65-.88 2.76-.23 5.89 1.89 8.07 2.13 2.19 5.17 2.88 7.88 2.01.67 1.3 1.21 2.66 1.63 4.07-2.53 1.33-4.22 4.01-4.22 7.08 0 3.08 1.69 5.76 4.22 7.09z"/><path class="st5" d="M138.89 390.8c-7.4 0-13.42 6.16-13.42 13.73s6.02 13.72 13.42 13.72 13.42-6.16 13.42-13.72c0-7.57-6.02-13.73-13.42-13.73zm0 22.3c-4.56 0-8.27-3.85-8.27-8.58s3.71-8.58 8.27-8.58 8.27 3.85 8.27 8.58c0 4.74-3.71 8.58-8.27 8.58z"/><path class="st5" d="M137.92 396.96c-3.69 0-6.69 3.05-6.69 6.81 0 1.42 1.15 2.57 2.57 2.57s2.57-1.15 2.57-2.57c0-.91.69-1.66 1.54-1.66 1.42 0 2.57-1.15 2.57-2.57s-1.14-2.58-2.56-2.58zM152.66 213.39h-20.22c-1.42 0-2.57 1.15-2.57 2.57s1.15 2.57 2.57 2.57h20.22c1.42 0 2.57-1.15 2.57-2.57s-1.15-2.57-2.57-2.57zM142.55 336.43c-4.99 0-9.04 4.06-9.04 9.04 0 4.99 4.06 9.04 9.04 9.04 4.99 0 9.04-4.06 9.04-9.04 0-4.98-4.05-9.04-9.04-9.04zm0 12.94c-2.15 0-3.89-1.75-3.89-3.89 0-2.15 1.75-3.89 3.89-3.89s3.89 1.75 3.89 3.89-1.74 3.89-3.89 3.89zM492.78 235.05h-13.46c-1.42 0-2.57 1.15-2.57 2.57s1.15 2.57 2.57 2.57h13.46c1.42 0 2.57-1.15 2.57-2.57s-1.14-2.57-2.57-2.57zM486.06 325.25c3.79 0 6.88-3.1 6.88-6.92s-3.09-6.92-6.88-6.92-6.88 3.1-6.88 6.92 3.08 6.92 6.88 6.92zm0-8.69c.95 0 1.73.79 1.73 1.77 0 .97-.78 1.77-1.73 1.77s-1.73-.79-1.73-1.77c0-.97.77-1.77 1.73-1.77z"/><path class="st5" d="M556.13 293.75c-6.55 0-12.01 4.71-13.2 10.92h-24.31v-72.21c0-5.36-4.36-9.72-9.72-9.72h-45.68c-5.36 0-9.72 4.36-9.72 9.72v3.12c-3.87 0-11.78-.01-21.59-.01-1.4-2.04-5.29-7.4-10.91-12.82-4.15-3.99-8.39-7.18-12.6-9.49-5.4-2.95-10.78-4.44-15.99-4.44-5.21 0-10.59 1.49-15.99 4.44-4.21 2.3-8.45 5.49-12.6 9.49-5.66 5.44-9.55 10.84-10.94 12.85H351.93c-2.62 0-5.08-1.02-6.94-2.87-1.87-1.86-2.9-4.34-2.9-6.98v-22.54h54.13c.75 0 1.49-.03 2.22-.1h120.08c13.34 0 24.2 10.86 24.2 24.2v8.93c-6.18 1.2-10.87 6.66-10.87 13.19 0 7.41 6.03 13.44 13.44 13.44s13.44-6.03 13.44-13.44c0-6.53-4.68-11.99-10.87-13.19v-8.93c0-16.18-13.17-29.35-29.35-29.35h-33.32c2.21-1.38 4.28-3.02 6.16-4.91 6.48-6.49 10.05-15.07 10.05-24.18 0-8.85-3.4-17.27-9.57-23.69-5.56-5.79-12.82-9.39-20.67-10.31v-.19c0-13.95-5.43-27.06-15.29-36.92-9.86-9.86-22.97-15.29-36.92-15.29-9.38 0-18.58 2.52-26.6 7.27-7.3 4.33-13.46 10.4-17.9 17.62-.73-.05-1.46-.08-2.2-.08-6.01 0-11.61 1.78-16.31 4.85-3.19-1.68-6.63-2.89-10.19-3.54-.97-15.51-13.28-28-28.71-29.26V66.98c0-9.58 7.79-17.37 17.37-17.37h13.26c1.2 6.18 6.66 10.87 13.19 10.87 7.41 0 13.44-6.03 13.44-13.44s-6.03-13.44-13.44-13.44c-6.53 0-11.99 4.68-13.19 10.87h-13.26c-12.42 0-22.52 10.1-22.52 22.52v12.05c-4.65-7.48-11.06-13.77-18.65-18.27-8.42-4.99-18.07-7.63-27.91-7.63-14.64 0-28.4 5.7-38.75 16.05-4.49 4.49-8.11 9.63-10.76 15.2-2.19-1.94-4.56-3.67-7.09-5.17-7.15-4.24-15.35-6.48-23.71-6.48-12.43 0-24.13 4.84-32.92 13.63-8.77 8.77-13.61 20.43-13.63 32.83-6.92.87-13.31 4.08-18.23 9.19-5.52 5.74-8.56 13.27-8.56 21.19 0 8.15 3.19 15.83 8.99 21.63 5.8 5.8 13.48 8.99 21.63 8.99h102.43v26.94c0 9.29-7.56 16.85-16.85 16.85h-29.85v-11.23c0-5.86-4.77-10.62-10.62-10.62h-82.35c-1.28-11.29-10.89-20.1-22.52-20.1H71.82c-1.2-6.18-6.66-10.87-13.19-10.87-7.41 0-13.44 6.03-13.44 13.44s6.03 13.44 13.44 13.44c6.53 0 11.99-4.68 13.19-10.87h10.69c8.79 0 16.08 6.5 17.33 14.95h-2.12c-5.86 0-10.62 4.77-10.62 10.62V365c0 9.73-6.66 17.94-15.66 20.31-1.73-5.42-6.82-9.36-12.81-9.36-7.41 0-13.44 6.03-13.44 13.44 0 7.41 6.03 13.44 13.44 13.44 7.05 0 12.84-5.45 13.39-12.36 11.57-2.69 20.22-13.09 20.22-25.47v-4.81c1.6.97 3.47 1.52 5.47 1.52h89.67c5.86 0 10.62-4.77 10.62-10.62v-15.94h22.37v67.22h-11.53c-1.42 0-2.57 1.15-2.57 2.57v9.08c0 5.5 3.26 10.46 8.3 12.65 1.73.75 3.58 1.14 5.49 1.14h1.4l-.09 26.14h-22.52c-.97 0-1.85.54-2.29 1.4-.44.86-.36 1.89.2 2.68l46.56 64.84c.48.67 1.26 1.07 2.09 1.07.83 0 1.61-.4 2.09-1.07l46.56-64.84c.56-.78.64-1.82.2-2.68-.44-.86-1.33-1.4-2.29-1.4h-21.9l.09-26.14h37.03v77.72c0 6.92-4.66 12.76-11.01 14.56-1.42-5.89-6.74-10.29-13.06-10.29-7.41 0-13.44 6.03-13.44 13.44s6.03 13.44 13.44 13.44c6.7 0 12.26-4.92 13.27-11.34 9.11-1.99 15.95-10.12 15.95-19.82V427.8h19.82l-.05 13.53H319.7c-.97 0-1.85.54-2.29 1.4-.44.86-.36 1.89.2 2.68l27.11 37.74v18.49c0 1.42 1.15 2.57 2.57 2.57H441.06c1.2 6.18 6.66 10.87 13.19 10.87 7.41 0 13.44-6.03 13.44-13.44s-6.03-13.44-13.44-13.44c-6.53 0-11.99 4.68-13.19 10.87h-19.21V443.86c0-1.42-1.15-2.57-2.57-2.57h-20.81c-.89 0-1.71.46-2.18 1.21l-5.95 9.55h-17.72l4.77-6.64c.56-.78.64-1.82.2-2.68-.44-.86-1.32-1.4-2.29-1.4h-12.03l.05-13.53h54.89c.15.03.3.04.46.04h42.68c17.14 0 31.08-13.94 31.08-31.08v-5.07c6.18-1.2 10.87-6.66 10.87-13.19 0-7.41-6.03-13.44-13.44-13.44-7.41 0-13.44 6.03-13.44 13.44 0 6.53 4.68 11.99 10.87 13.19v5.07c0 14.3-11.63 25.93-25.93 25.93h-18.02c1.94-2.4 3.1-5.44 3.1-8.68v-9.08c0-1.42-1.15-2.57-2.57-2.57h-11.26V309.8h20.91v12.02c0 4.37 2.94 8.22 7.14 9.38.84.23 1.7.35 2.58.35h45.68c5.36 0 9.72-4.36 9.72-9.72v-12.02h24.33c1.22 6.16 6.67 10.82 13.18 10.82 7.41 0 13.44-6.03 13.44-13.44-.01-7.41-6.04-13.44-13.46-13.44zm-10.86-41.74c1.42 0 2.57-1.15 2.57-2.57v-7.88c3.32 1.09 5.72 4.21 5.72 7.88 0 4.57-3.72 8.29-8.29 8.29s-8.29-3.72-8.29-8.29c0-3.67 2.4-6.8 5.72-7.88v7.88c-.01 1.42 1.15 2.57 2.57 2.57zM360.84 44.46h-7.88c1.09-3.32 4.21-5.72 7.88-5.72 4.57 0 8.29 3.72 8.29 8.29 0 4.57-3.72 8.29-8.29 8.29-3.67 0-6.8-2.4-7.88-5.72h7.88c1.42 0 2.57-1.15 2.57-2.57 0-1.41-1.15-2.57-2.57-2.57zM58.63 187.17h7.88c-1.09 3.32-4.21 5.72-7.88 5.72-4.57 0-8.29-3.72-8.29-8.29 0-4.57 3.72-8.29 8.29-8.29 3.67 0 6.8 2.4 7.88 5.72h-7.88c-1.42 0-2.57 1.15-2.57 2.57s1.15 2.57 2.57 2.57zm0 210.51c-4.57 0-8.29-3.72-8.29-8.29 0-4.57 3.72-8.29 8.29-8.29 3.36 0 6.27 2.02 7.56 4.9h-7.57c-1.42 0-2.57 1.15-2.57 2.57s1.15 2.57 2.57 2.57h7.46c.22 0 .43 0 .65-.01-.8 3.74-4.13 6.55-8.1 6.55zm33.61-184.94c0-3.02 2.46-5.47 5.47-5.47h89.67c3.02 0 5.47 2.46 5.47 5.47v11.38H92.24v-11.38zm100.62 138.34c0 3.02-2.46 5.47-5.47 5.47H97.72c-3.02 0-5.47-2.46-5.47-5.47v-15.94h100.61v15.94zm0-21.08H92.24V229.27h100.61V330zm90.26 195.82H291c-1.09 3.32-4.21 5.72-7.88 5.72-4.57 0-8.29-3.72-8.29-8.29s3.72-8.29 8.29-8.29c3.67 0 6.8 2.4 7.88 5.72h-7.88c-1.42 0-2.57 1.15-2.57 2.57-.01 1.42 1.15 2.57 2.57 2.57zm171.13-26.75h-7.88c1.09-3.32 4.21-5.72 7.88-5.72 4.57 0 8.29 3.72 8.29 8.29s-3.72 8.29-8.29 8.29c-3.67 0-6.8-2.4-7.88-5.72h7.88c1.42 0 2.57-1.15 2.57-2.57.01-1.41-1.15-2.57-2.57-2.57zm27.3-120.55c0-4.57 3.72-8.29 8.29-8.29 4.57 0 8.29 3.72 8.29 8.29 0 3.67-2.4 6.8-5.72 7.88v-7.88c0-1.42-1.15-2.57-2.57-2.57s-2.57 1.15-2.57 2.57v7.88c-3.32-1.09-5.72-4.21-5.72-7.88zm-89.16-164.55c16.61 0 31.02 18.55 34.79 23.84-3.77 5.29-18.15 23.84-34.79 23.84-16.61 0-31.02-18.55-34.79-23.84 3.77-5.29 18.16-23.84 34.79-23.84zm3.8-15.91H308.9c-5.51 0-10.72-2.16-14.65-6.09-3.34-3.35-5.41-7.61-5.95-12.2h50.97c9.55 0 18.55-3.74 25.34-10.54 6.8-6.8 10.54-15.8 10.54-25.34 0-2.79-.32-5.53-.94-8.19.56.66 1.43 1.01 2.31.89.74-.1 1.51-.15 2.29-.15 9.69 0 17.57 7.88 17.57 17.57v.05c-.06 1.35.93 2.51 2.27 2.67 4.57.55 8.9 2.66 12.19 5.95 3.93 3.93 6.1 9.13 6.1 14.64-.01 11.44-9.31 20.74-20.75 20.74zm-23.96-85.62c1.1 0 2.19.07 3.23.21 1.04.14 2.06-.36 2.58-1.27 4.05-7.09 9.9-13.04 16.92-17.2 7.23-4.29 15.52-6.55 23.97-6.55 12.57 0 24.39 4.9 33.28 13.78 8.89 8.89 13.78 20.71 13.78 33.28 0 .81-.02 1.63-.06 2.43-.04.69.2 1.36.67 1.87.46.51 1.11.81 1.79.84 7.47.32 14.47 3.49 19.7 8.93 5.25 5.46 8.14 12.6 8.14 20.12 0 7.73-3.03 15.03-8.54 20.54s-12.81 8.55-20.54 8.55h-55.36c6.24-4.73 10.29-12.22 10.29-20.65 0-6.89-2.7-13.38-7.6-18.28-3.58-3.58-8.14-6.04-13.04-7.06-1.03-11.58-10.79-20.69-22.63-20.69-.42 0-.84.01-1.26.03-3.21-5.1-7.58-9.42-12.73-12.57-.07-.07-.13-.14-.2-.21-1.19-1.19-2.47-2.3-3.81-3.31 3.41-1.77 7.3-2.79 11.42-2.79zM230.2 72.81c9.38-9.38 21.84-14.54 35.11-14.54 8.92 0 17.66 2.39 25.29 6.91 7.41 4.39 13.58 10.67 17.85 18.15.52.91 1.54 1.42 2.58 1.27 1.1-.15 2.25-.22 3.42-.22 14.45 0 26.2 11.75 26.2 26.2v.1c-.07 1.35.92 2.53 2.27 2.69 6.77.81 13.19 3.94 18.06 8.81 5.82 5.82 9.03 13.53 9.03 21.7s-3.21 15.88-9.03 21.7c-5.82 5.82-13.53 9.03-21.7 9.03h-74.41c7.88-5.55 13.05-14.71 13.05-25.06 0-8.15-3.19-15.83-8.99-21.63-4.32-4.32-9.87-7.27-15.8-8.43-.64-8.6-5.36-16.09-12.23-20.52 3.83-9.91 13.46-16.96 24.71-16.96 1.42 0 2.57-1.15 2.57-2.57s-1.15-2.57-2.57-2.57c-8.46 0-16.4 3.29-22.37 9.26-3.04 3.04-5.39 6.6-6.96 10.47-3.06-1.22-6.4-1.89-9.89-1.89-.6 0-1.2.02-1.8.06-1.43-2.31-3.07-4.49-4.88-6.51 2.45-5.7 5.98-10.93 10.49-15.45zm-87.92 102.22c-6.77 0-13.16-2.66-17.99-7.49-4.83-4.83-7.48-11.22-7.48-17.99 0-6.58 2.53-12.84 7.13-17.62 4.58-4.77 10.71-7.55 17.26-7.83.69-.03 1.33-.33 1.79-.84.46-.51.7-1.18.67-1.87-.04-.7-.06-1.42-.06-2.14 0-22.83 18.57-41.4 41.4-41.4 7.44 0 14.73 1.99 21.09 5.76 6.18 3.66 11.33 8.9 14.89 15.13.52.91 1.54 1.42 2.58 1.27.91-.12 1.86-.19 2.82-.19 11.94 0 21.66 9.72 21.66 21.66v.07c-.07 1.35.92 2.53 2.27 2.69 5.61.67 10.93 3.26 14.97 7.31 4.83 4.83 7.49 11.21 7.49 17.99 0 6.77-2.66 13.16-7.49 17.99s-11.22 7.49-17.99 7.49H142.28zM198.01 330V229.12h29.85c12.13 0 22-9.87 22-22v-27.05c.82-.07 1.63-.17 2.43-.3h30.83c.56 5.97 3.17 11.52 7.49 15.84 4.9 4.9 11.4 7.6 18.29 7.6h5.49v35.13c0 5.97-4.85 10.82-10.82 10.82-8.8 0-15.97 7.16-15.97 15.97v8.68h-53.07c-7.81 0-14.16 6.35-14.16 14.16V330h-22.36zm218.78-39.69H235.9c-1.42 0-2.57 1.15-2.57 2.57v109.49h-7.8v-114.4c0-4.97 4.04-9.01 9.01-9.01h183.89c4.97 0 9.01 4.04 9.01 9.01v114.4h-8.07V292.88c0-1.42-1.16-2.57-2.58-2.57zM238.47 402.37V295.46h175.75v106.91H238.47zm48.48 56.73l-41.54 57.85-41.54-57.85h20.07c1.42 0 2.57-1.15 2.57-2.57l.1-28.72h38.41l-.1 28.7c0 .68.27 1.34.75 1.83.48.48 1.14.76 1.82.76h19.46zm112.95-12.66h16.81v5.62H396.4l3.5-5.62zm-8.14 10.77h24.95v41.86h-66.84v-15.34l19.05-26.53h22.84zm-21.49-10.72l-22.78 31.72-22.78-31.72h9.96c1.42 0 2.57-1.15 2.57-2.57l.05-16.11h20.85l-.05 16.09c0 .68.27 1.34.75 1.83.48.48 1.14.76 1.82.76h9.61zm71-38.97v6.51c0 4.07-2.89 7.63-6.86 8.46-.58.12-1.18.18-1.78.18H220.07c-1.2 0-2.35-.24-3.44-.71-3.16-1.37-5.2-4.48-5.2-7.93v-6.51h77.86v3.15c0 1.42 1.15 2.57 2.57 2.57h68.98c1.42 0 2.57-1.15 2.57-2.57v-3.15h77.86zm12.22-102.86h-20.91v-16.7c0-7.81-6.35-14.16-14.16-14.16H292.75v-8.68c0-5.97 4.85-10.82 10.82-10.82 8.8 0 15.97-7.16 15.97-15.97V203.2h17.37v22.54c0 4.02 1.57 7.8 4.42 10.63 2.83 2.82 6.58 4.36 10.57 4.36h.08c.4 0 .86 0 1.38-.01 1.7 2.4 5.35 7.24 10.43 12.13 4.15 3.99 8.39 7.18 12.6 9.48 5.4 2.95 10.78 4.44 15.99 4.44 5.21 0 10.59-1.49 15.99-4.44 4.21-2.3 8.45-5.49 12.6-9.48 5.1-4.91 8.77-9.77 10.45-12.16 10.02 0 18.12.01 22.05.01v63.96zm59.98 17.18c0 2.52-2.05 4.58-4.58 4.58h-45.68c-.41 0-.82-.05-1.22-.16-1.98-.54-3.36-2.36-3.36-4.41v-12.02H513.46v12.01zm-54.83-17.18v-52.65h54.83v52.65H458.64zm54.83-57.8h-54.83v-14.4c0-2.52 2.05-4.58 4.58-4.58h45.68c2.52 0 4.58 2.05 4.58 4.58v14.4zm42.66 68.62c-3.66 0-6.76-2.38-7.86-5.67h7.86c1.42 0 2.57-1.15 2.57-2.57s-1.15-2.57-2.57-2.57h-7.9c1.07-3.34 4.21-5.77 7.9-5.77 4.57 0 8.29 3.72 8.29 8.29.01 4.57-3.71 8.29-8.29 8.29z"/><path class="st5" d="M285.58 234.81c6.52 0 11.82-5.3 11.82-11.82s-5.3-11.82-11.82-11.82-11.82 5.3-11.82 11.82 5.31 11.82 11.82 11.82zm0-18.49c3.68 0 6.67 2.99 6.67 6.67s-2.99 6.67-6.67 6.67c-3.68 0-6.67-2.99-6.67-6.67s3-6.67 6.67-6.67zM272.58 21.43c4.62 0 8.37-3.76 8.37-8.37s-3.76-8.37-8.37-8.37-8.37 3.76-8.37 8.37 3.76 8.37 8.37 8.37zm0-11.59c1.78 0 3.22 1.45 3.22 3.22 0 1.78-1.45 3.22-3.22 3.22-1.78 0-3.22-1.45-3.22-3.22 0-1.77 1.44-3.22 3.22-3.22zM66 126.09c4.62 0 8.37-3.76 8.37-8.37 0-4.62-3.76-8.37-8.37-8.37-4.62 0-8.37 3.76-8.37 8.37 0 4.62 3.76 8.37 8.37 8.37zm0-11.59c1.78 0 3.22 1.45 3.22 3.22 0 1.78-1.45 3.22-3.22 3.22s-3.22-1.45-3.22-3.22c0-1.77 1.45-3.22 3.22-3.22zM486.06 115c4.62 0 8.37-3.76 8.37-8.37 0-4.62-3.76-8.37-8.37-8.37-4.62 0-8.37 3.76-8.37 8.37 0 4.61 3.75 8.37 8.37 8.37zm0-11.59c1.78 0 3.22 1.45 3.22 3.22 0 1.78-1.45 3.22-3.22 3.22s-3.22-1.45-3.22-3.22c-.01-1.78 1.44-3.22 3.22-3.22zM226.94 202.16c0-5.11-4.16-9.27-9.27-9.27-5.11 0-9.27 4.16-9.27 9.27 0 5.11 4.16 9.27 9.27 9.27 5.11 0 9.27-4.16 9.27-9.27zm-13.38 0c0-2.27 1.85-4.12 4.12-4.12s4.12 1.85 4.12 4.12-1.85 4.12-4.12 4.12-4.12-1.85-4.12-4.12zM114.28 109.2c5.56 0 10.08-4.52 10.08-10.08s-4.52-10.09-10.08-10.09c-5.56 0-10.08 4.52-10.08 10.09s4.52 10.08 10.08 10.08zm0-15.02c2.72 0 4.94 2.21 4.94 4.94 0 2.72-2.21 4.94-4.94 4.94s-4.94-2.21-4.94-4.94c.01-2.73 2.22-4.94 4.94-4.94zM374.08 524.03c-5.56 0-10.08 4.52-10.08 10.08 0 5.56 4.52 10.08 10.08 10.08 5.56 0 10.08-4.52 10.08-10.08.01-5.55-4.52-10.08-10.08-10.08zm0 15.02c-2.72 0-4.94-2.21-4.94-4.94 0-2.72 2.21-4.94 4.94-4.94 2.72 0 4.94 2.21 4.94 4.94 0 2.73-2.21 4.94-4.94 4.94zM180.62 500.68c-6.45 0-11.7 5.25-11.7 11.7 0 6.45 5.25 11.7 11.7 11.7s11.7-5.25 11.7-11.7c0-6.45-5.24-11.7-11.7-11.7zm0 18.26c-3.61 0-6.55-2.94-6.55-6.55s2.94-6.55 6.55-6.55 6.55 2.94 6.55 6.55c.01 3.61-2.93 6.55-6.55 6.55zM137.92 457.53c-4.39 0-7.96 3.57-7.96 7.95s3.57 7.96 7.96 7.96 7.96-3.57 7.96-7.96-3.58-7.95-7.96-7.95zm0 10.76c-1.55 0-2.81-1.26-2.81-2.81s1.26-2.81 2.81-2.81 2.81 1.26 2.81 2.81c-.01 1.55-1.27 2.81-2.81 2.81zM577.02 257.37c-4.39 0-7.96 3.57-7.96 7.96s3.57 7.96 7.96 7.96 7.96-3.57 7.96-7.96-3.57-7.96-7.96-7.96zm0 10.76c-1.55 0-2.81-1.26-2.81-2.81s1.26-2.81 2.81-2.81 2.81 1.26 2.81 2.81-1.26 2.81-2.81 2.81zM391.53 30.5c4.39 0 7.95-3.57 7.95-7.95 0-4.39-3.57-7.96-7.95-7.96-4.39 0-7.96 3.57-7.96 7.96.01 4.38 3.58 7.95 7.96 7.95zm0-10.76c1.55 0 2.81 1.26 2.81 2.81s-1.26 2.81-2.81 2.81-2.81-1.26-2.81-2.81c.01-1.55 1.27-2.81 2.81-2.81zM360.84 75.11c-5.48 0-9.94 4.46-9.94 9.94 0 5.48 4.46 9.94 9.94 9.94s9.94-4.46 9.94-9.94c0-5.48-4.46-9.94-9.94-9.94zm0 14.74c-2.64 0-4.8-2.15-4.8-4.8 0-2.64 2.15-4.8 4.8-4.8s4.8 2.15 4.8 4.8c-.01 2.65-2.16 4.8-4.8 4.8zM213.4 51.83c5.48 0 9.94-4.46 9.94-9.94 0-5.48-4.46-9.94-9.94-9.94-5.48 0-9.94 4.46-9.94 9.94-.01 5.48 4.45 9.94 9.94 9.94zm0-14.74c2.64 0 4.8 2.15 4.8 4.8 0 2.64-2.15 4.8-4.8 4.8-2.64 0-4.8-2.15-4.8-4.8s2.15-4.8 4.8-4.8zM25.03 267.8c-4.56 0-8.26 3.71-8.26 8.26 0 4.56 3.71 8.26 8.26 8.26 4.56 0 8.26-3.71 8.26-8.26s-3.7-8.26-8.26-8.26zm0 11.38c-1.72 0-3.12-1.4-3.12-3.12 0-1.72 1.4-3.12 3.12-3.12s3.12 1.4 3.12 3.12c-.01 1.73-1.4 3.12-3.12 3.12zM545.27 387.23c-3.39 0-6.14 2.76-6.14 6.14 0 3.39 2.76 6.14 6.14 6.14s6.14-2.76 6.14-6.14-2.75-6.14-6.14-6.14zm0 7.14c-.55 0-1-.45-1-1s.45-1 1-1 1 .45 1 1c-.01.55-.45 1-1 1zM213.4 249.98c-3.39 0-6.14 2.76-6.14 6.14 0 3.39 2.76 6.14 6.14 6.14 3.39 0 6.14-2.76 6.14-6.14 0-3.39-2.76-6.14-6.14-6.14zm0 7.14c-.55 0-1-.45-1-1s.45-1 1-1 1 .45 1 1c-.01.55-.45 1-1 1zM69.5 437.72c-3.39 0-6.14 2.76-6.14 6.14 0 3.39 2.76 6.14 6.14 6.14 3.39 0 6.14-2.76 6.14-6.14s-2.75-6.14-6.14-6.14zm0 7.14c-.55 0-1-.45-1-1s.45-1 1-1 1 .45 1 1c-.01.56-.45 1-1 1zM396.23 63.07c0 3.45 2.81 6.26 6.26 6.26 3.45 0 6.26-2.81 6.26-6.26 0-3.45-2.81-6.26-6.26-6.26-3.45 0-6.26 2.81-6.26 6.26zm6.26-1.11c.61 0 1.11.5 1.11 1.11 0 .61-.5 1.11-1.11 1.11-.61 0-1.11-.5-1.11-1.11 0-.61.5-1.11 1.11-1.11zM529.29 126.01c3.45 0 6.26-2.81 6.26-6.26 0-3.45-2.81-6.26-6.26-6.26-3.45 0-6.26 2.81-6.26 6.26 0 3.45 2.81 6.26 6.26 6.26zm0-7.37c.61 0 1.11.5 1.11 1.11 0 .61-.5 1.11-1.11 1.11-.61 0-1.11-.5-1.11-1.11 0-.61.5-1.11 1.11-1.11zM317.5 25.12c3.45 0 6.26-2.81 6.26-6.26s-2.81-6.26-6.26-6.26c-3.45 0-6.26 2.81-6.26 6.26s2.81 6.26 6.26 6.26zm0-7.37c.61 0 1.11.5 1.11 1.11s-.5 1.11-1.11 1.11c-.61 0-1.11-.5-1.11-1.11s.5-1.11 1.11-1.11zM142.55 53.3c3.45 0 6.26-2.81 6.26-6.26 0-3.45-2.81-6.26-6.26-6.26-3.45 0-6.26 2.81-6.26 6.26 0 3.45 2.81 6.26 6.26 6.26zm0-7.37c.61 0 1.11.5 1.11 1.11 0 .61-.5 1.11-1.11 1.11-.61 0-1.11-.5-1.11-1.11 0-.61.5-1.11 1.11-1.11zM334.44 246.18c-5.48 0-9.94 4.46-9.94 9.94s4.46 9.94 9.94 9.94 9.94-4.46 9.94-9.94-4.46-9.94-9.94-9.94zm0 14.74c-2.64 0-4.8-2.15-4.8-4.8 0-2.64 2.15-4.8 4.8-4.8s4.8 2.15 4.8 4.8-2.15 4.8-4.8 4.8zM456.07 69.33c5.48 0 9.94-4.46 9.94-9.94 0-5.48-4.46-9.94-9.94-9.94-5.48 0-9.94 4.46-9.94 9.94-.01 5.48 4.45 9.94 9.94 9.94zm0-14.74c2.64 0 4.8 2.15 4.8 4.8s-2.15 4.8-4.8 4.8c-2.64 0-4.8-2.15-4.8-4.8s2.15-4.8 4.8-4.8zM55.81 331.34c7 0 12.69-5.69 12.69-12.69 0-7-5.69-12.69-12.69-12.69-7 0-12.69 5.69-12.69 12.69 0 7 5.69 12.69 12.69 12.69zm0-20.23c4.16 0 7.54 3.38 7.54 7.54s-3.38 7.54-7.54 7.54-7.54-3.38-7.54-7.54 3.38-7.54 7.54-7.54zM55.81 248.52c5.48 0 9.94-4.46 9.94-9.94 0-5.48-4.46-9.94-9.94-9.94-5.48 0-9.94 4.46-9.94 9.94 0 5.47 4.46 9.94 9.94 9.94zm0-14.75c2.64 0 4.8 2.15 4.8 4.8 0 2.64-2.15 4.8-4.8 4.8-2.64 0-4.8-2.15-4.8-4.8.01-2.64 2.16-4.8 4.8-4.8zM510.7 425.53c-4.12 0-7.48 3.35-7.48 7.48 0 4.12 3.35 7.48 7.48 7.48 4.12 0 7.48-3.35 7.48-7.48-.01-4.13-3.36-7.48-7.48-7.48zm0 9.8c-1.28 0-2.33-1.04-2.33-2.33 0-1.28 1.04-2.33 2.33-2.33 1.28 0 2.33 1.04 2.33 2.33 0 1.28-1.05 2.33-2.33 2.33zM456.07 349.19c-5.48 0-9.94 4.46-9.94 9.94s4.46 9.94 9.94 9.94c5.48 0 9.95-4.46 9.95-9.94s-4.47-9.94-9.95-9.94zm0 14.74c-2.64 0-4.8-2.15-4.8-4.8s2.15-4.8 4.8-4.8c2.64 0 4.8 2.15 4.8 4.8s-2.16 4.8-4.8 4.8zM529.29 346.34c-4.24 0-7.68 3.45-7.68 7.68 0 4.24 3.45 7.68 7.68 7.68 4.24 0 7.68-3.45 7.68-7.68.01-4.23-3.44-7.68-7.68-7.68zm0 10.22c-1.4 0-2.54-1.14-2.54-2.54 0-1.4 1.14-2.54 2.54-2.54 1.4 0 2.54 1.14 2.54 2.54 0 1.4-1.14 2.54-2.54 2.54zM190.32 378.82c-4.24 0-7.68 3.45-7.68 7.68 0 4.24 3.45 7.68 7.68 7.68s7.68-3.45 7.68-7.68c.01-4.23-3.44-7.68-7.68-7.68zm0 10.22c-1.4 0-2.54-1.14-2.54-2.54 0-1.4 1.14-2.54 2.54-2.54 1.4 0 2.54 1.14 2.54 2.54 0 1.4-1.14 2.54-2.54 2.54zM446.12 458.11c0 5.48 4.46 9.94 9.94 9.94 5.48 0 9.94-4.46 9.94-9.94 0-5.48-4.46-9.94-9.94-9.94-5.48 0-9.94 4.46-9.94 9.94zm14.74 0c0 2.64-2.15 4.8-4.8 4.8-2.64 0-4.8-2.15-4.8-4.8 0-2.64 2.15-4.8 4.8-4.8s4.8 2.16 4.8 4.8zM524.48 175.43c4.07 0 7.39-3.32 7.39-7.39s-3.32-7.39-7.39-7.39-7.39 3.32-7.39 7.39 3.31 7.39 7.39 7.39zm0-9.63c1.24 0 2.24 1.01 2.24 2.24 0 1.24-1.01 2.24-2.24 2.24-1.24 0-2.24-1.01-2.24-2.24-.01-1.24 1-2.24 2.24-2.24zM392.39 258.7c11.52 0 20.88-9.37 20.88-20.88 0-11.52-9.37-20.88-20.88-20.88-11.52 0-20.88 9.37-20.88 20.88s9.37 20.88 20.88 20.88zm0-36.63c7.8 0 14.29 5.71 15.52 13.16h-5.1c-1.16-4.68-5.39-8.16-10.42-8.16s-9.27 3.48-10.42 8.16h-5.1c1.24-7.45 7.72-13.16 15.52-13.16zm5.59 15.74c0 3.08-2.51 5.59-5.59 5.59s-5.59-2.51-5.59-5.59 2.51-5.59 5.59-5.59c3.09 0 5.59 2.51 5.59 5.59zm-16.01 2.57c1.16 4.68 5.39 8.16 10.42 8.16s9.27-3.48 10.42-8.16h5.1c-1.23 7.46-7.72 13.16-15.52 13.16s-14.29-5.71-15.52-13.16h5.1zM329.64 305.21c-27.38 0-49.66 22.28-49.66 49.66 0 11.28 3.7 21.92 10.7 30.77.44.56 1.1.85 1.77.85.49 0 .98-.16 1.39-.49.97-.77 1.14-2.19.37-3.16-1.46-1.85-2.76-3.79-3.9-5.8.15-.03.29-.08.43-.14l6.09-2.71c1.14-.51 1.65-1.84 1.14-2.97-.5-1.13-1.83-1.64-2.97-1.14l-6.09 2.71c-.22.1-.4.23-.57.38-2.54-5.71-3.86-11.89-3.86-18.31 0-2.54.22-5.04.63-7.47.17.09.34.17.54.22l6.47 1.61c.18.05.37.07.55.07 1.01 0 1.93-.68 2.18-1.71.3-1.21-.43-2.43-1.64-2.73l-6.47-1.61c-.24-.06-.48-.07-.72-.05 2.3-8.6 7.09-16.2 13.54-21.98.04.06.07.12.11.18l4.1 5.25c.44.57 1.11.86 1.77.86.48 0 .97-.16 1.38-.48.98-.76 1.15-2.18.39-3.16l-4.1-5.25c-.06-.08-.13-.14-.2-.21 6.9-5.06 15.29-8.21 24.37-8.66v6.27c0 1.24 1.01 2.25 2.25 2.25s2.25-1.01 2.25-2.25v-6.27c9.08.45 17.47 3.6 24.37 8.66-.07.07-.14.13-.2.21l-4.1 5.25c-.77.98-.59 2.39.39 3.16.41.32.9.48 1.38.48.67 0 1.33-.3 1.77-.86l4.1-5.25c.04-.06.07-.12.11-.17 6.45 5.78 11.24 13.37 13.54 21.98-.24-.02-.48-.01-.72.05l-6.47 1.61c-1.21.3-1.94 1.52-1.64 2.73.25 1.02 1.17 1.71 2.18 1.71.18 0 .36-.02.55-.07l6.47-1.61c.19-.05.37-.13.54-.22.41 2.43.63 4.92.63 7.47 0 6.42-1.32 12.61-3.86 18.31-.17-.15-.35-.28-.57-.38l-6.09-2.71c-1.14-.5-2.47 0-2.97 1.14-.51 1.13.01 2.46 1.14 2.97l6.09 2.71c.14.06.29.11.43.14-1.14 2.01-2.44 3.95-3.9 5.79-.77.97-.61 2.39.37 3.16.97.77 2.39.61 3.16-.37 7-8.85 10.7-19.49 10.7-30.77.02-27.37-22.26-49.65-49.64-49.65z"/><path class="st5" d="M354.23 350.48l-20.64 8.32c-2.87-.9-6.02-.47-8.55 1.2-4.64 3.06-5.92 9.32-2.87 13.96 1.48 2.25 3.75 3.78 6.39 4.33.68.14 1.37.21 2.05.21 1.95 0 3.86-.57 5.53-1.67 2.53-1.67 4.16-4.39 4.47-7.38l15.77-15.69c.67-.67.78-1.72.26-2.52s-1.53-1.11-2.41-.76zm-16.98 16.66c-.37.37-.58.86-.59 1.38-.04 2.01-1.06 3.87-2.73 4.96-1.36.89-2.98 1.21-4.57.88-1.59-.33-2.96-1.25-3.85-2.61-.89-1.36-1.21-2.98-.88-4.57.33-1.59 1.25-2.96 2.61-3.85 1-.66 2.17-1 3.34-1 .78 0 1.56.15 2.3.45.48.19 1.02.2 1.5 0l12.18-4.91-9.31 9.27zM327.29 342.37c4.55.37 8.59 2.83 12 7.32.39.51.99.79 1.59.79.36 0 .72-.1 1.04-.29l12.08-7.37c.52-.32.87-.86.94-1.46.07-.61-.13-1.21-.56-1.65-.52-.53-12.9-12.86-27.1-10.69-8.55 1.31-15.76 7.55-21.43 18.55-.45.87-.2 1.93.58 2.52.78.59 1.87.52 2.58-.15.09-.09 8.86-8.31 18.28-7.57zm.58-9.4c9.22-1.42 17.99 4.72 21.75 7.83l-8.28 5.05c-3.9-4.54-8.51-7.06-13.73-7.47-.52-.04-1.04-.06-1.56-.06-4.22 0-8.18 1.34-11.43 2.97 3.92-4.77 8.36-7.56 13.25-8.32z"/><g><path class="st3" d="M136.93 264.35c0 2.28-.31 4.28-.92 6-.61 1.72-1.49 3.16-2.63 4.31-1.14 1.15-2.53 2.01-4.17 2.6s-3.48.88-5.52.88c-2.3 0-4.27-.29-5.91-.88s-2.97-1.42-3.99-2.52c-1.02-1.09-1.76-2.42-2.21-3.99-.46-1.57-.68-3.33-.68-5.28v-23.71h6.73v23.3c0 1.2.1 2.27.31 3.2.21.93.57 1.72 1.09 2.37.52.65 1.17 1.13 1.96 1.46.78.33 1.77.49 2.95.49 1.11 0 2.05-.14 2.82-.42.77-.28 1.4-.74 1.91-1.37.51-.63.89-1.44 1.15-2.42.25-.98.38-2.18.38-3.58v-23.02h6.73v22.58zM161.51 247.37v30.13h-6.89v-30.13h-9.79v-5.61h26.47v5.61h-9.79zM130.53 320.51l-6.89-13.15-6.78 13.15h-8.12l10.31-18.32-9.63-17.42h7.9l6.48 12.44 6.26-12.44h7.9l-9.57 17.42 10.69 18.32h-8.55zM172.45 302.49c0 3.25-.38 6.04-1.13 8.39-.76 2.35-1.8 4.28-3.12 5.8-1.32 1.51-2.87 2.63-4.65 3.36s-3.68 1.09-5.7 1.09c-4.7 0-8.24-1.56-10.61-4.69-2.37-3.13-3.55-7.67-3.55-13.63 0-3.24.38-6.04 1.13-8.39.76-2.35 1.8-4.28 3.12-5.8 1.32-1.51 2.87-2.63 4.65-3.36 1.78-.73 3.68-1.09 5.7-1.09 4.7 0 8.24 1.56 10.61 4.68 2.36 3.11 3.55 7.66 3.55 13.64zm-7.11.33c0-4.23-.57-7.38-1.7-9.46-1.13-2.08-2.99-3.12-5.58-3.12-1.29 0-2.4.27-3.31.81-.91.54-1.66 1.33-2.26 2.37-.59 1.04-1.03 2.32-1.3 3.84s-.41 3.27-.41 5.24c0 4.23.57 7.38 1.71 9.46 1.14 2.08 2.99 3.12 5.56 3.12 1.29 0 2.4-.27 3.32-.81.92-.54 1.67-1.33 2.26-2.37.58-1.04 1.01-2.32 1.29-3.84.28-1.53.42-3.28.42-5.24z"/></g><g><path class="st3" d="M471.67 275.01l10.13 6.78-9.41 16.38 27.76-17.69-11.76-7.44 9.77-14.83-26.49 16.8z"/></g></svg>