<svg id="Layer_7" xmlns="http://www.w3.org/2000/svg" viewBox="0 0 600 550"><style>.st0{fill:#bff8e6}.st1{fill:#fff}.st2{fill:#d387ff}.st3{fill:#f0f2f4}.st5{fill:#24e6aa}.st6{fill:#e6ecea}.st9{fill:#464853}</style><path class="st0" d="M550.88 166.72H157.77c-3.16 0-5.71 2.56-5.71 5.71v293.69c0 3.16 2.56 5.71 5.71 5.71h147.4c-.79 13.79-5.4 26.55-12.78 37.25h-46.25v21.33h216.37v-21.33h-46.25c-7.38-10.71-11.99-23.47-12.78-37.25h147.4c3.16 0 5.71-2.56 5.71-5.71V172.44c0-3.16-2.55-5.72-5.71-5.72z"/><path class="st1" d="M168.25 185.01h372.16v268.55H168.25z"/><path class="st2" d="M168.25 185.01h372.16v34.46H168.25z"/><path class="st3" d="M525.19 234.8H186.16c-1.74 0-3.15 1.41-3.15 3.15v39.62c0 1.74 1.41 3.15 3.15 3.15h339.03c1.74 0 3.15-1.41 3.15-3.15v-39.62c0-1.74-1.41-3.15-3.15-3.15zM473.34 292.23H304.58c-1.74 0-3.15 1.41-3.15 3.15v60.69c0 1.74 1.41 3.15 3.15 3.15h130.28c1.74 0 3.15-1.41 3.15-3.15v-15.64h35.32c1.74 0 3.15-1.41 3.15-3.15v-41.9c.01-1.74-1.4-3.15-3.14-3.15zM383.82 375.15h-79.24c-1.74 0-3.15 1.41-3.15 3.15v35.81c0 1.74 1.41 3.15 3.15 3.15h79.24c1.74 0 3.15-1.41 3.15-3.15V378.3c0-1.74-1.41-3.15-3.15-3.15zM301.56 428.86h79.24v8.67h-79.24z"/><path d="M277.29 366.84c0-.08-.01-.16-.02-.24-.01-.07-.03-.14-.04-.21-.02-.07-.04-.14-.07-.21-.03-.07-.06-.14-.09-.2s-.06-.13-.1-.19c-.04-.07-.09-.13-.14-.19-.03-.03-.04-.07-.07-.1l-36.01-41.81c8.59-2.11 14.99-9.87 14.99-19.11 0-1.21-.12-2.46-.36-3.71-.2-1.06-1.13-1.83-2.21-1.83h-14.25V169.87h-4.5v129.17h-15.46c-1.08 0-2.01.77-2.21 1.83-.24 1.25-.36 2.5-.36 3.71 0 9.53 6.82 17.5 15.84 19.3l-35.65 41.62c-.03.03-.04.06-.07.1-.05.06-.1.13-.14.2-.04.06-.07.12-.1.18l-.09.21c-.03.07-.05.14-.07.21-.02.07-.03.14-.04.21-.01.08-.02.16-.02.24 0 .04-.01.08-.01.12v67.32c0 1.24 1.01 2.25 2.25 2.25h76.77c1.24 0 2.25-1.01 2.25-2.25v-67.32c0-.05-.01-.08-.02-.13zm-74.11-2.12l33.39-38.98 33.58 38.98h-66.97z" fill="#adb2b0"/><path class="st5" d="M192.02 356.1h76.77v67.32h-76.77z"/><path class="st6" d="M335.09 93.57h-325c-2.62 0-4.74 2.12-4.74 4.74v32.12c0 2.62 2.12 4.74 4.74 4.74h324.99c2.62 0 4.74-2.12 4.74-4.74V98.31c0-2.62-2.12-4.74-4.73-4.74zM64.53 125.69L46 103.05h116.39l-18.52 22.65H64.53zm-12.25 0H19.56l16.36-20.01 16.36 20.01zm152.9-20l16.36 20.01h-32.73l16.37-20.01zm10.08-2.64h31.66l-15.83 19.35-15.83-19.35zm41.74 2.64l16.36 20.01h-32.73L257 105.69zm10.08-2.64h31.66l-15.83 19.35-15.83-19.35zm41.74 2.64l16.36 20h-32.73l16.37-20zM212.7 290.43c-.2 1.07-.32 2.17-.32 3.29 0 9.62 7.8 17.42 17.42 17.42s17.42-7.8 17.42-17.42c0-1.13-.12-2.23-.32-3.29h-34.2z"/><path class="st1" d="M248.29 386.7c-1.48-1.26-3.46-1.93-5.93-2 2.68-2.16 3.45-5.03 2.32-8.62-.4-1.3-1.01-2.38-1.83-3.22-.82-.85-1.81-1.46-2.98-1.83-1.17-.37-2.4-.59-3.69-.64-1.29-.05-2.75.02-4.37.21l-1.59-7.61-4.65.97 1.55 7.39c-.8.17-2.03.45-3.67.83l-1.56-7.45-4.65.97 1.59 7.61c-.66.16-1.63.37-2.92.64l-6.4 1.31 1.04 4.95 3.35-.7c1.53-.32 2.57.18 3.12 1.49l1.82 8.66c.2-.04.36-.07.49-.07l-.48.1 2.54 12.13c.05 1.06-.42 1.7-1.43 1.91l-3.35.7.22 5.72 6.04-1.26c.38-.08.94-.19 1.66-.33.73-.14 1.27-.25 1.63-.33l1.61 7.7 4.65-.97-1.59-7.61c.85-.16 2.08-.4 3.69-.74l1.59 7.58 4.65-.97-1.61-7.7c1.63-.43 3.06-.88 4.3-1.37 1.23-.49 2.38-1.09 3.45-1.81 1.07-.72 1.92-1.51 2.56-2.38.64-.87 1.1-1.9 1.39-3.09.28-1.19.35-2.52.19-3.98-.36-2.86-1.27-4.92-2.75-6.19zm-23.62-9.1c.14-.03.54-.12 1.19-.26.65-.15 1.19-.27 1.63-.37.43-.1 1.02-.2 1.76-.29.75-.09 1.38-.14 1.91-.15.52 0 1.11.05 1.76.15.65.1 1.19.28 1.63.54.43.26.83.61 1.19 1.07.36.46.61 1.02.75 1.69.12.56.14 1.1.05 1.6-.08.5-.28.95-.57 1.33-.3.39-.61.74-.94 1.05-.33.31-.78.6-1.35.87-.57.26-1.06.48-1.49.66-.42.17-.97.34-1.62.51-.66.17-1.16.3-1.5.38-.34.08-.81.18-1.4.29-.6.12-.94.18-1.04.2l-1.96-9.27zm17 17.89c-.09.5-.26.96-.49 1.36-.23.41-.57.79-1 1.15-.44.37-.87.68-1.3.94-.43.26-.96.51-1.59.77-.63.26-1.18.46-1.67.62-.48.15-1.06.32-1.74.49-.68.17-1.21.3-1.59.38-.38.08-.87.18-1.45.29-.59.11-.96.19-1.12.22l-2.14-10.2c.16-.03.64-.14 1.43-.33.79-.19 1.44-.33 1.94-.44.5-.11 1.2-.22 2.1-.35.9-.13 1.66-.19 2.29-.2.63-.01 1.33.04 2.09.14.77.1 1.41.29 1.93.56.52.27.99.65 1.41 1.15.42.5.71 1.11.86 1.84.12.58.14 1.11.04 1.61zm0 0"/><path d="M169.15 135.17l.13-30.64-21.81-49.42H86.39v.1L53.78 93.53v41.64h32.61v345.56H68.96v50.8h17.43v.01h10.03v-.01h17.51v.01h10.03v-.01h20.14v-50.8h-20.14V135.17h45.19zM96.42 269.79l15.33 18.33-15.33 18.33v-36.66zm0 53.5l15.33 18.33-15.33 18.33v-36.66zm0 53.49l15.33 18.33-15.33 18.33v-36.66zm0 53.49l15.33 18.33-15.33 18.33v-36.66zm17.51 50.46H96.42v-1.32c.23-.17.44-.36.64-.6l16.86-20.16v22.08zm0-42.18l-13.97-16.69 13.97-16.69v33.38zm0-53.49l-13.97-16.7 13.97-16.69v33.39zm0-53.5l-13.97-16.69 13.97-16.69v33.38z" fill="#e5edea"/><path class="st0" d="M139.7 71.3h-36.97v42.23h50.09l-.21-14.22zM43.2 424.1c0 4.86 3.94 8.81 8.81 8.81 4.86 0 8.81-3.94 8.81-8.81 0-4.86-3.94-8.81-8.81-8.81-4.87.01-8.81 3.95-8.81 8.81z"/><path class="st3" d="M38.48 422.87h27.05l-3.27-7.62H41.75zM514.86 456.86h12.47v47.8h-12.47z"/><path class="st3" d="M503.43 503.97h35.33v14.55h-35.33z"/><path class="st2" d="M460.98 379.61c0-5.97-5.13-10.81-11.46-10.81h-73.36c-6.33 0-11.46 4.84-11.46 10.81v140.48c0 5.97 5.13 10.81 11.46 10.81h73.36c6.33 0 11.46-4.84 11.46-10.81V379.61z"/><path class="st1" d="M374.39 380.67h76.89v127.46h-76.89z"/><path class="st3" d="M560.87 530.98c-.53-7.36-6.66-13.16-14.15-13.16h-51.26c-7.49 0-13.61 5.81-14.15 13.16h79.56zM510.25 451.32c-.59 1.02-.93 2.2-.93 3.46 0 3.83 3.1 6.93 6.93 6.93h9.7c3.82 0 6.93-3.1 6.93-6.93 0-1.26-.34-2.44-.93-3.46h-21.7z"/><path fill="#969ea3" d="M387.19 405.26h73.79v32.62h-73.79z"/><path class="st3" d="M486.28 427.08v-29.44h44.34v-12.82h-56.11v55.07h56.11v-12.81z"/><path class="st5" d="M374.39 397.64h114.83v29.79H374.39z"/><path class="st9" d="M497.77 205.39h22.06c1.74 0 3.15-1.41 3.15-3.15s-1.41-3.15-3.15-3.15h-22.06c-1.74 0-3.15 1.41-3.15 3.15.01 1.74 1.42 3.15 3.15 3.15zM444.43 205.39h22.05c1.74 0 3.15-1.41 3.15-3.15s-1.41-3.15-3.15-3.15h-22.05c-1.74 0-3.15 1.41-3.15 3.15s1.41 3.15 3.15 3.15zM310.56 104.26c-.43-.52-1.07-.83-1.74-.83-.67 0-1.31.3-1.74.83l-16.36 20c-.55.67-.66 1.6-.29 2.39.37.79 1.16 1.29 2.03 1.29h32.73c.87 0 1.66-.5 2.03-1.29.37-.79.26-1.72-.29-2.39l-16.37-20zm-13.36 19.18l11.62-14.2 11.61 14.2H297.2zM248.95 102.08c-.37-.79-1.16-1.29-2.03-1.29h-31.66c-.87 0-1.66.5-2.03 1.29-.37.79-.26 1.72.29 2.39l15.83 19.35c.43.52 1.07.83 1.74.83.68 0 1.31-.3 1.74-.83l15.83-19.35c.55-.67.66-1.6.29-2.39zm-17.86 16.76l-11.08-13.54h22.16l-11.08 13.54zM206.92 104.26c-.43-.52-1.07-.83-1.74-.83s-1.31.3-1.74.83l-16.36 20c-.55.67-.66 1.6-.29 2.39.37.79 1.16 1.29 2.03 1.29h32.73c.87 0 1.66-.5 2.03-1.29.37-.79.26-1.72-.29-2.39l-16.37-20zm-13.36 19.18l11.61-14.2 11.61 14.2h-23.22zM300.77 102.08c-.37-.79-1.16-1.29-2.03-1.29h-31.66c-.87 0-1.66.5-2.03 1.29-.37.79-.26 1.72.29 2.39l15.83 19.35c.43.52 1.07.83 1.74.83.67 0 1.31-.3 1.74-.83l15.83-19.35c.55-.67.66-1.6.29-2.39zm-17.86 16.76l-11.08-13.54h22.16l-11.08 13.54zM258.74 104.26c-.43-.52-1.07-.83-1.74-.83s-1.31.3-1.74.83l-16.36 20c-.55.67-.66 1.6-.29 2.39.37.79 1.16 1.29 2.03 1.29h32.73c.87 0 1.66-.5 2.03-1.29.37-.79.26-1.72-.29-2.39l-16.37-20zm-13.36 19.18l11.61-14.2 11.61 14.2h-23.22zM95.65 362.06c.25.09.51.13.77.13.65 0 1.29-.28 1.73-.81l15.33-18.33c.7-.84.7-2.05 0-2.89l-15.33-18.33c-.61-.73-1.6-.99-2.49-.67-.89.32-1.48 1.17-1.48 2.11v36.66c-.01.96.58 1.81 1.47 2.13zm3.02-32.57l10.15 12.13-10.15 12.13v-24.26zM95.65 308.57c.25.09.51.14.77.14.65 0 1.29-.29 1.73-.81l15.33-18.33c.7-.84.7-2.05 0-2.89l-15.33-18.33c-.61-.73-1.6-.99-2.49-.67-.89.32-1.48 1.17-1.48 2.12v36.66c-.01.94.58 1.78 1.47 2.11zm3.02-32.58l10.15 12.13-10.15 12.13v-24.26zM114.7 456.54c-.89-.32-1.89-.06-2.49.67l-16.86 20.16c-.06.08-.14.15-.26.23-.57.42-.91 1.1-.91 1.81v1.32c0 1.24 1.01 2.25 2.25 2.25h17.51c1.24 0 2.25-1.01 2.25-2.25v-22.07c-.01-.95-.6-1.8-1.49-2.12zm-3.02 21.94h-11.4l11.4-13.62v13.62zM114.7 403.05c-.89-.32-1.89-.06-2.49.67l-13.97 16.69c-.7.84-.7 2.05 0 2.89l13.97 16.69c.44.52 1.07.81 1.73.81.26 0 .52-.04.77-.14.89-.32 1.48-1.17 1.48-2.12v-33.39c-.01-.94-.6-1.78-1.49-2.1zm-3.02 29.3l-8.78-10.5 8.78-10.5v21zM95.65 415.55c.25.09.51.13.77.13.65 0 1.29-.29 1.73-.81l15.33-18.33c.7-.84.7-2.05 0-2.89l-15.33-18.33c-.61-.73-1.6-.99-2.49-.67-.89.32-1.48 1.17-1.48 2.12v36.66c-.01.95.58 1.8 1.47 2.12zm3.02-32.57l10.15 12.13-10.15 12.13v-24.26zM95.65 469.05c.25.09.51.13.77.13.65 0 1.29-.29 1.73-.81l15.33-18.33c.7-.84.7-2.05 0-2.89l-15.33-18.33c-.61-.73-1.6-.99-2.49-.67-.89.32-1.48 1.17-1.48 2.12v36.66c-.01.95.58 1.79 1.47 2.12zm3.02-32.58l10.15 12.13-10.15 12.13v-24.26zM114.7 349.55c-.89-.32-1.89-.06-2.49.67l-13.97 16.69c-.7.84-.7 2.05 0 2.89l13.97 16.7c.44.52 1.07.81 1.73.81.26 0 .52-.04.77-.13.89-.32 1.48-1.17 1.48-2.12v-33.39c-.01-.95-.6-1.79-1.49-2.12zm-3.02 29.31l-8.78-10.5 8.78-10.49v20.99zM114.7 296.06c-.89-.32-1.89-.06-2.49.67l-13.97 16.69c-.7.84-.7 2.05 0 2.89L112.21 333c.44.52 1.07.81 1.73.81.26 0 .52-.04.77-.14.89-.32 1.48-1.17 1.48-2.11v-33.39c-.01-.94-.6-1.79-1.49-2.11zm-3.02 29.31l-8.78-10.5 8.78-10.5v21zM102.73 115.78h50.09c.6 0 1.18-.24 1.6-.67.42-.43.66-1.01.65-1.61l-.02-1.48-.06-3.9-.04-2.83-.03-2.25-.03-2.25-.02-1.52c0-.31-.07-.62-.21-.91l-1.18-2.55-1.04-2.25-1.04-2.25-9.66-20.96c-.37-.8-1.17-1.31-2.04-1.31h-36.97c-1.24 0-2.25 1.01-2.25 2.25V113.52c0 1.26 1 2.26 2.25 2.26zm2.25-10.48V73.55h33.28l8.19 17.77 1.04 2.25 1.04 2.25 1.84 4 .01.97.03 2.25.03 2.25.09 5.98h-45.56v-5.97z"/><path class="st1" d="M130.88 95.82l-2.25-2.25-2.25-2.25-11.23-11.23c-.88-.88-2.3-.88-3.18 0s-.88 2.3 0 3.18l8.04 8.04 2.25 2.25 2.25 2.25 4.98 4.98.87.87c.44.44 1.02.66 1.59.66.58 0 1.15-.22 1.59-.66.25-.25.42-.55.53-.87.27-.79.1-1.69-.53-2.31l-2.66-2.66zM136.61 91.31l-10.45-10.45c-.88-.88-2.3-.88-3.18 0-.88.88-.88 2.3 0 3.18l7.27 7.27 2.25 2.25.93.93c.44.44 1.02.66 1.59.66.58 0 1.15-.22 1.59-.66.27-.27.44-.59.55-.93.24-.76.06-1.63-.55-2.25 0 .01 0 0 0 0z"/><path class="st9" d="M95.65 255.29c.25.09.51.14.77.14.65 0 1.29-.29 1.73-.81l15.33-18.33c.7-.84.7-2.05 0-2.89l-15.33-18.33c-.61-.73-1.6-.99-2.49-.67-.89.32-1.48 1.17-1.48 2.12v36.66c-.01.94.58 1.78 1.47 2.11zm3.02-32.58l10.15 12.13-10.15 12.13v-24.26zM114.7 242.78c-.89-.32-1.89-.06-2.49.67l-13.97 16.69c-.7.84-.7 2.05 0 2.89l13.97 16.69c.44.52 1.07.81 1.73.81.26 0 .52-.04.77-.14.89-.32 1.48-1.17 1.48-2.11V244.9c-.01-.95-.6-1.8-1.49-2.12zm-3.02 29.31l-8.78-10.5 8.78-10.5v21zM95.65 201.57c.25.09.51.14.77.14.65 0 1.29-.29 1.73-.81l15.33-18.33c.7-.84.7-2.05 0-2.89l-15.33-18.33c-.61-.73-1.6-.99-2.49-.67-.89.32-1.48 1.17-1.48 2.12v36.66c-.01.94.58 1.79 1.47 2.11zM98.67 169l10.15 12.13-10.15 12.13V169zM114.7 189.07c-.89-.32-1.89-.06-2.49.67l-13.97 16.69c-.7.84-.7 2.05 0 2.89l13.97 16.69c.44.52 1.07.81 1.73.81.26 0 .52-.04.77-.14.89-.32 1.48-1.17 1.48-2.11v-33.39c-.01-.94-.6-1.79-1.49-2.11zm-3.02 29.3l-8.78-10.5 8.78-10.5v21zM114.7 134.56c-.86-.31-1.82-.06-2.43.61-.02.02-.05.03-.06.06l-1.84 2.19-12.13 14.5c-.7.84-.7 2.05 0 2.89l13.97 16.69c.44.52 1.07.81 1.73.81.26 0 .52-.04.77-.14.89-.32 1.48-1.17 1.48-2.11v-33.39c0-.57-.24-1.1-.61-1.5-.24-.26-.53-.49-.88-.61zm-3.02 29.3l-8.78-10.5 8.78-10.5v21z"/><path class="st9" d="M588.49 527.33h-25.38c-2.06-7.16-8.68-12.37-16.38-12.37h-5.1v-10.99c0-1.58-1.28-2.86-2.86-2.86h-8.57v-26.12h20.69c4.89 0 8.86-3.98 8.86-8.86V172.44c0-4.89-3.98-8.86-8.86-8.86H232.65v-26.15h102.43c3.85 0 6.99-3.14 6.99-6.99V98.31c0-3.85-3.13-6.99-6.99-6.99h-.12L127.6 3.92h-.01c-.01-.01-.02-.01-.04-.01-.01 0-.02-.01-.03-.01-.07-.03-.14-.05-.21-.06-.05-.01-.1-.03-.15-.04-.02 0-.05 0-.07-.01-.07-.01-.14-.02-.21-.02h-.01c-.05 0-.1-.01-.15-.01-.02 0-.04.01-.05.01h-.01c-.07 0-.14.01-.21.02-.06.01-.11.01-.17.02-.02 0-.04.01-.06.01-.07.02-.13.04-.2.06-.05.02-.11.03-.16.05l-.06.03c-.06.03-.11.06-.17.09-.05.03-.11.05-.16.09-.02.01-.04.03-.06.05-.02.01-.03.02-.05.03L9.27 91.37c-3.47.41-6.17 3.36-6.17 6.94v32.12c0 3.85 3.14 6.99 6.99 6.99h74.05v341.06H68.96c-1.24 0-2.25 1.01-2.25 2.25v46.6H30.47V404.16H49.9V413h-8.15c-.9 0-1.71.54-2.07 1.36l-3.27 7.62c-.3.7-.23 1.49.19 2.13.42.63 1.12 1.01 1.88 1.01H41c.52 5.62 5.25 10.04 11.01 10.04 5.75 0 10.49-4.42 11.01-10.04h2.52c.76 0 1.46-.38 1.88-1.01.42-.63.49-1.43.19-2.13l-3.27-7.62c-.36-.83-1.17-1.36-2.07-1.36H54.4v-11.09c0-1.24-1.01-2.25-2.25-2.25H30.47v-9.78c0-2.21-1.79-4-4-4s-4 1.79-4 4v137.46h-6.19c-2.21 0-4 1.79-4 4s1.79 4 4 4h10.13c.02 0 .04.01.06.01s.04-.01.06-.01h561.96c2.21 0 4-1.79 4-4s-1.79-4.01-4-4.01zM52.01 430.66c-3.27 0-5.98-2.41-6.47-5.54h12.94c-.5 3.13-3.21 5.54-6.47 5.54zm8.77-13.16l1.34 3.12H41.9l1.34-3.12h17.54zm178.14-247.63h311.96c1.41 0 2.56 1.15 2.56 2.56v293.69c0 1.41-1.15 2.56-2.56 2.56h-20.69v-5.09c2.72-1.32 4.74-3.85 5.35-6.89h4.86c1.74 0 3.15-1.41 3.15-3.15v-19.59c1.18-.35 2.05-1.43 2.05-2.73s-.87-2.38-2.05-2.73v-33.1c1-.45 1.71-1.45 1.71-2.62 0-1.17-.7-2.17-1.71-2.62V181.85H238.92v6.3h298.33v28.16H238.92v6.3h298.33v167.31h-3.77v-5.1c0-1.58-1.28-2.86-2.86-2.86h-4.93v-15.23h5.45c1.58 0 2.86-1.28 2.86-2.86 0-1.58-1.28-2.86-2.86-2.86h-5.45v-19.73h5.45c1.58 0 2.86-1.28 2.86-2.86s-1.28-2.86-2.86-2.86h-5.45v-8.39c0-1.18-.71-2.19-1.73-2.63v-17.29c0-1.58-1.28-2.86-2.86-2.86s-2.86 1.28-2.86 2.86v17.28c-1.02.44-1.73 1.45-1.73 2.63v8.39h-5.45c-1.58 0-2.86 1.28-2.86 2.86s1.28 2.86 2.86 2.86h5.45V361h-5.45c-1.58 0-2.86 1.28-2.86 2.86 0 1.58 1.28 2.86 2.86 2.86h5.45v15.23h-41.99c-1.58 0-2.86 1.28-2.86 2.86v9.95h-7.8V379.6c0-7.54-6.43-13.67-14.33-13.67h-73.36c-6.26 0-11.58 3.86-13.53 9.21-.36 1-.62 2.06-.73 3.15-.04.43-.07.87-.07 1.31v70.8H171.4V222.61h56.76v65.57H212.7c-1.08 0-2.01.77-2.21 1.83-.24 1.25-.36 2.5-.36 3.72 0 5.86 2.59 11.11 6.66 14.72 2.56 2.27 5.7 3.89 9.18 4.58l-4.26 4.98-30.72 35.86h-1.22v71.82h81.27v-71.82h-1.22l-26.65-30.94-8.7-10.1c6.88-1.68 12.34-6.98 14.25-13.77.48-1.7.75-3.48.75-5.32 0-1.21-.12-2.46-.36-3.72-.2-1.06-1.13-1.83-2.21-1.83h-14.25v-65.57h1.77v-6.3h-1.77v-28.16h1.77v-6.3h-1.77v-11.98h6.27zm285.54 305.12v26.12h-6.74v-36.53h6.74v10.41zm32.89 53.13h-72.52c.1-.27.21-.53.33-.79 1.8-3.93 5.77-6.65 10.3-6.65H546.73c4.53 0 8.51 2.72 10.3 6.65.12.26.22.52.32.79zm-21.45-13.16h-29.6v-8.13h29.61v8.13zm-77.78-43.12v48.26c0 3.18-2.03 5.91-4.96 7.18-.04.02-.08.04-.12.05-1.08.45-2.27.7-3.52.7h-73.36c-1.25 0-2.44-.26-3.52-.7-.04-.02-.08-.04-.12-.05-2.92-1.27-4.96-4.01-4.96-7.18V379.61c0-.45.05-.89.13-1.31.21-1.15.68-2.22 1.36-3.15 1.55-2.1 4.16-3.48 7.11-3.48h73.36c4.74 0 8.6 3.56 8.6 7.94v15.16h-3.97v-14.1c0-1.58-1.28-2.86-2.86-2.86H374.4c-.59 0-1.14.18-1.6.49-.76.51-1.26 1.39-1.26 2.38V508.13c0 .34.07.66.18.96.4 1.11 1.44 1.9 2.69 1.9h76.9c1.24 0 2.29-.8 2.69-1.9.11-.3.18-.62.18-.96V437.87h-5.72v67.39h-71.2V430.28h83.71v7.59h-2.86v33.97zm-165.73 40.4h69.44v7.85c0 2.64.8 5.09 2.16 7.18h-114.7v-15.03h43.1zm233.3-124.56h2.07v7.09h-50.37v-7.09h48.3zm-9.44 71.17c-.49 0-.95-.1-1.39-.26-.94-.34-1.7-1.02-2.17-1.88-.18-.33-.33-.68-.41-1.06-.06-.28-.1-.56-.1-.86 0-.2.02-.4.04-.6h17.72c.03.2.04.4.04.6 0 .3-.04.58-.1.86-.08.38-.23.73-.41 1.06-.47.87-1.24 1.54-2.17 1.89-.43.16-.9.26-1.38.26h-9.67zm11.51-21.82h-50.37v-6.74h14.71v-.35H527.76v7.09zm-11.26-28.75h-5.45c-1.58 0-2.86 1.28-2.86 2.86s1.28 2.86 2.86 2.86h5.45v10.2h-24.41v-23.7h24.41v7.78zm17.91 41.61c-.51-.88-1.46-1.43-2.48-1.43h-6.25v-5.7h4.93c1.58 0 2.86-1.28 2.86-2.86v-5.79h3.77v16.31h-2.58c-.08-.19-.15-.37-.25-.53zm-50.99-49.39H486.35v24.06H377.28V400.5H483.42zm-106.17-16.97h71.16v11.24H377.25v-11.24zm86.6 46.76h7.8v9.61c0 1.58 1.28 2.86 2.86 2.86h41.99v5.7h-6.25c-1.02 0-1.97.54-2.48 1.43-.1.17-.17.35-.26.52h-43.67v-20.12zm73.4-1.92h-3.77v-1.29c0-1.58-1.28-2.86-2.86-2.86h-4.93v-10.2h5.45c1.58 0 2.86-1.28 2.86-2.86s-1.28-2.86-2.86-2.86h-5.45v-7.78h4.93c1.58 0 2.86-1.28 2.86-2.86v-1.98h3.77v32.69zm-309.1-212.05H171.4v-28.16h56.76v28.16zm0-34.46H165.1v271.7c0 1.74 1.41 3.15 3.15 3.15h193.58v11.98H157.78c-1.41 0-2.56-1.15-2.56-2.56V172.44c0-1.41 1.15-2.56 2.56-2.56h70.38v11.98zM337 474.99v6.7c0 9.68 7.85 17.52 17.53 17.52 2.61 0 5.08-.59 7.31-1.61v8.35h-63.71c5.51-9.47 8.92-20.03 9.97-30.96H337zm126.85-18.28h42.8c.61 3.04 2.63 5.57 5.35 6.89v5.1h-48.15v-11.99zm-197.31-91.99v56.46h-72.27v-62.82h72.26v6.36zm-2.66-10.87h-66.97l28.22-32.94 5.17-6.04 33.58 38.98zm-19.89-54.81c-1.84 4.88-6.11 8.57-11.33 9.57-.93.18-1.88.28-2.86.28-.56 0-1.11-.03-1.65-.09-4.9-.53-9.09-3.41-11.46-7.48-1.3-2.24-2.06-4.83-2.06-7.6 0-.34.01-.69.04-1.04H244.94c.03.35.04.7.04 1.04-.01 1.88-.37 3.66-.99 5.32zM7.61 130.43V98.31c0-1.37 1.12-2.49 2.49-2.49h41.44v4.98H46c-.87 0-1.66.5-2.03 1.29-.37.79-.26 1.72.29 2.39l7.27 8.89v7.86l-13.87-16.96c-.43-.52-1.07-.83-1.74-.83-.68 0-1.31.3-1.74.83l-16.36 20c-.55.67-.66 1.6-.29 2.39.37.79 1.16 1.29 2.03 1.29h31.98v4.98H10.09c-1.37-.01-2.48-1.13-2.48-2.5zm329.96-32.12v32.12c0 1.37-1.12 2.49-2.49 2.49H171.41l.05-12.09 4.65 5.89c.84.7 2.05.7 2.89 0l16.69-21.12c.52-.44.81-1.07.81-1.73 0-.26-.04-.52-.14-.77-.32-.89-1.17-1.48-2.11-1.48h-23.8l-2.56-5.79h167.18c.76 0 1.44.35 1.9.9.38.42.6.97.6 1.58zm-147.49 7.81l-12.51 15.46-6.06-8.93.03-6.53h18.54zm-138.55.13l-.78-.95h.78v.95zm-4 17.19H24.31l11.61-14.2 11.61 14.2zm8.5 9.48V94.35l.66-.78 1.9-2.25 25.33-30.04V132.93H56.03zm15.18 350.06h15.18c1.24 0 2.25-1.01 2.25-2.25V57.36H146l15 33.96.99 2.25.99 2.25 2.56 5.79 1.49 3.39-.04 10.16-.08 17.76h-42.95c-1.24 0-2.25 1.01-2.25 2.25v345.56c0 1.24 1.01 2.25 2.25 2.25h17.89v44.35H71.21v-44.35zm94.71-391.66L149.54 54.2c-.36-.82-1.17-1.34-2.06-1.34h-18.51V9.38l194.41 81.94H165.92zm-41.45-80.83v42.37H86.39c-.03 0-.06.01-.09.01-.7-.04-1.39.24-1.85.79L52.7 91.32H16.84l107.63-80.83zm19.63 467.99h-17.89V137.42h101.94v26.15h-70.38c-4.89 0-8.86 3.98-8.86 8.86v293.69c0 4.89 3.98 8.86 8.86 8.86h143.98c-1.17 11.04-4.95 21.65-11.05 30.96h-44.56c-1.74 0-3.15 1.41-3.15 3.15v18.24h-96.64v-46.6c0-1.24-1.01-2.25-2.25-2.25zm319.75 27.77v-31.26H512v26.12h-8.57c-1.58 0-2.86 1.28-2.86 2.86v10.99h-5.1c-7.7 0-14.33 5.22-16.38 12.37h-13.42v-18.24c-.01-1.26-.75-2.34-1.82-2.84z"/><path class="st9" d="M384.11 475.31h9.7v22.6h-9.7zM405.08 483.38h-5.04v14.52h9.7v-14.52h-1.43zM415.97 450.41v47.5h9.7v-51.78h-9.7zM431.91 468.69V497.91h9.7v-39.48h-9.7zM423.75 516.87h-21.82c-1.58 0-2.86 1.28-2.86 2.86 0 1.58 1.28 2.86 2.86 2.86h21.82c1.58 0 2.86-1.28 2.86-2.86 0-1.58-1.28-2.86-2.86-2.86zM386.97 407.25h-3.55v7.27H401.43v-7.27h-14.24zM406.51 407.25h7.27v7.27h-7.27z"/></svg>