<svg xmlns="http://www.w3.org/2000/svg" viewBox="0 0 720 575"><style>.st0{fill:#f0f2f4}.st1{fill:#0b84ec}.st2{fill:#fff}.st3{fill:#bff8e6}.st5{fill:#24e6aa}.st6{fill:#214075}</style><path class="st0" d="M522.9 344.7c0 8.7-7.1 15.8-15.8 15.8s-15.8-7.1-15.8-15.8c0-8.7 7.1-15.8 15.8-15.8 8.7 0 15.8 7.1 15.8 15.8zM211.9 336.7c0 13.6-11 24.6-24.6 24.6s-24.6-11-24.6-24.6 11-24.6 24.6-24.6 24.6 11 24.6 24.6z"/><path class="st0" d="M250.2 373.1c0 18.2-14.7 32.9-32.9 32.9s-32.9-14.7-32.9-32.9 14.7-32.9 32.9-32.9 32.9 14.7 32.9 32.9zM291.2 116.7c0 6.5-5.3 11.7-11.7 11.7-6.5 0-11.7-5.3-11.7-11.7 0-6.5 5.3-11.7 11.7-11.7 6.5 0 11.7 5.3 11.7 11.7zM256.5 116.5c0 4-3.3 7.3-7.3 7.3s-7.3-3.3-7.3-7.3 3.3-7.3 7.3-7.3c4.1 0 7.3 3.3 7.3 7.3zM245.1 295.6c0 7.5-6.1 13.6-13.6 13.6s-13.6-6.1-13.6-13.6S224 282 231.5 282s13.6 6.1 13.6 13.6zM515.1 175.6c0 12.6-10.2 22.8-22.8 22.8-12.6 0-22.8-10.2-22.8-22.8s10.2-22.8 22.8-22.8c12.6 0 22.8 10.2 22.8 22.8zM541.1 296.8c0 5.6-4.6 10.2-10.2 10.2s-10.2-4.6-10.2-10.2 4.6-10.2 10.2-10.2 10.2 4.5 10.2 10.2zM468.3 200.5c0 3.9-3.2 7-7 7-3.9 0-7-3.2-7-7 0-3.9 3.2-7 7-7s7 3.1 7 7z"/><path class="st0" d="M364.2 4.8c-23.9 0-47.1 3.3-69 9.5 4.2-.2 8.5-.3 12.8-.3 138.6 0 250.9 112.3 250.9 250.9 0 81.4-38.8 153.8-98.9 199.6.6 1.5 1 3 1.2 4.6 5.5-5 12.8-8.1 20.8-8.1 8.2 0 15.6 3.2 21.1 8.5-.1-1.1-.1-2.1-.1-3.2 0-27 21.9-48.8 48.8-48.8 3.2 0 6.3.3 9.4.9 35.4-43.6 56.7-99.2 56.7-159.8C618 118.4 504.4 4.8 364.2 4.8zM394.5 403.2c0 4.1-3.3 7.4-7.4 7.4H344c-4.1 0-7.4-3.3-7.4-7.4 0-4.1 3.3-7.4 7.4-7.4h43.1c4.1 0 7.4 3.3 7.4 7.4zM337.5 423.3c0 3.3-2.7 6-6 6h-35.2c-3.3 0-6-2.7-6-6s2.7-6 6-6h35.2c3.3 0 6 2.7 6 6zM440 423.3c0 3.3-2.7 6-6 6h-35.2c-3.3 0-6-2.7-6-6s2.7-6 6-6H434c3.3 0 6 2.7 6 6z"/><path class="st1" d="M323.8 408v-12.1h-19.9V408c-2.1 1.7-3.5 3.9-4 6.4-.1.3 0 3.1 0 3.1h28v-3c-.3-2.6-1.9-4.7-4.1-6.5zM426.1 408v-12.1h-19.9V408c-2.1 1.7-3.5 3.9-4 6.4-.1.3 0 3.1 0 3.1h28v-3c-.3-2.6-1.9-4.7-4.1-6.5z"/><path class="st0" d="M310.9 182c-9.2 0-18.5 23.8-18.5 43.2v164.5l8.4 9h28.6V225.4c.1-21.2-10.1-43.4-18.5-43.4z"/><path class="st2" d="M318.6 188.4c-3.9-2.8-20.8 13.7-20.4 37.3-6.7 3.7-5.8-5.8-5.1-12 .7-6.3 12.5-43.6 25.5-25.3z"/><path class="st0" d="M419.2 182c9.2 0 18.5 23.8 18.5 43.2v164.5l-8.9 9h-28.2V225.4c.1-21.2 10.3-43.4 18.6-43.4z"/><path class="st2" d="M411.8 188.4c3.9-2.8 20.8 13.7 20.4 37.3 6.7 3.7 5.8-5.8 5.1-12-.8-6.3-12.6-43.6-25.5-25.3z"/><path class="st3" d="M280.5 233.9s.5-10.1 7.7-14.9c4.3-2.8 12.5-2.4 12.5-2.4v60.2h-20.2v-42.9zM449.7 233.9s-.5-10.1-7.7-14.9c-4.3-2.8-12.5-2.4-12.5-2.4v60.2h20.2v-42.9z"/><path d="M365.1 59.4c-19.7 0-35.6 43-35.6 70v253.2h71.2V129.4c0-25-16-70-35.6-70z" fill="#fafafa"/><path class="st2" d="M385 76.9c-8.3-11.3-17.8-11.1-26.6 1.6-7 10.2-15.7 33.5-15.7 60.2v34.2c-4.6 1.9-10.9 10.9-12.3 19.7-.5-16.4-.5-42.3-.5-59s9.6-74.1 35.1-74.1c11.9-.1 15.4 8.8 20 17.4z"/><path class="st0" d="M400.7 247V134.4c0-6.9-1.7-15.9-4.6-24.3-11.7-15.5-25.8-6.9-25.8 27.1v244.5h30.4V247z"/><path class="st1" d="M380.8 381.3v-19.5h-32.1v19.5c-3.3 2.7-5.6 6.3-6.4 10.3-.1.5 0 5 0 5h45.1s.1-4.4 0-4.8c-.6-4.2-3.1-7.6-6.6-10.5zM342.2 256.4s-48.6 59.8-55.2 67.2c-4.2 4.7-5.1 7.8-5.1 13.7v12.5c0 4.7 2.5 6.9 7.7 7.7 6.8 1.1 56.9 6.9 56.9 6.9l-4.3-108zm101.2 67.2c-6.5-7.4-55.2-67.2-55.2-67.2h-.1l-4.3 108.1s50.1-5.9 56.9-6.9c5.2-.8 7.7-3 7.7-7.7v-12.5c.1-6.1-.8-9.1-5-13.8z"/><path class="st5" d="M339.9 260.3l.6 18.3-44.5 57.5-.2 22s-14.6 1.3-15-10.5c-.4-11.9 1.6-19.8 6.9-25.6 5.3-5.8 52.2-61.7 52.2-61.7zM390.1 260.3l-.6 22.2 44.5 53.7.2 22s14.6 1.3 15-10.5c.4-11.9-1.6-19.8-6.9-25.6-5.3-5.9-52.2-61.8-52.2-61.8z"/><path class="st3" d="M374.4 172.6c7.4 12.2 15.7 37.1 15.7 59.9v135.1h-49.9V234c0-23.5 7.3-48.6 15.3-60.8 4.9-7.9 14-8.6 18.9-.6z"/><path class="st2" d="M372.5 172.2c-1.6-1.1-7.3-1-13.6 9.8-6 10.3-14.9 29.3-17.1 59.1-3.8-28.2 5.8-50.8 8.1-56.7 4.7-11.7 14.2-26.8 22.6-12.2z"/><path class="st6" d="M531 504.7c-16.8 0-32.1 9.3-39.9 24-5.4-4.8-12.5-7.5-19.8-7.5-14.1 0-26.3 9.9-29.3 23.5-1.9-.4-3.7-.6-5.6-.6-14.3 0-26 11.6-26 26h4.6c0-11.8 9.6-21.3 21.3-21.3 2.3 0 4.5.4 6.7 1.1l2.7.9.4-2.8c1.6-12.6 12.4-22.1 25.1-22.1 7.1 0 14 3 18.8 8.3l2.4 2.6 1.4-3.2c6.5-14.7 21.1-24.2 37.1-24.2 12.1 0 23.5 5.4 31.3 14.7l.7.8h49.5v-4.6H565c-8.4-9.9-20.8-15.6-34-15.6zM306.5 551.9c-2.7 0-5.4.5-7.9 1.6-6-12.1-18.3-19.8-32-19.8-1 0-2 0-3 .1-7.4-14.4-22.4-23.6-38.7-23.6-13.9 0-27 6.7-35.1 17.9h-27.3v4.6h28.6V531l1.6 1.1c7.3-10.7 19.3-17.2 32.3-17.2 15 0 28.8 8.8 35.2 22.4l.7 1.5 1.7-.2c1.4-.2 2.7-.3 4-.3 12.6 0 23.9 7.5 28.7 19.2l1 2.4 2.3-1.3c2.4-1.4 5.2-2.1 7.9-2.1 9 0 16.3 7.3 16.3 16.3h4.6c.1-11.5-9.3-20.9-20.9-20.9zM512.7 325.4v4.6H599.5v-4.6h-47.9zM154.4 351.8v4.6h17.9v-4.6h-4.5zM515 75h16.6v4.6H515zM91.4 155.6h20.1v4.6H91.4zM351.1 214.5c-.7 1.1-.4 2.5.7 3.2s2.5.4 3.2-.7c2.8-4.3 6.5-6.7 10.2-6.7 1.3 0 2.6.3 3.8.9.5.2.9.5 1.4.7 1.8 1.1 3.4 2.8 4.9 5.1.4.7 1.2 1.1 2 1.1.4 0 .9-.1 1.2-.4 1.1-.7 1.4-2.1.7-3.2-2.4-3.7-5.4-6.4-8.8-7.7-.3-.1-.6-.3-1-.4-1.4-.4-2.8-.7-4.2-.7-5.5 0-10.4 3.1-14.1 8.8zM431.2 484.5c4-.5 7.9.5 11.1 3l2.8-3.7c-8.6-6.6-20.9-4.9-27.4 3.6-3 3.9-4.4 8.7-4 13.6l4.6-.4c-.3-3.7.7-7.4 3-10.4 2.4-3.1 5.9-5.1 9.9-5.7zM352 516.3c-3.3-.4-8-.6-12.7 1-.2-.5-.4-.9-.6-1.3-7-14.2-24.2-20-38.4-13-6.2 3.1-11.2 8.3-13.8 14.8l4.3 1.8c2.2-5.4 6.3-9.8 11.6-12.4 11.9-5.9 26.4-1 32.2 10.9.5.9 1.1 2.6 1.3 3l.8 2.4 2.3-1.1c4.4-2.1 9.2-2 12.4-1.6 8.4 1.1 14.4 8.9 13.2 17.3l4.6.6c.7-5.3-.7-10.6-3.9-14.8-3.3-4.2-8-6.9-13.3-7.6z"/><path class="st6" d="M636.5 467.3c-6.2-12.4-19-20.3-32.9-20.3-1.4 0-2.8.1-4.1.2-5.5-14.7-17.4-25.8-32.1-30.4 20.5-26 35.4-55.3 44.2-86.8h30v-4.6h-28.7c5.5-21.2 8.4-43.4 8.4-66.2 0-27.8-4.4-54.9-12.8-80.5H626v-4.6h-19.1c-12.3-35.1-32.3-67.3-59.2-94.5h44V75H543C495 28.6 432 3.1 365.1 3.1c-68.4 0-132.7 26.6-181.1 75-9.7 9.7-18.5 20-26.4 30.9h-.3v.4c-31.4 43.3-48.3 95.2-48.3 149.8 0 32.5 5.7 63.6 16.8 92.5H36.5v4.6h91c8.9 21.8 20.8 42.3 35.8 61.1-10.7 5.8-19.4 15.1-24.2 26.8-1.1-.1-2.2-.1-3.3-.1-13.9 0-26.6 7.4-33.5 19.4-2.2-.5-4.5-.7-6.8-.7-16.9 0-30.8 13.2-32 29.8H5.1v4.6H68v-2.3c0-15.2 12.3-27.5 27.5-27.5 2.5 0 5 .3 7.4 1l1.8.5.9-1.7c5.9-11.4 17.5-18.5 30.3-18.5 1.5 0 3 .1 4.5.3l1.8.2.6-1.7c7.1-19.1 25.5-31.9 45.9-31.9 19.8 0 37.5 11.8 45.2 30l.6 1.5 1.6-.1c.7 0 1.4-.1 2.1-.1 19 0 35.2 12.9 39.6 31.3l4.5-1.1c-1.2-5-3.1-9.6-5.7-13.7 1.2-1.7 2.8-3.2 4.5-4.4 3-2.1 6.6-3.1 10.3-3.1 10.1 0 18.3 8.2 18.3 18.3 0 1.4-.2 2.9-.5 4.2l4.5 1.1c.4-1.7.6-3.5.6-5.3 0-8-4.1-15.1-10.4-19.2v-23.4h20.7v30.6c-3.6 7.4-3.9 16.3 0 24.3l4.1-2c-5.6-11.4-.8-25.3 10.6-30.9 4.8-2.4 10.3-3 15.5-1.7l1.1-4.5c-2.1-.5-4.2-.7-6.2-.7v-33.8h29.7v41.2h4.6v-9.3c8.5.7 15.3 7.2 16.5 15.5h-1c-8.1 0-15.3 4.1-19.3 10.6-.9-.4-1.8-.7-2.8-.9-4.3-1-8.7-.3-12.4 2.1-3.7 2.3-6.3 6-7.3 10.3l4.5 1c.7-3.1 2.6-5.7 5.3-7.4 2.7-1.7 5.9-2.2 8.9-1.5 3.1.7 5.7 2.6 7.4 5.3 1.7 2.7 2.2 5.9 1.5 8.9l4.5 1c1-4.3.3-8.7-2.1-12.4-1-1.5-2.1-2.9-3.5-4 3.2-5.2 8.9-8.4 15.4-8.4 3.3 0 6.5.9 9.4 2.6l2.4-4c-1.7-1-3.5-1.8-5.3-2.3v-29.6h20.7v21.2c-3.4 2.6-5.9 6.1-7.4 10.1l4.3 1.6c1.3-3.6 3.7-6.6 6.9-8.7 3-2.1 6.6-3.1 10.3-3.1 10.1 0 18.3 8.2 18.3 18.3 0 1.4-.2 2.9-.5 4.2l4.5 1.1c.4-1.7.6-3.5.6-5.3v-.8c5.1-4.2 11.6-6.6 18.2-6.6 15.7 0 28.6 12.8 28.6 28.6 0 1.3-.1 2.6-.3 3.9l4.6.6c.2-1.5.3-3 .3-4.5 0-8.5-3.2-16.3-8.5-22.2-.2-1.7-.2-3-.2-4.8 0-25.3 20.6-45.9 45.9-45.9 22.7 0 41.8 16.3 45.4 38.7l4.6-.7c-.3-1.8-.7-3.6-1.2-5.3.9-.1 1.8-.1 2.7-.1 12.6 0 24.1 7.4 29.4 18.9l.6 1.4h82.2v-4.6h-79.6v-.3zm-399.1-24.9c-8.7-19.1-27.7-31.4-48.8-31.4-7.4 0-14.5 1.5-21.1 4.4-14.6-18.1-26.3-37.9-35-59h13.7v-4.6h-15.6c-11.3-28.9-17.1-60-17.1-92.5 0-35.1 7.3-68.6 20.3-99h41.6v-4.6h-39.6c6.7-14.8 14.8-28.8 24.2-41.9h40.8l.6-1.4c2.5-5.6 8.2-9.2 14.3-9.2-.1.5-.2 1-.3 1.6l4.6.7c1.8-11.2 11.3-19.3 22.6-19.3 12.6 0 22.9 10.3 22.9 22.9 0 1 0 1.8-.2 2.8l-.4 2.6h25.4v-4.6H270v-.2-.6c0-15.2-12.3-27.5-27.5-27.5-11.4 0-21.3 6.9-25.5 17-.5 0-.9-.1-1.4-.1-7.5 0-14.3 4.1-17.9 10.6h-34.6C198.6 61.9 250 27.4 309.3 14c17.9-4.1 36.6-6.2 55.8-6.2 108.8 0 201.7 69.5 236.7 166.4h-6.9v4.6h8.5c8.6 25.3 13.2 52.3 13.2 80.5 0 58.2-18.7 112.2-54.1 156.3-3.3-.7-6.8-1-10.3-1-27.9 0-50.6 22.7-50.6 50.6v.4c-5.5-4.1-12.4-6.6-19.8-6.6-6.8 0-13.5 2.1-19 6-.2-.7-.4-1.3-.6-2-3.3-8.7-11.6-14.9-21.4-14.9-3.3 0-6.5.7-9.4 2v-18.4h2.8c4.6 0 8.3-3.7 8.3-8.3 0-4.6-3.7-8.3-8.3-8.3h-1.5v-.8c-.4-2.7-1.7-5.1-4.1-7.3v-5.9h1.4l10.3-10.4V360c.4-.1.8-.1 1.1-.2 6.5-1 9.6-4.3 9.6-10v-12.5c0-6.8-1.3-10.4-5.7-15.3-.9-1-2.7-3.2-5.1-6v-36.9h12v-45.3c0-.5-.6-11.3-8.7-16.7-1.1-.8-2.5-1.3-3.9-1.7-2.4-17.9-10.7-35.6-20.2-35.6-6 0-12.2 8.2-16.2 19.5v-69.8c0-24.7-16-72.3-37.9-72.3-9.9 0-19.6 9.3-27.3 26.2-6.6 14.4-10.6 32-10.6 46.1v69.8c-4.1-11.3-10.2-19.5-16.2-19.5-9.5 0-17.8 17.8-20.2 35.6-1.4.4-2.7 1-3.9 1.7-8.1 5.4-8.7 16.3-8.7 16.9v45.2h11.9v37.3c-2.2 2.7-3.9 4.6-4.8 5.6-4.3 4.9-5.7 8.5-5.7 15.3v12.5c0 5.7 3.2 9 9.6 10 .2 0 .5.1.8.1v30.7l9.8 10.4h1.8v5.9c-2.1 2-3.4 4.4-3.9 7 0 .1-.1.3-.1 1.1h-1.3c-4.6 0-8.3 3.7-8.3 8.3 0 4.6 3.7 8.3 8.3 8.3h3v21.1c-2.5-.9-5.1-1.4-7.9-1.4-4.6 0-9.1 1.4-12.9 3.9-1.8 1.2-3.4 2.7-4.7 4.3-8.4-10.6-21.3-17.2-35.6-17.2h-1zm163.9 7.7c-3.9-5.6-10.2-9.4-17.4-9.9v-27.3h3.2c5.3 0 9.7-4.3 9.7-9.7 0-4.4-3-8.1-7-9.3v-2.3c-.3-2.4-1.2-4.5-2.5-6.6h11.2v16.1h5.5v5.9c-2.1 2-3.4 4.4-3.9 7 0 .1-.1.3-.1 1.1h-1.1c-4.6 0-8.3 3.7-8.3 8.3 0 4.6 3.7 8.3 8.3 8.3h2.5v18.4h-.1zm-56.2-3.1c-2.7.4-5.3 1.2-7.8 2.4-3.1 1.5-5.9 3.6-8.1 6v-23.8h2.3c4.6 0 8.3-3.7 8.3-8.3 0-4.6-3.7-8.3-8.3-8.3h-1.2v-.8c-.4-2.7-1.7-5.1-4.1-7.3V401h5.6v-16h10.8c-1.2 1.9-2 4-2.4 6.2 0 .2-.1.6-.1 3.3-3.3 1.5-5.6 4.9-5.6 8.8 0 5.3 4.3 9.7 9.7 9.7h1l-.1 34zm-62.3-211.4H298.4v38.9H282.8v-38.9zm28.1-51.3c1.6 0 3.6 1.4 5.5 4 3 3.9 6.1 10.4 8.2 18.2 1.1 4.1 1.9 8.6 2.3 13.3H303v-5.4l-2.2-.1H299.4c-1 0-2.4 0-3.8.2 2.5-16 9.8-30.2 15.3-30.2zm54.2-122.5c5.1 0 10 3.7 14.5 9.5 7.3 9.4 13.3 24.5 16.4 38.8 1.4 6.3 2.2 12.4 2.3 17.9h-66.5c.6-25.7 15.9-66.2 33.3-66.2zm48.7 126.4c1.9-2.5 3.8-3.9 5.5-3.9 5.5 0 12.9 14.2 15.4 30.1-1.3-.1-2.6-.2-3.6-.2h-1.6l-2.2.1v5.3h-23.9c.3-4.1 1-8.1 2-11.9 1.9-8.3 5.1-15.3 8.4-19.5zm32.4 161.6c0 3-.9 4.7-5.7 5.5-.1 0-.3 0-.4.1-.6.1-1.4.2-2.3.3-.4 0-.7.1-1.1.2v-15.8c0-2.6-.3-4.5-1.2-6.3-.6-1.2-1.4-2.4-2.6-3.7-1.2-1.4-5.6-6.7-11.2-13.4-1.2-1.5-2.5-3-3.7-4.5-5.1-6.1-10.4-12.6-15-18.1-.2-.3-.5-.6-.7-.9-.5-.7-1.1-1.3-1.6-1.9-.8-1-1.6-1.9-2.3-2.8-2.8-3.4-5-5.9-6-7v-16.3c1.7 2.1 3.8 4.6 6 7.4.7.9 1.5 1.9 2.3 2.8.5.6 1.1 1.3 1.6 2 .2.3.5.6.7.9 5.9 7.2 12.6 15.4 18.7 22.9 5.2 6.3 10 12.2 13.7 16.7.8 1 1.6 1.9 2.3 2.8.9 1.1 1.7 2 2.3 2.7.7.8 1.2 1.4 1.6 1.9 3.9 4.4 4.5 6.9 4.5 12.2v12.3h.1zm-21.5 60c1.9 1.6 3 3.2 3.3 5v.4h-23.4v-.2-.3c.4-1.8 1.5-3.6 3.1-4.9l.8-.7v-8h15.3v8l.9.7zm-3-13.4H403V364.6c6-.7 12.6-1.5 18.7-2.2 5.3-.6 10.1-1.2 13.7-1.7v28.2l-7 7.1-.5.5h-6.2v-.1zm-36.6-2.9v.8h-40.5v-.8-1.5c.5-2.6 1.7-5 3.7-7.1.6-.6 1.2-1.3 1.9-1.8l.6-.5.3-.2v-12.6h27.5v12.5l.3.2.6.5c.7.6 1.4 1.2 2 1.8 2.2 2.2 3.4 4.6 3.8 7.2-.2.3-.2.9-.2 1.5zm-53.3-101.2c2.3-2.9 4.4-5.5 6-7.5v76.4c-1.8-.2-3.9-.5-6-.7-.8-.1-1.5-.2-2.3-.3-.2 0-.4 0-.5-.1-.6-.1-1.2-.1-1.8-.2-5.7-.7-11.9-1.4-17.7-2.1-4.2-.5-8.1-1-11.4-1.4v-17.5c0-3.3.4-4.8 2.6-7.4 1.1-1.3 4.4-5.5 8.8-11 1.9-2.4 4-5.1 6.2-7.9 1.5-1.9 3.1-3.9 4.7-5.9 2.3-2.9 4.5-5.8 6.7-8.5.6-.8 1.2-1.5 1.8-2.2.2-.2.4-.5.5-.7.9-1.1 1.6-2 2.4-3zm-28.8-68h24.2V246H303v-21.7zm124.2 0V246H403v-20.6-1.1h24.2zm-61.8-55.1c1.8 0 3.5.7 5 2l.5.5c.6.6 1.1 1.3 1.6 2.1 2.3 3.8 4.6 8.8 6.8 14.5 4.8 12.8 8.6 29.2 8.6 44.2v132.7H342.6V234c0-24 7.5-48.1 14.9-59.6 1.9-3.3 4.9-5.2 7.9-5.2zM432 356.4c-3 .4-6.5.8-10.3 1.3-6 .7-12.7 1.5-18.7 2.2-.2 0-.5.1-.7.1-.5.1-1.1.1-1.6.2-.8.1-1.6.2-2.3.3-2.2.3-4.2.5-6 .7v-72.7c1.7 1.9 3.7 4.4 6 7.2.7.9 1.5 1.8 2.3 2.8.5.6 1.1 1.3 1.6 1.9.2.3.5.6.7.9 3.7 4.5 7.7 9.4 11.4 13.8 2.6 3.2 5.1 6.2 7.3 8.8 3.8 4.6 6.7 8.1 7.7 9.2 2.2 2.5 2.6 3.9 2.6 7v16.3zm-48.8 23.9l-.1-10.5h9.2v-4c1.8-.2 3.9-.5 6-.7v15.2h-15.1zm-51.4-15.2c2.2.3 4.2.5 6 .7v4.1h8.6v10.4l-.1.1h-14.6v-15.3h.1zm103.7-54.6c-4-4.8-8.8-10.7-13.7-16.7-6.4-7.9-13.2-16.1-18.7-22.9v-20.2h24.2v28.4h8.3l-.1 31.4zm-3.7-36v-38.9H447.5v38.9h-15.7zm8.3-43.5h-8.3v-12.1c1.2 0 2.3.1 3.4.3.8.1 1.6.3 2.4.5h.2c.8.2 1.6.5 2.2.8.3.1.6.3.8.5 3.9 2.6 5.5 7.1 6.2 10.1h-6.9v-.1zm-108.3-98.5h66.6V145H331.8v-12.5zm0 54.8v-37.8h66.6V265.1c-2.5-3.1-4.6-5.6-6-7.4v-25.3c0-22.7-8-47.9-16-61.1-1.6-2.6-3.7-4.5-6-5.7-1.6-.7-3.2-1.1-5-1.1-4.6 0-9 2.7-11.9 7.3-7.8 12-15.6 37.2-15.6 62.1V258c-1.5 1.8-3.6 4.4-6 7.4v-78.1h-.1zm-39.1 32.3c.7-.2 1.5-.3 2.3-.4 1.1-.1 2.2-.3 3.4-.3V231H283.3c.7-3 2.3-7.5 6.2-10.1.2-.2.5-.3.8-.5.6-.3 1.4-.5 2.4-.8-.1 0 0 0 0 0zm2 59.5h8.3v-28.4h24.2v20.5c-5.3 6.5-11.6 14.2-17.7 21.6-5.3 6.5-10.5 12.8-14.8 18v-31.7zm-10.5 70.7v-12.5c0-5.3.7-7.9 4.5-12.2.3-.4.8-.9 1.3-1.5.6-.7 1.4-1.7 2.3-2.7.7-.8 1.5-1.8 2.3-2.8 3.9-4.7 9.2-11.1 14.8-17.9 5.9-7.1 12.1-14.8 17.7-21.6.6-.7 1.2-1.5 1.8-2.2.2-.2.4-.4.5-.7.8-1 1.6-1.9 2.3-2.8 2.2-2.8 4.3-5.3 6-7.4v12.1c-1 1.1-3.2 3.8-6 7.4-.7.9-1.5 1.9-2.3 2.9-.2.2-.4.5-.5.7-.6.7-1.2 1.5-1.8 2.2-4.6 5.8-10 12.6-15.1 19-.9 1.1-1.8 2.2-2.6 3.3-6.1 7.7-11 13.9-12.3 15.5-1.1 1.3-1.9 2.5-2.5 3.7-.9 1.9-1.2 3.9-1.2 6.7v16.9c-.4-.1-.8-.1-1.1-.1-1-.1-1.8-.2-2.3-.3h-.1c-4.7-1-5.7-2.7-5.7-5.7zm10.5 10.8c3.8.5 9.1 1.1 14.8 1.8 5.8.7 12 1.4 17.7 2.1v32H301.9l-.2-.2-6.9-7.4-.1-28.3zm10.7 49.2l.8-.7v-8h15.3v8l.8.7c1.9 1.6 3 3.2 3.3 5v.4h-23.4v-.2-.3c.4-1.9 1.5-3.6 3.2-4.9zm-7.8 9.8v.2h32.6v-.2h1.3c2 0 3.7 1.7 3.7 3.7s-1.7 3.7-3.7 3.7H296.3c-2 0-3.7-1.7-3.7-3.7s1.7-3.7 3.7-3.7h1.3zm41.4-16.4c0-1.8.9-3.3 2.3-4.2h48.4v-.1c1.5.9 2.5 2.5 2.5 4.3 0 2.8-2.3 5-5 5h-43.1c-2.9 0-5.1-2.2-5.1-5zm56.1 20.1c0-2 1.7-3.7 3.7-3.7h1.1v.2h32.6v-.2h1.5c2 0 3.7 1.7 3.7 3.7S436 427 434 427H398.8c-2 0-3.7-1.6-3.7-3.7z"/><path class="st6" d="M560 233.5l11.4-11.4-11.4-11.5-5.8 5.8-5.7 5.7 7.9 7.9 3.6 3.5zm-4.9-11.5l.1-.1 4.7-4.7 4.9 4.9-4.9 4.9-4.7-4.7-.1-.3zM179.8 269.2l11.4 11.4 11.4-11.4-11.4-11.4-11.4 11.4zm11.4 4.9l-4.9-4.9 4.9-4.9 4.9 4.9-4.9 4.9zM124.7 408.8l-16.5-16.5-16.5 16.5 16.5 16.5 16.5-16.5zm-16.5-10l10 10-10 10-10-10 10-10zM96.1 200l-13.9-13.9L68.3 200l13.9 13.9L96.1 200zm-13.9-7.4l7.3 7.3-7.3 7.3-7.3-7.3 7.3-7.3zM651.6 399.1l13.4-13.4-13.4-13.4-13.4 13.4 13.4 13.4zm6.9-13.4l-6.9 6.9-6.9-6.9 6.9-6.9 6.9 6.9zM217.9 349.6c-5.4 0-9.8 4.4-9.8 9.8s4.4 9.8 9.8 9.8 9.8-4.4 9.8-9.8-4.4-9.8-9.8-9.8zm0 15c-2.9 0-5.2-2.3-5.2-5.2 0-2.9 2.3-5.2 5.2-5.2s5.2 2.3 5.2 5.2c0 2.8-2.3 5.2-5.2 5.2zM502.3 250.9c-5.4 0-9.8 4.4-9.8 9.8s4.4 9.8 9.8 9.8 9.8-4.4 9.8-9.8-4.4-9.8-9.8-9.8zm0 15c-2.9 0-5.2-2.3-5.2-5.2s2.3-5.2 5.2-5.2c2.9 0 5.2 2.3 5.2 5.2s-2.3 5.2-5.2 5.2zM441.5 120.5c5.4 0 9.8-4.4 9.8-9.8s-4.4-9.8-9.8-9.8-9.8 4.4-9.8 9.8c.1 5.4 4.5 9.8 9.8 9.8zm0-14.9c2.9 0 5.2 2.3 5.2 5.2 0 2.9-2.3 5.2-5.2 5.2-2.9 0-5.2-2.3-5.2-5.2.1-2.9 2.4-5.2 5.2-5.2zM486.6 177.6c-.8-5.4 1.7-10.7 6.4-13.5 3.7-2.3 8-2.8 11.8-1.4l.7.3 2.3-.6.3-1.3c.1-.5.3-1 .5-1.5 2.5-6.6 8.9-10.9 16.3-10.9 2.2 0 4.3.4 6.2 1.2 6.6 2.5 11.3 8.9 11.3 16.4v2.3h4.1c4.4 0 7.9 3.6 7.9 7.9v2.3h28.9v-4.6h-24.5c-1.1-5.7-6-10.1-12-10.2-1-10-8.8-18.1-18.7-19.6-1.1-.2-2.2-.3-3.3-.3-8.8 0-16.5 4.9-20 12.5-.2.4-.4.8-.5 1.2-4.6-1.1-9.5-.3-13.8 2.4-6.2 3.8-9.5 10.9-8.5 18.1l4.6-.7z"/></svg>