<svg id="Horizon_Line" xmlns="http://www.w3.org/2000/svg" viewBox="0 0 850 556"><style>.st0{fill:#f0f2f4}.st1{fill:#e0e4e6}.st2{fill:#c7ced2}.st3{fill:#24e6aa}.st4{fill:#fafbfb}.st5{fill:#bff8e6}.st6{fill:#0271e5}.st7{fill:#464853}.st8{fill:#fd437c}.st9{fill:#6733e1}</style><path class="st0" d="M813.96 494l6.93 12.36c.14.25.38.44.66.51.28.08.58.04.83-.1l1.91-1.07c.25-.14.44-.38.52-.66.08-.28.04-.58-.1-.83l-7.46-13.25c-1.07 1.04-2.16 2.06-3.29 3.04z"/><path class="st1" d="M822.47 344.18c.42-1.76.28-3.42-.76-3.97-.39-.21-.83-.31-1.31-.31-.91 0-2.09.43-3.12 1.52 1 .45 2 .95 3.02 1.5.75.41 1.47.83 2.17 1.26z"/><path class="st0" d="M766.67 366.2v-7.43h-2.19v7.45c.58-.01 1.16-.03 1.74-.03.15.01.3.01.45.01z"/><path class="st2" d="M807.74 368.55l-3-1.63-4.19 7.89c1 .54 1.99 1.1 2.97 1.68l4.22-7.94z"/><path class="st0" d="M738.08 322.48c-.55.73-.96 1.48-1.28 2.26 1.19-1.48 2.86-2.82 5.26-3.48 10.7-2.93 35.44-3.45 47.05.01 3.92 1.17 6.65 4.28 7.91 8.99 1.06 3.96 2.42 6.84 5.59 8.02.48-.03.96-.05 1.46-.05 1.98 0 4.02.25 6.13.74-.28-.83-1.43-1.35-2-1.55-4.53-1.65-6.75-4.32-8.81-10.59-1.86-5.68-5.25-9.05-10.66-10.61-8.9-2.56-25.67-2.82-37.64-1.49-3.92 2.11-11 5.09-13.01 7.75z"/><path class="st2" d="M733.9 322.65v8.32c.02-.08.05-.17.07-.25l.14-.49c.31-1.07 1.01-3.41 2.68-5.49.32-.78.73-1.52 1.28-2.26 2.01-2.66 9.09-5.64 13.01-7.76-3.39.38-6.39.88-8.72 1.5-4.31 1.14-6.74 3.64-8.46 6.43z"/><path class="st3" d="M766.22 369.48c-9.6 0-18.74 1.96-27.06 5.49-1.79.76-3.54 1.58-5.25 2.48v5.59c2.22-1.29 4.52-2.44 6.89-3.46 7.81-3.35 16.4-5.22 25.43-5.22 35.66 0 64.67 29.01 64.67 64.67 0 22.85-11.92 42.95-29.86 54.46-10.06 6.45-22 10.21-34.81 10.21-.92 0-1.84-.03-2.76-.07-3.44 1.3-7.11 2.51-10.9 3.59 4.42.89 8.98 1.36 13.66 1.36 13.21 0 25.57-3.7 36.1-10.12 20.04-12.22 33.45-34.29 33.45-59.43 0-38.35-31.2-69.55-69.56-69.55z"/><path class="st0" d="M785.71 470.46c1.43 0 2.59 1.16 2.59 2.59v11.4c0 4.1-1.54 5.77-4.07 8.05-2.81 2.53-7.17 5.16-12.49 7.66 10.86-.97 20.9-4.78 29.4-10.68v-17.49c0-6.31-3.43-10.89-9.19-10.89h-43.07c-4.39 0-6.29-3.51-6.29-7.08v-56.74c-.11.11-.23.22-.37.3-.26.15-.54.22-.82.22-.57 0-1.12-.29-1.42-.82l-3.28-5.69c-.45-.78-.18-1.79.6-2.24.79-.45 1.79-.18 2.24.6l3.05 5.28v-12.55c-3.03 1.27-5.93 2.77-8.69 4.49v83.59h51.81zm4.87 9.77c.79-.45 1.79-.18 2.24.6l3.28 5.69c.45.78.18 1.79-.6 2.24-.26.15-.54.22-.82.22-.57 0-1.12-.29-1.42-.82l-3.28-5.69c-.46-.78-.19-1.78.6-2.24zM773.78 354.8v-2.59h-16.42v2.59c0 .33.42.69 1.03.69H772.83c.55 0 .95-.29.95-.69z"/><path class="st4" d="M773.78 351.07c0-.5-.9-.51-.94-.51H758.4c-.5 0-1.03.2-1.03.51v1.13h16.42v-1.13z"/><path class="st0" d="M802.43 361.93l26.42 14.33c.44.24.91.37 1.32.37.64 0 1.1-.31 1.46-.97 4.42-8.15 3.7-20.86-12.89-29.86-.13-.07-.26-.13-.4-.2l.42.25c-6.22-.75-11.42 7-16.33 16.08zM816.14 344.52c-4.29-1.98-8.34-3-12.06-3-9.98 0-14.93 7.14-16.59 10.21-.4.74-.28 1.21-.15 1.49.19.44.62.86 1.17 1.16l3.03 1.64c6.42-12.9 19.48-13.17 24.6-11.5zM743.52 353.22c.13-.29.25-.76-.15-1.5-1.08-1.99-3.54-5.67-7.84-8.03-1.26 3.89-1.49 9.95.66 14.02l6.16-3.34c.55-.29.98-.71 1.17-1.15z"/><path class="st2" d="M736.19 357.72c-2.15-4.07-1.92-10.13-.66-14.02-.52-.28-1.05-.55-1.63-.79v16.05l2.29-1.24z"/><path class="st1" d="M768.53 436.83c-.58-.61-1.4-.99-2.31-.99-1.48 0-2.71 1.01-3.08 2.38-.07.26-.12.54-.12.82 0 1.02.49 1.92 1.23 2.5.54.43 1.22.7 1.97.7 1.33 0 2.47-.81 2.95-1.96.16-.38.25-.8.25-1.24 0-.86-.34-1.64-.89-2.21z"/><path class="st0" d="M169.2 472.37c-1.53-2.73-3.03-5.72-4.15-8.31-3.78-1.76-10.68-5.56-17.64-12.4-.62 2.11-1.55 4.21-2.77 6.08 7.15 6.24 16.93 11.59 24.56 14.63zM180.09 470.46h51.29v-68h-3.76c-.72 14.81-6.98 36.4-12.73 45.3-5.6 8.68-11.54 9.36-21.53 11.54-8.51 1.86-16.48 4.47-19.24 10.17 1.05 1.9 2.17 3.77 3.38 5.61v-2.02c0-1.44 1.16-2.6 2.59-2.6zM151.55 502.37c8.25 3.17 18.96 5.89 29.4 5.89h35.85c-2.8-.73-5.6-1.52-8.38-2.43-9.72-3.16-18.24-7.09-23.76-10.89h-8.17c-2.53 4.66-14.53 7-24.94 7.43zM119.23 317.18v-3.27c-13.58 2.28-28.06 10.18-37.3 19.56-9.25 9.38-15.42 21.25-18.3 34.9-.51 3.81-.77 7.73-.77 11.78V482c1.32-.05 2.64-.09 3.97-.09.87 0 1.73.02 2.6.05v-101.8c0-33.42 19.88-58.3 49.8-62.98z"/><path class="st4" d="M119.23 313.91v-3.36c-14.45 2.05-27.18 8.32-36.99 18.27-10.2 10.35-16.52 23.86-18.6 39.54 2.87-13.65 9.05-25.51 18.3-34.9 9.23-9.37 23.71-17.27 37.29-19.55z"/><path class="st0" d="M98.1 493.4c-.09-.04-.18-.08-.27-.11-.58-.24-1.18-.48-1.78-.71-.07-.03-.13-.05-.2-.07-1.25-.48-2.52-.92-3.83-1.34-.02-.01-.04-.01-.06-.02-.54-.17-1.08-.33-1.62-.49-.28-.08-.57-.17-.85-.25-.5-.14-1.01-.28-1.52-.41-.37-.09-.74-.18-1.1-.27-.71-.17-1.42-.33-2.14-.49-.53-.11-1.06-.23-1.6-.33-.4-.08-.81-.15-1.21-.22-.53-.09-1.05-.18-1.59-.27-.38-.06-.75-.12-1.13-.17-.74-.11-1.48-.2-2.23-.29-.2-.02-.41-.05-.61-.07-.48-.05-.96-.09-1.44-.13-.41-.04-.82-.08-1.23-.11-.3-.02-.61-.04-.91-.06-.2-.01-.4-.02-.59-.03-.5-.03-1-.06-1.51-.08-.3-.01-.59-.03-.89-.04-.97-.03-1.95-.05-2.94-.05-1 0-1.99.02-2.97.05-.3.01-.6.02-.9.04-.71.03-1.42.07-2.12.11-.24.02-.48.03-.72.05-.07.01-.14.01-.21.01-.85.06-1.69.14-2.53.23-.03 0-.05 0-.08.01-.23.02-.47.05-.7.08-.76.09-1.51.18-2.25.29-.39.05-.77.11-1.16.17-.53.08-1.05.17-1.57.26-.42.07-.84.14-1.25.22-.51.1-1.01.2-1.51.31-.77.16-1.54.33-2.29.52-.35.08-.71.17-1.06.26-.52.13-1.04.27-1.56.42-.28.08-.56.16-.83.24-.55.16-1.11.32-1.65.49-.05.02-.1.03-.15.05-1.31.42-2.59.86-3.84 1.34-.03.01-.06.02-.1.04-.61.23-1.21.48-1.8.72-.09.04-.18.08-.28.12-1.23.52-2.42 1.07-3.57 1.64h69.89c-1.14-.6-2.33-1.14-3.54-1.66zM44.81 500.5v7.66h44.32v-7.66zM23 500.5h-.08v7.66h7.12v-7.66z"/><path class="st1" d="M110.47 500.5H89.13v7.66h21.34v-7.66z"/><path class="st0" d="M127.44 306.24c-.77 0-1.47.33-1.97.84-.47.49-.77 1.16-.77 1.89v8.21c0 .88.43 1.66 1.08 2.16.46.36 1.03.57 1.66.57h7.66v-13.68h-7.66zM123.56 377.97c0 3.13 2.55 5.68 5.68 5.68s5.68-2.55 5.68-5.68-2.55-5.68-5.68-5.68-5.68 2.55-5.68 5.68zM184.52 269.91c-1.94-.28-3.93-.42-5.96-.42-20.07 0-36.7 13.95-38.84 31.9-.16 1.3-.24 2.61-.24 3.94V326.96c0 1.42 1.25 2.82 2.66 2.82h8.21c-.05-.55.08-.8.08-1.09v-22.98c0-15.2 6.59-28.3 16.18-34.43 1.78-.54 3.57-.96 5.45-1.26-6.01 5.98-10.13 19.77-10.13 35.84v23.52c0 .06-.17-.14-.16.41h42.19c.4-.55.65-1.37.65-2.24 0 0 .01-21.86.01-22.1-.03-17.33-8.57-31.81-20.1-35.54z"/><path class="st1" d="M204.59 305.43c0 .25-.01 22.1-.01 22.1 0 .88-.25 1.7-.65 2.24h11.13c1.41 0 2.41-1.27 2.41-2.7 0 0 .01-21.44.01-21.69 0-.6-.02-1.19-.05-1.78-.01-.16-.03-.33-.04-.49-.03-.43-.06-.86-.11-1.28-.02-.17-.04-.33-.06-.5-.05-.43-.11-.85-.17-1.27-.02-.14-.05-.29-.07-.43-.08-.45-.16-.91-.26-1.35-.02-.1-.04-.2-.07-.3-.12-.51-.24-1.01-.38-1.51-.01-.03-.02-.07-.03-.1-3.85-13.73-16.28-24.28-31.72-26.47 11.53 3.74 20.07 18.22 20.07 35.53z"/><path class="st5" d="M724.88 74.4c-4.12-4.22-11.17-6.53-17.14-6.53H259.93c-11.54 0-19.75 9.17-19.75 20.17V470.45h488.54V87.3c0-4.82-1.41-9.24-3.84-12.9zm-242.15-.83c2.18 0 3.96 1.77 3.96 3.96s-1.77 3.96-3.96 3.96c-2.18 0-3.96-1.77-3.96-3.96s1.78-3.96 3.96-3.96zm213.85 380.28H254.86c-2.32 0-4.28-1.88-4.28-4.11V91.18c0-2.23 1.96-4.11 4.28-4.11h456.16c2.27 0 4.19 1.88 4.19 4.11V449.73c0 2.23-1.96 4.11-4.28 4.11H696.58zM737.97 475.64H552.24c-.03.17-.07.34-.14.51-3.16 8.37-11.32 13.99-20.32 13.99H433.5c-9.15 0-17.12-5.47-20.32-13.94-.07-.19-.11-.38-.14-.57H182.68v8.81c0 .44.02.79.06 1.11.15 1.11.66 1.65 2.08 2.93.06.05.11.1.17.15.4.36.86.73 1.35 1.1.81.62 1.72 1.26 2.76 1.91.34.21.69.43 1.05.64.36.21.73.43 1.11.64.59.33 1.19.67 1.83 1 .63.33 1.3.67 1.97 1 .27.14.55.27.84.4 8.5 4.07 20.16 8.01 32.36 10.18 6.07 1.08 12.27 1.73 18.29 1.73H719.2c6.75 0 13.74-.81 20.51-2.14.65-.13 1.3-.26 1.94-.4 4.7-1 9.27-2.23 13.56-3.61.01 0 .02-.01.03-.01 11.64-3.75 21.2-8.55 25.54-12.45.06-.06.11-.1.17-.15 1.86-1.67 2.18-2.08 2.18-4.04v-8.81h-45.16z"/><path class="st0" d="M710.11 95.33v-3.15H255.69v356.56h3.66V95.33z"/><path class="st3" d="M433.5 484.97h98.29c6.37 0 12.18-3.7 14.9-9.33H418.56c2.71 5.71 8.43 9.33 14.94 9.33z"/><path class="st6" d="M766.12 391.06c.91 0 1.64-.73 1.64-1.64v-6.57c0-.91-.73-1.64-1.64-1.64-.91 0-1.64.73-1.64 1.64v6.57c0 .91.73 1.64 1.64 1.64zM742.59 394.93l-3.05-5.28c-.45-.78-1.46-1.06-2.24-.6-.78.45-1.05 1.46-.6 2.24l3.28 5.69c.3.53.86.82 1.42.82.28 0 .56-.07.82-.22.14-.08.26-.19.37-.3.48-.51.6-1.3.23-1.94l-.23-.41zM792.82 480.83c-.45-.79-1.46-1.06-2.24-.6-.78.45-1.05 1.46-.6 2.24l3.28 5.69c.3.53.86.82 1.42.82.28 0 .56-.07.82-.22.78-.45 1.05-1.46.6-2.24l-3.28-5.69zM815.92 465.26l-5.69-3.28c-.78-.45-1.79-.18-2.24.6-.45.78-.18 1.79.6 2.24l5.69 3.28c.26.15.54.22.82.22.57 0 1.12-.29 1.42-.82.45-.78.18-1.79-.6-2.24zM814.27 438.67c0 .91.73 1.64 1.64 1.64h6.57c.91 0 1.64-.73 1.64-1.64s-.73-1.64-1.64-1.64h-6.57c-.9-.01-1.64.73-1.64 1.64zM809.15 415.55c.28 0 .56-.07.82-.22l5.69-3.28c.79-.45 1.05-1.46.6-2.24-.45-.78-1.46-1.05-2.24-.6l-5.69 3.28c-.78.45-1.05 1.46-.6 2.24.3.53.85.82 1.42.82zM790.09 397.27c.26.15.54.22.82.22.57 0 1.12-.29 1.42-.82l3.28-5.69c.45-.79.18-1.79-.6-2.24-.79-.45-1.79-.18-2.24.6l-3.28 5.69c-.45.78-.19 1.79.6 2.24zM772.69 439.37l45.09-11.6-.87-3.39-44.99 11.57c-1.07-1.97-3.12-3.32-5.49-3.39l-16.38-30.52-5.79 3.1 16.4 30.56c-.59.97-.93 2.11-.93 3.33v.05l-8.76 2.25.87 3.39 8.86-2.28c1.1 1.76 3.01 2.96 5.21 3.06l4.22 7.86 5.79-3.1-4.2-7.82c.57-.9.91-1.95.97-3.07zm-9.67-.33c0-.29.05-.56.12-.82.37-1.37 1.6-2.38 3.08-2.38.91 0 1.72.38 2.31.99.55.58.89 1.35.89 2.21 0 .44-.09.86-.25 1.24-.49 1.15-1.62 1.96-2.95 1.96-.75 0-1.42-.27-1.97-.7-.74-.59-1.23-1.49-1.23-2.5zM179.43 387.94c.49.37 1.06.54 1.63.54.83 0 1.66-.38 2.2-1.1 3.98-5.34 4.03-12.35.13-17.44-2.13-2.78-2.53-8.4.06-10.99 1.07-1.07 1.07-2.8 0-3.87-1.07-1.07-2.8-1.07-3.87 0-4.69 4.69-4.15 13.47-.53 18.19 2.4 3.13 2.33 7.48-.17 10.84-.91 1.21-.66 2.92.55 3.83zM212.81 387.94c.49.37 1.06.54 1.63.54.83 0 1.66-.38 2.2-1.1 3.98-5.34 4.03-12.35.13-17.44-2.13-2.78-2.53-8.4.06-10.99 1.07-1.07 1.07-2.8 0-3.87-1.07-1.07-2.8-1.07-3.87 0-4.69 4.69-4.15 13.47-.53 18.19 2.4 3.13 2.33 7.48-.17 10.84-.91 1.21-.66 2.92.55 3.83zM482.73 81.48c2.18 0 3.96-1.77 3.96-3.96s-1.77-3.96-3.96-3.96c-2.18 0-3.96 1.77-3.96 3.96s1.78 3.96 3.96 3.96zM250.58 91.18v358.56c0 2.23 1.96 4.11 4.28 4.11H710.93c2.32 0 4.28-1.88 4.28-4.11V91.18c0-2.23-1.92-4.11-4.19-4.11H254.86c-2.32 0-4.28 1.89-4.28 4.11zm459.53 4.15V448.73H255.69V92.18h454.42v3.15z"/><path class="st6" d="M842.82 509.1h-17.87l.95-.54c1.02-.57 1.75-1.51 2.07-2.64.31-1.13.17-2.31-.4-3.33l-7.94-14.1c12.05-13 19.43-30.39 19.43-49.47 0-25.37-13.04-47.74-32.76-60.79l4.34-8.13 16.65 9.03c.92.5 1.92.77 2.89.77 1.86 0 3.4-.95 4.34-2.68 2.76-5.09 3.43-11.16 1.84-16.65-1.58-5.46-5.36-10.4-11.01-14.49 1.13-3.36.93-7.18-2.09-8.78-.86-.45-1.84-.69-2.84-.69-2.38 0-4.7 1.32-6.29 3.5-.2-.07-.4-.14-.59-.21.32-2.4-1.24-4.52-4.2-5.59-3.15-1.15-4.89-2.65-6.81-8.53-2.2-6.71-6.41-10.88-12.87-12.74-11.87-3.42-37.17-2.9-48.11-.01-3.35.89-5.78 2.46-7.63 4.31V87.3c0-7.61-2.93-14.72-8.24-20.02-5.31-5.3-12.42-8.21-20.04-8.21H260.09c-15.83 0-28.71 12.67-28.71 28.23v309.88h-67.94c-4.46 0-7.57 3.19-7.57 7.75 0 2.25.03 4.52.08 6.78-2.92-1.28-6.31-1.99-9.52-1.99-3.81 0-9.29.96-13.76 5.52-7.79 7.97-10.27 27.5 5.34 43.48 10.17 10.41 27.28 18.65 36.06 20.76 1.09 1.6 2.23 3.18 3.43 4.76v.23c0 2.34.49 3.89 1.37 5.2h-39.81c-2.77 0-4.99 1.41-5.81 3.68-.8 2.23-.05 4.72 1.92 6.34 3.59 2.96 10.83 6.62 19.6 9.43h-38.93c.07-.35.11-.71.11-1.08v-7.14c0-.03.01-.05.01-.08.11-1.81-.69-3.55-2.12-4.65-9.97-7.71-23.85-12.6-38.93-13.9V380.14c0-30.93 18.49-53.87 46.22-57.71 1.51 1.81 3.78 2.97 6.31 2.97h.55v43.71c-4.35.61-7.71 4.35-7.71 8.86 0 4.94 4.02 8.96 8.96 8.96 4.94 0 8.96-4.02 8.96-8.96 0-4.24-2.97-7.8-6.94-8.72V325.4h3.83v1.56c0 3.9 3.23 7.2 7.04 7.2h72.93c3.8 0 6.78-3.18 6.78-7.07 0 0 .01-21.44.01-21.69 0-10.82-4.58-21-12.8-28.61-8.13-7.53-19-11.7-30.5-11.7-22.24 0-40.71 15.64-43.17 35.69h-7.95c-3.03 0-5.68 1.66-7.1 4.11-16.42 1.93-30.91 8.84-41.99 20.09-13.7 13.9-20.95 32.98-20.95 55.16v102.23c-14.51 1.43-27.71 6.14-37.23 13.42-1.62.95-2.71 2.7-2.71 4.72v7.52c0 .37.04.73.11 1.08H8.14c-1.28 0-2.31 1.04-2.31 2.31 0 1.28 1.04 2.31 2.31 2.31h834.68c1.28 0 2.31-1.04 2.31-2.31 0-1.28-1.03-2.32-2.31-2.32zM129.24 383.65c-3.13 0-5.68-2.55-5.68-5.68s2.55-5.68 5.68-5.68 5.68 2.55 5.68 5.68-2.55 5.68-5.68 5.68zm-62.4 98.25c-1.33 0-2.65.04-3.97.09V380.14c0-4.05.26-7.97.77-11.78 2.08-15.68 8.4-29.2 18.6-39.54 9.81-9.95 22.54-16.22 36.99-18.27v6.63c-29.92 4.68-49.79 29.56-49.79 62.96v101.8c-.87-.02-1.74-.04-2.6-.04zm68.26-161.98h-7.66c-.63 0-1.2-.22-1.66-.57-.65-.5-1.08-1.28-1.08-2.16v-8.21c0-.74.3-1.4.77-1.89.5-.52 1.19-.84 1.97-.84h7.66v13.67zm43.46-50.43c2.03 0 4.02.14 5.96.42-.07-.02-.14-.05-.21-.07 15.58 2.08 28.08 12.71 31.93 26.54.01.03.02.07.03.1.14.5.26 1 .38 1.51.02.1.05.2.07.3.1.45.18.9.26 1.35.02.14.05.29.07.43.07.42.12.85.17 1.27.02.17.04.33.06.5.04.43.08.85.11 1.28.01.16.03.33.04.49.03.59.05 1.18.05 1.78 0 .24-.01 21.69-.01 21.69 0 1.42-1 2.7-2.41 2.7h-72.93c-1.41 0-2.66-1.4-2.66-2.82v-1.86-5.73-12.48-1.56c0-1.33.09-2.65.24-3.94 2.15-17.95 18.78-31.9 38.85-31.9zM35.6 493.27c.59-.25 1.19-.49 1.8-.72.03-.01.06-.02.1-.04 1.25-.48 2.53-.93 3.84-1.34.05-.02.1-.03.15-.05.54-.17 1.1-.33 1.65-.49.28-.08.55-.16.83-.24.52-.14 1.03-.28 1.56-.42.35-.09.71-.17 1.06-.26.76-.18 1.52-.35 2.29-.52.5-.1 1-.21 1.51-.31.41-.08.83-.15 1.25-.22.52-.09 1.04-.18 1.57-.26.38-.06.77-.12 1.16-.17.74-.1 1.5-.2 2.25-.29.23-.03.46-.05.7-.08.03 0 .05 0 .08-.01.84-.09 1.68-.16 2.53-.23.07-.01.14-.01.21-.01.24-.02.48-.03.72-.05.7-.05 1.41-.08 2.12-.11.3-.01.6-.03.9-.04.98-.03 1.97-.05 2.97-.05.99 0 1.97.02 2.94.05.3.01.59.02.89.04.51.02 1.01.05 1.51.08.2.01.4.02.59.03.3.02.61.04.91.06.41.03.82.08 1.23.11v-.01c.48.04.97.09 1.44.14.21.02.41.05.61.07.75.09 1.49.18 2.23.29.38.05.75.11 1.13.17.53.08 1.06.17 1.59.27.4.07.81.14 1.21.22.54.1 1.07.22 1.6.33.72.15 1.43.32 2.14.49.37.09.74.18 1.1.27.51.13 1.02.27 1.52.41.29.08.57.16.85.25.55.16 1.09.32 1.62.49.02.01.04.01.06.02 1.31.42 2.58.86 3.83 1.34.07.02.13.05.2.07.6.23 1.19.47 1.78.71.09.04.18.08.27.11.6.25 1.19.51 1.77.78.16.08.32.15.49.23.42.2.85.4 1.26.6.01.01.02.01.04.02h-69.9l.06-.03c.4-.2.8-.39 1.21-.58.18-.08.35-.17.53-.25.58-.27 1.17-.53 1.77-.78.09-.01.18-.05.27-.09zm-12.68 7.23H110.47v7.66H22.93v-7.66zM724.88 74.4c2.44 3.66 3.85 8.09 3.85 12.9V470.48H236.56V87.3c0-12.71 10.56-23.05 23.53-23.05h445.54c8.13-.01 15.15 3.98 19.25 10.15zm63.86 241.81c5.41 1.56 8.79 4.93 10.66 10.61 2.06 6.27 4.28 8.95 8.81 10.59.57.21 1.72.72 2 1.55-2.1-.49-4.15-.74-6.13-.74-.5 0-.98.02-1.46.05-3.17-1.18-4.53-4.06-5.59-8.02-1.26-4.72-4-7.83-7.91-8.99-11.62-3.46-36.35-2.94-47.05-.01-2.4.66-4.07 2-5.26 3.48-1.67 2.08-2.37 4.42-2.68 5.49l-.14.49c-.02.08-.05.17-.07.25v-8.32c1.72-2.79 4.15-5.29 8.46-6.43 2.33-.62 5.33-1.12 8.72-1.5 11.96-1.32 28.74-1.06 37.64 1.5zm31.67 23.69c.48 0 .92.1 1.31.31 1.04.55 1.18 2.21.76 3.97-.7-.43-1.42-.85-2.17-1.26-1.01-.55-2.02-1.05-3.02-1.5 1.03-1.09 2.21-1.52 3.12-1.52zm9.76 36.73c-.41 0-.88-.13-1.32-.37l-26.42-14.33-10.89-5.91-3.03-1.64c-.55-.3-.97-.72-1.17-1.16-.13-.29-.25-.76.15-1.49 1.67-3.07 6.62-10.21 16.59-10.21 3.73 0 7.77 1.02 12.06 3 .73.34 1.46.7 2.2 1.09.13.07.26.13.4.2 16.59 9 17.31 21.71 12.89 29.86-.36.66-.82.96-1.46.96zm-5.36 128.41c-.08.28-.26.52-.52.66l-1.91 1.07c-.25.14-.55.18-.83.1-.28-.08-.52-.26-.66-.51L813.96 494c1.13-.98 2.22-2 3.29-3.04l7.46 13.25c.14.26.18.55.1.83zm-22.49-6.57c-10.53 6.42-22.89 10.12-36.1 10.12-4.67 0-9.24-.47-13.66-1.36 3.79-1.09 7.46-2.3 10.9-3.59.91.04 1.83.07 2.76.07 12.81 0 24.75-3.76 34.81-10.21 17.94-11.51 29.86-31.61 29.86-54.46 0-35.66-29.01-64.67-64.67-64.67-9.02 0-17.62 1.86-25.43 5.22-2.37 1.02-4.67 2.18-6.89 3.46v-5.59c1.71-.9 3.46-1.73 5.25-2.48 8.32-3.53 17.47-5.49 27.06-5.49 38.35 0 69.55 31.2 69.55 69.55.02 25.14-13.39 47.21-33.44 59.43zM766.67 366.2c-.15 0-.3-.01-.44-.01-.58 0-1.16.01-1.74.03v-7.45h2.19v7.43zm-9.31-13.99v-1.13c0-.3.53-.51 1.03-.51h14.44c.04 0 .94.01.94.51V354.8c0 .39-.4.69-.94.69H758.39c-.61 0-1.03-.36-1.03-.69v-2.59zm40.26 21.11c-8.45-4.05-17.8-6.52-27.67-7.02v-7.52h2.89c2.37 0 4.22-1.74 4.22-3.97v-3.73c0-2.16-1.82-3.79-4.22-3.79H758.4c-2.46 0-4.32 1.63-4.32 3.79v3.73c0 2.19 1.94 3.97 4.32 3.97h2.8v7.6c-9.74.67-18.97 3.27-27.29 7.41V362.7l10.01-5.43c1.19-.65 2.12-1.61 2.61-2.72.61-1.38.51-2.94-.27-4.38-1.5-2.77-5.3-8.36-12.35-10.77v-.66c1.85-2.4 2.68-5.2 3.23-7.1l.14-.48c1.13-3.84 2.93-5.98 5.66-6.72 10.09-2.76 34.3-3.27 45.25-.01 2.84.85 4.7 3.04 5.68 6.69.76 2.84 1.84 5.83 4.02 7.98-7.65 2.22-11.71 8.18-13.28 11.07-.78 1.44-.88 3-.27 4.38.49 1.11 1.41 2.07 2.61 2.72l14.93 8.1-4.26 7.95zm-63.72-30.41c.57.24 1.11.51 1.63.79 4.3 2.36 6.76 6.04 7.84 8.03.4.74.28 1.21.15 1.5-.19.44-.62.86-1.17 1.16l-6.16 3.34-2.28 1.24v-16.06zm0 43.96c2.76-1.72 5.66-3.22 8.69-4.49 7.28-3.05 15.26-4.74 23.63-4.74 33.85 0 61.39 27.54 61.39 61.39 0 20.88-10.49 39.35-26.47 50.45-8.5 5.9-18.54 9.71-29.4 10.68 5.32-2.5 9.68-5.14 12.49-7.66 2.53-2.27 4.07-3.95 4.07-8.05v-11.4c0-1.43-1.16-2.59-2.59-2.59H733.9v-83.59zm-187.22 88.77c-2.72 5.63-8.53 9.33-14.9 9.33H433.5c-6.51 0-12.23-3.62-14.93-9.33-.01-.03-.03-.06-.04-.09l128.24-.05c-.03.05-.06.09-.09.14zm-369.18-2.59v2.02c-1.2-1.84-2.32-3.71-3.38-5.61-9.33-16.82-12.96-36.22-12.96-64.55 0-1.68.73-2.47 2.28-2.47H231.38v68h-51.29c-1.43.02-2.59 1.18-2.59 2.61zm-45.65-38.84c-.42-6.19 1.3-11.9 4.59-15.27 3.19-3.26 7.19-3.94 9.98-3.94 3.98 0 7.49 1.37 9.47 2.65.04 1.18.11 2.61.21 4.38-4.62-2.03-9.4-1.69-13.44 1.07-2.56 1.75-4.16 4.68-4.51 8.25-.61 6.18 2.49 13.42 8.3 19.36.32.33.64.64.96.95 6.95 6.83 13.85 10.64 17.64 12.4 1.12 2.59 2.62 5.58 4.15 8.31-7.64-3.04-17.41-8.39-24.56-14.63-1.01-.88-1.96-1.78-2.85-2.69-5.91-6.04-9.44-13.44-9.94-20.84zm18.38 12.81c-4.65-4.76-7.27-10.57-6.82-15.15.2-2.02.97-3.54 2.24-4.41 1.41-.97 2.92-1.46 4.49-1.46 2.94 0 5.54 1.68 6.79 2.64 1.06 10.63 2.97 19.9 5.81 28.23-3.51-2.07-8.01-5.25-12.51-9.85zm30.72 61.23c-10.44 0-21.16-2.72-29.4-5.89-6-2.31-10.7-4.85-13.01-6.77-.28-.23-.33-.45-.32-.48.03-.04.26-.19.84-.19h45.61c5.51 3.8 14.03 7.73 23.76 10.89 2.78.9 5.58 1.7 8.38 2.43h-35.86zm65.58-1.01c-6.01 0-12.22-.65-18.29-1.73-12.2-2.17-23.86-6.11-32.36-10.18-.28-.13-.56-.27-.84-.4-.68-.33-1.34-.67-1.97-1-.64-.33-1.24-.67-1.83-1-.38-.21-.75-.43-1.11-.64-.36-.21-.71-.43-1.05-.64-1.03-.65-1.95-1.29-2.76-1.91-.49-.37-.95-.74-1.35-1.1-.06-.06-.11-.1-.17-.15-1.42-1.28-1.93-1.82-2.08-2.93-.04-.32-.06-.67-.06-1.11V475.64h230.36c.03.19.07.38.14.57 3.19 8.47 11.17 13.94 20.32 13.94h98.29c9 0 17.16-5.62 20.32-13.99.06-.17.11-.34.14-.51h230.89v8.81c0 1.96-.33 2.37-2.18 4.04-.06.05-.11.1-.17.15-4.34 3.9-13.9 8.7-25.54 12.45-.01 0-.02.01-.03.01-4.29 1.38-8.86 2.62-13.56 3.61-.64.14-1.29.27-1.94.4-6.77 1.33-13.76 2.14-20.51 2.14H246.53zM803.52 376.5c-.97-.58-1.96-1.15-2.97-1.68l4.19-7.89 3 1.63-4.22 7.94zm-58.13 132.6c.18-.04.35-.09.52-.13.15.04.3.08.45.13h-.97zm40.71 0c9.32-2.65 17.89-7.1 25.3-12.97l6.64 11.84c.25.44.57.81.93 1.13H786.1z"/><path class="st7" d="M279.52 108.77h2.41l-.43 3.23c.58.06 1.15.13 1.73.22.58.09 1.12.19 1.62.32v2.55c-.61-.15-1.22-.29-1.84-.4-.62-.11-1.23-.19-1.83-.25l-.95 7.1c.74.29 1.48.6 2.21.94.73.34 1.39.74 1.97 1.19.58.46 1.05 1 1.41 1.63.36.63.54 1.38.54 2.26 0 .93-.19 1.75-.56 2.47-.38.72-.9 1.33-1.58 1.83-.67.5-1.49.89-2.44 1.17-.95.28-2 .45-3.14.51l-.55 3.95h-2.42l.55-3.95c-.9-.07-1.75-.16-2.56-.29-.81-.13-1.52-.27-2.11-.42v-2.75c.7.24 1.46.44 2.28.6.82.16 1.74.26 2.75.32l.98-7.47c-.72-.28-1.43-.57-2.12-.9-.7-.32-1.32-.71-1.87-1.15-.55-.45-.99-.98-1.34-1.58-.34-.61-.51-1.33-.51-2.17 0-.69.14-1.36.43-2.03.29-.67.74-1.27 1.34-1.81.61-.54 1.38-.98 2.31-1.33.93-.35 2.03-.56 3.32-.62l.4-3.17zm-.74 5.64c-1.38.12-2.39.45-3.03.97-.64.53-.95 1.2-.95 2.02 0 .76.26 1.39.79 1.88.52.49 1.31.94 2.35 1.35l.84-6.22zm.2 16.58c1.49-.11 2.58-.44 3.26-1 .68-.55 1.02-1.3 1.02-2.26 0-.4-.07-.75-.22-1.07-.14-.32-.36-.6-.65-.85-.29-.25-.64-.49-1.07-.71-.43-.22-.93-.44-1.5-.66l-.84 6.55z"/><path class="st8" d="M310.4 116.92h2.64l.08 3.07c.98-1.18 1.95-2.04 2.91-2.57.96-.53 1.92-.8 2.89-.8 1.73 0 3.03.56 3.92 1.68.89 1.12 1.3 2.78 1.24 4.98h-2.92c.03-1.46-.18-2.52-.64-3.18-.46-.66-1.13-.99-2.02-.99-.39 0-.78.07-1.17.21-.39.14-.8.36-1.21.66-.41.3-.85.69-1.32 1.17-.46.48-.96 1.05-1.49 1.73v10.7h-2.92v-16.66zM342.47 124.37c0 .41-.01.75-.02 1.03s-.03.54-.05.78h-11.7c0 1.7.48 3.01 1.43 3.92.95.91 2.32 1.37 4.11 1.37.49 0 .97-.02 1.46-.06.49-.04.96-.09 1.41-.16.45-.07.89-.14 1.3-.22.41-.08.8-.17 1.15-.27v2.37c-.79.22-1.67.4-2.66.54-.99.14-2.02.21-3.08.21-1.43 0-2.65-.19-3.68-.58-1.03-.39-1.87-.95-2.53-1.68-.66-.74-1.14-1.64-1.46-2.7-.32-1.07-.47-2.28-.47-3.62 0-1.17.17-2.28.51-3.33.34-1.04.83-1.96 1.48-2.75s1.44-1.42 2.38-1.88c.94-.46 2.01-.7 3.2-.7 1.16 0 2.19.18 3.09.55.9.36 1.65.88 2.26 1.55.61.67 1.08 1.48 1.39 2.44.32.93.48 2 .48 3.19zm-3.01-.42c.03-.74-.04-1.42-.22-2.03-.18-.61-.45-1.14-.82-1.58-.37-.44-.83-.79-1.39-1.04-.55-.25-1.19-.37-1.92-.37-.63 0-1.21.12-1.73.36s-.97.59-1.34 1.03c-.38.44-.68.97-.91 1.59-.23.62-.38 1.3-.43 2.04h8.76zM357.78 133.57l-.07-2.24c-.91.9-1.83 1.54-2.76 1.94-.93.4-1.92.6-2.94.6-.95 0-1.76-.12-2.44-.36-.67-.24-1.23-.58-1.67-1-.44-.43-.76-.93-.96-1.5-.2-.57-.31-1.2-.31-1.87 0-1.67.62-2.98 1.87-3.92 1.24-.95 3.08-1.42 5.52-1.42h3.45v-1.46c0-.98-.32-1.77-.95-2.36-.63-.59-1.59-.89-2.89-.89-.94 0-1.87.1-2.78.32s-1.86.51-2.83.9v-2.6c.36-.13.77-.26 1.22-.39.45-.13.92-.24 1.42-.34.5-.1 1.02-.18 1.56-.24s1.09-.09 1.64-.09c1.01 0 1.91.11 2.72.33.81.22 1.49.56 2.05 1.01.56.45.99 1.02 1.29 1.71.3.69.45 1.49.45 2.42v11.48h-2.59zm-.32-7.58h-3.67c-.72 0-1.34.07-1.86.22-.52.14-.95.35-1.28.61-.33.27-.58.58-.74.95-.16.37-.24.79-.24 1.25 0 .32.05.63.15.92.1.29.26.55.48.78.22.23.51.41.86.54.35.13.79.2 1.29.2.66 0 1.42-.2 2.28-.61.86-.4 1.76-1.04 2.71-1.92v-2.94zM364.91 125.6c0-1.42.19-2.67.58-3.77.39-1.1.94-2.03 1.65-2.79s1.57-1.33 2.57-1.73c1-.39 2.11-.59 3.34-.59.53 0 1.05.03 1.57.1.51.07 1.02.17 1.52.32v-7h2.9v23.44h-2.59l-.1-3.15c-.81 1.17-1.68 2.04-2.62 2.6-.94.56-1.96.85-3.05.85-.95 0-1.79-.2-2.51-.6-.72-.4-1.33-.96-1.81-1.68s-.84-1.6-1.09-2.61c-.23-1.03-.36-2.16-.36-3.39zm2.96-.19c0 2.01.3 3.51.89 4.5.59.99 1.43 1.49 2.51 1.49.73 0 1.5-.33 2.31-.98.81-.65 1.67-1.62 2.56-2.9v-7.73c-.48-.22-1-.39-1.58-.51-.58-.12-1.15-.17-1.71-.17-1.57 0-2.8.51-3.67 1.53-.87 1.01-1.31 2.61-1.31 4.77zM400.47 140.38h-18.68v-2.39h18.68v2.39zM415.12 119.27c.31.39.55.84.72 1.35.17.51.26 1.07.26 1.67 0 .86-.16 1.65-.47 2.36-.32.71-.76 1.32-1.34 1.83-.58.51-1.26.9-2.07 1.19-.8.28-1.68.42-2.65.42-.7 0-1.35-.07-1.96-.22s-1.09-.33-1.44-.56c-.21.31-.39.6-.53.88s-.22.59-.22.93c0 .42.2.77.61 1.05.4.28.94.43 1.6.45l4.38.17c.83.02 1.6.13 2.3.32.7.19 1.3.46 1.81.81.5.35.9.79 1.18 1.31.28.52.42 1.12.42 1.81 0 .74-.16 1.44-.48 2.11-.32.66-.82 1.25-1.49 1.75s-1.52.9-2.55 1.2c-1.03.3-2.25.45-3.67.45-1.35 0-2.5-.11-3.44-.32-.95-.22-1.72-.51-2.33-.9-.61-.38-1.05-.84-1.33-1.36-.28-.53-.41-1.1-.41-1.73 0-.81.19-1.52.56-2.12.38-.61.96-1.19 1.74-1.76-.29-.13-.54-.3-.75-.5-.21-.2-.38-.42-.51-.66s-.23-.49-.3-.75c-.07-.27-.1-.53-.1-.78 0-.72.17-1.38.51-1.97.34-.6.74-1.16 1.2-1.69-.21-.25-.4-.5-.56-.75-.16-.24-.3-.51-.41-.79-.12-.28-.2-.59-.27-.91-.06-.33-.09-.7-.09-1.12 0-.86.16-1.65.47-2.36.32-.71.76-1.32 1.33-1.83.57-.51 1.26-.9 2.06-1.19.8-.28 1.69-.42 2.66-.42.41 0 .8.03 1.18.08.38.06.71.13 1 .22h6.04v2.36h-2.66zm-10.02 16.71c0 .79.41 1.36 1.23 1.72.82.36 1.96.54 3.42.54.92 0 1.69-.08 2.31-.25.62-.17 1.13-.38 1.51-.66.38-.27.66-.58.82-.93.17-.35.25-.7.25-1.07 0-.67-.28-1.17-.83-1.49-.55-.32-1.4-.51-2.54-.56l-4.35-.15c-.36.24-.67.48-.9.71-.24.23-.42.47-.56.7-.13.24-.23.48-.28.71-.06.25-.08.49-.08.73zm.87-13.62c0 .53.09 1.02.27 1.46.18.44.43.82.75 1.13.32.31.7.55 1.14.72.44.17.92.26 1.45.26.57 0 1.09-.1 1.53-.29.45-.19.82-.46 1.13-.79.3-.33.54-.71.7-1.14.16-.43.24-.88.24-1.34 0-.53-.09-1.02-.27-1.46-.18-.44-.43-.82-.75-1.13-.32-.31-.7-.55-1.14-.72-.44-.17-.92-.26-1.45-.26-.58 0-1.09.1-1.53.3-.45.2-.82.46-1.13.79-.3.33-.54.7-.7 1.14-.16.42-.24.87-.24 1.33zM435.87 124.37c0 .41-.01.75-.02 1.03s-.03.54-.05.78h-11.7c0 1.7.48 3.01 1.43 3.92.95.91 2.32 1.37 4.11 1.37.49 0 .97-.02 1.46-.06.49-.04.96-.09 1.41-.16.45-.07.89-.14 1.3-.22.41-.08.8-.17 1.15-.27v2.37c-.79.22-1.67.4-2.66.54-.99.14-2.02.21-3.08.21-1.43 0-2.65-.19-3.68-.58-1.03-.39-1.87-.95-2.53-1.68-.66-.74-1.14-1.64-1.46-2.7-.32-1.07-.47-2.28-.47-3.62 0-1.17.17-2.28.51-3.33.34-1.04.83-1.96 1.48-2.75s1.44-1.42 2.38-1.88c.94-.46 2.01-.7 3.2-.7 1.16 0 2.19.18 3.09.55.9.36 1.65.88 2.26 1.55.61.67 1.08 1.48 1.39 2.44.32.93.48 2 .48 3.19zm-3-.42c.03-.74-.04-1.42-.22-2.03-.18-.61-.45-1.14-.82-1.58-.37-.44-.83-.79-1.39-1.04-.55-.25-1.19-.37-1.92-.37-.63 0-1.21.12-1.73.36s-.97.59-1.34 1.03c-.38.44-.68.97-.91 1.59-.23.62-.38 1.3-.43 2.04h8.76zM440.48 116.92h2.57l.12 2.69c.49-.58.96-1.05 1.41-1.43s.9-.69 1.34-.92c.44-.23.88-.4 1.34-.49.45-.09.92-.14 1.41-.14 1.71 0 3.01.51 3.89 1.52.88 1.01 1.32 2.54 1.32 4.57v10.87h-2.89v-10.63c0-1.31-.24-2.27-.73-2.9-.49-.62-1.21-.94-2.17-.94-.35 0-.7.05-1.04.16-.34.11-.69.29-1.05.55-.36.26-.76.61-1.19 1.05-.43.44-.9 1-1.43 1.66v11.05h-2.89v-16.67zM473.23 124.37c0 .41-.01.75-.02 1.03s-.03.54-.05.78h-11.7c0 1.7.48 3.01 1.43 3.92.95.91 2.32 1.37 4.11 1.37.49 0 .97-.02 1.46-.06.49-.04.96-.09 1.41-.16.45-.07.89-.14 1.3-.22.41-.08.8-.17 1.15-.27v2.37c-.79.22-1.67.4-2.66.54-.99.14-2.02.21-3.08.21-1.43 0-2.65-.19-3.68-.58-1.03-.39-1.87-.95-2.53-1.68-.66-.74-1.14-1.64-1.46-2.7-.32-1.07-.47-2.28-.47-3.62 0-1.17.17-2.28.51-3.33.34-1.04.83-1.96 1.48-2.75s1.44-1.42 2.38-1.88c.94-.46 2.01-.7 3.2-.7 1.16 0 2.19.18 3.09.55.9.36 1.65.88 2.26 1.55.61.67 1.08 1.48 1.39 2.44.32.93.48 2 .48 3.19zm-3-.42c.03-.74-.04-1.42-.22-2.03-.18-.61-.45-1.14-.82-1.58-.37-.44-.83-.79-1.39-1.04-.55-.25-1.19-.37-1.92-.37-.63 0-1.21.12-1.73.36s-.97.59-1.34 1.03c-.38.44-.68.97-.91 1.59-.23.62-.38 1.3-.43 2.04h8.76zM491.03 129.03c0 .59-.1 1.11-.3 1.58-.2.46-.47.88-.81 1.24-.34.36-.74.67-1.19.92-.45.25-.94.46-1.45.63-.51.17-1.04.29-1.58.36-.54.08-1.07.12-1.59.12-1.13 0-2.17-.05-3.11-.15-.95-.1-1.87-.26-2.78-.48v-2.65c.97.28 1.94.49 2.9.63s1.92.22 2.87.22c1.38 0 2.41-.19 3.07-.56.66-.38 1-.91 1-1.61 0-.3-.05-.57-.16-.8-.11-.24-.3-.46-.57-.68-.28-.22-.71-.44-1.29-.67-.58-.23-1.37-.5-2.38-.8-.75-.22-1.45-.47-2.08-.75-.64-.28-1.19-.62-1.65-1s-.83-.84-1.09-1.36c-.27-.52-.4-1.13-.4-1.84 0-.46.11-.97.32-1.53.22-.55.58-1.07 1.1-1.54.52-.48 1.22-.87 2.11-1.19.88-.32 1.99-.47 3.32-.47.65 0 1.38.04 2.17.11.8.07 1.63.2 2.49.37v2.57c-.91-.22-1.77-.38-2.58-.49-.81-.1-1.52-.16-2.11-.16-.72 0-1.32.06-1.82.17-.49.11-.89.26-1.19.46-.3.19-.52.42-.66.68-.13.26-.2.54-.2.84 0 .3.06.57.17.81.12.24.33.48.65.71.32.23.75.45 1.32.68.56.23 1.3.47 2.21.74.98.29 1.81.59 2.49.9.67.32 1.22.67 1.64 1.05s.72.82.9 1.31c.17.46.26 1.01.26 1.63zM502.2 119.31h-4.93v-2.39h7.85v14.25h4.96v2.41h-13.36v-2.41h5.48v-11.86zm1.01-9.38c.32 0 .62.06.9.17.28.12.52.28.72.49.2.21.37.45.48.72.12.27.17.57.17.89 0 .31-.06.6-.17.88-.12.28-.28.52-.48.73-.2.21-.44.37-.72.49-.28.12-.58.17-.9.17-.32 0-.62-.06-.9-.17-.28-.12-.52-.28-.72-.49-.21-.21-.37-.45-.48-.73-.12-.28-.17-.57-.17-.88 0-.32.06-.62.17-.89.12-.27.28-.51.48-.72.2-.21.44-.37.72-.49.28-.11.58-.17.9-.17zM528.39 129.03c0 .59-.1 1.11-.3 1.58-.2.46-.47.88-.81 1.24-.34.36-.74.67-1.19.92-.45.25-.94.46-1.45.63-.51.17-1.04.29-1.58.36-.54.08-1.07.12-1.59.12-1.13 0-2.17-.05-3.11-.15-.95-.1-1.87-.26-2.78-.48v-2.65c.97.28 1.94.49 2.9.63s1.92.22 2.87.22c1.38 0 2.41-.19 3.07-.56.66-.38 1-.91 1-1.61 0-.3-.05-.57-.16-.8-.11-.24-.3-.46-.57-.68-.28-.22-.71-.44-1.29-.67-.58-.23-1.37-.5-2.38-.8-.75-.22-1.45-.47-2.08-.75-.64-.28-1.19-.62-1.65-1s-.83-.84-1.09-1.36c-.27-.52-.4-1.13-.4-1.84 0-.46.11-.97.32-1.53.22-.55.58-1.07 1.1-1.54.52-.48 1.22-.87 2.11-1.19.88-.32 1.99-.47 3.32-.47.65 0 1.38.04 2.17.11.8.07 1.63.2 2.49.37v2.57c-.91-.22-1.77-.38-2.58-.49-.81-.1-1.52-.16-2.11-.16-.72 0-1.32.06-1.82.17-.49.11-.89.26-1.19.46-.3.19-.52.42-.66.68-.13.26-.2.54-.2.84 0 .3.06.57.17.81.12.24.33.48.65.71.32.23.75.45 1.32.68.56.23 1.3.47 2.21.74.98.29 1.81.59 2.49.9.67.32 1.22.67 1.64 1.05s.72.82.9 1.31c.17.46.26 1.01.26 1.63zM543.86 140.54c-5.1-4.72-7.65-9.94-7.65-15.66 0-1.34.14-2.67.41-4.01.27-1.33.71-2.67 1.31-4.01.6-1.34 1.4-2.68 2.39-4.01.99-1.34 2.19-2.67 3.61-3.98l1.68 1.71c-4.29 4.24-6.44 8.93-6.44 14.09 0 2.57.54 5.03 1.63 7.4 1.08 2.37 2.69 4.6 4.81 6.7l-1.75 1.77zM555.97 108.87c5.1 4.72 7.65 9.98 7.65 15.76 0 1.19-.12 2.43-.36 3.72-.24 1.28-.66 2.6-1.24 3.94-.59 1.34-1.37 2.71-2.36 4.09-.99 1.38-2.24 2.77-3.74 4.16l-1.68-1.71c2.16-2.13 3.77-4.36 4.83-6.69 1.06-2.32 1.59-4.76 1.59-7.3 0-5.26-2.14-10-6.42-14.2l1.73-1.77zM572.74 136.98c.56.02 1.11-.03 1.64-.15.53-.12 1-.3 1.4-.54.4-.24.73-.53.97-.89.24-.35.36-.76.36-1.21 0-.46-.08-.84-.24-1.13-.16-.29-.34-.55-.54-.8-.2-.24-.38-.5-.54-.78-.16-.28-.24-.65-.24-1.11 0-.23.04-.48.13-.73s.22-.49.41-.7c.18-.21.41-.38.7-.51.28-.13.62-.2 1-.2.39 0 .76.08 1.12.24.36.16.67.41.95.74.27.33.49.75.65 1.24.16.5.24 1.08.24 1.76 0 .92-.17 1.8-.51 2.65-.34.85-.84 1.6-1.51 2.25-.67.65-1.5 1.17-2.51 1.56-1 .39-2.17.58-3.49.58v-2.27zm5.19-20.36c.34 0 .67.07.98.21.31.14.58.32.81.56.23.23.42.5.56.81.14.31.21.64.21.98 0 .35-.07.68-.21.99-.14.3-.32.57-.56.8-.23.23-.5.41-.81.55-.31.13-.64.2-.98.2-.35 0-.68-.07-.99-.2-.3-.13-.57-.32-.81-.55-.23-.23-.41-.5-.55-.8-.13-.3-.2-.63-.2-.99 0-.34.07-.67.2-.98.13-.31.32-.58.55-.81.23-.23.5-.42.81-.56.31-.14.64-.21.99-.21z"/><path class="st7" d="M286.56 188.21h-2.95v-9.95h-9.11v9.95h-2.95v-21.68h2.95v9.17h9.11v-9.17h2.95v21.68zM301.74 188.21l-.07-2.24c-.91.9-1.83 1.54-2.76 1.94-.93.4-1.92.6-2.94.6-.95 0-1.76-.12-2.44-.36-.67-.24-1.23-.58-1.67-1-.44-.43-.76-.93-.96-1.5-.2-.57-.31-1.2-.31-1.87 0-1.67.62-2.98 1.87-3.92 1.24-.95 3.08-1.42 5.52-1.42h3.45v-1.46c0-.98-.32-1.77-.95-2.36-.63-.59-1.59-.89-2.89-.89-.94 0-1.87.1-2.78.32-.91.21-1.86.51-2.83.9v-2.6c.36-.13.77-.26 1.22-.39.45-.13.92-.24 1.42-.34.5-.1 1.02-.18 1.56-.24s1.09-.09 1.64-.09c1.01 0 1.91.11 2.72.33.81.22 1.49.56 2.05 1.01.56.45.99 1.02 1.29 1.71.3.69.45 1.49.45 2.42v11.48h-2.59zm-.32-7.58h-3.67c-.72 0-1.34.07-1.86.22-.52.14-.95.35-1.28.61-.33.27-.58.58-.74.95-.16.37-.24.79-.24 1.25 0 .32.05.63.15.92.1.29.26.55.48.78.22.23.51.41.86.54.35.13.79.2 1.29.2.66 0 1.42-.2 2.28-.61.86-.4 1.76-1.04 2.71-1.92v-2.94zM322.91 183.66c0 .59-.1 1.11-.3 1.58-.2.46-.47.88-.81 1.24-.34.36-.74.67-1.19.92-.45.25-.94.46-1.45.63-.51.17-1.04.29-1.58.36-.54.08-1.07.12-1.59.12-1.13 0-2.17-.05-3.11-.15-.95-.1-1.87-.26-2.78-.48v-2.65c.97.28 1.94.49 2.9.63s1.92.22 2.87.22c1.38 0 2.41-.19 3.07-.56.66-.38 1-.91 1-1.61 0-.3-.05-.57-.16-.8-.11-.24-.3-.46-.57-.68-.28-.22-.71-.44-1.29-.67-.58-.23-1.37-.5-2.38-.8-.75-.22-1.45-.47-2.08-.75-.64-.28-1.19-.62-1.65-1-.46-.39-.83-.84-1.09-1.36-.27-.52-.4-1.13-.4-1.84 0-.46.11-.97.32-1.53.22-.55.58-1.07 1.1-1.54.52-.48 1.22-.87 2.11-1.19.88-.32 1.99-.47 3.32-.47.65 0 1.38.04 2.17.11s1.63.2 2.49.37v2.57c-.91-.22-1.77-.38-2.58-.49-.81-.1-1.52-.16-2.11-.16-.72 0-1.32.06-1.82.17-.49.11-.89.26-1.19.46-.3.19-.52.42-.66.68-.13.26-.2.54-.2.84s.06.57.17.81c.12.24.33.48.65.71.32.23.75.45 1.32.68.56.23 1.3.47 2.21.74.98.29 1.81.59 2.49.9.67.32 1.22.67 1.64 1.05.42.39.72.82.9 1.31s.26 1.01.26 1.63zM341.79 188.21h-2.89v-10.63c0-1.28-.24-2.24-.72-2.88-.48-.64-1.17-.95-2.07-.95-.39 0-.75.05-1.09.16-.34.11-.69.29-1.05.55-.36.26-.76.61-1.19 1.05-.43.44-.93 1-1.49 1.66v11.05h-2.89v-23.44h2.89v6.79l-.1 2.62c.45-.54.9-1 1.34-1.37.44-.37.87-.67 1.31-.9.44-.23.88-.4 1.34-.5.45-.1.92-.15 1.41-.15 1.66 0 2.94.51 3.85 1.52.91 1.01 1.36 2.54 1.36 4.57v10.85zM353.77 171.25c.34 0 .67.07.98.21.31.14.58.32.81.56.23.23.42.5.56.81.14.31.21.64.21.98 0 .35-.07.68-.21.99s-.32.57-.56.8c-.23.23-.5.41-.81.55-.31.13-.64.2-.98.2-.35 0-.68-.07-.99-.2-.3-.13-.57-.32-.8-.55-.23-.23-.41-.5-.55-.8-.13-.3-.2-.63-.2-.99 0-.34.07-.67.2-.98.13-.31.32-.58.55-.81.23-.23.5-.42.8-.56.3-.14.63-.21.99-.21zm0 12.17c.34 0 .67.07.98.21.31.14.58.32.81.56.23.23.42.5.56.81.14.31.21.64.21.98 0 .35-.07.68-.21.99s-.32.57-.56.8c-.23.23-.5.41-.81.55-.31.13-.64.2-.98.2-.35 0-.68-.07-.99-.2-.3-.13-.57-.32-.8-.55-.23-.23-.41-.5-.55-.8-.13-.3-.2-.63-.2-.99 0-.34.07-.67.2-.98.13-.31.32-.58.55-.81.23-.23.5-.42.8-.56.3-.15.63-.21.99-.21z"/><path class="st9" d="M398.33 188.21h-13.62v-2.69h5.57V169.7l-5.19 2.82-1.06-2.46 6.9-3.63h2.55v19.1h4.84v2.68zM417.07 176.15c0 2.11-.25 3.93-.76 5.45s-1.26 2.77-2.26 3.75c-1 .98-2.23 1.7-3.7 2.17-1.47.46-3.17.7-5.09.7h-1.81v-2.52h2.01c1.43 0 2.66-.14 3.7-.43s1.91-.71 2.6-1.27c.69-.56 1.22-1.24 1.58-2.04.36-.8.59-1.72.68-2.75l.07-.68c-.7.41-1.5.74-2.41.99-.91.25-1.89.37-2.95.37-1.09 0-2.06-.16-2.89-.48-.83-.32-1.52-.77-2.07-1.34-.55-.58-.96-1.26-1.24-2.05-.28-.79-.41-1.65-.41-2.58 0-1.01.18-1.95.55-2.82.37-.87.88-1.63 1.53-2.28.66-.65 1.45-1.16 2.36-1.53.92-.38 1.93-.56 3.04-.56 1.07 0 2.07.18 2.98.53.91.35 1.7.93 2.36 1.72.66.79 1.18 1.82 1.56 3.08.39 1.23.57 2.77.57 4.57zm-7.59-7.55c-.62 0-1.19.1-1.72.31-.53.2-.98.5-1.36.9-.38.39-.68.88-.9 1.45-.22.58-.33 1.23-.33 1.97 0 .67.08 1.28.24 1.81.16.53.41.98.75 1.35.34.37.77.66 1.3.85.53.2 1.16.3 1.89.3.41 0 .83-.04 1.27-.12.44-.08.86-.18 1.28-.32.41-.13.81-.29 1.19-.46.38-.18.71-.37 1.01-.56 0-1.43-.11-2.62-.32-3.58-.21-.96-.51-1.73-.91-2.31-.4-.58-.88-.99-1.45-1.24-.58-.23-1.23-.35-1.94-.35zM420.96 180.23c0-1.42.19-2.67.58-3.77.39-1.1.94-2.03 1.65-2.79.71-.76 1.57-1.33 2.57-1.73 1-.39 2.11-.59 3.34-.59.53 0 1.05.03 1.57.1.51.07 1.02.17 1.52.32v-7h2.9v23.44h-2.59l-.1-3.15c-.81 1.17-1.68 2.04-2.62 2.6-.94.56-1.96.85-3.05.85-.95 0-1.79-.2-2.51-.6-.72-.4-1.33-.96-1.81-1.68s-.84-1.6-1.09-2.61c-.24-1.02-.36-2.15-.36-3.39zm2.95-.18c0 2.01.3 3.51.89 4.5.59.99 1.43 1.49 2.51 1.49.73 0 1.5-.33 2.31-.98.81-.65 1.67-1.62 2.56-2.9v-7.73c-.48-.22-1-.39-1.58-.51-.58-.12-1.15-.17-1.71-.17-1.57 0-2.8.51-3.67 1.53s-1.31 2.6-1.31 4.77zM454.82 181.34c0 1-.18 1.93-.54 2.8-.36.87-.87 1.63-1.53 2.28-.66.65-1.46 1.16-2.4 1.53-.93.37-1.97.56-3.11.56-1.19 0-2.25-.19-3.17-.57-.92-.38-1.69-.97-2.31-1.76-.62-.79-1.09-1.79-1.41-2.99-.32-1.21-.48-2.63-.48-4.28 0-1.11.07-2.18.22-3.22.14-1.04.38-2.02.71-2.94.33-.92.77-1.76 1.33-2.52.55-.76 1.24-1.42 2.07-1.97.82-.55 1.79-.97 2.91-1.28 1.12-.3 2.41-.46 3.88-.46h2.14v2.52h-2.32c-1.29 0-2.42.16-3.37.46-.95.31-1.75.75-2.39 1.31-.64.56-1.13 1.24-1.48 2.04-.34.8-.56 1.69-.65 2.67l-.07.68c.7-.41 1.5-.74 2.41-.99.91-.25 1.9-.37 2.96-.37 1.09 0 2.05.16 2.88.48.82.32 1.51.77 2.06 1.34.55.57.96 1.25 1.24 2.05.28.81.42 1.68.42 2.63zm-3.02.18c0-.66-.08-1.26-.24-1.8-.16-.54-.41-.99-.75-1.36-.34-.37-.78-.66-1.3-.86-.53-.2-1.15-.31-1.88-.31-.42 0-.85.04-1.28.12-.43.08-.85.19-1.27.32-.41.14-.81.3-1.19.47-.38.18-.72.36-1.03.56 0 1.43.1 2.62.3 3.58.2.96.5 1.72.89 2.3.39.58.88.98 1.45 1.23.58.24 1.24.37 1.99.37.63 0 1.21-.1 1.73-.31s.98-.51 1.36-.9c.38-.4.68-.88.9-1.45.21-.58.32-1.23.32-1.96zM473.5 181.34c0 1-.18 1.93-.54 2.8-.36.87-.87 1.63-1.53 2.28-.66.65-1.46 1.16-2.4 1.53-.93.37-1.97.56-3.11.56-1.19 0-2.25-.19-3.17-.57-.92-.38-1.69-.97-2.31-1.76-.62-.79-1.09-1.79-1.41-2.99-.32-1.21-.48-2.63-.48-4.28 0-1.11.07-2.18.22-3.22.14-1.04.38-2.02.71-2.94.33-.92.77-1.76 1.33-2.52.55-.76 1.24-1.42 2.07-1.97.82-.55 1.79-.97 2.91-1.28 1.12-.3 2.41-.46 3.88-.46h2.14v2.52h-2.32c-1.29 0-2.42.16-3.37.46-.95.31-1.75.75-2.39 1.31-.64.56-1.13 1.24-1.48 2.04-.34.8-.56 1.69-.65 2.67l-.07.68c.7-.41 1.5-.74 2.41-.99.91-.25 1.9-.37 2.96-.37 1.09 0 2.05.16 2.88.48.82.32 1.51.77 2.06 1.34.55.57.96 1.25 1.24 2.05.28.81.42 1.68.42 2.63zm-3.02.18c0-.66-.08-1.26-.24-1.8-.16-.54-.41-.99-.75-1.36-.34-.37-.78-.66-1.3-.86-.53-.2-1.15-.31-1.88-.31-.42 0-.85.04-1.28.12-.43.08-.85.19-1.27.32-.41.14-.81.3-1.19.47-.38.18-.72.36-1.03.56 0 1.43.1 2.62.3 3.58.2.96.5 1.72.89 2.3.39.58.88.98 1.45 1.23.58.24 1.24.37 1.99.37.63 0 1.21-.1 1.73-.31s.98-.51 1.36-.9c.38-.4.68-.88.9-1.45.21-.58.32-1.23.32-1.96zM484.4 182.98c.38 0 .73.07 1.07.22s.63.34.88.6c.25.25.44.55.59.89.14.34.22.7.22 1.09 0 .38-.07.73-.22 1.06-.14.33-.34.62-.59.87-.25.25-.54.45-.88.59-.34.14-.69.22-1.07.22-.39 0-.75-.07-1.08-.22-.33-.14-.62-.34-.87-.59-.25-.25-.45-.54-.59-.87-.14-.33-.22-.69-.22-1.06 0-.39.07-.75.22-1.09.14-.34.34-.63.59-.89.25-.25.54-.45.87-.6s.69-.22 1.08-.22zM503.08 182.98c.38 0 .73.07 1.07.22.34.14.63.34.88.6.25.25.44.55.59.89.14.34.22.7.22 1.09 0 .38-.07.73-.22 1.06-.14.33-.34.62-.59.87-.25.25-.54.45-.88.59-.34.14-.69.22-1.07.22-.39 0-.75-.07-1.08-.22-.33-.14-.62-.34-.87-.59-.25-.25-.45-.54-.59-.87-.14-.33-.22-.69-.22-1.06 0-.39.07-.75.22-1.09.14-.34.34-.63.59-.89.25-.25.54-.45.87-.6s.69-.22 1.08-.22zM521.76 182.98c.38 0 .73.07 1.07.22.34.14.63.34.88.6.25.25.44.55.59.89.14.34.22.7.22 1.09 0 .38-.07.73-.22 1.06-.14.33-.34.62-.59.87-.25.25-.54.45-.88.59-.34.14-.69.22-1.07.22-.39 0-.75-.07-1.08-.22-.33-.14-.62-.34-.87-.59-.25-.25-.45-.54-.59-.87-.14-.33-.22-.69-.22-1.06 0-.39.07-.75.22-1.09.14-.34.34-.63.59-.89.25-.25.54-.45.87-.6s.69-.22 1.08-.22zM546.83 187.6c-.75.29-1.52.5-2.31.64s-1.61.21-2.45.21c-2.63 0-4.66-.71-6.08-2.14-1.42-1.43-2.13-3.51-2.13-6.25 0-1.32.2-2.51.61-3.58.41-1.07.98-1.99 1.73-2.75.74-.76 1.63-1.35 2.65-1.77 1.03-.41 2.16-.62 3.4-.62.86 0 1.67.06 2.42.18s1.47.32 2.16.6v2.75c-.72-.38-1.45-.65-2.2-.82-.75-.17-1.52-.26-2.31-.26-.74 0-1.44.14-2.1.42-.66.28-1.24.69-1.73 1.22-.5.53-.89 1.18-1.18 1.94-.29.76-.43 1.63-.43 2.59 0 2.01.49 3.52 1.47 4.52.98 1 2.34 1.5 4.07 1.5.78 0 1.55-.09 2.28-.27.74-.18 1.45-.44 2.13-.8v2.69zM566.63 179c0 .41-.01.75-.02 1.03s-.03.54-.05.78h-11.7c0 1.7.48 3.01 1.43 3.92.95.91 2.32 1.37 4.11 1.37.49 0 .97-.02 1.46-.06.49-.04.96-.09 1.41-.16.45-.07.89-.14 1.3-.22.42-.08.8-.17 1.15-.27v2.37c-.79.22-1.67.4-2.66.54-.99.14-2.02.21-3.08.21-1.43 0-2.65-.19-3.68-.58-1.03-.39-1.87-.95-2.53-1.68-.66-.74-1.14-1.64-1.46-2.7-.32-1.07-.47-2.28-.47-3.62 0-1.17.17-2.28.51-3.33.34-1.04.83-1.96 1.48-2.75s1.44-1.42 2.38-1.88c.94-.46 2.01-.7 3.2-.7 1.16 0 2.19.18 3.09.55.9.36 1.65.88 2.27 1.55.61.67 1.08 1.48 1.39 2.44.32.94.47 2.01.47 3.19zm-3-.41c.03-.74-.04-1.42-.22-2.03s-.45-1.14-.82-1.58c-.37-.44-.83-.79-1.38-1.04-.55-.25-1.2-.37-1.93-.37-.63 0-1.21.12-1.73.36s-.97.59-1.34 1.03c-.38.44-.68.97-.91 1.59-.23.62-.38 1.3-.43 2.04h8.76zM585.31 188.21h-14.28v-2.59l5.61-5.57c.92-.91 1.66-1.69 2.24-2.36.57-.66 1.02-1.27 1.34-1.82.32-.55.54-1.06.65-1.55s.17-1.01.17-1.58c0-.53-.07-1.04-.22-1.52-.14-.48-.36-.9-.66-1.27-.3-.37-.69-.65-1.16-.86-.48-.21-1.04-.32-1.71-.32-.92 0-1.75.2-2.51.61-.75.41-1.44.94-2.07 1.59l-1.59-1.91c.82-.86 1.76-1.55 2.83-2.07 1.07-.52 2.31-.78 3.72-.78.96 0 1.84.14 2.63.43.79.29 1.47.7 2.05 1.24.58.54 1.02 1.21 1.34 1.99.32.79.47 1.67.47 2.65 0 .83-.11 1.6-.33 2.31-.22.71-.56 1.41-1 2.12-.45.7-1.01 1.43-1.69 2.18-.68.75-1.48 1.58-2.41 2.47l-3.93 3.83h10.53v2.78zM604.26 181.34c0 1-.18 1.93-.54 2.8-.36.87-.87 1.63-1.53 2.28-.66.65-1.46 1.16-2.4 1.53-.93.37-1.97.56-3.11.56-1.19 0-2.25-.19-3.17-.57-.92-.38-1.69-.97-2.31-1.76-.62-.79-1.09-1.79-1.41-2.99-.32-1.21-.48-2.63-.48-4.28 0-1.11.07-2.18.21-3.22.14-1.04.38-2.02.71-2.94.33-.92.77-1.76 1.33-2.52.55-.76 1.24-1.42 2.06-1.97.82-.55 1.8-.97 2.91-1.28 1.12-.3 2.41-.46 3.88-.46h2.14v2.52h-2.32c-1.29 0-2.42.16-3.37.46-.95.31-1.75.75-2.39 1.31-.64.56-1.13 1.24-1.48 2.04-.34.8-.56 1.69-.65 2.67l-.07.68c.7-.41 1.5-.74 2.41-.99.91-.25 1.9-.37 2.96-.37 1.1 0 2.05.16 2.88.48.82.32 1.51.77 2.06 1.34.55.57.96 1.25 1.24 2.05.3.81.44 1.68.44 2.63zm-3.02.18c0-.66-.08-1.26-.24-1.8-.16-.54-.41-.99-.75-1.36-.34-.37-.78-.66-1.3-.86-.53-.2-1.15-.31-1.88-.31-.42 0-.85.04-1.28.12-.43.08-.85.19-1.27.32-.41.14-.81.3-1.19.47-.38.18-.72.36-1.03.56 0 1.43.1 2.62.3 3.58.2.96.5 1.72.89 2.3.39.58.88.98 1.45 1.23.57.24 1.24.37 1.99.37.63 0 1.21-.1 1.73-.31.52-.2.98-.51 1.36-.9.38-.4.68-.88.9-1.45.21-.58.32-1.23.32-1.96zM623.39 167.46c-1.52-.32-2.82-.48-3.92-.48-2.6 0-3.9 1.36-3.9 4.08v2.92h7.3v2.41h-7.3v11.83h-2.94v-11.83h-5.36v-2.41h5.36v-2.75c0-4.44 2.31-6.65 6.94-6.65 1.15 0 2.42.13 3.82.4v2.48z"/><path class="st7" d="M287.57 228.98h-2.89l-.43-13.52-.18-5.19-1.01 3.02-3.2 8.63h-2.04l-3.05-8.3-1.01-3.35-.07 5.43-.38 13.29h-2.79l1.06-21.68h3.5l2.92 8.16.95 2.75.91-2.75 3.07-8.16h3.6l1.04 21.67zM305.11 219.77c0 .41-.01.75-.02 1.03s-.03.54-.05.78h-11.7c0 1.7.48 3.01 1.43 3.92.95.91 2.32 1.37 4.11 1.37.49 0 .97-.02 1.46-.06.49-.04.96-.09 1.41-.16.45-.07.89-.14 1.3-.22.41-.08.8-.17 1.15-.27v2.37c-.79.22-1.67.4-2.66.54-.99.14-2.02.21-3.08.21-1.43 0-2.65-.19-3.68-.58-1.03-.39-1.87-.95-2.53-1.68-.66-.74-1.14-1.64-1.46-2.7-.32-1.07-.47-2.28-.47-3.62 0-1.17.17-2.28.51-3.33.34-1.04.83-1.96 1.48-2.75s1.44-1.42 2.38-1.88c.94-.46 2.01-.7 3.2-.7 1.16 0 2.19.18 3.09.55.9.36 1.65.88 2.26 1.55.61.67 1.08 1.48 1.39 2.44.32.94.48 2.01.48 3.19zm-3.01-.41c.03-.74-.04-1.42-.22-2.03-.18-.61-.45-1.14-.82-1.58-.37-.44-.83-.79-1.39-1.04-.55-.25-1.19-.37-1.92-.37-.63 0-1.21.12-1.73.36s-.97.59-1.34 1.03c-.38.44-.68.97-.91 1.59-.23.62-.38 1.3-.43 2.04h8.76zM310.4 212.33h2.64l.08 3.07c.98-1.18 1.95-2.04 2.91-2.57.96-.53 1.92-.8 2.89-.8 1.73 0 3.03.56 3.92 1.68.89 1.12 1.3 2.78 1.24 4.98h-2.92c.03-1.46-.18-2.52-.64-3.18-.46-.66-1.13-.99-2.02-.99-.39 0-.78.07-1.17.21-.39.14-.8.36-1.21.66-.41.3-.85.69-1.32 1.17-.46.48-.96 1.05-1.49 1.73v10.7h-2.92v-16.66zM343.38 228.98h-3.96l-7.76-8.93v8.93h-2.89v-23.44h2.89v14.4l7.48-7.61h3.82l-7.81 7.68 8.23 8.97zM352.75 207.91h-4.93v-2.37h7.85v21.04h4.96v2.41h-13.36v-2.41h5.48v-18.67zM379.83 219.77c0 .41-.01.75-.02 1.03s-.03.54-.05.78h-11.7c0 1.7.48 3.01 1.43 3.92.95.91 2.32 1.37 4.11 1.37.49 0 .97-.02 1.46-.06.49-.04.96-.09 1.41-.16.45-.07.89-.14 1.3-.22.41-.08.8-.17 1.15-.27v2.37c-.79.22-1.67.4-2.66.54-.99.14-2.02.21-3.08.21-1.43 0-2.65-.19-3.68-.58-1.03-.39-1.87-.95-2.53-1.68-.66-.74-1.14-1.64-1.46-2.7-.32-1.07-.47-2.28-.47-3.62 0-1.17.17-2.28.51-3.33.34-1.04.83-1.96 1.48-2.75s1.44-1.42 2.38-1.88c.94-.46 2.01-.7 3.2-.7 1.16 0 2.19.18 3.09.55.9.36 1.65.88 2.26 1.55.61.67 1.08 1.48 1.39 2.44.32.94.48 2.01.48 3.19zm-3-.41c.03-.74-.04-1.42-.22-2.03-.18-.61-.45-1.14-.82-1.58-.37-.44-.83-.79-1.39-1.04-.55-.25-1.19-.37-1.92-.37-.63 0-1.21.12-1.73.36s-.97.59-1.34 1.03c-.38.44-.68.97-.91 1.59-.23.62-.38 1.3-.43 2.04h8.76zM398.04 212.33h2.64l.08 3.07c.98-1.18 1.95-2.04 2.91-2.57.96-.53 1.92-.8 2.89-.8 1.73 0 3.03.56 3.92 1.68.89 1.12 1.3 2.78 1.24 4.98h-2.92c.03-1.46-.18-2.52-.64-3.18-.46-.66-1.13-.99-2.02-.99-.39 0-.78.07-1.17.21-.39.14-.8.36-1.21.66-.41.3-.85.69-1.32 1.17-.46.48-.96 1.05-1.49 1.73v10.7h-2.92v-16.66zM430.54 220.52c0 1.29-.18 2.48-.55 3.56-.37 1.08-.89 2-1.58 2.77-.69.77-1.52 1.37-2.51 1.79-.98.43-2.1.64-3.35.64-1.19 0-2.26-.19-3.21-.56-.95-.37-1.75-.92-2.41-1.63-.66-.72-1.16-1.61-1.51-2.67-.35-1.06-.52-2.28-.52-3.67 0-1.29.18-2.47.55-3.54.37-1.07.89-1.98 1.58-2.75.69-.77 1.52-1.37 2.51-1.79.98-.43 2.1-.64 3.35-.64 1.19 0 2.26.19 3.21.56.95.37 1.75.91 2.41 1.63.66.71 1.16 1.6 1.51 2.66s.52 2.27.52 3.64zm-2.95.13c0-1.03-.11-1.93-.34-2.7-.23-.77-.55-1.41-.97-1.92-.42-.51-.93-.9-1.53-1.16-.6-.26-1.27-.39-2.02-.39-.86 0-1.6.17-2.21.51-.61.34-1.12.79-1.51 1.35-.39.56-.68 1.22-.86 1.97-.18.75-.27 1.53-.27 2.35 0 1.03.11 1.93.34 2.7.23.77.55 1.42.97 1.93.42.51.93.9 1.53 1.16.6.26 1.27.39 2.02.39.86 0 1.6-.17 2.21-.51s1.12-.79 1.51-1.35c.39-.56.68-1.22.86-1.97.18-.74.27-1.53.27-2.36zM449.22 220.52c0 1.29-.18 2.48-.55 3.56-.37 1.08-.89 2-1.58 2.77-.69.77-1.52 1.37-2.51 1.79-.98.43-2.1.64-3.35.64-1.19 0-2.26-.19-3.21-.56-.95-.37-1.75-.92-2.41-1.63-.66-.72-1.16-1.61-1.51-2.67-.35-1.06-.52-2.28-.52-3.67 0-1.29.18-2.47.55-3.54.37-1.07.89-1.98 1.58-2.75.69-.77 1.52-1.37 2.51-1.79.98-.43 2.1-.64 3.35-.64 1.19 0 2.26.19 3.21.56.95.37 1.75.91 2.41 1.63.66.71 1.16 1.6 1.51 2.66s.52 2.27.52 3.64zm-2.95.13c0-1.03-.11-1.93-.34-2.7-.23-.77-.55-1.41-.97-1.92-.42-.51-.93-.9-1.53-1.16-.6-.26-1.27-.39-2.02-.39-.86 0-1.6.17-2.21.51-.61.34-1.12.79-1.51 1.35-.39.56-.68 1.22-.86 1.97-.18.75-.27 1.53-.27 2.35 0 1.03.11 1.93.34 2.7.23.77.55 1.42.97 1.93.42.51.93.9 1.53 1.16.6.26 1.27.39 2.02.39.86 0 1.6-.17 2.21-.51.61-.34 1.12-.79 1.51-1.35.39-.56.68-1.22.86-1.97.18-.74.27-1.53.27-2.36zM466.82 228.75c-.65.17-1.33.28-2.02.36-.7.07-1.4.11-2.12.11-2.09 0-3.65-.47-4.68-1.42-1.03-.95-1.54-2.4-1.54-4.35v-8.69h-4.66v-2.42h4.66v-4.58l2.89-.75v5.33h7.48v2.42h-7.48v8.46c0 1.19.32 2.09.95 2.68s1.57.89 2.81.89c.53 0 1.11-.04 1.74-.12s1.29-.21 1.97-.39v2.47zM478.77 212.03c.34 0 .67.07.98.21.31.14.58.32.81.56.23.23.42.5.56.81.14.31.21.64.21.98 0 .35-.07.68-.21.99-.14.3-.32.57-.56.8-.23.23-.5.41-.81.55-.31.13-.64.2-.98.2-.35 0-.68-.07-.99-.2-.3-.13-.57-.32-.8-.55-.23-.23-.41-.5-.55-.8-.13-.3-.2-.63-.2-.99 0-.34.07-.67.2-.98.13-.31.32-.58.55-.81.23-.23.5-.42.8-.56.31-.14.64-.21.99-.21zm0 12.16c.34 0 .67.07.98.21.31.14.58.32.81.56.23.23.42.5.56.81.14.31.21.64.21.98 0 .35-.07.68-.21.99-.14.3-.32.57-.56.8-.23.23-.5.41-.81.55-.31.13-.64.2-.98.2-.35 0-.68-.07-.99-.2-.3-.13-.57-.32-.8-.55-.23-.23-.41-.5-.55-.8-.13-.3-.2-.63-.2-.99 0-.34.07-.67.2-.98.13-.31.32-.58.55-.81.23-.23.5-.42.8-.56.31-.14.64-.21.99-.21z"/><path class="st9" d="M517.42 224.19h-3.7v4.79h-2.95v-4.79h-10.44v-2.54l9.24-14.35h4.15v14.35h3.7v2.54zm-6.65-14.1l-7.55 11.56h7.55v-11.56zM531.66 228.98l-.07-2.24c-.91.9-1.83 1.54-2.76 1.94-.93.4-1.92.6-2.94.6-.95 0-1.76-.12-2.44-.36-.67-.24-1.23-.58-1.67-1-.44-.43-.76-.93-.96-1.5-.2-.57-.31-1.2-.31-1.87 0-1.67.62-2.98 1.87-3.92 1.24-.95 3.08-1.42 5.52-1.42h3.45v-1.46c0-.98-.32-1.77-.95-2.36-.63-.59-1.59-.89-2.89-.89-.94 0-1.87.1-2.78.32-.91.21-1.86.51-2.83.9v-2.6c.36-.13.77-.26 1.22-.39.45-.13.92-.24 1.42-.34.5-.1 1.02-.18 1.56-.24s1.09-.09 1.64-.09c1.01 0 1.91.11 2.72.33.81.22 1.49.56 2.05 1.01.56.45.99 1.02 1.29 1.71.3.69.45 1.49.45 2.42v11.48h-2.59zm-.32-7.58h-3.67c-.72 0-1.34.07-1.86.22s-.95.35-1.28.61c-.33.27-.58.58-.74.95-.16.37-.24.79-.24 1.25 0 .32.05.63.15.92.1.29.26.55.48.78.22.23.51.41.86.54s.79.2 1.29.2c.66 0 1.42-.2 2.28-.61.86-.4 1.76-1.04 2.71-1.92v-2.94zM553.16 222.05c0 1.07-.23 2.05-.7 2.94-.47.89-1.1 1.65-1.92 2.28-.81.64-1.77 1.13-2.88 1.49-1.11.35-2.3.53-3.58.53-.32 0-.67-.01-1.04-.02-.37-.02-.74-.04-1.1-.07-.36-.03-.72-.06-1.07-.09-.35-.03-.66-.07-.94-.12v-2.62c.6.14 1.28.25 2.05.32.77.07 1.55.1 2.33.1.88 0 1.68-.1 2.39-.32.71-.21 1.31-.51 1.81-.9s.88-.87 1.15-1.43c.27-.56.4-1.19.4-1.88 0-1.35-.48-2.33-1.45-2.94-.97-.61-2.36-.92-4.17-.92h-4.11v-11.1H552v2.52h-8.96v6.09h1.89c1.04 0 2.05.09 3.04.28.98.19 1.86.52 2.63.99.77.47 1.39 1.1 1.86 1.89.46.79.7 1.78.7 2.98zM572.39 219.77c0 .41-.01.75-.02 1.03s-.03.54-.05.78h-11.7c0 1.7.48 3.01 1.43 3.92.95.91 2.32 1.37 4.11 1.37.49 0 .97-.02 1.46-.06.49-.04.96-.09 1.41-.16s.89-.14 1.3-.22c.42-.08.8-.17 1.15-.27v2.37c-.79.22-1.67.4-2.66.54-.99.14-2.02.21-3.08.21-1.43 0-2.65-.19-3.68-.58-1.03-.39-1.87-.95-2.53-1.68-.66-.74-1.14-1.64-1.46-2.7-.32-1.07-.47-2.28-.47-3.62 0-1.17.17-2.28.51-3.33.34-1.04.83-1.96 1.48-2.75s1.44-1.42 2.38-1.88c.94-.46 2.01-.7 3.2-.7 1.16 0 2.19.18 3.08.55.9.36 1.65.88 2.27 1.55.61.67 1.08 1.48 1.39 2.44.32.94.48 2.01.48 3.19zm-3.01-.41c.03-.74-.04-1.42-.22-2.03-.18-.61-.45-1.14-.82-1.58-.37-.44-.83-.79-1.39-1.04-.55-.25-1.19-.37-1.92-.37-.63 0-1.21.12-1.72.36-.52.24-.97.59-1.34 1.03-.38.44-.68.97-.91 1.59-.23.62-.38 1.3-.43 2.04h8.75zM583.55 223.76c.38 0 .73.07 1.07.22.34.14.63.34.88.6.25.25.45.55.59.89.14.34.21.7.21 1.09 0 .38-.07.73-.21 1.06-.14.33-.34.62-.59.87-.25.25-.54.45-.88.59-.34.14-.69.22-1.07.22-.39 0-.75-.07-1.08-.22-.33-.14-.62-.34-.87-.59-.25-.25-.45-.54-.59-.87-.14-.33-.21-.69-.21-1.06 0-.39.07-.75.21-1.09.14-.34.34-.63.59-.89.25-.25.54-.45.87-.6s.69-.22 1.08-.22zM599.35 223.76c.38 0 .73.07 1.07.22.34.14.63.34.88.6.25.25.45.55.59.89.14.34.21.7.21 1.09 0 .38-.07.73-.21 1.06-.14.33-.34.62-.59.87-.25.25-.54.45-.88.59-.34.14-.69.22-1.07.22-.39 0-.75-.07-1.08-.22-.33-.14-.62-.34-.87-.59-.25-.25-.45-.54-.59-.87-.14-.33-.21-.69-.21-1.06 0-.39.07-.75.21-1.09.14-.34.34-.63.59-.89.25-.25.54-.45.87-.6s.69-.22 1.08-.22zM615.15 223.76c.38 0 .73.07 1.07.22.34.14.63.34.88.6.25.25.45.55.59.89.14.34.21.7.21 1.09 0 .38-.07.73-.21 1.06-.14.33-.34.62-.59.87-.25.25-.54.45-.88.59-.34.14-.69.22-1.07.22-.39 0-.75-.07-1.08-.22-.33-.14-.62-.34-.87-.59-.25-.25-.45-.54-.59-.87-.14-.33-.21-.69-.21-1.06 0-.39.07-.75.21-1.09.14-.34.34-.63.59-.89.25-.25.54-.45.87-.6s.69-.22 1.08-.22zM637.98 228.98l-.07-2.24c-.91.9-1.83 1.54-2.76 1.94-.94.4-1.92.6-2.95.6-.95 0-1.76-.12-2.44-.36-.67-.24-1.23-.58-1.67-1-.44-.43-.76-.93-.96-1.5-.2-.57-.31-1.2-.31-1.87 0-1.67.62-2.98 1.87-3.92 1.24-.95 3.08-1.42 5.52-1.42h3.45v-1.46c0-.98-.32-1.77-.95-2.36-.63-.59-1.59-.89-2.89-.89-.94 0-1.87.1-2.78.32-.91.21-1.86.51-2.83.9v-2.6c.36-.13.77-.26 1.22-.39.45-.13.92-.24 1.42-.34.5-.1 1.02-.18 1.56-.24s1.09-.09 1.64-.09c1.01 0 1.91.11 2.72.33.81.22 1.49.56 2.05 1.01.56.45.99 1.02 1.29 1.71.3.69.45 1.49.45 2.42v11.48h-2.58zm-.31-7.58H634c-.72 0-1.34.07-1.86.22-.52.14-.95.35-1.28.61-.33.27-.58.58-.74.95-.16.37-.24.79-.24 1.25 0 .32.05.63.15.92.1.29.26.55.48.78.22.23.51.41.86.54.35.13.78.2 1.29.2.66 0 1.42-.2 2.28-.61.86-.4 1.76-1.04 2.71-1.92v-2.94zM659.61 222.4c0 .95-.19 1.84-.58 2.68-.39.84-.97 1.57-1.74 2.19-.77.62-1.75 1.12-2.92 1.48-1.17.36-2.54.54-4.1.54-.86 0-1.64-.03-2.32-.08-.69-.06-1.33-.13-1.92-.22v-2.59c.69.12 1.41.22 2.17.28.76.07 1.54.1 2.34.1 1.08 0 2.01-.1 2.78-.29.77-.19 1.4-.47 1.88-.84.49-.37.84-.81 1.06-1.33.22-.52.33-1.11.33-1.76 0-.6-.13-1.12-.4-1.56-.26-.44-.64-.81-1.12-1.11-.48-.3-1.06-.52-1.73-.67-.67-.15-1.4-.22-2.2-.22h-2.47v-2.37h2.51c.65 0 1.25-.09 1.78-.26.54-.17 1-.42 1.38-.74.38-.32.67-.72.88-1.19.2-.47.31-1 .31-1.6 0-1.16-.35-2.01-1.06-2.54-.71-.53-1.75-.8-3.12-.8-.73 0-1.48.07-2.26.22-.78.14-1.6.36-2.49.65v-2.52c.38-.13.78-.25 1.2-.36.43-.1.85-.19 1.28-.27.42-.07.85-.13 1.27-.17.42-.04.82-.06 1.21-.06 1.15 0 2.16.12 3.04.37.87.25 1.6.61 2.19 1.07.59.46 1.03 1.03 1.33 1.69s.45 1.41.45 2.24c0 1.24-.32 2.28-.95 3.12-.64.84-1.51 1.51-2.61 2.01.56.09 1.12.27 1.67.53.55.27 1.04.61 1.48 1.02.44.41.79.9 1.06 1.47.26.57.39 1.2.39 1.89zM678.29 222.4c0 .95-.19 1.84-.58 2.68-.39.84-.97 1.57-1.74 2.19-.77.62-1.75 1.12-2.92 1.48-1.17.36-2.54.54-4.1.54-.86 0-1.64-.03-2.32-.08-.69-.06-1.33-.13-1.92-.22v-2.59c.69.12 1.41.22 2.17.28.76.07 1.54.1 2.34.1 1.08 0 2.01-.1 2.78-.29.77-.19 1.4-.47 1.88-.84.49-.37.84-.81 1.06-1.33.22-.52.33-1.11.33-1.76 0-.6-.13-1.12-.4-1.56-.26-.44-.64-.81-1.12-1.11-.48-.3-1.06-.52-1.73-.67-.67-.15-1.4-.22-2.2-.22h-2.47v-2.37h2.51c.65 0 1.25-.09 1.78-.26.54-.17 1-.42 1.38-.74.38-.32.67-.72.88-1.19.2-.47.31-1 .31-1.6 0-1.16-.35-2.01-1.06-2.54-.71-.53-1.75-.8-3.12-.8-.73 0-1.48.07-2.26.22-.78.14-1.6.36-2.49.65v-2.52c.38-.13.78-.25 1.2-.36.43-.1.85-.19 1.28-.27.42-.07.85-.13 1.27-.17.42-.04.82-.06 1.21-.06 1.15 0 2.16.12 3.04.37.87.25 1.6.61 2.19 1.07.59.46 1.03 1.03 1.33 1.69.3.66.45 1.41.45 2.24 0 1.24-.32 2.28-.95 3.12-.64.84-1.51 1.51-2.61 2.01.56.09 1.12.27 1.67.53.55.27 1.04.61 1.48 1.02.44.41.79.9 1.06 1.47.26.57.39 1.2.39 1.89zM697.56 220.36c0 1.38-.19 2.62-.57 3.71-.38 1.09-.92 2.01-1.63 2.77-.7.76-1.56 1.34-2.56 1.74-1.01.4-2.14.61-3.4.61-.98 0-1.99-.09-3.02-.28-1.03-.19-2.05-.49-3.05-.9v-22.46h2.89V212l-.13 3.09c.83-1.12 1.72-1.91 2.66-2.36.95-.46 1.96-.69 3.04-.69.95 0 1.79.2 2.51.6.72.4 1.32.96 1.81 1.68s.85 1.6 1.09 2.62.36 2.15.36 3.42zm-2.96.13c0-.87-.06-1.68-.19-2.41-.13-.73-.33-1.35-.61-1.87-.28-.52-.63-.93-1.06-1.22-.43-.29-.95-.44-1.54-.44-.36 0-.74.06-1.11.17-.38.12-.77.31-1.17.58-.4.27-.83.63-1.28 1.08-.45.45-.93 1-1.43 1.67v8.08c.56.22 1.14.4 1.72.52.59.13 1.15.19 1.68.19.66 0 1.3-.1 1.9-.32.6-.21 1.13-.56 1.59-1.05.46-.49.82-1.14 1.09-1.96.28-.81.41-1.82.41-3.02z"/><path class="st7" d="M287.17 258.67c0 1.04-.08 2.03-.24 2.99-.16.95-.42 1.84-.77 2.65-.35.82-.81 1.56-1.38 2.23-.56.67-1.26 1.24-2.07 1.72-.82.48-1.77.84-2.85 1.1-1.08.26-2.32.39-3.7.39h-4.64v-21.68h5.59c3.38 0 5.91.87 7.57 2.61 1.66 1.75 2.49 4.41 2.49 7.99zm-3.1.22c0-1.54-.14-2.84-.43-3.9s-.72-1.92-1.31-2.57c-.59-.65-1.32-1.13-2.21-1.42-.89-.29-1.92-.44-3.12-.44h-2.54v16.64h2.21c4.93 0 7.4-2.77 7.4-8.31zM301.74 269.75l-.07-2.24c-.91.9-1.83 1.54-2.76 1.94-.93.4-1.92.6-2.94.6-.95 0-1.76-.12-2.44-.36-.67-.24-1.23-.58-1.67-1-.44-.43-.76-.93-.96-1.5-.2-.57-.31-1.2-.31-1.87 0-1.67.62-2.98 1.87-3.92 1.24-.95 3.08-1.42 5.52-1.42h3.45v-1.46c0-.98-.32-1.77-.95-2.36-.63-.59-1.59-.89-2.89-.89-.94 0-1.87.1-2.78.32-.91.21-1.86.51-2.83.9v-2.6c.36-.13.77-.26 1.22-.39.45-.13.92-.24 1.42-.34.5-.1 1.02-.18 1.56-.24s1.09-.09 1.64-.09c1.01 0 1.91.11 2.72.33.81.22 1.49.56 2.05 1.01.56.45.99 1.02 1.29 1.71.3.69.45 1.49.45 2.42v11.48h-2.59zm-.32-7.58h-3.67c-.72 0-1.34.07-1.86.22-.52.14-.95.35-1.28.61-.33.27-.58.58-.74.95-.16.37-.24.79-.24 1.25 0 .32.05.63.15.92.1.29.26.55.48.78.22.23.51.41.86.54.35.13.79.2 1.29.2.66 0 1.42-.2 2.28-.61.86-.4 1.76-1.04 2.71-1.92v-2.94zM323.14 269.52c-.65.17-1.33.28-2.02.36-.7.07-1.4.11-2.12.11-2.09 0-3.65-.47-4.68-1.42-1.03-.95-1.54-2.4-1.54-4.35v-8.69h-4.66v-2.42h4.66v-4.58l2.89-.75v5.33h7.48v2.42h-7.48v8.46c0 1.19.32 2.09.95 2.68.64.59 1.57.89 2.81.89.53 0 1.11-.04 1.74-.12s1.29-.21 1.97-.39v2.47zM342.47 260.55c0 .41-.01.75-.02 1.03s-.03.54-.05.78h-11.7c0 1.7.48 3.01 1.43 3.92.95.91 2.32 1.37 4.11 1.37.49 0 .97-.02 1.46-.06s.96-.09 1.41-.16c.45-.07.89-.14 1.3-.22.41-.08.8-.17 1.15-.27v2.37c-.79.22-1.67.4-2.66.54-.99.14-2.02.21-3.08.21-1.43 0-2.65-.19-3.68-.58-1.03-.39-1.87-.95-2.53-1.68-.66-.74-1.14-1.64-1.46-2.7-.32-1.07-.47-2.28-.47-3.62 0-1.17.17-2.28.51-3.33.34-1.04.83-1.96 1.48-2.75s1.44-1.42 2.38-1.88c.94-.46 2.01-.7 3.2-.7 1.16 0 2.19.18 3.09.55.9.36 1.65.88 2.26 1.55.61.67 1.08 1.48 1.39 2.44.32.93.48 2 .48 3.19zm-3.01-.42c.03-.74-.04-1.42-.22-2.03-.18-.61-.45-1.14-.82-1.58-.37-.44-.83-.79-1.39-1.04-.55-.25-1.19-.37-1.92-.37-.63 0-1.21.12-1.73.36s-.97.59-1.34 1.03c-.38.44-.68.97-.91 1.59-.23.62-.38 1.3-.43 2.04h8.76zM353.77 252.8c.34 0 .67.07.98.21.31.14.58.32.81.56.23.23.42.5.56.81.14.31.21.64.21.98 0 .35-.07.68-.21.99s-.32.57-.56.8c-.23.23-.5.41-.81.55-.31.13-.64.2-.98.2-.35 0-.68-.07-.99-.2-.3-.13-.57-.32-.8-.55-.23-.23-.41-.5-.55-.8-.13-.3-.2-.63-.2-.99 0-.34.07-.67.2-.98.13-.31.32-.58.55-.81.23-.23.5-.42.8-.56.3-.14.63-.21.99-.21zm0 12.16c.34 0 .67.07.98.21.31.14.58.32.81.56.23.23.42.5.56.81.14.31.21.64.21.98 0 .35-.07.68-.21.99-.14.3-.32.57-.56.8-.23.23-.5.41-.81.55-.31.13-.64.2-.98.2-.35 0-.68-.07-.99-.2-.3-.13-.57-.32-.8-.55-.23-.23-.41-.5-.55-.8-.13-.3-.2-.63-.2-.99 0-.34.07-.67.2-.98.13-.31.32-.58.55-.81.23-.23.5-.42.8-.56.3-.14.63-.21.99-.21z"/><path class="st9" d="M398.51 269.75h-14.28v-2.59l5.61-5.57c.92-.91 1.66-1.69 2.24-2.36.58-.66 1.02-1.27 1.34-1.82.32-.55.54-1.06.65-1.55.11-.49.17-1.01.17-1.58 0-.53-.07-1.04-.22-1.52-.14-.48-.37-.9-.66-1.27-.3-.37-.69-.65-1.16-.86-.48-.21-1.05-.32-1.71-.32-.92 0-1.75.2-2.51.61-.75.41-1.44.94-2.07 1.59l-1.59-1.91c.82-.86 1.76-1.55 2.83-2.07 1.07-.52 2.31-.78 3.72-.78.96 0 1.84.14 2.63.43.79.29 1.47.7 2.05 1.24.58.54 1.02 1.21 1.34 1.99.32.79.47 1.67.47 2.65 0 .83-.11 1.6-.33 2.31-.22.71-.56 1.41-1 2.12-.45.7-1.01 1.43-1.69 2.18-.68.75-1.49 1.58-2.41 2.47l-3.93 3.83h10.53v2.78zM417.69 258.92c0 1.66-.17 3.17-.5 4.54-.33 1.37-.84 2.54-1.51 3.52s-1.51 1.74-2.51 2.27c-1 .54-2.18.8-3.53.8-1.16 0-2.22-.22-3.17-.66-.95-.44-1.76-1.11-2.44-2.02-.67-.91-1.19-2.06-1.56-3.47-.36-1.4-.55-3.07-.55-4.99 0-1.66.17-3.17.51-4.55.34-1.37.84-2.55 1.51-3.53s1.51-1.74 2.51-2.27c1.01-.54 2.18-.8 3.52-.8 1.16 0 2.22.22 3.17.66.95.44 1.76 1.11 2.44 2.02.67.91 1.19 2.07 1.56 3.48.37 1.41.55 3.08.55 5zm-12.84-.1c0 .34 0 .69.01 1.03.01.34.02.67.06 1l9.17-6.79c-.17-.56-.38-1.08-.63-1.54-.25-.46-.56-.86-.91-1.2-.35-.34-.76-.6-1.21-.79-.45-.19-.96-.28-1.53-.28-.75 0-1.43.18-2.05.55-.61.36-1.14.91-1.57 1.63s-.76 1.62-1 2.69c-.23 1.06-.34 2.3-.34 3.7zm9.92.2c0-.38-.01-.75-.04-1.12-.03-.37-.06-.73-.09-1.09l-9.17 6.82c.17.58.38 1.11.63 1.59.25.49.56.9.92 1.25s.77.62 1.23.81c.46.19.98.29 1.57.29.75 0 1.43-.18 2.05-.55.61-.37 1.14-.91 1.57-1.63.43-.72.76-1.61 1-2.68.21-1.05.33-2.29.33-3.69zM436.37 258.92c0 1.66-.17 3.17-.5 4.54-.33 1.37-.84 2.54-1.51 3.52s-1.51 1.74-2.51 2.27c-1 .54-2.18.8-3.53.8-1.16 0-2.22-.22-3.17-.66-.95-.44-1.76-1.11-2.44-2.02-.67-.91-1.19-2.06-1.56-3.47-.36-1.4-.55-3.07-.55-4.99 0-1.66.17-3.17.51-4.55.34-1.37.84-2.55 1.51-3.53s1.51-1.74 2.51-2.27c1.01-.54 2.18-.8 3.52-.8 1.16 0 2.22.22 3.17.66.95.44 1.76 1.11 2.44 2.02.67.91 1.19 2.07 1.56 3.48.37 1.41.55 3.08.55 5zm-12.84-.1c0 .34 0 .69.01 1.03.01.34.02.67.06 1l9.17-6.79c-.17-.56-.38-1.08-.63-1.54-.25-.46-.56-.86-.91-1.2-.35-.34-.76-.6-1.21-.79-.45-.19-.96-.28-1.53-.28-.75 0-1.43.18-2.05.55s-1.14.91-1.57 1.63-.76 1.62-1 2.69c-.23 1.06-.34 2.3-.34 3.7zm9.92.2c0-.38-.01-.75-.04-1.12-.03-.37-.06-.73-.09-1.09l-9.17 6.82c.17.58.38 1.11.63 1.59.25.49.56.9.92 1.25s.77.62 1.23.81c.46.19.98.29 1.57.29.75 0 1.43-.18 2.05-.55.61-.37 1.14-.91 1.57-1.63.43-.72.76-1.61 1-2.68.21-1.05.33-2.29.33-3.69zM454.43 257.69c0 2.11-.25 3.93-.76 5.45s-1.26 2.77-2.26 3.75c-1 .98-2.23 1.7-3.7 2.17-1.47.46-3.17.7-5.09.7h-1.81v-2.52h2.01c1.43 0 2.66-.14 3.7-.43s1.91-.71 2.6-1.27c.69-.56 1.22-1.24 1.58-2.04.36-.8.59-1.72.68-2.75l.07-.68c-.7.41-1.5.74-2.41.99-.91.25-1.89.37-2.95.37-1.09 0-2.06-.16-2.89-.48-.83-.32-1.52-.77-2.07-1.34-.55-.58-.96-1.26-1.24-2.05-.28-.79-.41-1.65-.41-2.58 0-1.01.18-1.95.55-2.82.37-.87.88-1.63 1.53-2.28.66-.65 1.45-1.16 2.36-1.53.92-.38 1.93-.56 3.04-.56 1.07 0 2.07.18 2.98.53.91.35 1.7.93 2.36 1.72.66.79 1.18 1.82 1.56 3.08.39 1.24.57 2.77.57 4.57zm-7.59-7.55c-.62 0-1.19.1-1.72.31-.53.2-.98.5-1.36.9-.38.39-.68.88-.9 1.45-.22.58-.33 1.23-.33 1.97 0 .67.08 1.28.24 1.81.16.53.41.98.75 1.35.34.37.77.66 1.3.85.53.2 1.16.3 1.89.3.41 0 .83-.04 1.27-.12.44-.08.86-.18 1.28-.32.41-.13.81-.29 1.19-.46.38-.18.71-.37 1.01-.56 0-1.43-.11-2.62-.32-3.58-.21-.96-.51-1.73-.91-2.31-.4-.58-.88-.99-1.45-1.24-.58-.22-1.22-.35-1.94-.35zM470.81 262.07h-9.92v-2.72h9.92v2.72zM492.41 258.92c0 1.66-.17 3.17-.5 4.54-.33 1.37-.84 2.54-1.51 3.52s-1.51 1.74-2.51 2.27c-1 .54-2.18.8-3.53.8-1.16 0-2.22-.22-3.17-.66-.95-.44-1.76-1.11-2.44-2.02-.67-.91-1.19-2.06-1.56-3.47-.36-1.4-.55-3.07-.55-4.99 0-1.66.17-3.17.51-4.55.34-1.37.84-2.55 1.51-3.53s1.51-1.74 2.51-2.27c1.01-.54 2.18-.8 3.52-.8 1.16 0 2.22.22 3.17.66.95.44 1.76 1.11 2.44 2.02.67.91 1.19 2.07 1.56 3.48.37 1.41.55 3.08.55 5zm-12.84-.1c0 .34 0 .69.01 1.03.01.34.02.67.06 1l9.17-6.79c-.17-.56-.38-1.08-.63-1.54-.25-.46-.56-.86-.91-1.2-.35-.34-.76-.6-1.21-.79-.45-.19-.96-.28-1.53-.28-.75 0-1.43.18-2.05.55-.61.36-1.14.91-1.57 1.63s-.76 1.62-1 2.69c-.23 1.06-.34 2.3-.34 3.7zm9.92.2c0-.38-.01-.75-.04-1.12-.03-.37-.06-.73-.09-1.09l-9.17 6.82c.17.58.38 1.11.63 1.59.25.49.56.9.92 1.25s.77.62 1.23.81c.46.19.98.29 1.57.29.75 0 1.43-.18 2.05-.55.61-.37 1.14-.91 1.57-1.63.43-.72.76-1.61 1-2.68.21-1.05.33-2.29.33-3.69zM510.41 269.75h-13.62v-2.69h5.57v-15.83l-5.19 2.82-1.06-2.46 6.9-3.63h2.55v19.1h4.84v2.69zM526.85 262.07h-9.92v-2.72h9.92v2.72zM548.45 258.92c0 1.66-.17 3.17-.5 4.54-.33 1.37-.84 2.54-1.51 3.52s-1.51 1.74-2.51 2.27c-1 .54-2.18.8-3.53.8-1.16 0-2.22-.22-3.17-.66-.95-.44-1.76-1.11-2.44-2.02-.67-.91-1.19-2.06-1.56-3.47-.36-1.4-.55-3.07-.55-4.99 0-1.66.17-3.17.51-4.55.34-1.37.84-2.55 1.51-3.53s1.51-1.74 2.51-2.27c1.01-.54 2.18-.8 3.52-.8 1.16 0 2.22.22 3.17.66.95.44 1.76 1.11 2.44 2.02.67.91 1.19 2.07 1.56 3.48.37 1.41.55 3.08.55 5zm-12.84-.1c0 .34 0 .69.01 1.03.01.34.02.67.06 1l9.17-6.79c-.17-.56-.38-1.08-.63-1.54-.25-.46-.56-.86-.91-1.2-.35-.34-.76-.6-1.21-.79-.45-.19-.96-.28-1.53-.28-.75 0-1.43.18-2.05.55-.61.36-1.14.91-1.57 1.63s-.76 1.62-1 2.69c-.22 1.06-.34 2.3-.34 3.7zm9.92.2c0-.38-.01-.75-.04-1.12-.03-.37-.06-.73-.09-1.09l-9.17 6.82c.17.58.38 1.11.63 1.59.25.49.56.9.92 1.25s.77.62 1.23.81c.46.19.98.29 1.57.29.75 0 1.43-.18 2.05-.55.61-.37 1.14-.91 1.57-1.63.43-.72.76-1.61 1-2.68.21-1.05.33-2.29.33-3.69zM566.22 263.17c0 .95-.19 1.84-.58 2.68-.39.84-.97 1.57-1.74 2.19-.77.62-1.75 1.12-2.92 1.48-1.17.36-2.54.54-4.1.54-.86 0-1.64-.03-2.32-.08-.69-.06-1.33-.13-1.92-.22v-2.59c.69.12 1.41.22 2.17.28.76.07 1.54.1 2.34.1 1.08 0 2.01-.1 2.78-.29.77-.19 1.4-.47 1.88-.84.49-.37.84-.81 1.06-1.33.22-.52.33-1.11.33-1.76 0-.6-.13-1.12-.4-1.56-.26-.44-.64-.81-1.12-1.11-.48-.3-1.06-.52-1.73-.67-.67-.15-1.4-.22-2.2-.22h-2.47v-2.37h2.51c.65 0 1.25-.09 1.78-.26.54-.17 1-.42 1.38-.74.38-.32.67-.72.88-1.19.2-.47.31-1 .31-1.6 0-1.16-.35-2.01-1.06-2.54-.71-.53-1.75-.8-3.12-.8-.73 0-1.48.07-2.26.22-.77.14-1.6.36-2.49.65v-2.52c.38-.13.78-.25 1.2-.36.43-.1.85-.19 1.28-.27.43-.07.85-.13 1.27-.17.42-.04.82-.06 1.21-.06 1.15 0 2.16.12 3.04.37.87.25 1.6.61 2.19 1.07.59.46 1.03 1.03 1.33 1.69.3.66.45 1.41.45 2.24 0 1.24-.32 2.28-.95 3.12-.64.84-1.51 1.51-2.61 2.01.56.09 1.12.27 1.67.53.55.27 1.04.61 1.48 1.02.44.41.79.9 1.06 1.47.25.58.39 1.2.39 1.89z"/><path class="st7" d="M286.21 309.71c-1.74.72-3.56 1.08-5.46 1.08-3.06 0-5.42-.92-7.06-2.75-1.64-1.83-2.46-4.54-2.46-8.12 0-1.74.23-3.31.68-4.71.45-1.4 1.1-2.6 1.94-3.58.84-.98 1.86-1.73 3.05-2.26 1.19-.53 2.53-.8 4.01-.8 1.01 0 1.94.09 2.8.26.86.17 1.69.43 2.49.79v2.9c-.79-.43-1.6-.76-2.44-.99-.84-.23-1.76-.34-2.75-.34-1.02 0-1.94.19-2.76.57-.82.38-1.52.93-2.1 1.66-.58.72-1.02 1.61-1.33 2.65-.31 1.05-.46 2.24-.46 3.58 0 2.81.57 4.93 1.71 6.35 1.14 1.43 2.81 2.14 5.01 2.14.93 0 1.82-.11 2.67-.32.85-.22 1.67-.52 2.46-.9v2.79zM305.54 302.07c0 1.29-.18 2.48-.55 3.56-.37 1.08-.89 2-1.58 2.77-.69.77-1.52 1.37-2.51 1.79-.98.43-2.1.64-3.35.64-1.19 0-2.26-.19-3.21-.56-.95-.37-1.75-.92-2.41-1.63-.66-.72-1.16-1.61-1.51-2.67-.35-1.06-.52-2.28-.52-3.67 0-1.29.18-2.47.55-3.54.37-1.07.89-1.98 1.58-2.75.69-.77 1.52-1.37 2.51-1.79.98-.43 2.1-.64 3.35-.64 1.19 0 2.26.19 3.21.56.95.37 1.75.91 2.41 1.63.66.71 1.16 1.6 1.51 2.66.34 1.05.52 2.26.52 3.64zm-2.96.13c0-1.03-.11-1.93-.34-2.7-.23-.77-.55-1.41-.97-1.92-.42-.51-.93-.9-1.53-1.16-.6-.26-1.27-.39-2.02-.39-.86 0-1.6.17-2.21.51-.61.34-1.12.79-1.51 1.35-.39.56-.68 1.22-.86 1.97-.18.75-.27 1.53-.27 2.35 0 1.03.11 1.93.34 2.7.23.77.55 1.42.97 1.93.42.51.93.9 1.53 1.16s1.27.39 2.02.39c.86 0 1.6-.17 2.21-.51.61-.34 1.12-.79 1.51-1.35.39-.56.68-1.22.86-1.97.18-.74.27-1.53.27-2.36zM309.72 293.87h2.57l.12 2.69c.49-.58.96-1.05 1.41-1.43s.9-.69 1.34-.92c.44-.23.88-.4 1.34-.49.45-.09.92-.14 1.41-.14 1.71 0 3.01.51 3.89 1.52.88 1.01 1.32 2.54 1.32 4.57v10.87h-2.89v-10.63c0-1.31-.24-2.27-.73-2.9-.49-.62-1.21-.94-2.17-.94-.35 0-.7.05-1.04.16-.34.11-.69.29-1.05.55-.36.26-.76.61-1.19 1.05-.43.44-.9 1-1.43 1.66v11.05h-2.89v-16.67zM343.18 289.77c-1.52-.32-2.82-.48-3.92-.48-2.6 0-3.9 1.36-3.9 4.08v2.92h7.3v2.41h-7.3v11.83h-2.94V298.7h-5.36v-2.41h5.36v-2.75c0-4.44 2.31-6.65 6.93-6.65 1.15 0 2.42.13 3.82.4v2.48zM352.75 296.26h-4.93v-2.39h7.85v14.25h4.96v2.41h-13.36v-2.41h5.48v-11.86zm1.02-9.37c.32 0 .62.06.9.17.28.12.52.28.72.49.2.21.37.45.48.72.12.27.17.57.17.89 0 .31-.06.6-.17.88-.12.28-.28.52-.48.73-.2.21-.44.37-.72.49-.28.12-.58.17-.9.17-.32 0-.62-.06-.9-.17-.28-.12-.52-.28-.72-.49-.21-.21-.37-.45-.48-.73-.12-.28-.17-.57-.17-.88 0-.32.06-.62.17-.89.12-.27.28-.51.48-.72.2-.21.44-.37.72-.49.28-.12.57-.17.9-.17zM366.44 293.87h2.64l.08 3.07c.98-1.18 1.95-2.04 2.91-2.57.96-.53 1.92-.8 2.89-.8 1.73 0 3.03.56 3.92 1.68s1.3 2.78 1.24 4.98h-2.92c.03-1.46-.18-2.52-.64-3.18-.46-.66-1.13-.99-2.02-.99-.39 0-.78.07-1.17.21-.39.14-.8.36-1.21.66-.41.3-.85.69-1.32 1.17-.46.48-.96 1.05-1.49 1.73v10.7h-2.92v-16.66zM396.32 310.53v-11.96c0-.52-.02-.95-.06-1.28s-.1-.59-.18-.79c-.08-.19-.19-.33-.32-.41-.13-.08-.28-.12-.47-.12-.22 0-.43.07-.61.2-.19.13-.39.35-.61.65-.22.3-.45.69-.71 1.19-.26.49-.57 1.1-.92 1.82v10.7h-2.64v-11.65c0-.61-.02-1.1-.06-1.48-.04-.38-.1-.67-.18-.88-.08-.21-.19-.35-.32-.43-.13-.08-.29-.12-.48-.12-.2 0-.39.06-.56.17-.18.11-.37.31-.59.6-.22.29-.46.68-.72 1.18-.27.5-.58 1.13-.95 1.91v10.7h-2.65v-16.66h2.21l.13 3.17c.29-.63.57-1.17.84-1.61.27-.44.55-.8.84-1.07.29-.27.59-.47.92-.6.33-.13.69-.19 1.09-.19.9 0 1.58.29 2.04.88.46.59.7 1.49.7 2.72.27-.58.52-1.09.78-1.53.25-.45.53-.82.82-1.13.29-.3.62-.54.97-.7.35-.16.76-.24 1.23-.24 2.09 0 3.14 1.61 3.14 4.83v12.13h-2.68zM413.82 310.53l-.07-2.24c-.91.9-1.83 1.54-2.76 1.94-.93.4-1.92.6-2.94.6-.95 0-1.76-.12-2.44-.36-.67-.24-1.23-.58-1.67-1-.44-.43-.76-.93-.96-1.5-.2-.57-.31-1.2-.31-1.87 0-1.67.62-2.98 1.87-3.92 1.24-.95 3.08-1.42 5.52-1.42h3.45v-1.46c0-.98-.32-1.77-.95-2.36-.63-.59-1.59-.89-2.89-.89-.94 0-1.87.1-2.78.32-.91.21-1.86.51-2.83.9v-2.6c.36-.13.77-.26 1.22-.39.45-.13.92-.24 1.42-.34.5-.1 1.02-.18 1.56-.24s1.09-.09 1.64-.09c1.01 0 1.91.11 2.72.33.81.22 1.49.56 2.05 1.01.56.45.99 1.02 1.29 1.71.3.69.45 1.49.45 2.42v11.48h-2.59zm-.31-7.59h-3.67c-.72 0-1.34.07-1.86.22-.52.14-.95.35-1.28.61-.33.27-.58.58-.74.95-.16.37-.24.79-.24 1.25 0 .32.05.63.15.92.1.29.26.55.48.78.22.23.51.41.86.54.35.13.79.2 1.29.2.66 0 1.42-.2 2.28-.61.86-.4 1.76-1.04 2.71-1.92v-2.94zM435.22 310.29c-.65.17-1.33.28-2.02.36-.7.07-1.4.11-2.12.11-2.09 0-3.65-.47-4.68-1.42-1.03-.95-1.54-2.4-1.54-4.35v-8.69h-4.66v-2.42h4.66v-4.58l2.89-.75v5.33h7.48v2.42h-7.48v8.46c0 1.19.32 2.09.95 2.68s1.57.89 2.81.89c.53 0 1.11-.04 1.74-.12s1.29-.21 1.97-.39v2.47zM446.16 296.26h-4.93v-2.39h7.85v14.25h4.96v2.41h-13.36v-2.41h5.48v-11.86zm1.01-9.37c.32 0 .62.06.9.17.28.12.52.28.72.49.2.21.37.45.48.72.12.27.17.57.17.89 0 .31-.06.6-.17.88-.12.28-.28.52-.48.73-.2.21-.44.37-.72.49-.28.12-.58.17-.9.17s-.62-.06-.9-.17c-.28-.12-.52-.28-.72-.49-.21-.21-.37-.45-.48-.73-.12-.28-.17-.57-.17-.88 0-.32.06-.62.17-.89.12-.27.28-.51.48-.72.2-.21.44-.37.72-.49.28-.12.58-.17.9-.17zM473.66 302.07c0 1.29-.18 2.48-.55 3.56-.37 1.08-.89 2-1.58 2.77-.69.77-1.52 1.37-2.51 1.79-.98.43-2.1.64-3.35.64-1.19 0-2.26-.19-3.21-.56-.95-.37-1.75-.92-2.41-1.63-.66-.72-1.16-1.61-1.51-2.67-.35-1.06-.52-2.28-.52-3.67 0-1.29.18-2.47.55-3.54.37-1.07.89-1.98 1.58-2.75.69-.77 1.52-1.37 2.51-1.79.98-.43 2.1-.64 3.35-.64 1.19 0 2.26.19 3.21.56s1.75.91 2.41 1.63c.66.71 1.16 1.6 1.51 2.66s.52 2.26.52 3.64zm-2.95.13c0-1.03-.11-1.93-.34-2.7-.23-.77-.55-1.41-.97-1.92-.42-.51-.93-.9-1.53-1.16-.6-.26-1.27-.39-2.02-.39-.86 0-1.6.17-2.21.51-.61.34-1.12.79-1.51 1.35-.39.56-.68 1.22-.86 1.97-.18.75-.27 1.53-.27 2.35 0 1.03.11 1.93.34 2.7.23.77.55 1.42.97 1.93.42.51.93.9 1.53 1.16.6.26 1.27.39 2.02.39.86 0 1.6-.17 2.21-.51.61-.34 1.12-.79 1.51-1.35.39-.56.68-1.22.86-1.97.18-.74.27-1.53.27-2.36zM477.84 293.87h2.57l.12 2.69c.49-.58.96-1.05 1.41-1.43.45-.38.9-.69 1.34-.92.44-.23.88-.4 1.34-.49.45-.09.92-.14 1.41-.14 1.71 0 3.01.51 3.89 1.52.88 1.01 1.32 2.54 1.32 4.57v10.87h-2.89v-10.63c0-1.31-.24-2.27-.73-2.9-.49-.62-1.21-.94-2.17-.94-.35 0-.7.05-1.04.16-.34.11-.69.29-1.05.55-.36.26-.76.61-1.19 1.05-.43.44-.9 1-1.43 1.66v11.05h-2.89v-16.67zM509.71 305.98c0 .59-.1 1.11-.3 1.58s-.47.88-.81 1.24c-.34.36-.74.67-1.19.92-.45.25-.94.46-1.45.63-.51.17-1.04.29-1.58.36-.54.08-1.07.12-1.59.12-1.13 0-2.17-.05-3.11-.15s-1.87-.26-2.78-.48v-2.65c.97.28 1.94.49 2.9.63s1.92.22 2.87.22c1.38 0 2.41-.19 3.07-.56.66-.38 1-.91 1-1.61 0-.3-.05-.57-.16-.8-.11-.24-.3-.46-.57-.68-.28-.22-.71-.44-1.29-.67-.58-.23-1.37-.5-2.38-.8-.75-.22-1.45-.47-2.08-.75-.64-.28-1.19-.62-1.65-1s-.83-.84-1.09-1.36c-.27-.52-.4-1.13-.4-1.84 0-.46.11-.97.32-1.53.22-.55.58-1.07 1.1-1.54.52-.48 1.22-.87 2.11-1.19.88-.32 1.99-.47 3.32-.47.65 0 1.38.04 2.17.11.8.07 1.63.2 2.49.37v2.57c-.91-.22-1.77-.38-2.58-.49-.81-.1-1.52-.16-2.11-.16-.72 0-1.32.06-1.82.17-.49.11-.89.26-1.19.46-.3.19-.52.42-.66.68-.13.26-.2.54-.2.84 0 .3.06.57.17.81.12.24.33.48.65.71.32.23.75.45 1.32.68.56.23 1.3.47 2.21.74.98.29 1.81.59 2.49.9.67.32 1.22.67 1.64 1.05.42.39.72.82.9 1.31.17.46.26 1.01.26 1.63zM521.89 293.57c.34 0 .67.07.98.21.31.14.58.32.81.56.23.23.42.5.56.81.14.31.21.64.21.98 0 .35-.07.68-.21.99s-.32.57-.56.8c-.23.23-.5.41-.81.55-.31.13-.64.2-.98.2-.35 0-.68-.07-.99-.2-.3-.13-.57-.32-.8-.55-.23-.23-.41-.5-.55-.8s-.2-.63-.2-.99c0-.34.07-.67.2-.98.13-.31.32-.58.55-.81.23-.23.5-.42.8-.56.31-.14.64-.21.99-.21zm0 12.16c.34 0 .67.07.98.21.31.14.58.32.81.56.23.23.42.5.56.81.14.31.21.64.21.98 0 .35-.07.68-.21.99-.14.3-.32.57-.56.8-.23.23-.5.41-.81.55-.31.13-.64.2-.98.2-.35 0-.68-.07-.99-.2-.3-.13-.57-.32-.8-.55-.23-.23-.41-.5-.55-.8-.13-.3-.2-.63-.2-.99 0-.34.07-.67.2-.98.13-.31.32-.58.55-.81.23-.23.5-.42.8-.56.31-.14.64-.21.99-.21z"/><path class="st9" d="M566.63 310.53h-14.28v-2.59l5.61-5.57c.92-.91 1.66-1.69 2.24-2.36.57-.66 1.02-1.27 1.34-1.82.32-.55.54-1.06.65-1.55s.17-1.01.17-1.58c0-.53-.07-1.04-.22-1.52-.14-.48-.36-.9-.66-1.27-.3-.37-.69-.65-1.16-.86-.48-.21-1.05-.32-1.71-.32-.92 0-1.75.2-2.51.61-.75.41-1.44.94-2.07 1.59l-1.59-1.91c.82-.86 1.76-1.55 2.83-2.07 1.07-.52 2.31-.78 3.72-.78.96 0 1.84.14 2.63.43.79.29 1.47.7 2.05 1.24.58.54 1.02 1.21 1.34 1.99.32.79.47 1.67.47 2.65 0 .83-.11 1.6-.33 2.31-.22.71-.56 1.41-1 2.12-.45.7-1.01 1.43-1.69 2.18s-1.49 1.58-2.41 2.47l-3.93 3.83h10.53v2.78zM585.2 291.53l-9.09 19h-3.3l9.44-19h-11.71v-2.69h14.67v2.69zM603.88 291.53l-9.09 19h-3.3l9.44-19h-11.71v-2.69h14.67v2.69zM622.68 310.53H608.4v-2.59l5.61-5.57c.92-.91 1.66-1.69 2.24-2.36.57-.66 1.02-1.27 1.34-1.82.32-.55.54-1.06.65-1.55s.17-1.01.17-1.58c0-.53-.07-1.04-.22-1.52-.14-.48-.36-.9-.66-1.27-.3-.37-.69-.65-1.16-.86-.48-.21-1.04-.32-1.71-.32-.92 0-1.75.2-2.51.61s-1.44.94-2.07 1.59l-1.59-1.91c.82-.86 1.76-1.55 2.83-2.07 1.07-.52 2.31-.78 3.72-.78.96 0 1.84.14 2.63.43.79.29 1.47.7 2.05 1.24.58.54 1.02 1.21 1.34 1.99.32.79.47 1.67.47 2.65 0 .83-.11 1.6-.33 2.31-.22.71-.56 1.41-1 2.12-.45.7-1.01 1.43-1.69 2.18s-1.48 1.58-2.41 2.47l-3.93 3.83h10.53v2.78zM641.24 298.46c0 2.11-.25 3.93-.76 5.45s-1.26 2.77-2.26 3.75c-1 .98-2.23 1.7-3.7 2.17-1.47.46-3.17.7-5.09.7h-1.81V308h2.01c1.43 0 2.66-.14 3.7-.43s1.9-.71 2.6-1.27c.69-.56 1.22-1.24 1.58-2.04.37-.8.59-1.72.68-2.75l.07-.68c-.7.41-1.5.74-2.41.99-.91.25-1.89.37-2.95.37-1.1 0-2.06-.16-2.89-.48-.83-.32-1.52-.77-2.06-1.34-.55-.58-.96-1.26-1.24-2.05-.28-.79-.42-1.65-.42-2.58 0-1.01.18-1.95.55-2.82s.88-1.63 1.53-2.28c.66-.65 1.45-1.16 2.36-1.53.92-.38 1.93-.56 3.04-.56 1.07 0 2.07.18 2.98.53s1.7.93 2.36 1.72c.66.79 1.18 1.82 1.56 3.08.38 1.25.57 2.78.57 4.58zm-7.6-7.54c-.62 0-1.19.1-1.72.31-.53.2-.98.5-1.36.9-.38.39-.68.88-.9 1.45-.22.58-.33 1.23-.33 1.97 0 .67.08 1.28.24 1.81.16.53.41.98.75 1.35.34.37.77.66 1.3.85.53.2 1.16.3 1.89.3.41 0 .83-.04 1.27-.12.44-.08.86-.18 1.28-.32.41-.13.81-.29 1.19-.46.38-.18.71-.37 1.01-.56 0-1.43-.11-2.62-.32-3.58-.21-.96-.51-1.73-.91-2.31-.4-.58-.88-.99-1.45-1.24-.58-.23-1.22-.35-1.94-.35zM660.53 299.69c0 1.66-.17 3.17-.5 4.54-.33 1.37-.84 2.54-1.51 3.52s-1.51 1.74-2.51 2.27c-1 .54-2.18.8-3.53.8-1.16 0-2.22-.22-3.17-.66-.95-.44-1.76-1.11-2.44-2.02-.67-.91-1.19-2.06-1.56-3.47-.36-1.4-.55-3.07-.55-4.99 0-1.66.17-3.17.51-4.55.34-1.37.84-2.55 1.51-3.53s1.51-1.74 2.51-2.27c1.01-.54 2.18-.8 3.52-.8 1.16 0 2.22.22 3.17.66.95.44 1.76 1.11 2.44 2.02.67.91 1.19 2.07 1.56 3.48.37 1.41.55 3.08.55 5zm-12.84-.1c0 .34 0 .69.01 1.03.01.34.02.67.06 1l9.17-6.79c-.17-.56-.38-1.08-.63-1.54-.26-.46-.56-.86-.91-1.2-.35-.34-.76-.6-1.21-.79-.45-.19-.96-.28-1.53-.28-.75 0-1.44.18-2.05.55s-1.14.91-1.57 1.63c-.43.72-.76 1.62-1 2.69-.22 1.06-.34 2.3-.34 3.7zm9.93.2c0-.38-.01-.75-.04-1.12-.03-.37-.06-.73-.09-1.09l-9.17 6.82c.17.58.38 1.11.63 1.59s.56.9.92 1.25.77.62 1.23.81c.46.19.98.29 1.57.29.75 0 1.44-.18 2.05-.55.61-.37 1.14-.91 1.57-1.63.43-.72.76-1.61 1-2.68.21-1.05.33-2.28.33-3.69z"/><path class="st7" d="M287.17 340.22c0 1.04-.08 2.04-.24 2.99-.16.95-.42 1.84-.77 2.65-.35.82-.81 1.56-1.38 2.23-.56.67-1.26 1.24-2.07 1.72-.82.48-1.77.84-2.85 1.1-1.08.26-2.32.39-3.7.39h-4.64v-21.68h5.59c3.38 0 5.91.87 7.57 2.61 1.66 1.74 2.49 4.4 2.49 7.99zm-3.1.21c0-1.54-.14-2.84-.43-3.9s-.72-1.92-1.31-2.57c-.59-.65-1.32-1.13-2.21-1.42-.89-.29-1.92-.44-3.12-.44h-2.54v16.64h2.21c4.93 0 7.4-2.77 7.4-8.31zM296.71 337.03h-4.93v-2.39h7.85v14.25h4.96v2.41h-13.36v-2.41h5.48v-11.86zm1.01-9.37c.32 0 .62.06.9.17.28.12.52.28.72.49.2.21.37.45.48.72.12.27.17.57.17.89 0 .31-.06.6-.17.88-.12.28-.28.52-.48.73-.2.21-.44.37-.72.49-.28.12-.58.17-.9.17s-.62-.06-.9-.17c-.28-.12-.52-.28-.72-.49-.21-.21-.37-.45-.48-.73-.12-.28-.17-.57-.17-.88 0-.32.06-.62.17-.89.12-.27.28-.51.48-.72.2-.21.44-.37.72-.49.28-.11.58-.17.9-.17zM324.5 330.54c-1.52-.32-2.82-.48-3.92-.48-2.6 0-3.9 1.36-3.9 4.08v2.92h7.3v2.41h-7.3v11.83h-2.94v-11.83h-5.36v-2.41h5.36v-2.75c0-4.44 2.31-6.65 6.93-6.65 1.15 0 2.42.13 3.82.4v2.48zM343.18 330.54c-1.52-.32-2.82-.48-3.92-.48-2.6 0-3.9 1.36-3.9 4.08v2.92h7.3v2.41h-7.3v11.83h-2.94v-11.83h-5.36v-2.41h5.36v-2.75c0-4.44 2.31-6.65 6.93-6.65 1.15 0 2.42.13 3.82.4v2.48zM352.75 337.03h-4.93v-2.39h7.85v14.25h4.96v2.41h-13.36v-2.41h5.48v-11.86zm1.02-9.37c.32 0 .62.06.9.17.28.12.52.28.72.49.2.21.37.45.48.72.12.27.17.57.17.89 0 .31-.06.6-.17.88-.12.28-.28.52-.48.73-.2.21-.44.37-.72.49-.28.12-.58.17-.9.17-.32 0-.62-.06-.9-.17-.28-.12-.52-.28-.72-.49-.21-.21-.37-.45-.48-.73-.12-.28-.17-.57-.17-.88 0-.32.06-.62.17-.89.12-.27.28-.51.48-.72.2-.21.44-.37.72-.49.28-.11.57-.17.9-.17zM378.7 350.68c-.75.29-1.52.5-2.31.64s-1.61.21-2.45.21c-2.63 0-4.66-.71-6.08-2.14-1.42-1.43-2.13-3.51-2.13-6.25 0-1.32.2-2.51.61-3.58.41-1.07.98-1.99 1.73-2.75.74-.76 1.63-1.35 2.65-1.77 1.03-.41 2.16-.62 3.4-.62.86 0 1.67.06 2.42.18s1.47.32 2.16.6v2.75c-.72-.38-1.45-.65-2.2-.82-.75-.17-1.52-.26-2.31-.26-.74 0-1.44.14-2.1.42-.66.28-1.24.69-1.73 1.22-.5.53-.89 1.18-1.18 1.94-.29.76-.43 1.63-.43 2.59 0 2.01.49 3.52 1.47 4.52.98 1 2.34 1.5 4.07 1.5.78 0 1.55-.09 2.28-.27.74-.18 1.45-.44 2.13-.8v2.69zM397.83 351.3h-2.59l-.1-2.69c-.5.58-.97 1.05-1.42 1.44-.45.38-.89.69-1.34.92-.44.23-.89.39-1.34.49-.45.09-.92.14-1.42.14-1.71 0-3.01-.5-3.88-1.51-.87-1.01-1.31-2.53-1.31-4.56v-10.88h2.89v10.65c0 2.55.96 3.83 2.89 3.83.35 0 .7-.05 1.04-.16.34-.11.69-.29 1.06-.55.37-.26.77-.61 1.19-1.05.43-.44.9-1 1.44-1.68v-11.05h2.89v16.66zM408.8 330.23h-4.93v-2.37h7.85v21.04h4.96v2.41h-13.36v-2.41h5.48v-18.67zM435.22 351.07c-.65.17-1.33.29-2.02.36-.7.07-1.4.11-2.12.11-2.09 0-3.65-.47-4.68-1.42-1.03-.95-1.54-2.4-1.54-4.35v-8.69h-4.66v-2.42h4.66v-4.58l2.89-.75v5.33h7.48v2.42h-7.48v8.46c0 1.19.32 2.09.95 2.68.64.59 1.57.89 2.81.89.53 0 1.11-.04 1.74-.12.63-.08 1.29-.21 1.97-.39v2.47zM455.3 334.64l-5.67 14.9c-.59 1.52-1.19 2.82-1.82 3.92-.62 1.09-1.31 1.99-2.05 2.7-.74.7-1.55 1.22-2.44 1.55-.88.33-1.87.5-2.97.5-.29 0-.55-.01-.78-.02-.23-.01-.49-.03-.76-.05v-2.62c.24.03.51.06.8.09.29.03.59.04.91.04.53 0 1.03-.08 1.49-.23.46-.16.89-.41 1.3-.75s.8-.8 1.18-1.35c.38-.55.74-1.22 1.09-2.01l-6.65-16.66h3.28l4.21 11.02.85 2.59.96-2.65 3.9-10.95h3.17zM465.85 334.34c.34 0 .67.07.98.21.31.14.58.32.81.56.23.23.42.5.56.81.14.31.21.64.21.98 0 .35-.07.68-.21.99-.14.3-.32.57-.56.8-.23.23-.5.41-.81.55-.31.13-.64.2-.98.2-.35 0-.68-.07-.99-.2-.3-.13-.57-.32-.8-.55-.23-.23-.41-.5-.55-.8-.13-.3-.2-.63-.2-.99 0-.34.07-.67.2-.98.13-.31.32-.58.55-.81.23-.23.5-.42.8-.56.31-.14.63-.21.99-.21zm0 12.16c.34 0 .67.07.98.21.31.14.58.32.81.56.23.23.42.5.56.81.14.31.21.64.21.98 0 .35-.07.68-.21.99-.14.3-.32.57-.56.81-.23.23-.5.41-.81.55-.31.13-.64.2-.98.2-.35 0-.68-.07-.99-.2-.3-.13-.57-.32-.8-.55-.23-.23-.41-.5-.55-.81-.13-.3-.2-.63-.2-.99 0-.34.07-.67.2-.98.13-.31.32-.58.55-.81.23-.23.5-.42.8-.56.31-.14.63-.21.99-.21z"/><path class="st9" d="M510.41 351.3h-13.62v-2.69h5.57v-15.83l-5.19 2.82-1.06-2.46 6.9-3.63h2.55v19.09h4.84v2.7zM521.76 346.07c.38 0 .73.07 1.07.22.34.14.63.34.88.6.25.25.44.55.59.89.14.34.22.7.22 1.09 0 .38-.07.73-.22 1.06-.14.33-.34.62-.59.87-.25.25-.54.45-.88.59-.34.14-.69.22-1.07.22-.39 0-.75-.07-1.08-.22s-.62-.34-.87-.59c-.25-.25-.45-.54-.59-.87-.14-.33-.22-.69-.22-1.06 0-.39.07-.75.22-1.09.14-.34.34-.63.59-.89.25-.25.54-.45.87-.6s.69-.22 1.08-.22zM548.45 340.47c0 1.66-.17 3.17-.5 4.54-.33 1.37-.84 2.54-1.51 3.52s-1.51 1.74-2.51 2.27c-1 .54-2.18.81-3.53.81-1.16 0-2.22-.22-3.17-.66-.95-.44-1.76-1.11-2.44-2.02-.67-.91-1.19-2.06-1.56-3.47s-.55-3.07-.55-4.99c0-1.66.17-3.17.51-4.55.34-1.37.84-2.55 1.51-3.53s1.51-1.74 2.51-2.27c1.01-.54 2.18-.8 3.52-.8 1.16 0 2.22.22 3.17.66.95.44 1.76 1.11 2.44 2.02s1.19 2.07 1.56 3.48c.37 1.4.55 3.06.55 4.99zm-12.84-.1c0 .34 0 .69.01 1.03.01.34.02.67.06 1l9.17-6.79c-.17-.56-.38-1.08-.63-1.54-.25-.46-.56-.86-.91-1.2-.35-.34-.76-.6-1.21-.79-.45-.19-.96-.28-1.53-.28-.75 0-1.43.18-2.05.55-.61.36-1.14.91-1.57 1.63-.43.72-.76 1.62-1 2.69-.22 1.06-.34 2.29-.34 3.7zm9.92.19c0-.38-.01-.75-.04-1.12-.03-.37-.06-.73-.09-1.09l-9.17 6.82c.17.58.38 1.11.63 1.59.25.49.56.9.92 1.25s.77.62 1.23.81c.46.19.98.29 1.57.29.75 0 1.43-.18 2.05-.55.61-.36 1.14-.91 1.57-1.63.43-.72.76-1.61 1-2.68.21-1.04.33-2.28.33-3.69zM567.13 340.47c0 1.66-.17 3.17-.5 4.54s-.84 2.54-1.51 3.52-1.51 1.74-2.51 2.27c-1 .54-2.18.81-3.53.81-1.16 0-2.22-.22-3.17-.66-.95-.44-1.76-1.11-2.44-2.02-.67-.91-1.19-2.06-1.56-3.47s-.55-3.07-.55-4.99c0-1.66.17-3.17.51-4.55.34-1.37.84-2.55 1.51-3.53s1.51-1.74 2.51-2.27c1.01-.54 2.18-.8 3.52-.8 1.16 0 2.22.22 3.17.66.95.44 1.76 1.11 2.44 2.02.67.91 1.19 2.07 1.56 3.48.37 1.4.55 3.06.55 4.99zm-12.84-.1c0 .34 0 .69.01 1.03.01.34.02.67.06 1l9.17-6.79c-.17-.56-.38-1.08-.63-1.54-.26-.46-.56-.86-.91-1.2-.35-.34-.76-.6-1.21-.79-.45-.19-.96-.28-1.53-.28-.75 0-1.43.18-2.05.55-.61.36-1.14.91-1.57 1.63-.43.72-.76 1.62-1 2.69-.22 1.06-.34 2.29-.34 3.7zm9.92.19c0-.38-.01-.75-.04-1.12-.03-.37-.06-.73-.09-1.09l-9.17 6.82c.17.58.38 1.11.63 1.59.25.49.56.9.92 1.25s.77.62 1.23.81c.46.19.98.29 1.57.29.75 0 1.43-.18 2.05-.55.61-.36 1.14-.91 1.57-1.63.43-.72.76-1.61 1-2.68.22-1.04.33-2.28.33-3.69zM585.81 340.47c0 1.66-.17 3.17-.5 4.54s-.84 2.54-1.51 3.52-1.51 1.74-2.51 2.27c-1 .54-2.18.81-3.53.81-1.16 0-2.22-.22-3.17-.66-.95-.44-1.76-1.11-2.44-2.02-.67-.91-1.19-2.06-1.56-3.47-.36-1.4-.55-3.07-.55-4.99 0-1.66.17-3.17.51-4.55.34-1.37.84-2.55 1.51-3.53s1.51-1.74 2.51-2.27c1.01-.54 2.18-.8 3.52-.8 1.16 0 2.22.22 3.17.66.95.44 1.76 1.11 2.44 2.02.67.91 1.19 2.07 1.56 3.48.37 1.4.55 3.06.55 4.99zm-12.84-.1c0 .34 0 .69.01 1.03.01.34.02.67.06 1l9.17-6.79c-.17-.56-.38-1.08-.63-1.54-.26-.46-.56-.86-.91-1.2-.35-.34-.76-.6-1.21-.79-.45-.19-.96-.28-1.53-.28-.75 0-1.44.18-2.05.55-.61.36-1.14.91-1.57 1.63-.43.72-.76 1.62-1 2.69-.22 1.06-.34 2.29-.34 3.7zm9.92.19c0-.38-.01-.75-.04-1.12-.03-.37-.06-.73-.09-1.09l-9.17 6.82c.17.58.38 1.11.63 1.59.25.49.56.9.92 1.25s.77.62 1.23.81c.46.19.98.29 1.57.29.75 0 1.44-.18 2.05-.55.61-.36 1.14-.91 1.57-1.63.43-.72.76-1.61 1-2.68.22-1.04.33-2.28.33-3.69zM604.49 340.47c0 1.66-.17 3.17-.5 4.54-.33 1.37-.84 2.54-1.51 3.52s-1.51 1.74-2.51 2.27c-1 .54-2.18.81-3.53.81-1.16 0-2.22-.22-3.17-.66-.95-.44-1.76-1.11-2.44-2.02-.67-.91-1.19-2.06-1.56-3.47-.36-1.4-.55-3.07-.55-4.99 0-1.66.17-3.17.51-4.55.34-1.37.84-2.55 1.51-3.53s1.51-1.74 2.51-2.27c1.01-.54 2.18-.8 3.52-.8 1.16 0 2.22.22 3.17.66.95.44 1.76 1.11 2.44 2.02.67.91 1.19 2.07 1.56 3.48.37 1.4.55 3.06.55 4.99zm-12.84-.1c0 .34 0 .69.01 1.03.01.34.02.67.06 1l9.17-6.79c-.17-.56-.38-1.08-.63-1.54-.26-.46-.56-.86-.91-1.2-.35-.34-.76-.6-1.21-.79-.45-.19-.96-.28-1.53-.28-.75 0-1.44.18-2.05.55s-1.14.91-1.57 1.63c-.43.72-.76 1.62-1 2.69-.22 1.06-.34 2.29-.34 3.7zm9.92.19c0-.38-.01-.75-.04-1.12-.03-.37-.06-.73-.09-1.09l-9.17 6.82c.17.58.38 1.11.63 1.59.25.49.56.9.92 1.25s.77.62 1.23.81c.46.19.98.29 1.57.29.75 0 1.44-.18 2.05-.55s1.14-.91 1.57-1.63c.43-.72.76-1.61 1-2.68.22-1.04.33-2.28.33-3.69zM623.17 340.47c0 1.66-.17 3.17-.5 4.54s-.84 2.54-1.51 3.52-1.51 1.74-2.51 2.27c-1 .54-2.18.81-3.53.81-1.16 0-2.22-.22-3.17-.66-.95-.44-1.76-1.11-2.44-2.02-.67-.91-1.19-2.06-1.56-3.47-.36-1.4-.55-3.07-.55-4.99 0-1.66.17-3.17.51-4.55.34-1.37.84-2.55 1.51-3.53s1.51-1.74 2.51-2.27c1.01-.54 2.18-.8 3.52-.8 1.16 0 2.22.22 3.17.66.95.44 1.76 1.11 2.44 2.02.67.91 1.19 2.07 1.56 3.48.37 1.4.55 3.06.55 4.99zm-12.84-.1c0 .34 0 .69.01 1.03.01.34.02.67.06 1l9.17-6.79c-.17-.56-.38-1.08-.63-1.54-.26-.46-.56-.86-.91-1.2-.35-.34-.76-.6-1.21-.79-.45-.19-.96-.28-1.53-.28-.75 0-1.44.18-2.05.55-.61.36-1.14.91-1.57 1.63-.43.72-.76 1.62-1 2.69-.22 1.06-.34 2.29-.34 3.7zm9.92.19c0-.38-.01-.75-.04-1.12-.03-.37-.06-.73-.09-1.09l-9.17 6.82c.17.58.38 1.11.63 1.59.25.49.56.9.92 1.25s.77.62 1.23.81c.46.19.98.29 1.57.29.75 0 1.44-.18 2.05-.55.61-.36 1.14-.91 1.57-1.63.43-.72.76-1.61 1-2.68.22-1.04.33-2.28.33-3.69zM641.85 340.47c0 1.66-.17 3.17-.5 4.54-.33 1.37-.84 2.54-1.51 3.52s-1.51 1.74-2.51 2.27c-1 .54-2.18.81-3.53.81-1.16 0-2.22-.22-3.17-.66-.95-.44-1.76-1.11-2.44-2.02-.67-.91-1.19-2.06-1.56-3.47-.36-1.4-.55-3.07-.55-4.99 0-1.66.17-3.17.51-4.55.34-1.37.84-2.55 1.51-3.53s1.51-1.74 2.51-2.27c1.01-.54 2.18-.8 3.52-.8 1.16 0 2.22.22 3.17.66.95.44 1.76 1.11 2.44 2.02.67.91 1.19 2.07 1.56 3.48.37 1.4.55 3.06.55 4.99zm-12.84-.1c0 .34 0 .69.01 1.03.01.34.02.67.06 1l9.17-6.79c-.17-.56-.38-1.08-.63-1.54-.26-.46-.56-.86-.91-1.2-.35-.34-.76-.6-1.21-.79-.45-.19-.96-.28-1.53-.28-.75 0-1.44.18-2.05.55-.61.36-1.14.91-1.57 1.63-.43.72-.76 1.62-1 2.69-.22 1.06-.34 2.29-.34 3.7zm9.92.19c0-.38-.01-.75-.04-1.12-.03-.37-.06-.73-.09-1.09l-9.17 6.82c.17.58.38 1.11.63 1.59.25.49.56.9.92 1.25s.77.62 1.23.81c.46.19.98.29 1.57.29.75 0 1.44-.18 2.05-.55.61-.36 1.14-.91 1.57-1.63.43-.72.76-1.61 1-2.68.22-1.04.33-2.28.33-3.69z"/><path class="st7" d="M286.24 386.2c0 1.03-.21 1.93-.63 2.7s-1.01 1.42-1.76 1.93-1.66.9-2.71 1.15c-1.06.25-2.22.38-3.49.38-.58 0-1.15-.02-1.72-.07-.57-.04-1.12-.1-1.64-.17-.52-.07-1.02-.14-1.48-.23-.46-.09-.89-.18-1.26-.28v-2.85c.83.31 1.76.55 2.8.73 1.03.18 2.21.27 3.53.27.95 0 1.76-.08 2.43-.22.67-.15 1.22-.37 1.64-.66.43-.29.74-.65.93-1.07.19-.42.29-.9.29-1.44 0-.59-.16-1.09-.49-1.5-.33-.42-.75-.79-1.29-1.11-.53-.33-1.14-.62-1.82-.9-.68-.27-1.37-.55-2.08-.84s-1.4-.6-2.08-.94c-.68-.34-1.29-.74-1.82-1.19-.53-.46-.96-1-1.29-1.62-.33-.62-.49-1.35-.49-2.21 0-.74.15-1.47.46-2.19.31-.72.79-1.36 1.44-1.92.65-.56 1.49-1.01 2.51-1.35s2.24-.51 3.66-.51c.37 0 .76.02 1.19.05.43.03.86.08 1.29.14.44.06.87.13 1.29.21.43.08.82.16 1.19.25v2.65c-.85-.24-1.7-.43-2.55-.56-.85-.13-1.68-.19-2.47-.19-1.69 0-2.94.28-3.73.85-.8.56-1.19 1.32-1.19 2.27 0 .59.16 1.09.49 1.51.33.42.75.8 1.29 1.13.53.33 1.14.63 1.82.9.68.27 1.37.55 2.08.84.71.29 1.4.6 2.08.95.68.34 1.29.75 1.82 1.22s.96 1.02 1.29 1.65.47 1.37.47 2.24zM296.71 377.8h-4.93v-2.39h7.85v14.25h4.96v2.41h-13.36v-2.41h5.48V377.8zm1.01-9.37c.32 0 .62.06.9.17.28.12.52.28.72.49.2.21.37.45.48.72.12.27.17.57.17.89 0 .31-.06.6-.17.88-.12.28-.28.52-.48.73-.2.21-.44.37-.72.49-.28.12-.58.17-.9.17s-.62-.06-.9-.17c-.28-.12-.52-.28-.72-.49-.21-.21-.37-.45-.48-.73-.12-.28-.17-.57-.17-.88 0-.32.06-.62.17-.89.12-.27.28-.51.48-.72.2-.21.44-.37.72-.49.28-.11.58-.17.9-.17zM323.21 392.07h-13.42V390l9.41-12.16h-9.17v-2.42h12.64v2.26l-9.24 11.96h9.79v2.43zM342.47 382.86c0 .41-.01.75-.02 1.03s-.03.54-.05.78h-11.7c0 1.7.48 3.01 1.43 3.92.95.91 2.32 1.37 4.11 1.37.49 0 .97-.02 1.46-.06.49-.04.96-.09 1.41-.16.45-.07.89-.14 1.3-.22.41-.08.8-.17 1.15-.27v2.37c-.79.22-1.67.4-2.66.54-.99.14-2.02.21-3.08.21-1.43 0-2.65-.19-3.68-.58-1.03-.39-1.87-.95-2.53-1.68-.66-.74-1.14-1.64-1.46-2.7-.32-1.07-.47-2.28-.47-3.63 0-1.17.17-2.28.51-3.33.34-1.05.83-1.96 1.48-2.75s1.44-1.42 2.38-1.88c.94-.47 2.01-.7 3.2-.7 1.16 0 2.19.18 3.09.55s1.65.88 2.26 1.55c.61.67 1.08 1.48 1.39 2.44.32.95.48 2.02.48 3.2zm-3.01-.41c.03-.74-.04-1.42-.22-2.03-.18-.61-.45-1.14-.82-1.59-.37-.44-.83-.79-1.39-1.04-.55-.25-1.19-.37-1.92-.37-.63 0-1.21.12-1.73.36s-.97.59-1.34 1.03c-.38.44-.68.97-.91 1.59-.23.62-.38 1.3-.43 2.04h8.76zM375.73 399.04c-5.1-4.72-7.65-9.94-7.65-15.66 0-1.34.14-2.67.41-4.01.27-1.33.71-2.67 1.31-4.01.6-1.34 1.4-2.68 2.39-4.01.99-1.34 2.19-2.67 3.61-3.98l1.68 1.71c-4.29 4.24-6.44 8.93-6.44 14.08 0 2.57.54 5.03 1.63 7.4 1.08 2.37 2.69 4.6 4.81 6.7l-1.75 1.78zM390.11 377.8h-4.93v-2.39h7.85v14.25h4.96v2.41h-13.36v-2.41h5.48V377.8zm1.02-9.37c.32 0 .62.06.9.17.28.12.52.28.72.49.2.21.37.45.48.72.12.27.17.57.17.89 0 .31-.06.6-.17.88-.12.28-.28.52-.48.73-.2.21-.44.37-.72.49-.28.12-.58.17-.9.17s-.62-.06-.9-.17c-.28-.12-.52-.28-.72-.49-.21-.21-.37-.45-.48-.73-.12-.28-.17-.57-.17-.88 0-.32.06-.62.17-.89.12-.27.28-.51.48-.72.2-.21.44-.37.72-.49.28-.11.58-.17.9-.17zM403.12 375.41h2.57l.12 2.69c.49-.57.96-1.05 1.41-1.44.45-.38.9-.69 1.34-.92.44-.23.88-.4 1.34-.49.45-.09.92-.14 1.41-.14 1.71 0 3.01.51 3.89 1.52.88 1.01 1.32 2.54 1.32 4.57v10.87h-2.89v-10.63c0-1.31-.24-2.27-.73-2.89-.49-.63-1.21-.94-2.17-.94-.35 0-.7.05-1.04.16s-.69.29-1.05.55c-.36.26-.76.61-1.19 1.05s-.9 1-1.43 1.66v11.05h-2.89v-16.67zM454.72 383.44c0 1.38-.19 2.62-.57 3.71-.38 1.09-.92 2.01-1.63 2.77-.7.76-1.56 1.34-2.56 1.74-1.01.4-2.14.61-3.4.61-.98 0-1.99-.09-3.02-.28-1.03-.19-2.05-.49-3.05-.9v-22.46h2.89v6.45l-.13 3.09c.83-1.12 1.72-1.9 2.66-2.36.95-.46 1.96-.69 3.04-.69.95 0 1.79.2 2.51.6.72.4 1.32.96 1.81 1.68s.85 1.6 1.09 2.62.36 2.16.36 3.42zm-2.96.14c0-.87-.06-1.68-.19-2.41-.13-.73-.33-1.35-.61-1.87-.28-.52-.63-.93-1.06-1.22-.43-.29-.95-.44-1.54-.44-.37 0-.74.06-1.11.17-.38.12-.77.31-1.17.58-.4.27-.83.63-1.28 1.08-.45.45-.93 1-1.43 1.67v8.08c.56.22 1.14.4 1.73.52.59.13 1.14.19 1.68.19.66 0 1.3-.1 1.9-.32.6-.21 1.13-.56 1.59-1.05.46-.49.82-1.15 1.09-1.96.27-.81.4-1.82.4-3.02zM473.98 375.41l-5.67 14.9c-.59 1.52-1.19 2.82-1.82 3.92-.62 1.09-1.31 1.99-2.05 2.7-.74.7-1.55 1.22-2.44 1.55-.88.33-1.87.5-2.97.5-.29 0-.55-.01-.78-.02-.23-.01-.49-.03-.76-.05v-2.62c.24.03.51.06.8.09.29.03.59.04.91.04.53 0 1.03-.08 1.49-.23.46-.16.89-.41 1.3-.75s.8-.8 1.18-1.35c.38-.55.74-1.22 1.09-2.01l-6.65-16.66h3.28l4.21 11.02.85 2.59.96-2.65 3.9-10.95h3.17zM491.26 391.84c-.65.17-1.33.29-2.02.36-.7.07-1.4.11-2.12.11-2.09 0-3.65-.47-4.68-1.42-1.03-.95-1.54-2.4-1.54-4.35v-8.69h-4.66v-2.42h4.66v-4.58l2.89-.75v5.33h7.48v2.42h-7.48v8.46c0 1.19.32 2.09.95 2.68.64.59 1.57.89 2.81.89.53 0 1.11-.04 1.74-.12.63-.08 1.29-.21 1.97-.39v2.47zM510.59 382.86c0 .41-.01.75-.02 1.03s-.03.54-.05.78h-11.7c0 1.7.48 3.01 1.43 3.92.95.91 2.32 1.37 4.11 1.37.49 0 .97-.02 1.46-.06.49-.04.96-.09 1.41-.16.45-.07.89-.14 1.3-.22.41-.08.8-.17 1.15-.27v2.37c-.79.22-1.67.4-2.66.54-.99.14-2.02.21-3.08.21-1.43 0-2.65-.19-3.68-.58-1.03-.39-1.87-.95-2.53-1.68-.66-.74-1.14-1.64-1.46-2.7-.32-1.07-.47-2.28-.47-3.63 0-1.17.17-2.28.51-3.33.34-1.05.83-1.96 1.48-2.75s1.44-1.42 2.38-1.88c.94-.47 2.01-.7 3.2-.7 1.16 0 2.19.18 3.09.55s1.65.88 2.26 1.55c.61.67 1.08 1.48 1.39 2.44.32.95.48 2.02.48 3.2zm-3-.41c.03-.74-.04-1.42-.22-2.03-.18-.61-.45-1.14-.82-1.59-.37-.44-.83-.79-1.39-1.04-.55-.25-1.19-.37-1.92-.37-.63 0-1.21.12-1.73.36s-.97.59-1.34 1.03c-.38.44-.68.97-.91 1.59-.23.62-.38 1.3-.43 2.04h8.76zM528.39 387.52c0 .59-.1 1.11-.3 1.58-.2.47-.47.88-.81 1.24-.34.36-.74.67-1.19.92-.45.26-.94.47-1.45.63-.51.17-1.04.29-1.58.37-.54.08-1.07.12-1.59.12-1.13 0-2.17-.05-3.11-.15-.95-.1-1.87-.26-2.78-.48v-2.65c.97.28 1.94.49 2.9.63s1.92.22 2.87.22c1.38 0 2.41-.19 3.07-.56.66-.38 1-.91 1-1.61 0-.3-.05-.57-.16-.8-.11-.24-.3-.47-.57-.68-.28-.21-.71-.44-1.29-.67-.58-.23-1.37-.5-2.38-.8-.75-.22-1.45-.47-2.08-.76-.64-.28-1.19-.62-1.65-1s-.83-.84-1.09-1.36c-.27-.52-.4-1.13-.4-1.84 0-.47.11-.97.32-1.53.22-.55.58-1.07 1.1-1.54.52-.48 1.22-.87 2.11-1.19.88-.32 1.99-.47 3.32-.47.65 0 1.38.04 2.17.11.8.07 1.63.2 2.49.37v2.57c-.91-.22-1.77-.38-2.58-.49s-1.52-.16-2.11-.16c-.72 0-1.32.06-1.82.17-.49.11-.89.26-1.19.46-.3.19-.52.42-.66.68-.13.26-.2.54-.2.84 0 .3.06.57.17.81.12.24.33.48.65.7.32.23.75.45 1.32.68.56.23 1.3.47 2.21.74.98.29 1.81.59 2.49.9.67.32 1.22.67 1.64 1.05s.72.82.9 1.31c.17.47.26 1.02.26 1.64zM537.29 367.37c5.1 4.72 7.65 9.98 7.65 15.76 0 1.19-.12 2.43-.36 3.72-.24 1.28-.66 2.6-1.24 3.94-.59 1.34-1.37 2.71-2.36 4.09-.99 1.38-2.24 2.77-3.74 4.16l-1.68-1.71c2.16-2.14 3.77-4.36 4.83-6.69 1.06-2.32 1.59-4.75 1.59-7.3 0-5.26-2.14-10-6.42-14.2l1.73-1.77zM559.25 375.11c.34 0 .67.07.98.21.31.14.58.32.81.56.23.23.42.5.56.81.14.31.21.64.21.98 0 .35-.07.68-.21.99-.14.3-.32.57-.56.8-.23.23-.5.42-.81.55-.31.13-.64.2-.98.2-.35 0-.68-.07-.99-.2-.3-.13-.57-.32-.8-.55-.23-.23-.41-.5-.55-.8s-.2-.63-.2-.99c0-.34.07-.67.2-.98.13-.31.32-.58.55-.81.23-.23.5-.42.8-.56.31-.14.64-.21.99-.21zm0 12.17c.34 0 .67.07.98.21.31.14.58.32.81.56.23.23.42.5.56.81.14.31.21.64.21.98 0 .35-.07.68-.21.99-.14.3-.32.57-.56.81-.23.23-.5.41-.81.55-.31.13-.64.2-.98.2-.35 0-.68-.07-.99-.2-.3-.13-.57-.32-.8-.55-.23-.23-.41-.5-.55-.81s-.2-.63-.2-.99c0-.34.07-.67.2-.98.13-.31.32-.58.55-.81.23-.23.5-.42.8-.56.31-.14.64-.21.99-.21z"/><path class="st9" d="M604 392.07h-14.28v-2.59l5.61-5.57c.92-.91 1.66-1.69 2.24-2.36.57-.66 1.02-1.27 1.34-1.82.32-.55.54-1.06.65-1.55.11-.49.17-1.01.17-1.58 0-.53-.07-1.04-.22-1.52-.14-.48-.36-.9-.66-1.27-.3-.36-.69-.65-1.16-.86-.48-.21-1.04-.32-1.71-.32-.92 0-1.75.2-2.51.61-.75.41-1.44.94-2.07 1.59l-1.59-1.91c.82-.86 1.76-1.55 2.83-2.07 1.07-.52 2.31-.78 3.72-.78.96 0 1.84.14 2.63.43.79.29 1.47.7 2.05 1.24.58.54 1.02 1.2 1.34 1.99.32.79.47 1.67.47 2.65 0 .83-.11 1.6-.33 2.31-.22.71-.56 1.41-1 2.12-.45.7-1.01 1.43-1.69 2.18-.68.75-1.48 1.58-2.41 2.47l-3.93 3.83H604v2.78zM622.68 386.63c0 .92-.19 1.73-.56 2.45-.38.71-.9 1.31-1.58 1.8s-1.47.86-2.39 1.11c-.92.25-1.91.38-2.99.38-1.18 0-2.23-.13-3.13-.4-.9-.27-1.66-.64-2.27-1.11-.61-.48-1.07-1.04-1.38-1.69-.31-.65-.47-1.37-.47-2.16 0-1.33.37-2.47 1.11-3.43.74-.96 1.89-1.84 3.43-2.62-1.42-.72-2.45-1.52-3.1-2.4-.65-.88-.98-1.89-.98-3.03 0-.7.14-1.37.43-2.02.29-.65.72-1.23 1.3-1.74.58-.51 1.31-.92 2.18-1.22.87-.3 1.9-.46 3.09-.46 1.12 0 2.1.12 2.95.36.85.24 1.56.58 2.13 1.02.57.44 1.01.98 1.29 1.61.29.63.43 1.33.43 2.11 0 1.26-.35 2.33-1.05 3.22-.7.88-1.7 1.66-2.99 2.32.64.32 1.24.67 1.79 1.06s1.03.82 1.44 1.29c.41.48.73 1.01.95 1.59.25.59.37 1.24.37 1.96zm-3.14.21c0-.41-.07-.81-.2-1.19-.13-.39-.37-.77-.71-1.14-.34-.38-.8-.75-1.38-1.13-.57-.38-1.31-.76-2.19-1.16-.75.36-1.38.73-1.9 1.09-.51.36-.93.72-1.24 1.09-.32.37-.54.76-.67 1.15-.13.4-.2.82-.2 1.26 0 .5.11.94.32 1.32.22.38.51.71.89.97.38.27.82.47 1.34.6.52.13 1.08.2 1.69.2.59 0 1.14-.06 1.66-.18s.97-.31 1.35-.55c.38-.25.68-.56.9-.95.23-.39.34-.84.34-1.38zm-.3-11.43c0-.98-.35-1.72-1.04-2.2-.69-.48-1.66-.72-2.91-.72-1.24 0-2.2.24-2.89.71-.69.48-1.04 1.19-1.04 2.14 0 .43.08.83.25 1.19.17.36.42.71.77 1.03.35.32.78.64 1.3.95.52.31 1.14.63 1.86.95 1.25-.59 2.18-1.2 2.79-1.83.61-.64.91-1.38.91-2.22zM640.81 385.14c0 1.07-.23 2.05-.7 2.94-.47.88-1.1 1.65-1.92 2.28-.81.64-1.77 1.13-2.88 1.49-1.11.35-2.3.53-3.58.53-.32 0-.67-.01-1.04-.02-.37-.02-.74-.04-1.1-.07-.36-.03-.72-.06-1.07-.09-.35-.03-.66-.07-.94-.12v-2.62c.6.14 1.28.25 2.05.32.77.07 1.55.1 2.33.1.88 0 1.68-.11 2.39-.32.71-.21 1.31-.51 1.81-.9s.88-.87 1.15-1.43c.27-.56.4-1.19.4-1.88 0-1.35-.48-2.33-1.45-2.94-.97-.61-2.36-.92-4.17-.92h-4.11v-11.08h11.68v2.52h-8.96V379h1.89c1.04 0 2.05.09 3.04.28.98.19 1.86.52 2.63.99.77.47 1.39 1.1 1.86 1.89.45.79.69 1.78.69 2.98z"/><path class="st7" d="M286.43 432.84h-3.85l-6.32-13.52-1.83-4.35v17.86h-2.75v-21.68h3.8l6.02 12.81 2.17 4.96v-17.77h2.75v21.69zM304.43 432.84h-2.59l-.1-2.69c-.5.58-.97 1.05-1.42 1.44s-.89.69-1.34.92c-.44.23-.89.39-1.34.49-.45.09-.92.14-1.42.14-1.71 0-3.01-.5-3.88-1.51-.87-1.01-1.31-2.53-1.31-4.56v-10.88h2.89v10.65c0 2.55.96 3.83 2.89 3.83.35 0 .7-.05 1.04-.16.34-.11.69-.29 1.06-.55.37-.26.77-.61 1.19-1.05.43-.44.9-1 1.44-1.68v-11.05h2.89v16.66zM321.6 432.84v-11.96c0-.52-.02-.95-.06-1.28-.04-.33-.1-.59-.18-.79-.08-.19-.19-.33-.32-.41-.13-.08-.28-.12-.47-.12-.22 0-.43.07-.61.2-.19.13-.39.35-.61.65-.22.3-.45.69-.71 1.19s-.57 1.1-.92 1.82v10.7h-2.64V421.2c0-.61-.02-1.1-.06-1.48-.04-.38-.1-.67-.18-.88-.08-.21-.19-.35-.32-.43-.13-.08-.29-.12-.48-.12-.2 0-.39.06-.56.17-.18.11-.37.31-.59.6-.22.29-.46.68-.72 1.18-.27.5-.58 1.13-.95 1.91v10.7h-2.65v-16.66h2.21l.13 3.17c.29-.63.57-1.17.84-1.61.27-.44.55-.8.84-1.07.29-.27.59-.47.92-.6.33-.13.69-.19 1.09-.19.9 0 1.58.29 2.04.88.46.59.7 1.49.7 2.72.27-.57.52-1.09.78-1.53.25-.45.53-.82.82-1.13.29-.3.62-.54.97-.7.35-.16.76-.24 1.23-.24 2.09 0 3.14 1.61 3.14 4.83v12.13h-2.68zM360.5 432.61c-.65.17-1.33.29-2.02.36-.7.07-1.4.11-2.12.11-2.09 0-3.65-.47-4.68-1.42-1.03-.95-1.54-2.4-1.54-4.35v-8.69h-4.66v-2.42h4.66v-4.58l2.89-.75v5.33h7.48v2.42h-7.48v8.46c0 1.19.32 2.09.95 2.68.64.59 1.57.89 2.81.89.53 0 1.11-.04 1.74-.12.63-.08 1.29-.21 1.97-.39v2.47zM366.44 416.19h2.64l.08 3.07c.98-1.18 1.95-2.04 2.91-2.57.96-.53 1.92-.8 2.89-.8 1.73 0 3.03.56 3.92 1.68s1.3 2.78 1.24 4.98h-2.92c.03-1.46-.18-2.52-.64-3.18-.46-.66-1.13-.99-2.02-.99-.39 0-.78.07-1.17.21-.39.14-.8.36-1.21.66-.41.3-.85.69-1.32 1.17s-.96 1.05-1.49 1.73v10.7h-2.92v-16.66zM395.14 432.84l-.07-2.24c-.91.9-1.83 1.54-2.76 1.94-.93.4-1.92.6-2.94.6-.95 0-1.76-.12-2.44-.36-.67-.24-1.23-.58-1.67-1-.44-.43-.76-.93-.96-1.5-.2-.58-.31-1.2-.31-1.87 0-1.67.62-2.98 1.87-3.92 1.24-.95 3.08-1.42 5.52-1.42h3.45v-1.46c0-.98-.32-1.77-.95-2.36-.63-.59-1.59-.89-2.89-.89-.94 0-1.87.11-2.78.32-.91.21-1.86.51-2.83.9v-2.6c.36-.13.77-.26 1.22-.39s.92-.24 1.42-.34c.5-.1 1.02-.18 1.56-.24s1.09-.09 1.64-.09c1.01 0 1.91.11 2.72.33.81.22 1.49.56 2.05 1.01.56.45.99 1.02 1.29 1.71.3.69.45 1.49.45 2.42v11.48h-2.59zm-.31-7.58h-3.67c-.72 0-1.34.07-1.86.21-.52.14-.95.35-1.28.61-.33.27-.58.58-.74.95-.16.37-.24.79-.24 1.25 0 .32.05.63.15.92.1.29.26.55.48.78.22.23.51.41.86.54.35.13.79.2 1.29.2.66 0 1.42-.2 2.28-.61.86-.4 1.76-1.04 2.71-1.92v-2.93zM403.12 416.19h2.57l.12 2.69c.49-.57.96-1.05 1.41-1.44.45-.38.9-.69 1.34-.92.44-.23.88-.4 1.34-.49.45-.09.92-.14 1.41-.14 1.71 0 3.01.51 3.89 1.52.88 1.01 1.32 2.54 1.32 4.57v10.87h-2.89v-10.63c0-1.31-.24-2.27-.73-2.89-.49-.63-1.21-.94-2.17-.94-.35 0-.7.05-1.04.16s-.69.29-1.05.55c-.36.26-.76.61-1.19 1.05s-.9 1-1.43 1.66v11.05h-2.89v-16.67zM434.99 428.3c0 .59-.1 1.11-.3 1.58-.2.47-.47.88-.81 1.24-.34.36-.74.67-1.19.92-.45.26-.94.47-1.45.63-.51.17-1.04.29-1.58.37-.54.08-1.07.12-1.59.12-1.13 0-2.17-.05-3.11-.15-.95-.1-1.87-.26-2.78-.48v-2.65c.97.28 1.94.49 2.9.63s1.92.22 2.87.22c1.38 0 2.41-.19 3.07-.56.66-.38 1-.91 1-1.61 0-.3-.05-.57-.16-.8-.11-.24-.3-.47-.57-.68-.28-.21-.71-.44-1.29-.67-.58-.23-1.37-.5-2.38-.8-.75-.22-1.45-.47-2.08-.76-.64-.28-1.19-.62-1.65-1s-.83-.84-1.09-1.36c-.27-.52-.4-1.13-.4-1.84 0-.47.11-.97.32-1.53.22-.55.58-1.07 1.1-1.54.52-.48 1.22-.87 2.11-1.19.88-.32 1.99-.47 3.32-.47.65 0 1.38.04 2.17.11.8.07 1.63.2 2.49.37v2.57c-.91-.22-1.77-.38-2.58-.49s-1.52-.16-2.11-.16c-.72 0-1.32.06-1.82.17-.49.11-.89.26-1.19.46-.3.19-.52.42-.66.68-.13.26-.2.54-.2.84 0 .3.06.57.17.81.12.24.33.48.65.7.32.23.75.45 1.32.68.56.23 1.3.47 2.21.74.98.29 1.81.59 2.49.9.67.32 1.22.67 1.64 1.05.42.39.72.82.9 1.31.17.46.26 1.02.26 1.64zM451.18 432.84l-.07-2.24c-.91.9-1.83 1.54-2.76 1.94-.93.4-1.92.6-2.94.6-.95 0-1.76-.12-2.44-.36-.67-.24-1.23-.58-1.67-1-.44-.43-.76-.93-.96-1.5-.2-.58-.31-1.2-.31-1.87 0-1.67.62-2.98 1.87-3.92 1.24-.95 3.08-1.42 5.52-1.42h3.45v-1.46c0-.98-.32-1.77-.95-2.36-.63-.59-1.59-.89-2.89-.89-.94 0-1.87.11-2.78.32-.91.21-1.86.51-2.83.9v-2.6c.36-.13.77-.26 1.22-.39s.92-.24 1.42-.34c.5-.1 1.02-.18 1.56-.24s1.09-.09 1.64-.09c1.01 0 1.91.11 2.72.33.81.22 1.49.56 2.05 1.01.56.45.99 1.02 1.29 1.71.3.69.45 1.49.45 2.42v11.48h-2.59zm-.31-7.58h-3.67c-.72 0-1.34.07-1.86.21-.52.14-.95.35-1.28.61s-.58.58-.74.95c-.16.37-.24.79-.24 1.25 0 .32.05.63.15.92.1.29.26.55.48.78.22.23.51.41.86.54.35.13.79.2 1.29.2.66 0 1.42-.2 2.28-.61.86-.4 1.76-1.04 2.71-1.92v-2.93zM472.1 432.23c-.75.29-1.52.5-2.31.64s-1.61.21-2.45.21c-2.63 0-4.66-.71-6.08-2.14-1.42-1.43-2.13-3.51-2.13-6.25 0-1.32.2-2.51.61-3.58.41-1.07.98-1.99 1.73-2.75.74-.76 1.63-1.35 2.65-1.77 1.03-.42 2.16-.62 3.4-.62.86 0 1.67.06 2.42.18s1.47.32 2.16.6v2.75c-.72-.38-1.45-.65-2.2-.82-.75-.17-1.52-.26-2.31-.26-.74 0-1.44.14-2.1.42-.66.28-1.24.69-1.73 1.22-.5.53-.89 1.18-1.18 1.94-.29.76-.43 1.63-.43 2.59 0 2.01.49 3.52 1.47 4.52.98 1 2.34 1.5 4.07 1.5.78 0 1.55-.09 2.28-.27.74-.18 1.45-.44 2.13-.8v2.69zM491.26 432.61c-.65.17-1.33.29-2.02.36-.7.07-1.4.11-2.12.11-2.09 0-3.65-.47-4.68-1.42-1.03-.95-1.54-2.4-1.54-4.35v-8.69h-4.66v-2.42h4.66v-4.58l2.89-.75v5.33h7.48v2.42h-7.48v8.46c0 1.19.32 2.09.95 2.68.64.59 1.57.89 2.81.89.53 0 1.11-.04 1.74-.12.63-.08 1.29-.21 1.97-.39v2.47zM502.2 418.57h-4.93v-2.39h7.85v14.25h4.96v2.41h-13.36v-2.41h5.48v-11.86zm1.01-9.37c.32 0 .62.06.9.17.28.12.52.28.72.49.2.21.37.45.48.72.12.27.17.57.17.89 0 .31-.06.6-.17.88-.12.28-.28.52-.48.73-.2.21-.44.37-.72.49-.28.12-.58.17-.9.17-.32 0-.62-.06-.9-.17-.28-.12-.52-.28-.72-.49-.21-.21-.37-.45-.48-.73-.12-.28-.17-.57-.17-.88 0-.32.06-.62.17-.89.12-.27.28-.51.48-.72.2-.21.44-.37.72-.49.28-.11.58-.17.9-.17zM529.7 424.38c0 1.29-.18 2.48-.55 3.56-.37 1.08-.89 2-1.58 2.77-.69.77-1.52 1.37-2.51 1.79-.98.43-2.1.64-3.35.64-1.19 0-2.26-.18-3.21-.56-.95-.37-1.75-.91-2.41-1.63-.66-.72-1.16-1.61-1.51-2.67-.35-1.06-.52-2.28-.52-3.67 0-1.29.18-2.48.55-3.54.37-1.07.89-1.99 1.58-2.75.69-.77 1.52-1.37 2.51-1.79.98-.43 2.1-.64 3.35-.64 1.19 0 2.26.19 3.21.56.95.37 1.75.91 2.41 1.63.66.71 1.16 1.6 1.51 2.66.35 1.05.52 2.27.52 3.64zm-2.95.13c0-1.03-.11-1.93-.34-2.7-.23-.77-.55-1.41-.97-1.93-.42-.51-.93-.9-1.53-1.16-.6-.26-1.27-.39-2.02-.39-.86 0-1.6.17-2.21.51-.61.34-1.12.79-1.51 1.35-.39.56-.68 1.22-.86 1.97-.18.75-.27 1.53-.27 2.35 0 1.03.11 1.93.34 2.7.23.77.55 1.42.97 1.93s.93.9 1.53 1.16c.6.26 1.27.39 2.02.39.86 0 1.6-.17 2.21-.51.61-.34 1.12-.79 1.51-1.35.39-.56.68-1.22.86-1.97.18-.73.27-1.52.27-2.35zM533.88 416.19h2.57l.12 2.69c.49-.57.96-1.05 1.41-1.44.45-.38.9-.69 1.34-.92.44-.23.88-.4 1.34-.49.45-.09.92-.14 1.41-.14 1.71 0 3.01.51 3.89 1.52.88 1.01 1.32 2.54 1.32 4.57v10.87h-2.89v-10.63c0-1.31-.24-2.27-.73-2.89-.49-.63-1.21-.94-2.17-.94-.35 0-.7.05-1.04.16-.34.11-.69.29-1.05.55-.36.26-.76.61-1.19 1.05s-.9 1-1.43 1.66v11.05h-2.89v-16.67zM565.75 428.3c0 .59-.1 1.11-.3 1.58-.2.47-.47.88-.81 1.24-.34.36-.74.67-1.19.92-.45.26-.94.47-1.45.63-.51.17-1.04.29-1.58.37-.54.08-1.07.12-1.59.12-1.13 0-2.17-.05-3.11-.15-.95-.1-1.87-.26-2.78-.48v-2.65c.97.28 1.94.49 2.9.63s1.92.22 2.87.22c1.38 0 2.41-.19 3.07-.56.66-.38 1-.91 1-1.61 0-.3-.05-.57-.16-.8-.11-.24-.3-.47-.57-.68-.28-.21-.7-.44-1.29-.67-.58-.23-1.37-.5-2.38-.8-.75-.22-1.45-.47-2.08-.76-.64-.28-1.19-.62-1.65-1s-.83-.84-1.09-1.36c-.27-.52-.4-1.13-.4-1.84 0-.47.11-.97.32-1.53.22-.55.58-1.07 1.1-1.54.52-.48 1.22-.87 2.11-1.19.88-.32 1.99-.47 3.32-.47.65 0 1.38.04 2.17.11.8.07 1.63.2 2.49.37v2.57c-.91-.22-1.77-.38-2.58-.49-.81-.11-1.52-.16-2.11-.16-.72 0-1.32.06-1.82.17-.49.11-.89.26-1.19.46-.3.19-.52.42-.66.68-.13.26-.2.54-.2.84 0 .3.06.57.17.81.12.24.33.48.65.7.32.23.75.45 1.32.68.56.23 1.3.47 2.21.74.98.29 1.81.59 2.49.9.67.32 1.22.67 1.64 1.05.42.39.72.82.9 1.31s.26 1.02.26 1.64zM577.93 415.89c.34 0 .67.07.98.21.31.14.58.32.81.56.23.23.42.5.56.81.14.31.21.64.21.98 0 .35-.07.68-.21.99-.14.3-.32.57-.56.8-.23.23-.5.42-.81.55-.31.13-.64.2-.98.2-.35 0-.68-.07-.99-.2-.3-.13-.57-.32-.81-.55-.23-.23-.41-.5-.55-.8-.13-.3-.2-.63-.2-.99 0-.34.07-.67.2-.98.13-.31.32-.58.55-.81.23-.23.5-.42.81-.56.31-.14.64-.21.99-.21zm0 12.16c.34 0 .67.07.98.21.31.14.58.32.81.56.23.23.42.5.56.81.14.31.21.64.21.98 0 .35-.07.68-.21.99-.14.3-.32.57-.56.81-.23.23-.5.41-.81.55-.31.13-.64.2-.98.2-.35 0-.68-.07-.99-.2-.3-.13-.57-.32-.81-.55-.23-.23-.41-.5-.55-.81-.13-.3-.2-.63-.2-.99 0-.34.07-.67.2-.98.13-.31.32-.58.55-.81.23-.23.5-.42.81-.56.31-.14.64-.21.99-.21z"/><path class="st9" d="M622.49 432.84h-13.62v-2.69h5.57v-15.83l-5.19 2.82-1.06-2.46 6.9-3.63h2.56v19.09h4.84v2.7z"/></svg>