<svg xmlns="http://www.w3.org/2000/svg" viewBox="0 0 720 790"><style>.st0{fill:#f0f2f4}.st1{fill:#0b84ec}.st2{fill:#fff}.st3{fill:#bff8e6}.st5{fill:#24e6aa}.st6{fill:#214075}</style><path class="st0" d="M573.6 472.5c0 11.8-9.5 21.3-21.3 21.3s-21.3-9.5-21.3-21.3 9.5-21.3 21.3-21.3 21.3 9.5 21.3 21.3zM154.5 461.6c0 18.3-14.9 33.2-33.2 33.2s-33.2-14.9-33.2-33.2c0-18.3 14.9-33.2 33.2-33.2s33.2 14.9 33.2 33.2z"/><path class="st0" d="M206.2 510.6c0 24.5-19.9 44.4-44.4 44.4s-44.4-19.9-44.4-44.4 19.9-44.4 44.4-44.4 44.4 19.9 44.4 44.4zM261.4 165.2c0 8.7-7.1 15.8-15.8 15.8s-15.8-7.1-15.8-15.8 7.1-15.8 15.8-15.8c8.8 0 15.8 7.1 15.8 15.8zM214.7 165c0 5.5-4.4 9.9-9.9 9.9s-9.9-4.4-9.9-9.9 4.4-9.9 9.9-9.9 9.9 4.4 9.9 9.9zM199.3 406.2c0 10.1-8.2 18.3-18.3 18.3s-18.3-8.2-18.3-18.3c0-10.1 8.2-18.3 18.3-18.3 10.1 0 18.3 8.2 18.3 18.3zM563.1 244.5c0 17-13.8 30.7-30.7 30.7-17 0-30.7-13.8-30.7-30.7 0-17 13.8-30.7 30.7-30.7s30.7 13.7 30.7 30.7zM598.1 407.8c0 7.6-6.2 13.8-13.8 13.8s-13.8-6.2-13.8-13.8c0-7.6 6.2-13.8 13.8-13.8 7.6.1 13.8 6.2 13.8 13.8zM500 278.1c0 5.2-4.2 9.5-9.5 9.5-5.2 0-9.5-4.2-9.5-9.5 0-5.2 4.2-9.5 9.5-9.5s9.5 4.3 9.5 9.5z"/><path class="st0" d="M359.8 14.3c-32.2 0-63.4 4.5-93 12.8 5.7-.3 11.5-.4 17.2-.4 186.7 0 338.1 151.4 338.1 338.1 0 109.7-52.3 207.2-133.2 269 .8 2 1.3 4.1 1.6 6.2 7.4-6.8 17.2-11 28-11 11 0 21.1 4.3 28.5 11.4-.1-1.4-.2-2.8-.2-4.3 0-36.3 29.5-65.8 65.8-65.8 4.3 0 8.5.4 12.6 1.2 47.7-58.8 76.4-133.7 76.4-215.4.1-188.7-153-341.8-341.8-341.8zM400.6 551.2c0 5.5-4.4 9.9-9.9 9.9h-58.1c-5.5 0-9.9-4.4-9.9-9.9s4.4-9.9 9.9-9.9h58.1c5.4 0 9.9 4.5 9.9 9.9zM323.8 578.3c0 4.5-3.6 8.1-8.1 8.1h-47.4c-4.5 0-8.1-3.6-8.1-8.1s3.6-8.1 8.1-8.1h47.4c4.5.1 8.1 3.7 8.1 8.1zM461.9 578.3c0 4.5-3.6 8.1-8.1 8.1h-47.4c-4.5 0-8.1-3.6-8.1-8.1s3.6-8.1 8.1-8.1h47.4c4.5.1 8.1 3.7 8.1 8.1z"/><path class="st1" d="M305.4 557.7v-16.3h-26.9v16.3c-2.8 2.3-4.7 5.3-5.4 8.6-.1.5 0 4.2 0 4.2h37.8v-4c-.5-3.6-2.6-6.4-5.5-8.8zM443.2 557.7v-16.3h-26.9v16.3c-2.8 2.3-4.7 5.3-5.4 8.6-.1.5 0 4.2 0 4.2h37.8v-4c-.5-3.6-2.5-6.4-5.5-8.8z"/><path class="st0" d="M288 253.2c-12.4 0-25 32-25 58.3v221.7l11.4 12.1H313V311.8c-.1-28.7-13.8-58.6-25-58.6z"/><path class="st2" d="M298.3 261.8c-5.3-3.7-28.1 18.4-27.4 50.2-9 5-7.8-7.8-6.9-16.2.9-8.4 16.9-58.6 34.3-34z"/><path class="st0" d="M433.9 253.2c12.4 0 25 32 25 58.3v221.7l-12 12.1H409V311.8c-.1-28.7 13.7-58.6 24.9-58.6z"/><path class="st2" d="M423.9 261.8c5.3-3.7 28.1 18.4 27.4 50.2 9 5 7.8-7.8 6.9-16.2-.9-8.4-16.8-58.6-34.3-34z"/><path class="st3" d="M246.9 323.1s.6-13.6 10.4-20.1c5.7-3.8 16.9-3.2 16.9-3.2v81.1h-27.3v-57.8zM475 323.1s-.6-13.6-10.4-20.1c-5.7-3.8-16.9-3.2-16.9-3.2v81.1H475v-57.8z"/><path d="M360.9 88c-26.5 0-48 58-48 94.3v341.3h96V182.3c0-33.7-21.5-94.3-48-94.3z" fill="#fafafa"/><path class="st2" d="M387.8 111.5c-11.2-15.3-24-15-35.9 2.2-9.5 13.7-21.2 45.2-21.2 81.1v46.1c-6.2 2.5-14.7 14.7-16.5 26.5-.6-22.1-.6-57.1-.6-79.5 0-22.5 13-99.9 47.3-99.9 16 0 20.7 12 26.9 23.5z"/><path class="st0" d="M408.9 340.7V189.1c0-9.3-2.3-21.4-6.2-32.7-15.7-21-34.7-9.4-34.7 36.5v329.5h40.9V340.7z"/><path class="st1" d="M382.1 521.8v-26.2h-43.2v26.2c-4.5 3.7-7.6 8.5-8.6 13.8-.1.7-.1 6.8-.1 6.8H391s.1-6 0-6.4c-.7-5.7-4.1-10.3-8.9-14.2zM330.1 353.4s-65.5 80.5-74.4 90.5c-5.6 6.4-6.9 10.5-6.9 18.5v16.9c0 6.3 3.3 9.3 10.4 10.4 9.2 1.4 76.7 9.3 76.7 9.3l-5.8-145.7v.1zm136.4 90.5c-8.8-9.9-74.4-90.5-74.4-90.5h-.1l-5.8 145.7s67.6-7.9 76.7-9.3c7-1.1 10.4-4.1 10.4-10.4v-16.9c.1-8.1-1.1-12.2-6.8-18.6z"/><path class="st5" d="M327 358.7l.8 24.7-60 77.5-.2 29.6s-19.7 1.8-20.2-14.2 2.1-26.6 9.3-34.5c7.1-7.8 70.3-83.1 70.3-83.1zM394.6 358.7l-.8 29.9 60 72.3.2 29.6s19.7 1.8 20.2-14.2-2.1-26.6-9.3-34.5c-7.1-7.8-70.3-83.1-70.3-83.1z"/><path class="st3" d="M373.5 240.5c10 16.5 21.1 50 21.1 80.7v182.1h-67.3v-180c0-31.6 9.9-65.4 20.6-82 6.8-10.7 19-11.7 25.6-.8z"/><path class="st2" d="M371 239.9c-2.1-1.5-9.8-1.4-18.3 13.2-8 13.9-20.1 39.5-23 79.6-5.1-38 7.8-68.5 11-76.4 6.1-15.6 18.9-36 30.3-16.4z"/><path class="st6" d="M584.6 688c-22.6 0-43.2 12.5-53.8 32.3-7.3-6.5-16.9-10.1-26.7-10.1-19 0-35.4 13.4-39.4 31.6-2.5-.6-5-.8-7.6-.8-19.3 0-35 15.7-35 35h6.2c0-15.9 12.9-28.8 28.8-28.8 3.1 0 6.1.5 9.1 1.5l3.6 1.2.5-3.7c2.2-16.9 16.8-29.7 33.9-29.7 9.6 0 18.9 4.1 25.3 11.2l3.2 3.5 1.9-4.4c8.8-19.8 28.4-32.6 50-32.6 16.4 0 31.7 7.2 42.2 19.8l.9 1.1h66.8V709h-63.9c-11.6-13.4-28.3-21-46-21zM282.1 751.7c-3.7 0-7.3.7-10.7 2.1-8.1-16.3-24.7-26.7-43.1-26.7-1.3 0-2.6.1-4 .2-10-19.4-30.2-31.7-52.1-31.7-18.8 0-36.3 9-47.4 24.1H88v6.2h38.6v-2.4l2.1 1.4c9.8-14.5 26-23.1 43.5-23.1 20.2 0 38.9 11.8 47.5 30.2l1 2.1 2.2-.3c1.9-.2 3.7-.4 5.4-.4 17 0 32.2 10.1 38.7 25.8l1.3 3.2 3-1.7c3.3-1.8 7-2.8 10.7-2.8 12.1 0 22 9.9 22 22h6.2c.1-15.6-12.6-28.2-28.1-28.2zM559.8 446.4v6.2h117v-6.2h-64.5zM77.1 481.9v6.3h24.1v-6.3h-6.1zM562.9 108.9h22.3v6.2h-22.3zM-7.9 217.6h27.1v6.2H-7.9zM342.1 296.9c-.9 1.4-.5 3.4.9 4.3s3.4.5 4.3-.9c3.8-5.8 8.7-9 13.7-9 1.8 0 3.5.4 5.2 1.2.6.3 1.2.6 1.9 1 2.4 1.5 4.6 3.8 6.5 6.8.6.9 1.6 1.4 2.6 1.4.6 0 1.1-.2 1.7-.5 1.5-.9 1.9-2.8 1-4.3-3.2-5-7.3-8.6-11.8-10.4-.4-.2-.9-.3-1.3-.5-1.8-.6-3.7-.9-5.7-.9-7.4 0-14.1 4.1-19 11.8zM450 660.8c5.3-.7 10.6.7 14.9 4l3.8-4.9c-11.5-8.8-28.1-6.7-37 4.9-4 5.2-5.9 11.8-5.3 18.3l6.2-.5c-.4-5 1-10 4.1-14 3.2-4.3 8-7.1 13.3-7.8zM343.3 703.7c-4.5-.6-10.8-.8-17.2 1.4-.3-.6-.5-1.2-.8-1.8-9.4-19.1-32.6-27-51.8-17.6-8.4 4.2-15 11.2-18.6 19.9l5.7 2.4c3-7.3 8.6-13.2 15.6-16.7 16-7.9 35.5-1.3 43.4 14.7.6 1.3 1.5 3.5 1.7 4.1l1.1 3.3 3.1-1.5c5.9-2.8 12.4-2.7 16.8-2.1 11.3 1.5 19.3 12 17.8 23.3l6.2.8c.9-7.1-.9-14.2-5.3-19.9-4.3-5.7-10.6-9.4-17.7-10.3z"/><path class="st6" d="M726.7 637.6c-8.4-16.7-25.6-27.3-44.4-27.3-1.9 0-3.7.1-5.6.3-7.4-19.8-23.4-34.8-43.3-41 27.6-35 47.7-74.5 59.6-116.9h40.4v-6.2h-38.7c7.5-28.6 11.3-58.5 11.3-89.2 0-37.4-5.9-73.9-17.3-108.5h23.6v-6.2h-25.7c-16.6-47.3-43.6-90.7-79.7-127.4h59.3V109h-65.6c-64.7-62.5-149.5-96.9-239.7-96.9-92.2 0-178.9 35.9-244.1 101.1-13.1 13.1-24.9 27-35.6 41.7h-.4v.6c-42.3 58.4-65.1 128.3-65.1 201.8 0 43.7 7.7 85.7 22.6 124.7H-81.8v6.2H40.8c12 29.4 28.1 57 48.2 82.3-14.5 7.8-26.2 20.4-32.6 36.1-1.5-.1-3-.2-4.4-.2-18.8 0-35.9 9.9-45.2 26.1-3-.7-6.1-1-9.2-1-22.8 0-41.6 17.7-43.2 40.2h-78.6v6.2h84.7v-3.1c0-20.4 16.6-37 37-37 3.3 0 6.7.5 9.9 1.4l2.4.7 1.2-2.2c7.9-15.4 23.6-24.9 40.8-24.9 2 0 4 .1 6.1.4l2.5.3.9-2.3c9.6-25.7 34.4-42.9 61.8-42.9 26.7 0 50.5 15.9 60.9 40.5l.8 2 2.2-.1c1 0 1.9-.1 2.9-.1 25.5 0 47.5 17.3 53.4 42.1l6.1-1.4c-1.6-6.7-4.2-12.9-7.7-18.5 1.7-2.3 3.8-4.4 6.1-6 4.1-2.8 8.9-4.2 13.8-4.2 13.6 0 24.6 11.1 24.6 24.6 0 1.9-.2 3.9-.7 5.7l6 1.4c.6-2.3.8-4.7.8-7.2 0-10.8-5.6-20.3-14-25.8v-31.6h27.9v41.2c-4.8 10-5.2 22 0 32.7l5.6-2.7c-7.5-15.4-1.1-34.1 14.3-41.6 6.5-3.2 13.9-4 20.9-2.3l1.4-6c-2.8-.7-5.6-1-8.4-1v-45.5h40v55.6h6.2v-12.5c11.4 1 20.6 9.7 22.3 20.9h-1.3c-10.9 0-20.6 5.5-26 14.3-1.2-.5-2.5-1-3.8-1.3-5.8-1.3-11.7-.3-16.8 2.8-5 3.1-8.5 8-9.9 13.8l6.1 1.4c1-4.2 3.5-7.7 7.1-9.9 3.6-2.3 7.9-3 12.1-2s7.7 3.5 9.9 7.1c2.3 3.6 3 7.9 2 12.1l6.1 1.4c1.3-5.8.3-11.7-2.8-16.8-1.3-2.1-2.9-3.9-4.7-5.4 4.3-7 12-11.4 20.7-11.4 4.5 0 8.8 1.2 12.6 3.5l3.2-5.3c-2.3-1.3-4.7-2.4-7.2-3.1v-39.8h27.9v28.6c-4.5 3.5-8 8.2-10 13.6l5.8 2.2c1.8-4.8 5-8.9 9.3-11.8 4.1-2.8 8.9-4.2 13.8-4.2 13.6 0 24.6 11.1 24.6 24.6 0 1.9-.2 3.9-.7 5.7l6 1.4c.6-2.3.8-4.7.8-7.2v-1.1c6.9-5.7 15.6-8.9 24.6-8.9 21.2 0 38.5 17.3 38.5 38.5 0 1.7-.1 3.5-.4 5.2l6.2.8c.3-2 .4-4 .4-6.1 0-11.5-4.4-22-11.5-29.9-.3-2.3-.3-4.1-.3-6.5 0-34.1 27.8-61.9 61.9-61.9 30.6 0 56.3 21.9 61.1 52.1l6.1-1c-.4-2.5-.9-4.8-1.6-7.2 1.2-.1 2.4-.2 3.6-.2 17 0 32.5 10 39.6 25.5l.8 1.8H833v-6.2l-106.3-.1zm-537.8-33.5c-11.7-25.8-37.3-42.3-65.7-42.3-9.9 0-19.6 2.1-28.4 5.9-19.6-24.4-35.4-51.1-47.2-79.5H66V482H45c-15.2-39-23-81-23-124.8 0-47.4 9.8-92.5 27.4-133.4h56.1v-6.2H52.1c9.1-19.9 20-38.8 32.5-56.5h55l.8-1.8c3.4-7.6 11-12.5 19.3-12.5-.2.7-.3 1.4-.4 2.1l6.1 1c2.4-15.1 15.2-26 30.5-26 17 0 30.9 13.9 30.9 30.9 0 1.4 0 2.4-.2 3.8l-.5 3.5h34.3v-6.2H233v-.3-.8c0-20.5-16.6-37.1-37.1-37.1-15.4 0-28.7 9.3-34.3 23-.6 0-1.3-.1-1.9-.1-10.1 0-19.3 5.5-24.1 14.3H89.2c47.5-63.6 116.7-110 196.6-128.1 24.2-5.5 49.3-8.4 75.2-8.4 146.7 0 271.8 93.6 318.9 224.3h-9.3v6.2H682c11.5 34.1 17.8 70.5 17.8 108.5 0 78.4-25.2 151.2-72.9 210.7-4.5-.9-9.1-1.4-13.9-1.4-37.6 0-68.1 30.6-68.1 68.1v.5c-7.5-5.6-16.7-8.9-26.7-8.9-9.2 0-18.2 2.8-25.6 8.1-.2-.9-.5-1.8-.9-2.7-4.4-11.7-15.7-20.1-28.9-20.1-4.4 0-8.7 1-12.7 2.8v-24.8h3.7c6.2 0 11.2-5 11.2-11.2s-5-11.2-11.2-11.2h-2v-1.1c-.5-3.7-2.3-6.9-5.5-9.8v-7.9h1.9l13.8-14v-41.3c.6-.1 1.1-.2 1.5-.2 8.7-1.4 13-5.8 13-13.5v-16.9c0-9.2-1.8-14-7.6-20.6-1.2-1.4-3.6-4.3-6.8-8.1V384h16.1v-61c0-.6-.8-15.3-11.8-22.6-1.5-1-3.4-1.8-5.3-2.3-3.2-24.1-14.4-48-27.2-48-8.1 0-16.4 11.1-21.9 26.3v-94c0-33.3-21.6-97.4-51.1-97.4-13.3 0-26.4 12.6-36.8 35.3-8.8 19.4-14.3 43.2-14.3 62.1v94c-5.5-15.2-13.8-26.3-21.9-26.3-12.7 0-24 24-27.2 48-1.9.6-3.7 1.3-5.2 2.3-10.9 7.3-11.7 21.9-11.8 22.7V384h16.1v50.3c-3 3.6-5.2 6.3-6.4 7.6-5.9 6.6-7.6 11.4-7.6 20.6v16.9c0 7.7 4.2 12.1 13 13.5.3 0 .7.1 1.1.2v41.3l13.1 14h2.4v7.9c-2.8 2.7-4.6 5.9-5.3 9.4 0 .2-.1.4-.1 1.5h-1.7c-6.2 0-11.2 5-11.2 11.2s5 11.2 11.2 11.2h4V618c-3.3-1.2-6.9-1.9-10.6-1.9-6.2 0-12.2 1.8-17.3 5.3-2.4 1.6-4.5 3.6-6.4 5.8-11.3-14.3-28.7-23.1-47.9-23.1h-1.2zm220.9 10.3c-5.2-7.6-13.7-12.7-23.4-13.4v-36.8h4.3c7.2 0 13-5.8 13-13 0-6-4-11-9.5-12.5 0-2.7 0-3-.1-3.1-.4-3.2-1.6-6.1-3.4-8.9h15.1v21.7h7.4v7.9c-2.8 2.7-4.6 5.9-5.3 9.4 0 .2-.1.4-.1 1.4h-1.4c-6.2 0-11.2 5-11.2 11.2s5 11.2 11.2 11.2h3.4v24.9zm-75.8-4.1c-3.6.6-7.1 1.7-10.5 3.3-4.2 2.1-7.9 4.9-10.9 8.1v-32.1h3.1c6.2 0 11.2-5 11.2-11.2s-5-11.2-11.2-11.2H314v-1.1c-.5-3.7-2.3-6.9-5.5-9.8v-7.9h7.6v-21.7h14.5c-1.6 2.6-2.7 5.4-3.3 8.4 0 .2-.1.8-.1 4.4-4.5 2.1-7.6 6.6-7.6 11.8 0 7.2 5.8 13 13 13h1.4v46zm-84-284.9h21v52.4h-21v-52.4zm38-69.1c2.2 0 4.8 2 7.4 5.3 4.1 5.3 8.2 14 11 24.5 1.5 5.6 2.6 11.6 3.1 17.9h-32.2v-7.1l-2.9-.2H272.5c-1.4 0-3.2.1-5.1.3 3.2-21.6 13.2-40.7 20.6-40.7zm72.9-165.2c6.8 0 13.5 5 19.6 12.8 9.8 12.7 17.9 33 22.1 52.2 1.9 8.5 3 16.7 3.1 24.1H316c.9-34.5 21.5-89.1 44.9-89.1zm65.6 170.4c2.6-3.3 5.2-5.3 7.4-5.3 7.4 0 17.3 19.1 20.7 40.6-1.8-.2-3.5-.2-4.8-.3h-2.2l-2.9.2v7.2h-32.3c.5-5.6 1.4-11 2.6-16 2.8-11.3 7.2-20.8 11.5-26.4zm43.8 217.8c0 4-1.2 6.3-7.7 7.4-.2 0-.4.1-.5.1-.8.1-1.8.3-3.1.4-.5.1-1 .1-1.5.2v-21.3c0-3.6-.4-6.1-1.6-8.5-.8-1.7-1.9-3.2-3.5-5s-7.6-9-15.1-18.1c-1.6-2-3.3-4-5-6.1-6.8-8.3-14-17-20.2-24.4-.3-.4-.6-.8-1-1.2-.7-.9-1.5-1.7-2.1-2.6-1.1-1.3-2.1-2.5-3.1-3.7-3.8-4.5-6.7-8-8.1-9.5v-22c2.3 2.9 5.1 6.3 8.1 10 1 1.2 2 2.5 3.1 3.8.7.9 1.4 1.7 2.1 2.6.3.4.6.8 1 1.2 7.9 9.7 16.9 20.7 25.2 30.9 7 8.6 13.5 16.5 18.5 22.5 1.1 1.3 2.2 2.6 3.1 3.7 1.2 1.4 2.2 2.7 3.1 3.7.9 1.1 1.7 1.9 2.2 2.5 5.2 5.9 6.1 9.3 6.1 16.5v16.9zm-29.1 80.8c2.6 2.1 4 4.3 4.4 6.7v.5H414v-.2-.4c.5-2.5 2-4.8 4.2-6.6l1.1-.9v-10.8h20.6v10.8l1.3.9zm-3.9-18H412v-43c8.1-1 17-2 25.2-3 7.1-.9 13.6-1.7 18.5-2.3v37.9l-9.5 9.6-.7.7h-2.4l-5.8.1zm-49.3-3.9v1.1h-54.6v-1.1-2c.7-3.5 2.3-6.7 4.9-9.5.8-.9 1.7-1.7 2.6-2.5l.8-.6.4-.3v-16.9h37v17l.4.3.8.6c1 .8 1.9 1.6 2.7 2.5 2.9 3 4.6 6.2 5.1 9.7-.1.1-.1.8-.1 1.7zm-71.9-136.4c3.1-3.9 5.9-7.4 8.1-10.2v102.9c-2.5-.3-5.2-.6-8.1-1-1-.1-2.1-.2-3.1-.4-.2 0-.5-.1-.7-.1l-2.4-.3c-7.7-.9-16.1-1.9-23.8-2.9-5.7-.7-10.9-1.3-15.3-1.9v-23.5c0-4.4.5-6.4 3.5-10 1.4-1.7 5.9-7.4 11.8-14.8 2.6-3.3 5.4-6.9 8.4-10.7 2.1-2.6 4.2-5.3 6.3-8 3-3.9 6.1-7.8 9.1-11.5l2.4-3c.2-.3.5-.6.7-.9 1-1.1 2-2.4 3.1-3.7zm-38.8-91.6h32.5v29.3h-32.5v-29.3zm167.4 0v29.3H412v-27.8-1.5h32.7zm-83.3-74.3c2.4 0 4.7 1 6.7 2.8.2.2.5.4.7.7.8.8 1.5 1.7 2.1 2.8 3.1 5.1 6.2 11.8 9.1 19.5 6.4 17.2 11.5 39.4 11.5 59.5V500.1h-61.1V323.2c0-32.3 10.1-64.8 20.1-80.3 2.9-4.4 6.8-7 10.9-7zm89.7 252.3c-4 .5-8.8 1.1-13.9 1.7-8.1 1-17.1 2.1-25.2 3-.3 0-.6.1-1 .1l-2.1.3c-1.1.1-2.1.2-3.1.4-2.9.3-5.7.7-8.1 1v-98c2.2 2.6 5 6 8.1 9.7 1 1.2 2 2.5 3.1 3.7.7.8 1.4 1.7 2.1 2.6.3.4.6.8 1 1.2 5 6.1 10.4 12.6 15.4 18.6 3.5 4.3 6.9 8.3 9.8 11.9 5.2 6.3 9.1 11 10.4 12.4 3 3.4 3.5 5.2 3.5 9.4v22zm-65.7 32.2l-.1-.1v-14h12.4v-5.4c2.4-.3 5.2-.6 8.1-1v20.5h-20.4zm-69.3-20.5c2.9.3 5.7.7 8.1 1v5.5h11.6v14l-.1.1H316v-20.6h.1zm139.7-73.6c-5.4-6.5-11.8-14.4-18.5-22.5-8.7-10.6-17.7-21.7-25.2-30.9v-27.2h32.6V384h11.1v42.3zm-4.9-48.5v-52.4h21v52.4h-21zm11.1-58.7H450.9V302.9c1.6 0 3.1.2 4.5.4 1.1.2 2.2.4 3.2.6.1 0 .2 0 .3.1 1.1.3 2.1.6 3 1 .4.2.8.4 1.1.6 5.2 3.5 7.4 9.5 8.3 13.6H462v-.1zM316.1 186.5h89.7v16.8H316v-16.8h.1zm0 73.9v-50.9h89.7v155.8c-3.4-4.1-6.2-7.6-8.1-10v-34.1c0-30.6-10.8-64.5-21.5-82.3-2.1-3.5-4.9-6.1-8.1-7.6-2.1-1-4.3-1.5-6.7-1.5-6.2 0-12.1 3.6-16.1 9.9-10.5 16.2-21.1 50.2-21.1 83.7v32.5c-2 2.5-4.8 5.9-8.1 10V260.4zm-52.7 43.4c1-.2 2-.4 3.1-.6 1.4-.2 3-.3 4.6-.4v16.3h-20.4c.9-4 3.1-10.1 8.3-13.6.3-.2.7-.4 1.1-.6.9-.4 2-.7 3.3-1.1-.1.1 0 0 0 0zm2.7 80.2h11.2v-38.3h32.5v27.7c-7.1 8.8-15.6 19.1-23.8 29.1-7.2 8.8-14.2 17.3-19.9 24.2V384zM252 479.3v-16.9c0-7.2.9-10.6 6.1-16.5.5-.5 1.1-1.2 1.8-2.1.9-1 1.9-2.3 3.1-3.7.9-1.1 2-2.4 3.1-3.7 5.3-6.3 12.3-14.9 19.9-24.2 7.9-9.6 16.3-19.9 23.8-29.1.8-1 1.6-2 2.4-2.9.2-.3.5-.6.7-.9 1.1-1.3 2.1-2.6 3.1-3.8 3-3.7 5.8-7.1 8.1-10v16.3c-1.3 1.5-4.3 5.1-8.1 9.9-1 1.2-2 2.5-3.1 3.9-.2.3-.5.6-.7.9l-2.4 3c-6.2 7.8-13.4 17-20.3 25.7-1.2 1.5-2.4 3-3.5 4.5-8.2 10.4-14.8 18.8-16.6 20.8-1.5 1.8-2.6 3.3-3.3 5-1.2 2.5-1.6 5.2-1.6 9v22.7c-.5-.1-1-.1-1.5-.2-1.3-.2-2.4-.3-3.1-.4h-.1c-6.6-.9-7.8-3.3-7.8-7.3zm14.1 14.5c5.2.7 12.2 1.5 19.9 2.5 7.8.9 16.2 1.9 23.8 2.9v43H275.7l-.3-.3-9.3-9.9v-38.2zm14.4 66.3l1.1-.9v-10.8h20.6v10.8l1.1.9c2.6 2.1 4 4.3 4.4 6.7v.5h-31.6v-.2-.4c.6-2.5 2.1-4.8 4.4-6.6zM270 573.4v.2h44v-.2h1.7c2.7 0 5 2.2 5 5 0 2.7-2.2 5-5 5H268.3c-2.7 0-5-2.2-5-5 0-2.7 2.2-5 5-5h1.7zm55.8-22.2c0-2.4 1.3-4.5 3.1-5.7h65.2v-.1c2 1.2 3.3 3.3 3.3 5.8 0 3.8-3.1 6.8-6.8 6.8h-58c-3.8 0-6.8-3-6.8-6.8zm75.6 27.1c0-2.7 2.2-5 5-5h1.5v.2h43.9v-.2h2c2.7 0 5 2.2 5 5 0 2.7-2.2 5-5 5h-47.4c-2.7 0-5-2.2-5-5z"/><path class="st6" d="M623.6 322.5l15.4-15.4-15.4-15.4-7.8 7.8-7.6 7.6 10.7 10.7 4.7 4.7zm-6.6-15.4l.2-.2 6.4-6.4 6.6 6.6-6.6 6.6-6.3-6.3-.3-.3zM111.3 370.6l15.4 15.4 15.4-15.4-15.4-15.4-15.4 15.4zm15.4 6.6l-6.6-6.6 6.6-6.6 6.6 6.6-6.6 6.6zM55.7 558.8l-22.2-22.2-22.2 22.2L33.4 581l22.3-22.2zm-22.3-13.5l13.4 13.4-13.4 13.4L20 558.8l13.4-13.5zM162.6 479c-7.3 0-13.2 5.9-13.2 13.2 0 7.3 5.9 13.2 13.2 13.2s13.2-5.9 13.2-13.2-5.9-13.2-13.2-13.2zm0 20.2c-3.8 0-7-3.1-7-7 0-3.8 3.1-7 7-7s7 3.1 7 7c0 3.8-3.1 7-7 7zM545.9 346c-7.3 0-13.2 5.9-13.2 13.2 0 7.3 5.9 13.2 13.2 13.2s13.2-5.9 13.2-13.2c0-7.2-6-13.2-13.2-13.2zm0 20.2c-3.8 0-7-3.1-7-7s3.1-7 7-7c3.8 0 7 3.1 7 7s-3.2 7-7 7zM464 170.3c7.3 0 13.2-5.9 13.2-13.2s-5.9-13.2-13.2-13.2c-7.3 0-13.2 5.9-13.2 13.2 0 7.3 5.9 13.2 13.2 13.2zm0-20.1c3.8 0 7 3.1 7 7 0 3.8-3.1 7-7 7-3.8 0-7-3.1-7-7s3.2-7 7-7zM524.7 247.3c-1-7.3 2.4-14.4 8.6-18.3 5-3 10.8-3.7 15.9-1.8l.9.3 3.1-.9.5-1.7c.2-.7.4-1.3.7-2 3.4-8.9 11.9-14.8 21.9-14.8 3 0 5.8.6 8.4 1.6 8.9 3.4 15.2 12 15.2 22v3.1h5.6c5.9 0 10.7 4.8 10.7 10.7v3.1H655v-6.2h-33c-1.4-7.7-8.1-13.5-16.1-13.8-1.4-13.5-11.9-24.4-25.3-26.4-1.4-.2-2.9-.4-4.4-.4-11.9 0-22.2 6.6-26.9 16.8-.3.5-.5 1.1-.7 1.7-6.2-1.5-12.8-.3-18.6 3.2-8.4 5.1-12.9 14.7-11.5 24.4l6.2-.6z"/></svg>