<svg id="Layer_1" xmlns="http://www.w3.org/2000/svg" viewBox="0 0 850 556"><style>.st0{fill:#d387ff}.st1{fill:#24e6aa}.st2{fill:#bff8e6}.st3{fill:#f0f2f4}.st4{fill:#0271e5}</style><path class="st0" d="M471.63 54.3h31.47v10.91h-31.47z"/><path class="st1" d="M642.56 474.33c0 3.18-2.57 5.75-5.75 5.75s-5.75-2.57-5.75-5.75 2.57-5.75 5.75-5.75 5.75 2.58 5.75 5.75z"/><ellipse transform="rotate(-45 673.741304 408.466452)" class="st1" cx="673.74" cy="408.46" rx="5.75" ry="5.75"/><path class="st1" d="M568.82 333.42h39.45v18.33h-39.45z"/><path class="st0" d="M390.57 90.97h10.91v10.91h-10.91z"/><path class="st1" d="M412.33 130.38h10.91v10.91h-10.91z"/><path class="st2" d="M471.63 167.65h31.47v10.91h-31.47z"/><path class="st3" d="M187.27 439.94c-.01-.03-.03-.05-.04-.08-.26-.59-.54-1.18-.82-1.76-.14-.3-.3-.59-.45-.89-.15-.29-.3-.59-.45-.88-.21-.4-.42-.79-.64-1.18-.09-.17-.19-.34-.28-.51-.27-.47-.54-.93-.82-1.39-.04-.07-.09-.15-.13-.22-1.33-2.17-2.8-4.26-4.41-6.25-.01-.01-.02-.03-.03-.05-3.82-4.73-8.32-8.81-13.33-12.13-.24-.16-.48-.32-.73-.47-9.3-5.97-20.28-9.33-31.78-9.33-1.51 0-3 .07-4.48.18 16.37 15.36 26.6 37.19 26.6 61.41 0 1.7-.06 3.39-.16 5.07h4.87c1.5-15.28 12.8-27.68 27.53-30.84-.16-.19-.33-.42-.45-.68zM203.97 442.23c-.01 0-.01 0-.02-.01-.43-.12-.86-.23-1.29-.33-.24-.06-.48-.11-.72-.16-.33-.07-.67-.15-1.01-.21-.58-.11-1.17-.2-1.75-.28-.16-.02-.33-.04-.5-.06 6.8 8.3 11.03 18.81 11.43 30.28h19.25c-.09-.19-.16-.4-.19-.61-2-13.86-12.2-24.94-25.2-28.62zM726.37 465.44c-1.19 0-2.36.04-3.54.11 17.88 6.05 29.88 32.5 29.52 55.34h20.14c.31-4.35 2.24-11.43 10.27-18.54-9.8-22.43-31.91-36.91-56.39-36.91zM797.19 503.68c2.58 5.29 2.9 11.98 3.31 17.21h14.09l-.06-.15c-2.64-8.68-9.28-15.03-17.34-17.06z"/><path class="st2" d="M635.37 263.05c1.26 0 2.28 1.02 2.28 2.28v51.04h50.72c1.26 0 2.28 1.02 2.28 2.28v47.84c0 1.26-1.02 2.28-2.28 2.28h-50.72v13.47h50.72c1.26 0 2.28 1.02 2.28 2.28v21.23l5.59-.21c-.01-.07-.02-.15-.02-.22 0-1.26 1.02-2.28 2.28-2.28h1.83c1.78-6.02 7.47-10.33 13.91-10.18 3.77-7.07 11.16-11.55 19.26-11.55 5.74 0 11.1 2.18 15.19 6.16 8.75.35 15.9 7.03 16.98 15.57h21.55c1.26 0 2.28 1.02 2.28 2.28 0 .04-.01.07-.01.11 1.11.02 2.23.04 3.35.06 0-.05-.02-.11-.02-.16 0-1.26 1.02-2.28 2.28-2.28h17c1.26 0 2.28 1.02 2.28 2.28 0 .21-.04.41-.09.61.91.02 1.77.04 2.58.06-20.48-64.08-56.77-121.09-104.26-166.46h-8.58c-1.26 0-2.28-1.02-2.28-2.28 0-1.26 1.02-2.28 2.28-2.28h3.72c-25.73-23.77-54.59-44.2-85.91-60.57h-10.27c-1.26 0-2.28-1.02-2.28-2.28 0-1.26 1.02-2.28 2.28-2.28h1.23c-26.36-12.93-54.35-23.03-83.59-29.9v123.12h106.16zm24.51-28.08h31.06c1.26 0 2.28 1.02 2.28 2.28 0 1.26-1.02 2.28-2.28 2.28h-31.06c-1.26 0-2.28-1.02-2.28-2.28 0-1.26 1.02-2.28 2.28-2.28zm-84.77-65.14h24.17c1.26 0 2.28 1.02 2.28 2.28 0 1.26-1.02 2.28-2.28 2.28h-24.17c-1.26 0-2.28-1.02-2.28-2.28 0-1.26 1.02-2.28 2.28-2.28zM161.17 361.58c0-1.26 1.02-2.28 2.28-2.28h26.2v-11h-26.2c-1.26 0-2.28-1.02-2.28-2.28v-17.95c0-1.26 1.02-2.28 2.28-2.28h26.2v-11.01h-26.2c-1.26 0-2.28-1.02-2.28-2.28v-17.95c0-1.26 1.02-2.28 2.28-2.28h26.2v-11.01h-26.2c-1.26 0-2.28-1.02-2.28-2.28v-17.95c0-1.26 1.02-2.28 2.28-2.28h26.2v-11.01h-26.2c-.63 0-1.23-.26-1.66-.71-.43-.46-.66-1.07-.62-1.7.09-1.64.39-3.22.83-4.73-40.56 39.04-72.85 86.59-93.99 139.75h12.52c2.01-9.79 10.63-16.94 20.83-16.94 7.88 0 15.05 4.34 18.74 11.2.22-.02.45-.02.67-.02 3.87 0 7.32 2.26 9.03 5.77h20.79c1.26 0 2.28 1.02 2.28 2.28 0 .05-.01.09-.01.14 2.18.06 3.57.11 3.57.11l4.97-2.38c-.14-.3-.23-.63-.23-.98v-17.95zM305.52 225.24c11.22 0 20.51 8.73 21.24 19.91.01.11.02.21.02.32 0 1.26-1.02 2.28-2.28 2.28h-26.21v11.01h26.2c1.26 0 2.28 1.02 2.28 2.28v17.95c0 1.26-1.02 2.28-2.28 2.28h-26.2v11.01h26.2c1.26 0 2.28 1.02 2.28 2.28v17.95c0 1.26-1.02 2.28-2.28 2.28h-26.2v11.01h26.2c1.26 0 2.28 1.02 2.28 2.28v17.95c0 1.26-1.02 2.28-2.28 2.28h-26.2v11.01h26.2c1.26 0 2.28 1.02 2.28 2.28v11.03c.42-.44 1-.72 1.66-.72h5.76c1.24-5.61 4.25-10.72 8.61-14.55-.07-.22-.12-.45-.12-.69v-215.8c-16.85 4.14-33.29 9.35-49.22 15.57h20.56c1.26 0 2.28 1.02 2.28 2.28s-1.02 2.28-2.28 2.28h-31.8c-37.98 16.17-72.93 38.09-103.77 64.63 1.29-.24 2.61-.38 3.96-.38h123.11z"/><path class="st3" d="M495.82 509.37c4.64-4.56 10.25-8.07 16.34-10.26-8.1-17.57-20.64-32.19-35.95-42.75-.34-.05-.66-.15-.95-.35-5.5-3.75-11.34-6.99-17.36-9.61-.26-.11-.48-.27-.68-.45-12.72-5.36-26.6-8.26-40.95-8.26-6.45 0-12.77.58-18.91 1.69 36.88 2.87 61.11 39.59 61.11 77.03 0 5.59-.59 11.28-1.7 16.3h28.61c2.2-7.25 5.21-13.97 10.71-19.84-.11-.08-.21-.16-.31-.26-.88-.9-.86-2.36.04-3.24zM532.58 501.61c6.94 8.55 11.15 19.58 11.29 31.1h23.09c-.08-.14-.15-.29-.2-.45-5.04-16.53-18.36-28.23-34.18-30.65zM205.62 381.81h76.72v11.01h-76.72zM205.62 415.33h76.72v7.73h-76.72zM205.62 247.75h76.72v11.01h-76.72zM205.62 314.78h76.72v11.01h-76.72zM205.62 348.3h76.72v11.01h-76.72zM205.62 281.27h76.72v11.01h-76.72zM541.91 423.2h8.65v18.83h-8.65zM614.63 368.78h8.65v13.47h-8.65zM620.15 278.69H452.52c-1.72 0-3.12 1.4-3.12 3.12v3.22h159.82c2.98 0 5.4 2.42 5.4 5.4v25.95h8.65v-34.56c0-1.73-1.4-3.13-3.12-3.13z"/><path class="st4" d="M361.26 75.89h149.41c1.26 0 2.28-1.02 2.28-2.28v-27.7c0-1.26-1.02-2.28-2.28-2.28H361.26c-1.26 0-2.28 1.02-2.28 2.28v27.7c-.01 1.25 1.02 2.28 2.28 2.28zm2.28-27.7h144.84v23.14H363.54V48.19z"/><path class="st4" d="M379.72 52.02h-10.91c-1.26 0-2.28 1.02-2.28 2.28v10.91c0 1.26 1.02 2.28 2.28 2.28h10.91c1.26 0 2.28-1.02 2.28-2.28V54.3c0-1.26-1.02-2.28-2.28-2.28zm-2.28 10.91h-6.35v-6.35h6.35v6.35zM401.48 52.02h-10.91c-1.26 0-2.28 1.02-2.28 2.28v10.91c0 1.26 1.02 2.28 2.28 2.28h10.91c1.26 0 2.28-1.02 2.28-2.28V54.3c0-1.26-1.02-2.28-2.28-2.28zm-2.28 10.91h-6.35v-6.35h6.35v6.35zM423.24 52.02h-10.91c-1.26 0-2.28 1.02-2.28 2.28v10.91c0 1.26 1.02 2.28 2.28 2.28h10.91c1.26 0 2.28-1.02 2.28-2.28V54.3c0-1.26-1.02-2.28-2.28-2.28zm-2.28 10.91h-6.35v-6.35h6.35v6.35zM503.11 52.02h-31.47c-1.26 0-2.28 1.02-2.28 2.28v10.91c0 1.26 1.02 2.28 2.28 2.28h31.47c1.26 0 2.28-1.02 2.28-2.28V54.3c0-1.26-1.02-2.28-2.28-2.28zm-2.28 10.91h-26.91v-6.35h26.91v6.35zM361.26 113.59H510.66c1.26 0 2.28-1.02 2.28-2.28v-27.7c0-1.26-1.02-2.28-2.28-2.28h-149.4c-1.26 0-2.28 1.02-2.28 2.28v27.7c-.01 1.26 1.02 2.28 2.28 2.28zm2.28-27.7h144.84v23.14H363.54V85.89zM361.26 151.29h149.41c1.26 0 2.28-1.02 2.28-2.28V121.31c0-1.26-1.02-2.28-2.28-2.28H361.25c-1.26 0-2.28 1.02-2.28 2.28V149.01c0 1.26 1.03 2.28 2.29 2.28zm2.28-14.97v-12.73h144.84v23.14H363.54v-10.41zM361.26 188.99h149.41c1.26 0 2.28-1.02 2.28-2.28v-27.7c0-1.26-1.02-2.28-2.28-2.28H361.26c-1.26 0-2.28 1.02-2.28 2.28v27.7c-.01 1.26 1.02 2.28 2.28 2.28zm2.28-27.7h144.84v23.14H363.54v-23.14zM361.26 216.06H387c1.07 5.4 5.84 9.49 11.55 9.49h74.82c5.71 0 10.48-4.09 11.54-9.49h25.75c1.26 0 2.28-1.02 2.28-2.28s-1.02-2.28-2.28-2.28h-25.75c-1.07-5.4-5.84-9.49-11.54-9.49h-74.82c-5.71 0-10.48 4.09-11.55 9.49h-25.75c-1.26 0-2.28 1.02-2.28 2.28s1.03 2.28 2.29 2.28zm30.08-2.28c0-.8.14-1.56.38-2.28.96-2.86 3.66-4.93 6.84-4.93h74.82c3.18 0 5.88 2.07 6.83 4.93.24.72.38 1.48.38 2.28 0 .8-.14 1.56-.38 2.28-.96 2.86-3.66 4.93-6.83 4.93h-74.82c-3.18 0-5.88-2.07-6.84-4.93-.24-.72-.38-1.49-.38-2.28z"/><path class="st4" d="M404.48 216.06h62.95c1.26 0 2.28-1.02 2.28-2.28s-1.02-2.28-2.28-2.28h-62.95c-1.26 0-2.28 1.02-2.28 2.28s1.02 2.28 2.28 2.28zM361.26 246.46H387c1.07 5.4 5.84 9.49 11.55 9.49h74.82c5.71 0 10.48-4.09 11.54-9.49h25.75c1.26 0 2.28-1.02 2.28-2.28s-1.02-2.28-2.28-2.28h-25.75c-1.07-5.4-5.84-9.49-11.54-9.49h-74.82c-5.71 0-10.48 4.09-11.55 9.49h-25.75c-1.26 0-2.28 1.02-2.28 2.28s1.03 2.28 2.29 2.28zm30.08-2.28c0-.8.14-1.56.38-2.28.96-2.86 3.66-4.93 6.84-4.93h74.82c3.18 0 5.88 2.07 6.83 4.93.24.72.38 1.48.38 2.28 0 .8-.14 1.56-.38 2.28-.96 2.86-3.66 4.93-6.83 4.93h-74.82c-3.18 0-5.88-2.07-6.84-4.93-.24-.72-.38-1.49-.38-2.28z"/><path class="st4" d="M404.48 246.46h62.95c1.26 0 2.28-1.02 2.28-2.28s-1.02-2.28-2.28-2.28h-62.95c-1.26 0-2.28 1.02-2.28 2.28s1.02 2.28 2.28 2.28zM429.58 284.07c0-1.26-1.02-2.28-2.28-2.28h-28.75c-3.58 0-6.55-2.63-7.11-6.05.2-.34.33-.73.33-1.16 0-.43-.12-.82-.33-1.16.56-3.42 3.53-6.05 7.11-6.05h28.5c1.26 0 2.28-1.02 2.28-2.28 0-1.26-1.02-2.28-2.28-2.28h-28.5c-5.71 0-10.48 4.09-11.55 9.49h-25.75c-1.26 0-2.28 1.02-2.28 2.28 0 1.26 1.02 2.28 2.28 2.28H387c1.07 5.4 5.84 9.49 11.55 9.49h28.75c1.26 0 2.28-1.02 2.28-2.28zM43.24 193.31h36.71c1.17 0 2.14-.88 2.27-2.04 1.63-15.11 14.33-26.5 29.54-26.5 11.85 0 22.55 7.03 27.27 17.9.45 1.04 1.6 1.59 2.7 1.29.89-.24 1.81-.37 2.73-.37 4.76 0 8.94 3.25 10.42 8.1.29.96 1.18 1.62 2.18 1.62h37.64c1.26 0 2.28-1.02 2.28-2.28s-1.02-2.28-2.28-2.28h-36.04c-2.46-5.87-7.97-9.71-14.2-9.71-.68 0-1.35.05-2.03.14-5.78-11.58-17.63-18.96-30.67-18.96-16.86 0-31.05 12.13-33.8 28.54H43.24c-1.26 0-2.28 1.02-2.28 2.28s1.02 2.27 2.28 2.27zM129.8 380.36c-1.71-3.51-5.16-5.77-9.03-5.77-.22 0-.45.01-.67.02-3.69-6.86-10.86-11.2-18.74-11.2-10.2 0-18.82 7.15-20.83 16.94H66.22c-1.26 0-2.28 1.02-2.28 2.28 0 1.26 1.02 2.28 2.28 2.28h16.27c1.17 0 2.14-.88 2.27-2.04.91-8.5 8.06-14.9 16.61-14.9 6.66 0 12.68 3.95 15.34 10.07.45 1.04 1.6 1.59 2.69 1.29.45-.12.91-.18 1.38-.18 2.41 0 4.54 1.67 5.3 4.15.29.96 1.18 1.62 2.18 1.62h22.34c1.21 0 2.19-.95 2.27-2.14 0-.05.01-.09.01-.14 0-1.26-1.02-2.28-2.28-2.28h-20.8zM140.38 160.98h12.17c1.13 0 2.1-.83 2.26-1.95 1.35-9.28 9.45-16.28 18.84-16.28.87 0 1.76.06 2.66.19 1.01.14 1.99-.4 2.4-1.34 5.24-11.86 16.99-19.52 29.94-19.52 9.05 0 17.46 3.62 23.7 10.18 1.56 2.32 5.28 8.82 5.28 13.42 0 1.26 1.02 2.28 2.28 2.28s2.28-1.02 2.28-2.28c0-4.23-2.13-9.05-3.89-12.32 12.33 1.81 21.83 12.45 21.83 25.28v.07c0 1.26 1.02 2.28 2.28 2.28H314.04c1.26 0 2.28-1.02 2.28-2.28s-1.02-2.28-2.28-2.28h-49.42c-1.13-15.41-13.9-27.64-29.53-27.9-7.05-7.11-16.4-11.01-26.44-11.01-14.2 0-27.13 8.08-33.4 20.73-.54-.04-1.07-.06-1.6-.06-10.98 0-20.53 7.71-22.99 18.24h-10.28c-1.26 0-2.28 1.02-2.28 2.28s1.02 2.27 2.28 2.27zM313.18 472.8c1.26 0 2.28-1.02 2.28-2.28 0-1.26-1.02-2.28-2.28-2.28h-23.92c-1.26 0-2.28 1.02-2.28 2.28 0 1.26 1.02 2.28 2.28 2.28h23.92zM33.68 384.92h25.18c1.26 0 2.28-1.02 2.28-2.28 0-1.26-1.02-2.28-2.28-2.28H33.68c-1.26 0-2.28 1.02-2.28 2.28-.01 1.26 1.02 2.28 2.28 2.28zM761.02 228.57c-4.04-7.65-12.01-12.51-20.76-12.51-11.33 0-20.89 7.99-23.03 18.9H704.03c-1.26 0-2.28 1.02-2.28 2.28 0 1.26 1.02 2.28 2.28 2.28h15.16c1.17 0 2.14-.88 2.27-2.04 1.03-9.61 9.12-16.86 18.8-16.86 7.54 0 14.35 4.47 17.35 11.39.45 1.04 1.6 1.59 2.69 1.29.53-.14 1.07-.22 1.61-.22 2.81 0 5.29 1.94 6.16 4.82.29.96 1.18 1.62 2.18 1.62h24.93c1.26 0 2.28-1.02 2.28-2.28 0-1.26-1.02-2.28-2.28-2.28h-23.37c-1.84-3.91-5.64-6.43-9.91-6.43-.28 0-.58.02-.88.04zM659.88 234.97c-1.26 0-2.28 1.02-2.28 2.28 0 1.26 1.02 2.28 2.28 2.28h31.06c1.26 0 2.28-1.02 2.28-2.28 0-1.26-1.02-2.28-2.28-2.28h-31.06zM611.58 174.39h24.09c1.13 0 2.09-.83 2.26-1.95 1.39-9.58 9.74-16.8 19.44-16.8.9 0 1.82.07 2.74.2 1.01.14 1.99-.4 2.41-1.34 5.39-12.22 17.5-20.11 30.84-20.11 9.33 0 17.99 3.73 24.42 10.49 1.61 2.4 5.44 9.11 5.44 13.84 0 1.26 1.02 2.28 2.28 2.28s2.28-1.02 2.28-2.28c0-4.38-2.23-9.39-4.05-12.75 12.77 1.81 22.63 12.81 22.63 26.07v.07c0 1.26 1.02 2.28 2.28 2.28h18.12c1.26 0 2.28-1.02 2.28-2.28 0-1.26-1.02-2.28-2.28-2.28h-15.92c-1.13-15.85-14.26-28.43-30.33-28.68-7.24-7.31-16.84-11.32-27.16-11.32-14.59 0-27.88 8.31-34.31 21.31-.56-.04-1.12-.06-1.68-.06-11.27 0-21.08 7.93-23.58 18.75h-22.19c-1.26 0-2.28 1.02-2.28 2.28-.01 1.26 1.01 2.28 2.27 2.28zM575.11 174.39h24.17c1.26 0 2.28-1.02 2.28-2.28 0-1.26-1.02-2.28-2.28-2.28h-24.17c-1.26 0-2.28 1.02-2.28 2.28 0 1.26 1.02 2.28 2.28 2.28zM636.81 466.3c-4.43 0-8.03 3.6-8.03 8.03s3.6 8.03 8.03 8.03 8.03-3.6 8.03-8.03-3.6-8.03-8.03-8.03zm0 11.5c-1.91 0-3.47-1.56-3.47-3.47 0-1.91 1.56-3.47 3.47-3.47 1.91 0 3.47 1.56 3.47 3.47 0 1.92-1.56 3.47-3.47 3.47zM655.28 466.3c-4.43 0-8.03 3.6-8.03 8.03s3.6 8.03 8.03 8.03 8.03-3.6 8.03-8.03-3.6-8.03-8.03-8.03zm0 11.5c-1.91 0-3.47-1.56-3.47-3.47 0-1.91 1.56-3.47 3.47-3.47s3.47 1.56 3.47 3.47c0 1.92-1.56 3.47-3.47 3.47zM673.74 482.36c4.43 0 8.03-3.6 8.03-8.03s-3.6-8.03-8.03-8.03-8.03 3.6-8.03 8.03 3.6 8.03 8.03 8.03zm0-11.5c1.91 0 3.47 1.56 3.47 3.47 0 1.91-1.56 3.47-3.47 3.47-1.91 0-3.47-1.56-3.47-3.47 0-1.91 1.56-3.47 3.47-3.47zM608.27 462.89h-39.45c-1.26 0-2.28 1.02-2.28 2.28v18.33c0 1.26 1.02 2.28 2.28 2.28h39.45c1.26 0 2.28-1.02 2.28-2.28v-18.33c0-1.26-1.02-2.28-2.28-2.28zm-2.28 18.33H571.1v-13.77h34.89v13.77zM636.81 400.42c-.49 0-.97.05-1.44.14-.81.15-1.58.41-2.28.79-2.56 1.35-4.31 4.03-4.31 7.11s1.75 5.76 4.31 7.11c.71.37 1.47.64 2.28.79.47.09.95.14 1.44.14.28 0 .56-.02.84-.04 4.04-.42 7.19-3.84 7.19-7.99s-3.16-7.57-7.19-7.99c-.28-.04-.56-.06-.84-.06zm.84 11.39c-.27.07-.55.11-.84.11-.52 0-1-.12-1.44-.32-1.19-.55-2.03-1.75-2.03-3.14 0-1.4.83-2.6 2.03-3.14.44-.2.93-.32 1.44-.32.29 0 .57.05.84.11 1.51.38 2.63 1.73 2.63 3.36 0 1.61-1.12 2.96-2.63 3.34zM655.28 416.49c4.43 0 8.03-3.6 8.03-8.03s-3.6-8.03-8.03-8.03-8.03 3.6-8.03 8.03c-.01 4.43 3.6 8.03 8.03 8.03zm0-11.5c1.91 0 3.47 1.56 3.47 3.47 0 1.91-1.56 3.47-3.47 3.47s-3.47-1.56-3.47-3.47c0-1.92 1.55-3.47 3.47-3.47zM673.74 416.49c4.43 0 8.03-3.6 8.03-8.03s-3.6-8.03-8.03-8.03-8.03 3.6-8.03 8.03 3.6 8.03 8.03 8.03zm0-11.5c1.91 0 3.47 1.56 3.47 3.47 0 1.91-1.56 3.47-3.47 3.47-1.91 0-3.47-1.56-3.47-3.47 0-1.92 1.56-3.47 3.47-3.47zM608.27 397.01h-39.45c-1.26 0-2.28 1.02-2.28 2.28v18.33c0 .37.1.71.25 1.02.38.75 1.14 1.26 2.03 1.26h39.45c.89 0 1.66-.52 2.03-1.26.15-.31.25-.65.25-1.02v-18.33c0-1.26-1.02-2.28-2.28-2.28zm-2.28 10.55V415.34H571.1v-13.77h34.89v5.99zM633.09 335.47c-2.56 1.35-4.31 4.03-4.31 7.11s1.75 5.76 4.31 7.11c.71.37 1.47.64 2.28.79.47.09.95.14 1.44.14.28 0 .56-.02.84-.04 4.04-.42 7.19-3.84 7.19-7.99s-3.16-7.57-7.19-7.99c-.28-.03-.55-.04-.84-.04-.49 0-.97.05-1.44.14-.81.13-1.58.4-2.28.77zm7.19 7.11c0 1.62-1.12 2.98-2.63 3.35-.27.07-.55.11-.84.11-.52 0-1-.12-1.44-.32-1.19-.55-2.03-1.75-2.03-3.14 0-1.4.83-2.6 2.03-3.14.44-.2.93-.32 1.44-.32.29 0 .57.05.84.11 1.51.37 2.63 1.73 2.63 3.35zM655.28 350.61c4.43 0 8.03-3.6 8.03-8.03s-3.6-8.03-8.03-8.03-8.03 3.6-8.03 8.03c-.01 4.43 3.6 8.03 8.03 8.03zm0-11.5c1.91 0 3.47 1.56 3.47 3.47 0 1.91-1.56 3.47-3.47 3.47s-3.47-1.56-3.47-3.47c0-1.91 1.55-3.47 3.47-3.47zM673.74 350.61c4.43 0 8.03-3.6 8.03-8.03s-3.6-8.03-8.03-8.03-8.03 3.6-8.03 8.03 3.6 8.03 8.03 8.03zm0-11.5c1.91 0 3.47 1.56 3.47 3.47 0 1.91-1.56 3.47-3.47 3.47-1.91 0-3.47-1.56-3.47-3.47 0-1.91 1.56-3.47 3.47-3.47zM608.27 331.14h-39.45c-1.26 0-2.28 1.02-2.28 2.28v18.33c0 1.26 1.02 2.28 2.28 2.28h39.45c1.26 0 2.28-1.02 2.28-2.28v-18.33c0-1.26-1.02-2.28-2.28-2.28zm-2.28 18.32H571.1V335.7h34.89v13.76zM802.37 436.84c-.47 0-.94.03-1.41.08-4.83-9.42-14.54-15.41-25.23-15.41-13.82 0-25.47 9.86-27.89 23.25H727.5c-1.26 0-2.28 1.02-2.28 2.28 0 1.26 1.02 2.28 2.28 2.28h22.32c1.17 0 2.14-.88 2.27-2.04 1.3-12.09 11.47-21.21 23.64-21.21 9.48 0 18.05 5.62 21.83 14.33.45 1.04 1.6 1.59 2.69 1.29.69-.19 1.4-.28 2.11-.28 3.69 0 6.94 2.53 8.08 6.29.29.96 1.18 1.62 2.18 1.62h30.66c1.26 0 2.28-1.02 2.28-2.28 0-1.26-1.02-2.28-2.28-2.28h-29.07c-2.11-4.81-6.69-7.92-11.84-7.92z"/><path class="st4" d="M846.73 517.79h-28.37c-4.24-11.66-14.8-19.37-26.77-19.37-1.8 0-3.59.18-5.34.52-10.87-23.19-34.16-38.07-59.87-38.07-12.78 0-25.13 3.69-35.72 10.5v-20.96c0-1.26-1.02-2.28-2.28-2.28h-51.23c-2.32-3.69-6.41-6.1-11.08-6.1h-70.93V423.2h2.54v9.18c0 1.26 1.02 2.28 2.28 2.28h128.42c1.26 0 2.28-1.02 2.28-2.28v-47.85c0-1.26-1.02-2.28-2.28-2.28h-50.72v-13.47h50.72c1.26 0 2.28-1.02 2.28-2.28v-47.84c0-1.26-1.02-2.28-2.28-2.28h-50.72v-51.04c0-1.26-1.02-2.28-2.28-2.28H529.22V23.99c0-1.26-1.02-2.28-2.28-2.28H344.97c-1.26 0-2.28 1.02-2.28 2.28v332.67c0 .24.05.47.12.69-4.36 3.83-7.37 8.94-8.61 14.55h-5.76c-.65 0-1.24.28-1.66.72v-11.03c0-1.26-1.02-2.28-2.28-2.28h-26.2V348.3h26.2c1.26 0 2.28-1.02 2.28-2.28v-17.95c0-1.26-1.02-2.28-2.28-2.28h-26.2v-11.01h26.2c1.26 0 2.28-1.02 2.28-2.28v-17.95c0-1.26-1.02-2.28-2.28-2.28h-26.2v-11.01h26.2c1.26 0 2.28-1.02 2.28-2.28v-17.95c0-1.26-1.02-2.28-2.28-2.28h-26.2v-11.01h26.21c1.26 0 2.28-1.02 2.28-2.28 0-.11-.01-.22-.02-.32-.73-11.18-10.03-19.91-21.24-19.91h-123.1c-1.35 0-2.68.13-3.96.38-7.88 1.49-14.25 7.33-16.47 14.99-.44 1.52-.74 3.09-.83 4.73-.04.63.19 1.24.62 1.7.43.46 1.03.71 1.66.71h26.2v11.01h-26.2c-1.26 0-2.28 1.02-2.28 2.28v17.95c0 1.26 1.02 2.28 2.28 2.28h26.2v11.01h-26.2c-1.26 0-2.28 1.02-2.28 2.28v17.95c0 1.26 1.02 2.28 2.28 2.28h26.2v11.01h-26.2c-1.26 0-2.28 1.02-2.28 2.28v17.95c0 1.26 1.02 2.28 2.28 2.28h26.2v11.01h-26.2c-1.26 0-2.28 1.02-2.28 2.28v17.95c0 .35.09.68.23.98.37.77 1.14 1.3 2.05 1.3h26.2v11.01h-26.2c-1.26 0-2.28 1.02-2.28 2.28v11.56c-8.5-4.14-17.96-6.42-27.79-6.42-8.9 0-17.51 1.81-25.59 5.38-7.49 3.31-14.18 7.97-19.9 13.86-27.28.09-49.58 21.74-50.72 48.77H3.46c-1.26 0-2.28 1.02-2.28 2.28 0 1.26 1.02 2.28 2.28 2.28h35.95c1.26 0 2.28-1.02 2.28-2.28v-.11c0-24.42 18.98-44.48 42.97-46.23-3.1 5.26-8.19 15.18-8.19 23.58 0 1.26 1.02 2.28 2.28 2.28 1.26 0 2.28-1.02 2.28-2.28 0-9.8 8.56-22.96 9.6-24.53 10.21-10.79 23.66-17.16 38.28-18.24 1.48-.11 2.97-.18 4.48-.18 11.5 0 22.48 3.36 31.78 9.33.24.16.48.31.73.47 5.01 3.32 9.51 7.4 13.33 12.13.01.01.02.03.03.05 1.61 2 3.08 4.09 4.41 6.25.05.07.09.15.13.22.28.46.55.92.82 1.39.1.17.19.34.28.51.22.39.43.78.64 1.18.15.29.3.59.45.88.15.3.3.59.45.89.28.58.55 1.17.82 1.76.01.03.03.05.04.08.12.26.28.49.47.68.41.41.96.66 1.55.67.12 0 .25 0 .38-.02 1.66-.23 3.3-.35 4.88-.35.66 0 1.32.03 1.97.06.2.01.39.03.59.04.48.04.95.08 1.42.14.04.01.09.01.13.02.17.02.33.04.5.06.59.08 1.17.17 1.75.28.34.06.67.14 1.01.21.24.05.48.1.72.16.43.1.86.21 1.29.33.01 0 .01 0 .02.01 13.01 3.68 23.2 14.76 25.21 28.62.03.22.1.42.19.61.36.8 1.16 1.34 2.07 1.34h39.69c1.26 0 2.28-1.02 2.28-2.28 0-1.26-1.02-2.28-2.28-2.28h-37.77c-1.69-8.55-6.19-16.35-12.81-22.13-.21-.18-.43-.36-.64-.54h85.62c11.28 0 20.62-8.83 21.26-20.1.04-.63-.19-1.24-.62-1.7-.43-.46-1.03-.71-1.66-.71h-26.2v-7.73h26.2c1.26 0 2.28-1.02 2.28-2.28V395.1c0-1.26-1.02-2.28-2.28-2.28h-26.2v-11.01h26.2c1.26 0 2.28-1.02 2.28-2.28v-3.8c.42.44 1 .72 1.66.72h7.66c1.13 0 2.1-.83 2.26-1.95.84-5.79 3.9-10.81 8.21-14.3 3.92-3.17 8.88-5.07 14.19-5.07 1.04 0 2.1.08 3.16.22 1.01.14 1.99-.4 2.4-1.34 6.18-14 20.06-23.05 35.35-23.05 10.7 0 20.64 4.28 28.01 12.05 1.31 1.94 3.93 6.44 5.33 10.86v67.05c0 1.26 1.02 2.28 2.28 2.28h80.25v18.83h-57.9c-13.45-5.77-28.16-8.91-43.38-8.91-27.34 0-53.55 10.09-73.81 28.4-19.6 17.72-32.13 41.72-35.43 67.78H216.7c-1.26 0-2.28 1.02-2.28 2.28s1.02 2.28 2.28 2.28h92.37c1.17 0 2.14-.88 2.27-2.04 5.09-47.27 40.69-84.29 86.03-92.45 6.14-1.11 12.46-1.69 18.91-1.69 14.35 0 28.22 2.91 40.95 8.26.19.19.42.34.68.45 6.02 2.62 11.86 5.85 17.36 9.61.28.19.61.29.95.35 15.31 10.56 27.86 25.18 35.95 42.75-6.09 2.18-11.69 5.7-16.34 10.26-.91.89-.92 2.34-.03 3.25.1.1.2.18.31.26.4.28.86.43 1.33.43.58 0 1.16-.22 1.61-.66 4.77-4.68 10.65-8.13 17.03-9.97.24-.07.45-.18.64-.31 3.19-.8 6.46-1.22 9.76-1.22 2.07 0 4.11.17 6.11.47 15.82 2.42 29.15 14.12 34.17 30.65.05.16.12.31.2.45.4.71 1.15 1.16 1.98 1.16h126.84c1.26 0 2.28-1.02 2.28-2.28s-1.02-2.28-2.28-2.28H570.6c-3.13-9.2-8.71-17.12-16.2-23-8.12-6.37-17.78-9.73-27.92-9.73-3.35 0-6.68.37-9.93 1.11-7.51-16.52-18.8-30.54-32.56-41.27h73.68v41.84c0 1.26 1.02 2.28 2.28 2.28H665.8c-2.39 5.47-4.05 11.26-4.88 17.25h-52.64c-1.26 0-2.28 1.02-2.28 2.28 0 1.26 1.02 2.28 2.28 2.28h54.66c1.17 0 2.14-.88 2.27-2.04.8-7.46 2.92-14.47 6.09-20.84.04-.07.1-.12.13-.19 4.3-8.52 10.63-16.04 18.31-21.74.1-.07.18-.16.26-.24 9.33-6.83 20.63-11.06 32.85-11.75 1.17-.07 2.35-.11 3.54-.11 24.47 0 46.59 14.48 56.4 36.91.02.05.05.1.07.16.45 1.04 1.6 1.59 2.7 1.29 1.96-.54 3.99-.81 6.04-.81 1.92 0 3.8.24 5.61.7 8.06 2.03 14.7 8.38 17.34 17.05l.06.15c.34.87 1.17 1.46 2.12 1.46h30.02c1.26 0 2.28-1.02 2.28-2.28-.02-1.26-1.04-2.28-2.3-2.28zM469.06 446.6h157c1.82 0 3.5.57 4.89 1.53h-71c-1.26 0-2.28 1.02-2.28 2.28v1.44h-79.98c-2.8-1.88-5.67-3.64-8.63-5.25zm93.17 9.81V452.69H686.09v21.89c-.1.08-.19.16-.29.23-.76.59-1.51 1.2-2.25 1.83l-.42.36c-.35.31-.71.6-1.06.91-.43.39-.85.8-1.27 1.2-.03.03-.07.06-.1.09-5.15 4.92-9.43 10.58-12.71 16.76H562.23v-39.55zm123.86-26.31H562.23V386.82h123.86v43.28zM449.4 367.14V281.8c0-1.72 1.4-3.12 3.12-3.12h167.63c1.72 0 3.12 1.4 3.12 3.12v34.56h-63.33c-1.26 0-2.28 1.02-2.28 2.28v47.84c0 1.26 1.02 2.28 2.28 2.28h63.33v13.47h-63.33c-1.26 0-2.28 1.02-2.28 2.28v23.03H452.52c-1.72 0-3.12-1.4-3.12-3.12v-37.28zm188.25-46.2h48.44v43.28H562.23v-43.28h75.42zm-4.56 61.31h-5.25v-13.47h5.25v13.47zm-193.51-12.91V267.62h193.5v48.76h-5.25v-34.56c0-4.24-3.45-7.68-7.68-7.68H452.52c-4.24 0-7.68 3.45-7.68 7.68v122.63c0 4.24 3.45 7.68 7.68 7.68h105.15v6.52H439.58v-49.31zm-117.36 3.37v4.54H165.74v-13.38H322.22v8.84zm0 38.06H168.39c-.19-.13-.38-.24-.57-.36-.36-.24-.72-.46-1.09-.69-.33-.2-.66-.43-.99-.62v-11.72H322.22v13.39zm-16.7 30.24h-92.37c-.07-.04-.15-.07-.22-.11-.55-.29-1.11-.56-1.67-.83-.2-.09-.41-.19-.61-.28-.51-.23-1.03-.45-1.56-.65-.15-.06-.31-.13-.46-.19-.68-.26-1.36-.5-2.05-.72-.13-.04-.25-.07-.38-.11-.59-.18-1.18-.35-1.77-.5-.17-.04-.34-.09-.52-.13-.67-.16-1.34-.31-2.01-.44-.04-.01-.09-.02-.13-.03-.73-.14-1.46-.25-2.2-.34-.16-.02-.33-.04-.5-.06-.57-.07-1.15-.12-1.73-.16-.2-.01-.4-.03-.59-.04-.73-.04-1.46-.07-2.19-.07-.62 0-1.26.02-1.89.05-.64.03-1.28.08-1.92.14-.36-.76-.73-1.51-1.12-2.25l-.15-.27c-.35-.66-.71-1.32-1.09-1.98l-.12-.21c-.4-.69-.81-1.37-1.24-2.04-.01-.02-.03-.04-.04-.06-.46-.72-.92-1.43-1.41-2.12H321.91c-1.56 7.68-8.35 13.4-16.39 13.4zm-115.87-25.68v7.73h-7.54c-2.34-2.8-4.9-5.39-7.66-7.73h15.2zm104.09 7.73H194.22v-7.73H293.74v7.73zm0-30.24H194.22v-11.01H293.74v11.01zm-128.01-62.47H322.21v13.38H165.74v-13.38zm0-33.52H322.21v13.38H165.74v-13.38zm0-33.51H322.21v13.39H165.74v-13.39zm130.29-20.13H166.05c1.56-7.67 8.35-13.39 16.39-13.39h123.09c8.04 0 14.83 5.71 16.39 13.39h-25.9zm-101.8 4.56H293.74v11.01H194.22v-11.01zm0 33.52H293.74v11.01H194.22v-11.01zm0 33.51H293.74v11.01H194.22v-11.01zm0 33.52H293.74v11.01H194.22V348.3zm182.99-14.26c-6.03 4.15-11.03 9.81-14.35 16.62-.7-.06-1.41-.08-2.1-.08-4.78 0-9.42 1.27-13.51 3.61V26.27h177.41V263.06H437.3c-1.26 0-2.28 1.02-2.28 2.28v74.08c-.86-.07-1.72-.13-2.59-.14-8.18-8.31-19.06-12.87-30.75-12.87-5.25 0-10.35.96-15.09 2.73-3.33 1.24-6.47 2.9-9.38 4.9zm144.9 89.16H550.56v18.83H522.11V423.2z"/><path class="st4" d="M763.53 407.61h23.7c1.22 0 2.21-.97 2.27-2.18 0-.04.01-.07.01-.11 0-1.26-1.02-2.28-2.28-2.28h-21.55c-1.08-8.54-8.23-15.22-16.98-15.57-4.09-3.98-9.45-6.16-15.19-6.16-8.09 0-15.48 4.48-19.26 11.55-6.44-.14-12.13 4.17-13.91 10.18h-1.83c-1.26 0-2.28 1.02-2.28 2.28 0 .08.02.15.02.22.11 1.15 1.08 2.06 2.26 2.06h3.66c1.13 0 2.1-.83 2.26-1.95.68-4.69 4.78-8.23 9.53-8.23.44 0 .89.03 1.34.1 1.01.14 1.99-.4 2.4-1.34 2.76-6.26 8.97-10.3 15.8-10.3 4.76 0 9.17 1.9 12.46 5.33.81 1.24 2.71 4.6 2.71 6.84 0 1.26 1.02 2.28 2.28 2.28s2.28-1.02 2.28-2.28c0-1.82-.62-3.77-1.35-5.44 5.41 1.67 9.35 6.72 9.35 12.67v.04c.02 1.27 1.04 2.29 2.3 2.29zM792.83 405.33c0 .06.01.11.02.16.08 1.18 1.06 2.12 2.27 2.12h17c1.05 0 1.92-.71 2.19-1.68.05-.19.09-.39.09-.61 0-1.26-1.02-2.28-2.28-2.28h-17c-1.27.01-2.29 1.03-2.29 2.29zM379.72 88.69h-10.91c-1.26 0-2.28 1.02-2.28 2.28v10.91c0 1.26 1.02 2.28 2.28 2.28h10.91c1.26 0 2.28-1.02 2.28-2.28V90.97c0-1.26-1.02-2.28-2.28-2.28zm-2.28 10.91h-6.35v-6.35h6.35v6.35zM401.48 88.69h-10.91c-1.26 0-2.28 1.02-2.28 2.28v10.91c0 1.26 1.02 2.28 2.28 2.28h10.91c1.26 0 2.28-1.02 2.28-2.28V90.97c0-1.26-1.02-2.28-2.28-2.28zM399.2 99.6h-6.35v-6.35h6.35v6.35zM423.24 88.69h-10.91c-1.26 0-2.28 1.02-2.28 2.28v10.91c0 1.26 1.02 2.28 2.28 2.28h10.91c1.26 0 2.28-1.02 2.28-2.28V90.97c0-1.26-1.02-2.28-2.28-2.28zm-2.28 10.91h-6.35v-6.35h6.35v6.35zM503.11 88.69h-31.47c-1.26 0-2.28 1.02-2.28 2.28v10.91c0 1.26 1.02 2.28 2.28 2.28h31.47c1.26 0 2.28-1.02 2.28-2.28V90.97c0-1.26-1.02-2.28-2.28-2.28zm-2.28 10.91h-26.91v-6.35h26.91v6.35zM379.72 128.1h-10.91c-1.26 0-2.28 1.02-2.28 2.28v10.92c0 1.26 1.02 2.28 2.28 2.28h10.91c1.26 0 2.28-1.02 2.28-2.28v-10.91c0-1.27-1.02-2.29-2.28-2.29zm-2.28 5.84v5.07h-6.35v-6.35h6.35v1.28zM401.48 128.1h-10.91c-1.26 0-2.28 1.02-2.28 2.28v10.91c0 1.26 1.02 2.28 2.28 2.28h10.91c1.26 0 2.28-1.02 2.28-2.28v-10.91c0-1.26-1.02-2.28-2.28-2.28zm-2.28 10.91h-6.35v-6.35h6.35v6.35zM423.24 128.1h-10.91c-1.25 0-2.26 1-2.28 2.25v10.95c0 1.26 1.02 2.28 2.28 2.28h10.91c1.26 0 2.28-1.02 2.28-2.28v-10.91c0-.28-.06-.55-.15-.8-.33-.87-1.15-1.49-2.13-1.49zm-2.28 10.91h-6.35v-6.35h6.35v6.35zM503.11 128.1h-31.47c-1.26 0-2.28 1.02-2.28 2.28v10.91c0 1.26 1.02 2.28 2.28 2.28h31.47c1.26 0 2.28-1.02 2.28-2.28v-10.91c0-1.26-1.02-2.28-2.28-2.28zm-2.28 6.24v4.67h-26.91v-6.35h26.91v1.68zM379.72 165.37h-10.91c-1.26 0-2.28 1.02-2.28 2.28v10.91c0 1.26 1.02 2.28 2.28 2.28h10.91c1.26 0 2.28-1.02 2.28-2.28v-10.91c0-1.26-1.02-2.28-2.28-2.28zm-2.28 10.91h-6.35v-6.35h6.35v6.35zM401.48 165.37h-10.91c-1.26 0-2.28 1.02-2.28 2.28v10.91c0 1.26 1.02 2.28 2.28 2.28h10.91c1.26 0 2.28-1.02 2.28-2.28v-10.91c0-1.26-1.02-2.28-2.28-2.28zm-2.28 10.91h-6.35v-6.35h6.35v6.35zM423.24 165.37h-10.91c-1.26 0-2.28 1.02-2.28 2.28v10.91c0 1.26 1.02 2.28 2.28 2.28h10.91c1.26 0 2.28-1.02 2.28-2.28v-10.91c0-1.26-1.02-2.28-2.28-2.28zm-2.28 10.91h-6.35v-6.35h6.35v6.35zM503.11 165.37h-31.47c-1.26 0-2.28 1.02-2.28 2.28v10.91c0 1.26 1.02 2.28 2.28 2.28h31.47c1.26 0 2.28-1.02 2.28-2.28v-10.91c0-1.26-1.02-2.28-2.28-2.28zm-2.28 10.91h-26.91v-6.35h26.91v6.35z"/></svg>