<svg baseProfile="tiny" xmlns="http://www.w3.org/2000/svg" width="720" height="720"><path shape-rendering="optimizeSpeed" fill="#fff" d="M0 0h720v720H0z"/><path shape-rendering="optimizeSpeed" d="M30 30h20v20H30zM50 30h20v20H50zM70 30h20v20H70zM90 30h20v20H90zM110 30h20v20h-20zM130 30h20v20h-20zM150 30h20v20h-20zM210 30h20v20h-20zM330 30h20v20h-20zM350 30h20v20h-20zM410 30h20v20h-20zM450 30h20v20h-20zM470 30h20v20h-20zM490 30h20v20h-20zM510 30h20v20h-20zM550 30h20v20h-20zM570 30h20v20h-20zM590 30h20v20h-20zM610 30h20v20h-20zM630 30h20v20h-20zM650 30h20v20h-20zM670 30h20v20h-20zM30 50h20v20H30zM150 50h20v20h-20zM190 50h20v20h-20zM210 50h20v20h-20zM250 50h20v20h-20zM270 50h20v20h-20zM370 50h20v20h-20zM390 50h20v20h-20zM510 50h20v20h-20zM550 50h20v20h-20zM670 50h20v20h-20zM30 70h20v20H30zM70 70h20v20H70zM90 70h20v20H90zM110 70h20v20h-20zM150 70h20v20h-20zM210 70h20v20h-20zM230 70h20v20h-20zM250 70h20v20h-20zM310 70h20v20h-20zM350 70h20v20h-20zM450 70h20v20h-20zM470 70h20v20h-20zM490 70h20v20h-20zM550 70h20v20h-20zM590 70h20v20h-20zM610 70h20v20h-20zM630 70h20v20h-20zM670 70h20v20h-20zM30 90h20v20H30zM70 90h20v20H70zM90 90h20v20H90zM110 90h20v20h-20zM150 90h20v20h-20zM190 90h20v20h-20zM210 90h20v20h-20zM250 90h20v20h-20zM350 90h20v20h-20zM370 90h20v20h-20zM430 90h20v20h-20zM470 90h20v20h-20zM510 90h20v20h-20zM550 90h20v20h-20zM590 90h20v20h-20zM610 90h20v20h-20zM630 90h20v20h-20zM670 90h20v20h-20zM30 110h20v20H30zM70 110h20v20H70zM90 110h20v20H90zM110 110h20v20h-20zM150 110h20v20h-20zM230 110h20v20h-20zM270 110h20v20h-20zM290 110h20v20h-20zM310 110h20v20h-20zM330 110h20v20h-20zM410 110h20v20h-20zM470 110h20v20h-20zM490 110h20v20h-20zM550 110h20v20h-20zM590 110h20v20h-20zM610 110h20v20h-20zM630 110h20v20h-20zM670 110h20v20h-20zM30 130h20v20H30zM150 130h20v20h-20zM190 130h20v20h-20zM230 130h20v20h-20zM290 130h20v20h-20zM310 130h20v20h-20zM330 130h20v20h-20zM350 130h20v20h-20zM370 130h20v20h-20zM390 130h20v20h-20zM430 130h20v20h-20zM510 130h20v20h-20zM550 130h20v20h-20zM670 130h20v20h-20zM30 150h20v20H30zM50 150h20v20H50zM70 150h20v20H70zM90 150h20v20H90zM110 150h20v20h-20zM130 150h20v20h-20zM150 150h20v20h-20zM190 150h20v20h-20zM230 150h20v20h-20zM270 150h20v20h-20zM310 150h20v20h-20zM350 150h20v20h-20zM390 150h20v20h-20zM430 150h20v20h-20zM470 150h20v20h-20zM510 150h20v20h-20zM550 150h20v20h-20zM570 150h20v20h-20zM590 150h20v20h-20zM610 150h20v20h-20zM630 150h20v20h-20zM650 150h20v20h-20zM670 150h20v20h-20zM270 170h20v20h-20zM290 170h20v20h-20zM330 170h20v20h-20zM410 170h20v20h-20zM450 170h20v20h-20zM490 170h20v20h-20zM30 190h20v20H30zM50 190h20v20H50zM70 190h20v20H70zM90 190h20v20H90zM110 190h20v20h-20zM150 190h20v20h-20zM170 190h20v20h-20zM190 190h20v20h-20zM210 190h20v20h-20zM230 190h20v20h-20zM270 190h20v20h-20zM310 190h20v20h-20zM330 190h20v20h-20zM370 190h20v20h-20zM410 190h20v20h-20zM470 190h20v20h-20zM510 190h20v20h-20zM530 190h20v20h-20zM570 190h20v20h-20zM610 190h20v20h-20zM650 190h20v20h-20zM30 210h20v20H30zM70 210h20v20H70zM110 210h20v20h-20zM130 210h20v20h-20zM170 210h20v20h-20zM190 210h20v20h-20zM210 210h20v20h-20zM330 210h20v20h-20zM350 210h20v20h-20zM410 210h20v20h-20zM430 210h20v20h-20zM450 210h20v20h-20zM470 210h20v20h-20zM490 210h20v20h-20zM550 210h20v20h-20zM610 210h20v20h-20zM670 210h20v20h-20zM90 230h20v20H90zM110 230h20v20h-20zM150 230h20v20h-20zM170 230h20v20h-20zM210 230h20v20h-20zM250 230h20v20h-20zM270 230h20v20h-20zM370 230h20v20h-20zM390 230h20v20h-20zM430 230h20v20h-20zM470 230h20v20h-20zM530 230h20v20h-20zM570 230h20v20h-20zM610 230h20v20h-20zM650 230h20v20h-20zM70 250h20v20H70zM110 250h20v20h-20zM170 250h20v20h-20zM210 250h20v20h-20zM230 250h20v20h-20zM250 250h20v20h-20zM310 250h20v20h-20zM350 250h20v20h-20zM410 250h20v20h-20zM430 250h20v20h-20zM450 250h20v20h-20zM490 250h20v20h-20zM510 250h20v20h-20zM530 250h20v20h-20zM570 250h20v20h-20zM590 250h20v20h-20zM610 250h20v20h-20zM630 250h20v20h-20zM650 250h20v20h-20zM670 250h20v20h-20zM90 270h20v20H90zM110 270h20v20h-20zM150 270h20v20h-20zM170 270h20v20h-20zM210 270h20v20h-20zM250 270h20v20h-20zM350 270h20v20h-20zM370 270h20v20h-20zM430 270h20v20h-20zM530 270h20v20h-20zM570 270h20v20h-20zM590 270h20v20h-20zM70 290h20v20H70zM130 290h20v20h-20zM170 290h20v20h-20zM190 290h20v20h-20zM230 290h20v20h-20zM270 290h20v20h-20zM290 290h20v20h-20zM310 290h20v20h-20zM330 290h20v20h-20zM370 290h20v20h-20zM390 290h20v20h-20zM410 290h20v20h-20zM470 290h20v20h-20zM490 290h20v20h-20zM510 290h20v20h-20zM550 290h20v20h-20zM670 290h20v20h-20zM50 310h20v20H50zM70 310h20v20H70zM130 310h20v20h-20zM150 310h20v20h-20zM210 310h20v20h-20zM290 310h20v20h-20zM310 310h20v20h-20zM330 310h20v20h-20zM350 310h20v20h-20zM390 310h20v20h-20zM430 310h20v20h-20zM450 310h20v20h-20zM570 310h20v20h-20zM590 310h20v20h-20zM610 310h20v20h-20zM630 310h20v20h-20zM650 310h20v20h-20zM50 330h20v20H50zM90 330h20v20H90zM110 330h20v20h-20zM130 330h20v20h-20zM230 330h20v20h-20zM270 330h20v20h-20zM290 330h20v20h-20zM330 330h20v20h-20zM390 330h20v20h-20zM410 330h20v20h-20zM450 330h20v20h-20zM470 330h20v20h-20zM490 330h20v20h-20zM530 330h20v20h-20zM570 330h20v20h-20zM610 330h20v20h-20zM630 330h20v20h-20zM50 350h20v20H50zM130 350h20v20h-20zM150 350h20v20h-20zM170 350h20v20h-20zM190 350h20v20h-20zM230 350h20v20h-20zM270 350h20v20h-20zM310 350h20v20h-20zM330 350h20v20h-20zM370 350h20v20h-20zM390 350h20v20h-20zM470 350h20v20h-20zM590 350h20v20h-20zM650 350h20v20h-20zM30 370h20v20H30zM50 370h20v20H50zM70 370h20v20H70zM110 370h20v20h-20zM130 370h20v20h-20zM170 370h20v20h-20zM330 370h20v20h-20zM350 370h20v20h-20zM370 370h20v20h-20zM410 370h20v20h-20zM430 370h20v20h-20zM450 370h20v20h-20zM470 370h20v20h-20zM490 370h20v20h-20zM510 370h20v20h-20zM530 370h20v20h-20zM550 370h20v20h-20zM610 370h20v20h-20zM650 370h20v20h-20zM670 370h20v20h-20zM30 390h20v20H30zM70 390h20v20H70zM90 390h20v20H90zM130 390h20v20h-20zM150 390h20v20h-20zM170 390h20v20h-20zM190 390h20v20h-20zM250 390h20v20h-20zM270 390h20v20h-20zM390 390h20v20h-20zM470 390h20v20h-20zM510 390h20v20h-20zM650 390h20v20h-20zM30 410h20v20H30zM50 410h20v20H50zM110 410h20v20h-20zM130 410h20v20h-20zM190 410h20v20h-20zM250 410h20v20h-20zM310 410h20v20h-20zM350 410h20v20h-20zM390 410h20v20h-20zM450 410h20v20h-20zM470 410h20v20h-20zM510 410h20v20h-20zM570 410h20v20h-20zM610 410h20v20h-20zM630 410h20v20h-20zM650 410h20v20h-20zM90 430h20v20H90zM110 430h20v20h-20zM130 430h20v20h-20zM150 430h20v20h-20zM170 430h20v20h-20zM190 430h20v20h-20zM250 430h20v20h-20zM370 430h20v20h-20zM410 430h20v20h-20zM430 430h20v20h-20zM470 430h20v20h-20zM590 430h20v20h-20zM670 430h20v20h-20zM30 450h20v20H30zM50 450h20v20H50zM70 450h20v20H70zM110 450h20v20h-20zM170 450h20v20h-20zM190 450h20v20h-20zM210 450h20v20h-20zM230 450h20v20h-20zM270 450h20v20h-20zM290 450h20v20h-20zM310 450h20v20h-20zM330 450h20v20h-20zM370 450h20v20h-20zM390 450h20v20h-20zM410 450h20v20h-20zM430 450h20v20h-20zM490 450h20v20h-20zM510 450h20v20h-20zM530 450h20v20h-20zM550 450h20v20h-20zM630 450h20v20h-20zM670 450h20v20h-20zM30 470h20v20H30zM70 470h20v20H70zM150 470h20v20h-20zM170 470h20v20h-20zM190 470h20v20h-20zM230 470h20v20h-20zM290 470h20v20h-20zM310 470h20v20h-20zM330 470h20v20h-20zM370 470h20v20h-20zM390 470h20v20h-20zM430 470h20v20h-20zM450 470h20v20h-20zM510 470h20v20h-20zM570 470h20v20h-20zM590 470h20v20h-20zM610 470h20v20h-20zM650 470h20v20h-20zM30 490h20v20H30zM90 490h20v20H90zM170 490h20v20h-20zM230 490h20v20h-20zM270 490h20v20h-20zM290 490h20v20h-20zM330 490h20v20h-20zM390 490h20v20h-20zM410 490h20v20h-20zM430 490h20v20h-20zM450 490h20v20h-20zM530 490h20v20h-20zM550 490h20v20h-20zM570 490h20v20h-20zM590 490h20v20h-20zM610 490h20v20h-20zM630 490h20v20h-20zM670 490h20v20h-20zM30 510h20v20H30zM90 510h20v20H90zM150 510h20v20h-20zM190 510h20v20h-20zM210 510h20v20h-20zM270 510h20v20h-20zM310 510h20v20h-20zM350 510h20v20h-20zM370 510h20v20h-20zM470 510h20v20h-20zM510 510h20v20h-20zM530 510h20v20h-20zM550 510h20v20h-20zM570 510h20v20h-20zM590 510h20v20h-20zM190 530h20v20h-20zM210 530h20v20h-20zM230 530h20v20h-20zM350 530h20v20h-20zM410 530h20v20h-20zM430 530h20v20h-20zM490 530h20v20h-20zM510 530h20v20h-20zM590 530h20v20h-20zM630 530h20v20h-20zM670 530h20v20h-20zM30 550h20v20H30zM50 550h20v20H50zM70 550h20v20H70zM90 550h20v20H90zM110 550h20v20h-20zM130 550h20v20h-20zM150 550h20v20h-20zM190 550h20v20h-20zM210 550h20v20h-20zM230 550h20v20h-20zM250 550h20v20h-20zM270 550h20v20h-20zM330 550h20v20h-20zM350 550h20v20h-20zM370 550h20v20h-20zM430 550h20v20h-20zM450 550h20v20h-20zM490 550h20v20h-20zM510 550h20v20h-20zM550 550h20v20h-20zM590 550h20v20h-20zM610 550h20v20h-20zM630 550h20v20h-20zM650 550h20v20h-20zM30 570h20v20H30zM150 570h20v20h-20zM210 570h20v20h-20zM230 570h20v20h-20zM250 570h20v20h-20zM310 570h20v20h-20zM390 570h20v20h-20zM410 570h20v20h-20zM430 570h20v20h-20zM450 570h20v20h-20zM510 570h20v20h-20zM590 570h20v20h-20zM610 570h20v20h-20zM630 570h20v20h-20zM670 570h20v20h-20zM30 590h20v20H30zM70 590h20v20H70zM90 590h20v20H90zM110 590h20v20h-20zM150 590h20v20h-20zM190 590h20v20h-20zM230 590h20v20h-20zM250 590h20v20h-20zM370 590h20v20h-20zM390 590h20v20h-20zM510 590h20v20h-20zM530 590h20v20h-20zM550 590h20v20h-20zM570 590h20v20h-20zM590 590h20v20h-20zM610 590h20v20h-20zM650 590h20v20h-20zM30 610h20v20H30zM70 610h20v20H70zM90 610h20v20H90zM110 610h20v20h-20zM150 610h20v20h-20zM190 610h20v20h-20zM210 610h20v20h-20zM230 610h20v20h-20zM270 610h20v20h-20zM290 610h20v20h-20zM310 610h20v20h-20zM350 610h20v20h-20zM370 610h20v20h-20zM410 610h20v20h-20zM430 610h20v20h-20zM450 610h20v20h-20zM470 610h20v20h-20zM490 610h20v20h-20zM590 610h20v20h-20zM630 610h20v20h-20zM650 610h20v20h-20zM670 610h20v20h-20zM30 630h20v20H30zM70 630h20v20H70zM90 630h20v20H90zM110 630h20v20h-20zM150 630h20v20h-20zM190 630h20v20h-20zM230 630h20v20h-20zM290 630h20v20h-20zM310 630h20v20h-20zM330 630h20v20h-20zM350 630h20v20h-20zM390 630h20v20h-20zM450 630h20v20h-20zM490 630h20v20h-20zM510 630h20v20h-20zM530 630h20v20h-20zM550 630h20v20h-20zM570 630h20v20h-20zM610 630h20v20h-20zM30 650h20v20H30zM150 650h20v20h-20zM190 650h20v20h-20zM210 650h20v20h-20zM230 650h20v20h-20zM270 650h20v20h-20zM290 650h20v20h-20zM330 650h20v20h-20zM350 650h20v20h-20zM410 650h20v20h-20zM430 650h20v20h-20zM450 650h20v20h-20zM490 650h20v20h-20zM570 650h20v20h-20zM610 650h20v20h-20zM630 650h20v20h-20zM30 670h20v20H30zM50 670h20v20H50zM70 670h20v20H70zM90 670h20v20H90zM110 670h20v20h-20zM130 670h20v20h-20zM150 670h20v20h-20zM190 670h20v20h-20zM230 670h20v20h-20zM270 670h20v20h-20zM310 670h20v20h-20zM370 670h20v20h-20zM410 670h20v20h-20zM470 670h20v20h-20zM510 670h20v20h-20zM570 670h20v20h-20zM590 670h20v20h-20zM650 670h20v20h-20z"/></svg>