<svg xmlns="http://www.w3.org/2000/svg" xmlns:xlink="http://www.w3.org/1999/xlink" viewBox="0 0 100 100"><style>.st0{display:none}.st1,.st2{display:inline}.st1{stroke:#444;stroke-miterlimit:10;fill:none}.st2{fill:#444}.st3{fill:none;stroke:#444;stroke-width:2;stroke-miterlimit:10}.st4{fill:#444}.st5{fill:none;stroke:#444;stroke-miterlimit:10}</style><image width="1376" height="1492" xlink:href="8C47D34F.jpg" transform="translate(.5246 .6738) scale(.0719)" overflow="visible" opacity=".21" id="Layer_1"/><g id="Layer_2" class="st0"><path class="st1" d="M51.94 85.13s2.27.49 4.3.43l.37 3.26s.12 2.64 4.18 2.15 3.5-2.89 3.5-2.89l-1.72-4.42"/><path class="st1" d="M64.79 88.26s4.71-.33 4.18-3.87c0 0-.49-1.41-1.04-2.52l-.03-.53c3.2-2.51 5.03-9.83 4.23-14.51-.8-4.69 1.37-12.51 1.37-12.51 3.09-14.22-3.66-22.81-3.66-22.81-9.26-12.23-23.77-10.74-23.77-10.74s-3.89-3.43-8.91-10.51-8.91-3.43-8.91-3.43c-2.86 3.43 1.94 9.37 1.94 9.37l4.52 7.66-1.32.69-8.8-7.2s-7.2-5.6-10.63-1.49 1.14 7.89 3.09 10.63 9.26 7.43 9.26 7.43-3.66 6.17 2.4 18.63c0 0 2.97 8.8.91 15.54 0 0-2.29 12.91 10.29 18.51 0 0 13.03 5.14 16.8 3.09"/><path class="st1" d="M29.32 74.31s-4.98 1.54-3.63 5.96c0 0-2.27 2.89 1.17 3.38 0 0 2.38 2.3 5.22 1.04 2.84-1.25 5.04.92 5.04.92l.74-1.04-8.54-10.26z"/><path class="st2" d="M29.26 30.24l2.34-2.89s-9.83-10.75-13.77-8.42 6.88 8.73 6.88 8.73l4.55 2.58zM38.67 22.56l4.83-1.23S35.9 9.53 31.97 9.1s2.89 7.68 2.89 7.68l3.81 5.78z"/><ellipse class="st2" cx="55.81" cy="46.87" rx="1.6" ry="1.81"/><ellipse class="st2" cx="69.79" cy="44.5" rx="1.38" ry="1.72"/><ellipse class="st1" cx="65.58" cy="52.8" rx="2.83" ry="1.97"/><path class="st1" d="M62.39 52.49s-4.98 2.21-1.54 5.29c3.44 3.07 5.35-2.64 5.35-2.64"/><path class="st1" d="M68.9 53.11s2.52 1.29.61 3.99c-1.91 2.7-3.93-.31-3.93-.31"/><path class="st1" d="M63.8 58.68l.43 3.28 3.01-.37v-3.36"/></g><g id="Layer_2_copy"><path class="st3" d="M55.88 91.84s2.52.55 4.77.48l.41 3.61s.14 2.93 4.63 2.38 3.88-3.2 3.88-3.2l-1.91-4.9"/><path class="st3" d="M70.12 95.32s5.22-.37 4.63-4.29c0 0-.55-1.57-1.16-2.79l-.04-.58c3.55-2.79 5.57-10.9 4.69-16.09-.89-5.19 1.52-13.87 1.52-13.87 3.42-15.77-4.05-25.28-4.05-25.28C65.45 18.86 49.36 20.5 49.36 20.5s-4.31-3.8-9.88-11.66-9.88-3.8-9.88-3.8c-3.17 3.8 2.15 10.39 2.15 10.39l5.01 8.49-1.47.76-9.76-7.98s-7.98-6.21-11.78-1.65 1.27 8.74 3.42 11.78 10.26 8.23 10.26 8.23-4.05 6.84 2.66 20.65c0 0 3.29 9.76 1.01 17.23 0 0-2.53 14.32 11.4 20.52 0 0 14.44 5.7 18.62 3.42"/><path class="st4" d="M30.74 31l2.59-3.2s-10.9-11.92-15.26-9.33 7.63 9.67 7.63 9.67L30.74 31zM40.37 22.81l5.36-1.36S37.31 8.37 32.95 7.89s3.2 8.52 3.2 8.52l4.22 6.4z"/><ellipse class="st4" cx="60.17" cy="49.43" rx="1.77" ry="2.01"/><ellipse class="st4" cx="75.67" cy="46.81" rx="1.53" ry="1.91"/><ellipse class="st5" cx="71.01" cy="56.01" rx="3.13" ry="2.18"/><path class="st5" d="M67.46 55.67s-5.52 2.45-1.7 5.86c3.82 3.41 5.93-2.93 5.93-2.93"/><path class="st5" d="M74.68 56.35s2.79 1.43.68 4.43-4.36-.34-4.36-.34M69.03 62.53l.48 3.63 3.33-.41v-3.73"/><path d="M30.81 79.35s-5.52 1.7-4.02 6.61c0 0-2.52 3.2 1.29 3.75 0 0 2.64 2.55 5.79 1.16s5.59 1.02 5.59 1.02" fill="none" stroke="#444" stroke-width="2" stroke-linejoin="round" stroke-miterlimit="10"/></g></svg>