<svg xmlns="http://www.w3.org/2000/svg" viewBox="0 0 100 100"><path d="M92.45 35.96c-.49-1.42-2.45-3.22-12.3-4.06.01-.26.01-.53.01-.8 0-2.15-.23-4.25-.66-6.27 4.12-2.47 7.3-5.71 9.39-9.66.51-.96 2.06-3.89.42-5.43-1.16-1.09-4.05-1.76-15.13 3.37C68.69 5.74 59.9.95 50 .95s-18.7 4.8-24.2 12.19C14.72 8 11.84 8.67 10.68 9.76c-1.64 1.54-.09 4.46.42 5.43 2.1 3.95 5.27 7.19 9.39 9.66-.43 2.02-.66 4.11-.66 6.26 0 .27 0 .54.01.81-9.84.84-11.8 2.64-12.29 4.06-.75 2.15 1.93 4.03 2.81 4.64 3.69 2.59 8 3.98 12.77 4.18 4.56 8.92 13.44 15.28 23.86 16.32.17 5.44.37 10.74.57 15.22.28 6.29.57 11.68.85 15.58.15 2.05.28 3.64.41 4.73.18 1.53.29 2.46 1.19 2.46.9 0 1.01-.93 1.19-2.46.13-1.09.26-2.68.41-4.73.28-3.9.57-9.29.85-15.58.2-4.49.4-9.79.57-15.22 10.42-1.04 19.3-7.41 23.86-16.34 4.77-.2 9.07-1.59 12.76-4.18.87-.61 3.55-2.48 2.8-4.64zm-14.77 7.13c-.46.03-.93.06-1.4.07-.46.01-.93.01-1.4-.01-3.47-.11-7.19-.87-11.17-2.28-3.39-1.2-6.4-2.7-8.68-3.99-.27-.15-.53-.3-.77-.44-.26-.15-.52-.3-.76-.45-1.27-.77-2.19-1.39-2.65-1.71v-.73c.66-.03 1.7-.09 3.03-.14.27-.01.55-.02.84-.03.27-.01.56-.02.85-.03 3.81-.14 9.13-.27 14.48-.2 2.88.04 5.35.13 7.49.26.43.03.85.05 1.26.08.43.03.85.06 1.26.1 9.21.79 10.61 2.36 10.81 2.93.21.6-.59 1.59-2.19 2.71-3.25 2.27-6.92 3.56-11 3.86zM53.09 58.58c.18-6.15.3-12.34.32-17.61.43-.68.81-1.5 1.13-2.42 2.29 1.27 5.22 2.71 8.56 3.89 3.82 1.36 7.48 2.13 10.92 2.32-4.27 7.5-11.96 12.81-20.93 13.82zm-27.11-13.8c3.44-.19 7.1-.96 10.91-2.32 3.34-1.19 6.28-2.63 8.56-3.9.32.92.7 1.73 1.13 2.41.02 5.26.14 11.45.32 17.61-8.95-1.01-16.64-6.31-20.92-13.8zm-14.66-5.53c-1.6-1.12-2.4-2.11-2.19-2.71.2-.57 1.6-2.14 10.81-2.93.4-.03.82-.07 1.26-.1.41-.03.83-.06 1.26-.08 2.13-.13 4.61-.22 7.48-.26 1.07-.01 2.14-.02 3.19-.02 4.23 0 8.25.11 11.3.22.29.01.57.02.85.03.29.01.57.02.85.03 1.33.06 2.37.11 3.03.14v.73c-.46.32-1.38.94-2.65 1.7-.24.14-.49.29-.76.45-.25.14-.5.29-.77.44-4.58 2.57-12.08 5.99-19.87 6.23-.46.01-.93.02-1.4.01-.47-.01-.93-.03-1.4-.06-3.76-.28-7.53-1.4-10.99-3.82zm11.04-8.14c0-1.71.16-3.38.45-5 3.35 1.64 7.22 2.84 11.56 3.56 3.75.62 7.23.79 9.96.79h.01c0 .21-.01.43-.01.65 0 .19 0 .37.01.56-3.82-.14-9.11-.27-14.43-.19-2.87.04-5.37.13-7.55.26v-.63zM11.83 10.99c.15-.14.5-.33 1.29-.33 1.56 0 4.84.72 11.69 3.87.37.17.75.35 1.14.53.38.18.76.36 1.16.55 1.45.7 3.04 1.5 4.77 2.4 4.94 2.57 9.74 5.31 13.1 7.27.27.16.52.31.77.45.26.15.52.3.76.45 1.23.73 2.15 1.28 2.64 1.58v.81c-.65.06-1.69.13-3.03.17-.27.01-.55.01-.84.02-.27 0-.55.01-.84.01-2.7 0-6.15-.16-9.83-.77-3.53-.59-7.61-1.66-11.43-3.59-.39-.2-.77-.4-1.15-.61-.38-.21-.75-.43-1.12-.66-3.31-2.06-6.28-4.88-8.33-8.73-.91-1.73-1.19-3.01-.75-3.42zM50 3.47c8.89 0 16.81 4.22 21.87 10.76-1.4.68-2.91 1.44-4.54 2.29-4.79 2.49-9.45 5.14-12.8 7.09-.17-.48-.36-.94-.56-1.36 1.04-.9 1.63-2.12 1.63-3.39 0-2.15-1.67-4.05-4.06-4.63-.09-.02-.19-.04-.29-.06-.3-1.5-.46-2.84-.46-3.82h-1.58c0 .97-.16 2.32-.46 3.82-.09.02-.19.04-.28.06-2.4.58-4.07 2.48-4.07 4.63 0 1.27.6 2.5 1.64 3.39-.2.42-.39.88-.56 1.37-3.35-1.95-8.01-4.6-12.8-7.09-1.64-.85-3.15-1.61-4.55-2.29C33.18 7.69 41.11 3.47 50 3.47zm38.17 7.5c.44.41.16 1.69-.76 3.41-2.05 3.85-5.02 6.67-8.33 8.73-.37.23-.74.45-1.12.66-.38.23-.76.43-1.15.63-3.82 1.93-7.9 3-11.43 3.59-3.67.61-7.13.77-9.83.77-.29 0-.57 0-.85-.01-.29 0-.57-.01-.84-.02-1.34-.04-2.38-.11-3.03-.17V27.74c.49-.3 1.41-.85 2.64-1.58.24-.14.49-.29.76-.45.25-.15.5-.3.77-.45 3.35-1.96 8.16-4.7 13.1-7.27 1.73-.9 3.32-1.69 4.76-2.4.4-.19.78-.38 1.16-.55.39-.19.77-.36 1.14-.53 10.34-4.74 12.56-3.96 13.01-3.54zM77.64 31.11c0 .21 0 .41-.01.61-2.18-.13-4.68-.22-7.56-.26-5.32-.07-10.61.05-14.43.19 0-.18.01-.36.01-.55 0-.22 0-.44-.01-.66h.01c2.73 0 6.22-.17 9.96-.79 4.34-.72 8.21-1.92 11.56-3.56.31 1.63.47 3.31.47 5.02zM51.37 59.98c-.01.42-.03.84-.04 1.26-.02.57-.04 1.15-.06 1.72h-2.54c-.02-.58-.04-1.15-.06-1.72-.01-.42-.03-.84-.04-1.26-.01-.38-.02-.75-.03-1.13h2.8c-.01.38-.02.75-.03 1.13zm-.3 8.78h-2.13c-.05-1.36-.1-2.74-.15-4.11h2.43c-.05 1.37-.1 2.75-.15 4.11zm-.24 5.78h-1.67c-.06-1.35-.11-2.72-.17-4.1h2c-.04 1.39-.1 2.76-.16 4.1zm-.26 5.79h-1.14c-.06-1.33-.13-2.7-.19-4.1h1.52c-.06 1.4-.12 2.77-.19 4.1zm-.08 1.68c-.16 3.26-.33 6.2-.49 8.65-.16-2.45-.33-5.39-.49-8.65h.98zm1.2-36.44h-3.38c-.01-.96-.02-1.89-.03-2.8.54.35 1.12.53 1.72.53.6 0 1.18-.18 1.72-.53-.01.91-.02 1.84-.03 2.8zm-.1 5.8h-3.18c-.03-1.41-.06-2.78-.08-4.12h3.33c-.01 1.34-.04 2.72-.07 4.12zm-.14 5.8h-2.89c-.04-1.39-.07-2.76-.11-4.12h3.1c-.03 1.36-.07 2.73-.1 4.12zm1.12-18.2c-.13.29-.26.56-.4.8-.14.26-.29.49-.44.69-.04.05-.08.1-.11.15-.52.65-1.08 1.01-1.62 1.01s-1.1-.36-1.62-1.01c-.04-.05-.08-.1-.11-.15-.15-.21-.3-.44-.44-.69-.14-.25-.27-.51-.4-.8-.17-.38-.33-.81-.47-1.26 1.43-.85 2.48-1.55 3.06-1.95.58.4 1.62 1.1 3.04 1.94-.16.45-.32.88-.49 1.27zm-2.62-7.06h-.07c-.47-.03-1.85-.1-3.84-.18 0-.21-.01-.41-.01-.63 0-.23 0-.45.01-.67 2.28-.06 3.77-.23 4.03-.26.47.05 1.87.19 3.9.24.01.23.01.45.01.69 0 .21 0 .41-.01.61-2.45.11-3.98.2-4.02.2zm-1.99-10.26c.23-.36.46-.84.71-1.45l.12-.3c.1-.26.2-.54.3-.83.33-.97.64-2.08.91-3.21.27 1.13.58 2.24.91 3.21.1.29.2.57.3.84l.12.3c.25.61.48 1.09.71 1.45-.09.05-.19.09-.29.13-.54.21-1.13.33-1.75.33-.61 0-1.2-.11-1.74-.32-.1-.06-.2-.11-.3-.15zm5.34-.94c-.33-.58-.8-1.75-1.26-3.3 0-.01-.01-.02-.01-.03-.01-.02-.01-.05-.02-.07-.03-.09-.05-.17-.08-.26 0-.01 0-.01-.01-.02v-.01c-.1-.35-.2-.72-.29-1.1 1.43.51 2.39 1.67 2.39 2.95 0 .66-.25 1.3-.72 1.84zM48.07 17c0 .01 0 .01 0 0 0 .01 0 .01 0 0l-.12.42v.01c-.45 1.54-.92 2.7-1.25 3.27-.47-.54-.72-1.17-.72-1.84 0-1.28.96-2.44 2.39-2.95-.1.38-.2.75-.3 1.09zm-.6 6.16c.78.34 1.64.52 2.53.52.89 0 1.75-.18 2.53-.52.18.4.35.85.51 1.33-1.43.84-2.5 1.49-3.05 1.82-.56-.34-1.62-.98-3.03-1.81.16-.49.33-.94.51-1.34z" fill="#444"/></svg>