<svg id="Layer_1" xmlns="http://www.w3.org/2000/svg" viewBox="0 0 100 100"><style>.st0{fill-rule:evenodd;clip-rule:evenodd;fill:#444}</style><path class="st0" d="M4.15 48.11c3.58-2.94 7.46-4.36 12.15-1.58 3.19 1.76 6.13 1.77 8.91.83-1.82 2.75-3.09 5.59-3.81 8.54-2.65.41-5.09-.67-7.22-3.87-2.33-4.92-5.89-5.43-10.03-3.92zM13.72 31.82c4.42-1.4 8.55-1.28 11.87 3.04 2.31 2.81 5.03 3.92 7.97 4.08-2.72 1.87-4.94 4.05-6.7 6.52-2.6-.6-4.47-2.5-5.27-6.28-.34-5.44-3.47-7.23-7.87-7.36zM28.36 20.38c4.62.31 8.42 1.94 9.94 7.17 1.12 3.46 3.25 5.5 5.94 6.72-3.2.75-6.08 1.97-8.62 3.63-2.2-1.51-3.25-3.97-2.6-7.77 1.65-5.19-.61-8.01-4.66-9.75zM46.51 15.07c4.18 2.02 7.11 4.93 6.57 10.34-.24 3.64.98 6.31 3.01 8.44-3.25-.49-6.38-.44-9.35.16-1.48-2.23-1.55-4.9.47-8.18 3.47-4.19 2.41-7.66-.7-10.76zM65.18 16.82c3.14 3.42 4.78 7.2 2.28 12.03-1.56 3.29-1.41 6.21-.31 8.94-2.85-1.66-5.76-2.75-8.75-3.3-.55-2.62.37-5.11 3.45-7.43 4.78-2.59 5.07-6.2 3.33-10.24zM81.89 25.33c1.68 4.33 1.81 8.46-2.31 12.03-2.67 2.47-3.61 5.25-3.58 8.21-2.03-2.59-4.34-4.68-6.91-6.29.46-2.63 2.23-4.62 5.95-5.64 5.38-.68 6.98-3.92 6.85-8.31zM94.25 39.35c-.03 4.64-1.43 8.52-6.57 10.34-3.4 1.32-5.29 3.56-6.34 6.31-.94-3.16-2.33-5.95-4.13-8.39 1.38-2.29 3.77-3.48 7.61-3.06 5.26 1.37 7.93-1.06 9.43-5.2zM83.58 76.98l.23-2.2c1.76.58 3.51.83 5.53.62 1.78-.14 3.17-2.38 1.48-3.78-.88-.69-2.07-1.15-3.06-1.61-2.95-1.35-4.12-2.38-4.09-5 .1-2.95 2.32-4.54 5.09-4.83 1.83-.16 3.51.2 5.3.93l-.43 2.06c-1.56-.46-2.65-.54-4.3-.44-1.1.1-2.42 1.26-1.95 2.6.27.65 1.05 1.3 1.66 1.59 2.29 1.04 5.3 1.6 6.16 4.28.84 2.9-.83 5.46-3.58 6.43-2.67.88-5.45.19-8.04-.65zm-7.17.69V60.5h3.48v17.17h-3.48zm-3.16-17.29l-.37 3.36c-2.23-.84-4.09.62-5.21 2.86v11.07h-3.54V60.5h3.04l.18 2.76c2.17-2.77 3.7-3.77 5.9-2.88zm-18.38 9.36c-3.49-.35-5.75.67-5.86 2.98-.03 1.6.85 3.04 3.37 2.7 1.04-.19 2.23-.84 3.05-1.48v-4.19l-.56-.01zm-1.16 7.73c-1.42.62-3.8.92-5.28.42-3.71-1.34-3.85-6.34-.88-8.82 2.1-1.65 5.31-1.73 7.89-1.73 0-1.64.48-3.92-1.51-4.32-2.2-.35-5.08-.31-6.97.68l-.63-2.21c2.65-1.06 6.84-1.85 9.67-1.03 2.42.77 3.24 2.77 3.26 5.16v12.13l-2.87.01-.31-1.83c-.73.62-1.5 1.14-2.37 1.54zm-25.77-4.04c1.13-2.27.94-6.49-.14-8.76-1.34-2.82-5.21-2.48-6.47.22-1.08 2.31-1.13 6.21-.02 8.52 1.3 2.74 5.28 2.73 6.63.02zm-9.23 2.3c-2.61-3.32-2.52-9.77.15-13.03 2.76-3.36 9.13-3.65 11.83-.06 2.54 3.37 2.05 9.79-.59 12.95-2.67 3.21-8.73 3.53-11.39.14zm20.51-1.63c.14 2.16 2.04 1.44 3.66 1.26.14.67.29 1.34.43 2.02-2.36.68-7.58 2.02-7.63-2.22V60.31h3.54V74.1zM2.89 76.98l.23-2.2c1.76.58 3.51.83 5.53.62 1.78-.14 3.16-2.38 1.48-3.78-.88-.69-2.07-1.15-3.06-1.61-2.95-1.35-4.12-2.38-4.09-5 .1-2.95 2.32-4.54 5.09-4.83 1.83-.16 3.51.2 5.3.93l-.43 2.06c-1.56-.46-2.65-.54-4.3-.44-1.1.1-2.42 1.26-1.95 2.6.27.65 1.05 1.3 1.66 1.59 2.29 1.04 5.3 1.6 6.16 4.28.84 2.9-.83 5.46-3.58 6.43-2.67.88-5.46.19-8.04-.65zm91.87-14.97v-1.23h-.44v-.25h1.18v.25h-.44v1.23h-.3zm.92 0v-1.48h.45l.27 1.01.27-1.01h.45v1.48h-.28v-1.17l-.29 1.17h-.29l-.29-1.17v1.17h-.29z"/></svg>