<svg id="Layer_2" xmlns="http://www.w3.org/2000/svg" viewBox="0 0 100 138"><style>.st0{fill:#214075}</style><path class="st0" d="M77.1 83.24c-1.17-1.17-3.07-1.17-4.24 0L53 103.1V4.2c0-1.66-1.34-3-3-3s-3 1.34-3 3v98.9L27.14 83.24c-1.17-1.17-3.07-1.17-4.24 0-1.17 1.17-1.17 3.07 0 4.24l24.98 24.98c.59.59 1.35.88 2.12.88s1.54-.29 2.12-.88L77.1 87.48c1.17-1.17 1.17-3.07 0-4.24z"/><path class="st0" d="M96.66 137.73H3.34c-1.66 0-3-1.34-3-3V46.4c0-1.66 1.34-3 3-3h32.83c1.66 0 3 1.34 3 3s-1.34 3-3 3H6.34v82.33h87.33V49.4H63.83c-1.66 0-3-1.34-3-3s1.34-3 3-3h32.83c1.66 0 3 1.34 3 3v88.33c0 1.66-1.34 3-3 3z"/></svg>