<svg xmlns="http://www.w3.org/2000/svg" viewBox="0 0 100 100"><path d="M66.9 17.55C69.25 15.2 91.39 1.22 96.42 6.27c5.03 5.03-8.93 27.17-11.28 29.52-2.35 2.35-8.36.19-13.38-4.86-5.05-5.03-7.24-11.03-4.86-13.38zm-41.1-5.96C18.1 7.22 7.16 2.36 3.68 5.86.16 9.38 5.19 20.58 9.6 28.28c3.92-6.83 9.5-12.58 16.2-16.69zm62.94 22.45c.7 2.4.57 4.39-.57 5.54-4.31 4.31-18.56-5.73-23.18-14.87-3.82-6.85-2.35-11.32 3.16-10.33 1.21-.76 2.61-1.61 4.16-2.46-6.32-3.29-13.49-5.15-21.1-5.15-25.26 0-45.72 20.47-45.72 45.72 0 25.24 20.47 45.72 45.72 45.72s45.72-20.47 45.72-45.72c0-8.14-2.14-15.8-5.87-22.44-.83 1.49-1.62 2.83-2.32 3.99z" fill="#444"/></svg>