<svg xmlns="http://www.w3.org/2000/svg" viewBox="0 0 100 100"><path d="M88.2 77.22c-1.47 3.39-3.21 6.52-5.22 9.39-2.75 3.92-5 6.63-6.73 8.13-2.69 2.47-5.57 3.74-8.65 3.81-2.21 0-4.88-.63-7.99-1.91-3.12-1.27-5.98-1.9-8.6-1.9-2.75 0-5.69.63-8.84 1.9-3.16 1.28-5.7 1.94-7.64 2.01-2.96.13-5.9-1.18-8.84-3.91-1.88-1.64-4.23-4.44-7.04-8.42-3.02-4.25-5.5-9.17-7.44-14.78-2.09-6.06-3.14-11.94-3.14-17.62 0-6.51 1.41-12.13 4.23-16.83 2.21-3.78 5.16-6.76 8.85-8.95s7.67-3.3 11.96-3.38c2.35 0 5.43.73 9.25 2.15 3.82 1.43 6.27 2.16 7.34 2.16.8 0 3.52-.85 8.14-2.54 4.36-1.57 8.05-2.22 11.06-1.96 8.17.66 14.32 3.88 18.4 9.69-7.31 4.43-10.93 10.63-10.86 18.59.07 6.2 2.31 11.36 6.73 15.45 2 1.9 4.24 3.37 6.73 4.41-.53 1.57-1.1 3.07-1.7 4.51zM69.45 3.45c0 4.86-1.78 9.4-5.31 13.6-4.27 4.99-9.43 7.88-15.04 7.42-.07-.58-.11-1.2-.11-1.84 0-4.66 2.03-9.66 5.64-13.74 1.8-2.07 4.09-3.79 6.87-5.16 2.77-1.35 5.39-2.1 7.86-2.23.06.65.09 1.3.09 1.95z" fill="#444"/></svg>