<svg xmlns="http://www.w3.org/2000/svg" viewBox="0 0 100 100"><path d="M50.14 24.61c.19.1.35.33.58.33.21 0 .54-.08.56-.29.04-.27-.37-.44-.62-.56-.33-.14-.75-.19-1.06-.02-.08.04-.15.14-.12.21.06.26.45.22.66.33zm-4.22.33c.23 0 .39-.23.58-.33.21-.12.6-.08.68-.31.04-.08-.04-.17-.12-.21-.31-.17-.73-.12-1.06.02-.25.12-.66.29-.62.56.02.19.34.29.54.27zm42.65 53.79c-.69-.77-1.02-2.24-1.39-3.8-.35-1.56-.75-3.24-2.03-4.32-.25-.21-.5-.41-.77-.56-.25-.15-.52-.29-.79-.39 1.77-5.27 1.08-10.51-.71-15.26-2.2-5.81-6.04-10.88-8.97-14.35-3.3-4.15-6.5-8.08-6.44-13.89.1-8.85.98-25.31-14.62-25.33C33.09.79 38.03 20.77 37.81 26.91c-.33 4.51-1.23 8.06-4.34 12.48-3.65 4.34-8.78 11.34-11.21 18.66-1.16 3.45-1.7 6.96-1.2 10.28-1.25 1.12-2.2 2.84-3.2 3.9-.81.83-1.99 1.14-3.28 1.6s-2.7 1.16-3.57 2.8c-.41.75-.54 1.56-.54 2.39 0 .75.12 1.52.23 2.28.23 1.56.48 3.03.15 4.01-1 2.78-1.14 4.71-.42 6.12.73 1.41 2.2 2.03 3.88 2.37 3.34.69 7.87.52 11.44 2.41 3.82 2.01 7.7 2.72 10.78 2.01 2.24-.5 4.07-1.85 5-3.9 2.41-.02 5.07-1.04 9.32-1.27 2.87-.23 6.48 1.02 10.63.79.12.44.27.89.48 1.29v.02c1.6 3.22 4.59 4.69 7.77 4.44 3.2-.25 6.58-2.12 9.32-5.38 2.62-3.16 6.95-4.48 9.82-6.21 1.43-.87 2.59-1.95 2.68-3.53.09-1.6-.84-3.35-2.98-5.74zM50.7 17.67c1.89-4.28 6.6-4.21 8.49-.08 1.25 2.74.69 5.96-.83 7.79-.31-.15-1.14-.5-2.43-.95.21-.23.6-.52.75-.89.93-2.28-.04-5.21-1.76-5.27-1.41-.1-2.68 2.08-2.28 4.44-.79-.39-1.81-.68-2.51-.85-.18-1.32-.05-2.8.57-4.19zm-7.85-2.22c1.95 0 4.01 2.74 3.68 6.46-.68.19-1.37.48-1.97.89.23-1.72-.64-3.88-1.85-3.78-1.62.14-1.89 4.09-.35 5.42.19.15.37-.04-1.14 1.06-3-2.82-2.02-10.05 1.63-10.05zm-2.62 11.71c1.2-.89 2.62-1.93 2.72-2.03.91-.85 2.6-2.74 5.38-2.74 1.37 0 3.01.44 5 1.72 1.22.79 2.18.85 4.36 1.79 1.62.68 2.64 1.87 2.03 3.51-.5 1.37-2.12 2.78-4.38 3.49-2.14.69-3.82 3.09-7.37 2.87-.75-.04-1.35-.19-1.85-.41-1.54-.68-2.35-2.01-3.86-2.89-1.66-.93-2.55-2.01-2.84-2.95-.27-.93 0-1.72.81-2.36zm.63 64.43c-.52 6.77-8.47 6.64-14.53 3.47-5.77-3.05-13.23-1.25-14.76-4.22-.46-.91-.46-2.45.5-5.09v-.04c.46-1.47.12-3.09-.12-4.61-.23-1.5-.35-2.89.17-3.86.68-1.29 1.64-1.76 2.86-2.18 1.99-.71 2.28-.66 3.78-1.91 1.06-1.1 1.83-2.49 2.76-3.47.98-1.06 1.93-1.56 3.41-1.33 1.56.23 2.91 1.31 4.22 3.09l3.78 6.87c1.86 3.83 8.34 9.33 7.93 13.28zm-.27-4.99c-.79-1.27-1.85-2.62-2.78-3.78 1.37 0 2.74-.42 3.22-1.72.44-1.2 0-2.87-1.43-4.8-2.6-3.51-7.39-6.27-7.39-6.27-2.6-1.62-4.07-3.61-4.75-5.77-.68-2.16-.58-4.5-.06-6.79 1-4.42 3.59-8.72 5.25-11.42.44-.33.15.62-1.68 4.01-1.64 3.11-4.71 10.28-.5 15.9.12-3.99 1.06-8.06 2.66-11.86 2.32-5.29 7.2-14.45 7.58-21.74.21.15.89.62 1.2.79.89.52 1.56 1.29 2.43 1.99 2.39 1.93 5.5 1.77 8.18.23 1.2-.68 2.16-1.45 3.07-1.74 1.91-.6 3.43-1.66 4.3-2.89 1.49 5.86 4.96 14.33 7.18 18.46 1.18 2.2 3.53 6.85 4.55 12.46.64-.02 1.35.08 2.1.27 2.66-6.89-2.26-14.31-4.5-16.38-.91-.89-.95-1.27-.5-1.25 2.43 2.16 5.63 6.5 6.79 11.38.54 2.24.64 4.57.08 6.89 3.16 1.31 6.93 3.45 5.92 6.71-.42-.02-.62 0-.81 0 .62-1.95-.75-3.4-4.4-5.04-3.78-1.66-6.95-1.66-7.39 2.41-2.33.81-3.53 2.84-4.13 5.27-.54 2.16-.69 4.77-.85 7.7-.1 1.49-.69 3.47-1.31 5.59-6.17 4.42-14.77 6.35-22.03 1.39zm49.66-2.22c-.17 3.24-7.95 3.84-12.19 8.97-2.55 3.03-5.67 4.71-8.41 4.92s-5.11-.93-6.5-3.72c-.91-2.14-.46-4.46.21-7 .71-2.74 1.77-5.56 1.91-7.83.15-2.93.33-5.5.81-7.47.5-1.99 1.27-3.32 2.64-4.07.06-.04.14-.06.19-.1.15 2.55 1.41 5.13 3.63 5.69 2.43.64 5.92-1.45 7.41-3.14 1.74-.06 3.03-.17 4.36.98 1.91 1.64 1.37 5.85 3.3 8.03 2.04 2.23 2.7 3.76 2.64 4.74zM40.98 29.51c.39.37.91.87 1.54 1.37 1.27 1 3.05 2.04 5.27 2.04 2.24 0 4.34-1.14 6.13-2.08.95-.5 2.1-1.35 2.86-2.01s1.14-1.22.6-1.27-.5.5-1.16.98c-.85.62-1.87 1.43-2.68 1.89-1.43.81-3.76 1.97-5.77 1.97s-3.61-.93-4.8-1.87c-.6-.48-1.1-.96-1.49-1.33-.29-.27-.37-.89-.83-.95-.27-.01-.35.72.33 1.26z" fill="#444"/></svg>