<svg id="Layer_1" xmlns="http://www.w3.org/2000/svg" viewBox="0 0 100 100"><style>.st0{fill:#444}</style><path class="st0" d="M56.75 6.58c-.83 1.92-.6 4.17-1.2 6.17-.14.46-.59 1.85-1.26 1.75-1.36-.2-.66-2.81-2.23-2.86l.5 3.82c-2.36.3-2.04-3.39-3-4.88-1.11-1.73-1.37.78-1.29 1.55.05.49.14.98.2 1.48.1.86.13 1.61.02 2.46-2.25-.03-1.42-2.99-3.07-3.44l.12 3.57c-2.5-.02-3.64-2.28-4.74-4.19-.46-.8-1.07-2.34-2.17-1.85.51 2.22 1.73 4.34 1.86 6.65.03.6-.53 2.12-1.36 1.84-1.91-.64-1.66-4.12-3.25-5.03-.32-.18-.84-.02-1.19-.01 0 1.84.81 4.07 1.46 5.8.14.37.52 1.68-.29 1.65-1.44-.04-1.8-2.85-3.27-2.52.18.76.63 1.37.88 2.1.15.44.44.89.53 1.36.18 1.01-1.11 1.09-1.77.9-1.57-.46-2.7-1.74-3.82-2.86-.31-.31-1.13-1.41-1.64-.91-.58.55.56 1.52.88 1.89.96 1.11 2 2.41 2.46 3.82.2.61.23 1.47-.37 1.88-.6.41-1.58-.33-2.06-.65-1.48-.97-2.94-2.67-4.8-2.71l-.43 1.11 1.18 1.61 3.07 3.44-3.58-1.48c.14.93 2.39 2.07 1.95 3.03-.26.57-1.56.58-2.07.51-1.82-.26-3.11-1.61-4.81-2.1-1.5-.43-1.22.72-.37 1.39.29.23.58.48.87.73.51.44 1 .89 1.48 1.37.75.75 1.4 1.55 2.1 2.34l-3.57-.13v.25l3.45 1.61-.62 2.46c-1 0-1.81-.28-2.71-.67-.62-.27-1.26-.71-1.97-.66-.84.06-1.34.83-.78 1.54.84 1.07 2.53 1.68 3.61 2.52.41.32 1 .87.54 1.41-.92 1.08-3.4-.3-4.61.06v.24c1.12.66 3.43 1.03 4.09 2.24.52.95-.95 3.08-1.99 3-.93-.07-1.78-1.12-2.46-1.67-1.64-1.32-3.39-2.86-5.3-3.77-3.27-1.56-6.53.92-9.12 2.54.33 1.05 1.64-.07 2.46.12 1.11.25 1.95 1.28 2.66 2.1 3.43 3.95 6.31 8.44 7.59 13.56.34 1.35.92 2.95-.09 4.16-.27.32-.68.37-.98.64-.22.2-.2.49.1.58.56.17 1.38-.1 1.94-.23 1.81-.44 3.88-1.41 4.7-3.18.51-1.11.69-3.25 1.96-3.69.28 1.18 1.62 2.75 1.49 3.94-.12 1.06-1.23 2.28-1.88 3.06-.23.28-.8.89-.46 1.29.33.4 1.02-.46 1.23-.66.94-.88 2.98-2.28 3.54-.25.48 1.76-1.07 4.61-1.85 6.16-.22.43-1.21 1.78-.82 2.26.45.55 1.39-.89 1.59-1.15.78-1.02 3.49-4.03 4.94-2.94 1.76 1.32 1.16 2.26.49 4.05-.19.5-.89 1.77-.42 2.25.46.46 1.06.04 1.29-.41.42-.8 1.56-3.18 2.7-2.58.71.38 1.8 1.02 2.22 1.74.65 1.11.09 3.33-.08 4.54-.1.7-.85 2.87-.23 3.37.57.46 1.04-.93 1.21-1.27.61-1.21 1.31-2.44 2.22-3.45.32-.36.78-.97 1.33-.87 2.86.54-.06 3.39 1.12 4.85.24.29.88.27 1.23.33l1.48-3.81c.75.29 1.85.38 2.41 1.01.47.52.56 1.41.69 2.07.38 1.86.59 3.66.35 5.55.23.17.6.56.91.36.4-.25.45-1.29.59-1.72.43-1.36 1.09-2.66 1.71-3.94.41-.85 1.52-1.75 2.32-.58.82 1.19.49 3.29 1 4.65 1.31-.64 1.45-3.38 1.48-4.69l1.7.25 1.02 2.1 1.84 5.3c.95-.36.66-2.2.77-3.08.15-1.2.42-3.6 1.29-4.49.35-.36 1.06-.39 1.52-.56.52 1.28.81 2.72 1.44 3.94.25.48.81.98 1.38.69.54-.28.52-.91.45-1.43-.17-1.28-.46-2.53-.56-3.82 2.44-.17 3.87 1.8 5.41 3.45.59.64 1.11 1.48 1.98 1.73l-1.26-3.7-.7-3.44c.89-.37 2.76-2.18 3.69-1.92 1.39.39 2.45 4.26 4.18 3.35.74-.39.36-1.04.01-1.56-.52-.77-2.06-2.61-1.89-3.57.12-.71 1.31-1.54 2.01-1.53 1.6.02 4.38 1.24 5.3 2.52l1.11-.12c-.17-2.21-3.47-3.22-3.94-5.43-.05-.22-.04-.48.02-.7.35-1.42 1.2-.8 2.08-.42.27.12.87.42 1.1.08.25-.37-.19-.87-.35-1.18-.33-.64-.64-1.38-.5-2.1 1.15.3 1.86.99 2.83 1.63.23.15.73.54 1.02.32.31-.22-.14-.68-.29-.85-.43-.5-1.77-1.72-1.63-2.46.09-.5.92-1.03 1.26-1.37 1.13-1.12 2.41-2.27 3.32-3.57h.13c2.18 2.54 9 .76 8.13-3.08-.54.08-1.05.51-1.61.31-2.43-.84-1.84-4.72-4.56-4.75-.2-2.53-1.22-5.07-2.45-7.27-.56-1.01-1.73-1.93-2.14-2.96-.23-.57-.19-1.47-.21-2.09 1.43-.22.72-1.67.2-2.46-.58-.89-1.19-1.94-1.94-2.7-.92-.92-2.3-1.53-2.18-3.09.11-1.46 2.62-1.28 3.05-2.59-.75.03-1.48.22-2.22.34-1.83.31-2.15-.31-1.29-1.94.75-1.42 1.93-2.51 2.98-3.7.34-.38 1.37-1.25.84-1.8-.44-.46-1.17.24-1.54.49-1.36.9-2.88 1.57-4.44 2.05-.46.14-1.83.67-1.98-.15-.21-1.11 1.89-1.31 1.62-2.56-.84.2-2.49 1.52-3.3.9-.97-.74.46-2.63.61-3.5.15-.88-.55-.91-1.05-.36-.17.19-.34.4-.5.61-.28.35-.51.7-.69 1.11-2.02-1.18 1.8-2.55 1.08-3.64-.26-.39-.72 0-.95.2-.48.42-2.29 2.49-2.68.97-.43-1.68.44-3.71.9-5.3.12-.42.66-1.53.14-1.83-.76-.44-1.1 1.03-1.27 1.46-.55 1.33-1.45 2.48-2.51 3.43-.35.31-.94.92-1.47.78-.76-.21-.77-2.33-.75-2.97.01-.31.19-.85-.11-1.07-.39-.29-.6.29-.66.57-.19.91-.76 3.5-2.1 1.8-1.22-1.54.67-4.73-1.81-5.37l-1.36 4.31c-1.62-.35-1.27-2.68-.87-3.94l-.74-.25c-.12.5-.28 1-.45 1.49-.66 1.84-1.54 2.2-2.22.12-.52-1.59-.33-3.3-.59-4.93-.17-.66-.22-1.32-.87-1.62zm.12 3.71c.62 1.48-.03 3.34.97 4.8 1.02 1.49 2.92.69 4.16 1.62.44.33.09 1.04-.03 1.46-.41 1.42-1.14 2.47-1.9 3.7 2.68-1.37 3.57-5.27 3.94-8.01h.13c-.1 2.44-.03 4.84 0 7.27.01 1.11-.15 2.37 1.11 2.58v-5.67c1.32.38 3.3 2.05 4.74 1.56.73-.25 1.39-1.13 1.9-1.68.39-.42.72-.87 1-1.36h.13l-.5 3.94-1.23-.25L74 22.19l1.06.92-.82 1.2-3.57 2.59c2.6-.38 3.92-2.3 5.8-3.82-.61 2.57-2.01 5.16-1.36 7.89h.12l1.48-5.92c1.12.53 1.52 1.94 2.59 2.58 1.56.93 3.74-.84 5.17-1.36-.93 1.32-2.33 2.24-2.58 3.94l-1.11-.49c.96 2.48 2.11 4.86 2.53 7.51.38 2.43-.1 4.84.06 7.27.08 1.13.54 2.11.73 3.2-2.3.78-2.72 4-4.93 5.05.18-.77.45-1.53.45-2.34 0-.57-.27-1.15-.12-1.73.3-1.13 1.28-2.07 1.68-3.2.62-1.76.2-3.41-.04-5.18l1.23.12-3.09-4.8-1.54-2.34.57-1.6c-3.11 2.39-7.63 4.85-7.64 9.36l1.11-.37.37 2.71-1.73.25v.24c1.44.41 2.95.6 4.32 1.25.99.47 2.1 1.08 2.79 1.96 2.28 2.9.45 7.43-1.27 10.11-.87 1.35-2.43 2.58-3 4.06 1.56-.37 2.36-1.86 3.24-3.07.37-.52.69-1.24 1.33-1.48.98-.37 1.3 1.44 1.51 2.09.27.82.89 2.23.74 3.08-.29 1.64-1.7 2.71-1.39 4.56.68-.82.88-2.46 1.97-2.86.69-.26 1.42.38 2.1.48 1.47.22 2.99-.33 4.07-1.33 1.17-1.08 1.96-2.8 1.67-4.42-.18-.98-.72-1.94-.66-2.95.05-.82.6-1.49.9-2.22.7-1.74.62-3.72-1.05-4.86-.45-.31-.94-.48-1.48-.56.14-.91 1.08-2.88 2.17-1.71.77.83 1.18 2.29 1.62 3.31 1.59 3.75 1.6 8.19-.66 11.71-1.61 2.49-4.16 4.53-6.32 6.53l-.86-2.46h-.25c-.29 1.47.76 3.16 1.36 4.44-1.34-.31-2.64-1.69-4.07-1.48.4.7 3.06 2.33.99 3.07.01.6-.44 1.03-.81 1.49-.82 1.01-1.86 2.52-3.13 2.95l-2.34-6.17h-.12c.34 2.7 1.28 5.33 2.49 7.76.63 1.25 1.65 2.5 2.07 3.82-.76-.65-1.25-1.69-1.9-2.46-1.13-1.34-2.51-2.56-3.9-3.64-.93-.72-1.83-1.54-3.07-1.41 1.41 1.26 3.54 1.94 3.41 4.31-.04.67-.78.97-1.31 1.21-1.38.63-2.74 1.32-4.19 1.79-.4.13-1.15.49-1.57.35-.45-.15-.39-1.13-.44-1.5-.15-1.17.5-4.2-.7-4.68-.52 4.12.55 7.88.87 11.95h-.13c-.7-3.01-1.79-6.36-3.42-8.99-.45-.72-1.4-2.44-2.36-2.22l2.53 4.44.06 1.88-1.85.32-5.3.13c.19-1.53.53-3.04.81-4.55.06-.33.31-1.34-.31-1.34-.57 0-.69 1.67-.78 2.08-.44 2.21-.83 4.52-.83 6.78h-.13c0-3.73-1.67-7.06-3.2-10.35-.42.63.17 1.54.35 2.22.4 1.52.46 3.01.27 4.56-2.5-.48-5.2-1.14-7.51-2.22.61-1.46 2.35-3.63 2.34-5.17-2.26 2.27-3.28 5.45-4.43 8.38h-.13l.49-5.92-.92-5.02c-.54.54-.24 1.63-.16 2.34.13 1.12.06 2.81-.77 3.67-.46.48-.92.06-1.41-.14-1.37-.55-2.38-1.47-3.57-2.3-.43-.3-1.2-.62-1.15-1.24.14-1.77 2.68-2.61 2.75-4.19-2.94 1.27-4.34 4.44-6.66 6.41.76-3.2 3.2-6.95 2.59-10.35-.62.34-.6 1.2-.76 1.85-.35 1.4-.92 2.67-1.59 3.94-1.64-.94-2.94-2.54-4.02-4.06-.3-.42-.95-1.07-.96-1.61-.01-.52.6-1.12.92-1.48 1-1.08 2.21-1.9 3.56-2.46-.97-.6-2.89.82-3.95 1.11.71-1.51 2.66-2.98 2.1-4.8-1.6 1.26-2.69 3.96-3.81 5.67h-.13l-2.34-5.18 3.07 1.11c.09-1.1-1.47-1.52-2.34-1.73.51-1.34 1.94-2.36 1.6-3.94h-.24c-.35 1.14-1.1 3.1-2.34 3.45L21.14 56h-.12c-.48 1.04.12 1.83-.17 2.81-.15.51-.89.44-1.14.91-.35.65-.37 1.51-.66 2.2-.7 1.67-2.05 2.88-3.7 3.57l-.15-2.21 1.87-2.1-1.97 1.48c-.25-.66-.83-1.9-.49-2.58.3-.59 1.04-.98 1.48-1.48l-1.98.99c-.66-1.72.55-1.22 1.23-2.46-.5.29-1.32.81-1.92.54-.76-.35-1.56-2.61-1.89-3.37l2.1-.37v-.13c-.99.12-2.56.5-2.71-.86h2.58v-.14l-2.91-.31-.79-1.03-1.72-2.22c1.03-.3 2.79-.3 3.82 0-1.5-1.58-4.19.75-5.43-1.85l3.08-.62v-.12c-.95 0-2.74.56-3.57.12-.22-.12-.38-.3-.54-.49-1.59-1.79 1.96-1.96 3.13-1.8 2.25.31 3.98 1.84 5.55 3.4.79.79 1.94 2.21 3.08 2.44 1.13.23 2.08-.5 2.95-1.08 0 .87-.09 1.73.62 2.34 0-1.7.01-3.5.28-5.18.1-.62.35-1.44 1.08-1.55.92-.14 2.17 1.26 2.83 1.8 0-.96-.72-1.77-1.31-2.46-1.62-1.92-4.18-3.74-6.45-4.81v-.12c3.36.58 5.9 2.56 9.49 1.61v-.27l-4.19-.62c.18-1.31 1.12-2.99.82-4.31-.41-1.8-2.32-2.63-3.05-4.19 1.25.48 2.58 1.18 3.95 1.22.77.02 1.38-.4 2.1-.57 1.98-.46 3.12.5 4.43 1.82.36-1.25-.62-2.28-1.37-3.2-.76-.93-1.43-1.88-2.33-2.7-1.09-.98-2.7-2.13-3.33-3.47 1.02.2 2 1.05 2.83 1.64 1.47 1.05 2.92 2.06 4.56 2.82.86.4 2.36 1.08 3.08.22l-3.94-1.48c.29-.41.7-.77.9-1.24.56-1.25-.43-2.32-.78-3.45.76.28 1.41.94 2.22 1.07 1.9.32 3-1.92 4.44-2.67l.99 4.68c.82-.68.45-2.01.31-2.95-.4-2.71-2.01-5.11-2.41-7.76h.12c1.56 3.34 3.42 6.93 6.54 8.99l-1.14-1.49-1.95-2.94c.39-.15.77-.32 1.1-.58 2.16-1.73.32-4.14.01-6.2h.12c.26.63.57 1.29.96 1.86 1.8 2.61 4.18 2.18 6.93 1.97l-.74 5.43H48c.37-1.16 1.06-2.11 1.3-3.33.45-2.22-.03-4.43-.07-6.66h.13c.19 1.31.72 2.57 1.14 3.82.66 1.97 1.21 4.13 2.68 5.67l-1.36-5.55c3.92-.01 4.98-2.64 5.05-6.16zm19.59 23.86h.13c.56.04.99.76 1.32 1.15.97 1.14 2.08 2.35 2.5 3.82-2.85-.59-5.93-.19-8.75.49.63-1.66 1.82-3.41 3.2-4.5.45-.34.98-.93 1.6-.96zm7.77 2.51c1.21.47 2.5 2.13 2.95 3.32l-2.71-.37-.24-2.95zm-5.61 3.02c.29 0 .56.04.79.13 1.49.58 1.1 3.68.78 4.86-.25.95-.71 2.02-1.64 2.46-.68-1.23-1.69-2.02-2.95-2.61-.63-.3-1.68-.41-2.11-.99-.42-.56-.85-2.64-.28-3.19.62-.6 2.33-.47 3.13-.47.55 0 1.3-.15 1.98-.18.1-.01.2-.01.3-.01zm5.61.79c.55.04 1.5 0 1.91.42 1.36 1.39.6 5.1-1.05 5.87l-.47-2.72c.05.01.1.02.16.02.42 0 .79-.2 1.03-.51.62-.61.39-1.75-.49-2.02-.01 0-.01-.01-.02-.01-.16-.07-.34-.12-.53-.12s-.38.05-.54.13v-1.06zm.72 7.89c1.81-.12 3.69 1.54 3.28 3.46-.25 1.19-.99 2.46-2.15 2.93-.61.24-1.99.17-2.04-.71-.04-.82 1.58-1.95 1.91-2.83-2.28 1.74-3.68 3.23-6.78 2.83v-.12c1.82-1.35 2.6-3.66 4.33-5 .45-.35.95-.53 1.45-.56zm-3.42 6.52c.93.02 1.96.16 2.49.88.54.74.42 1.75.7 2.58.21-.88.19-4.18 1.95-2.33 1.43 1.5 1.04 4.74-.36 6.13-.88.87-3 1.4-4.05.59-1.6-1.24-2.02-3.78-2.48-5.62-.11-.45-.63-1.47-.34-1.89.24-.35.85-.33 1.22-.33.26 0 .56-.01.87-.01zm10.84.75c2.32.42 2.51 3.71 4.56 4.69v.24c-1.16.58-1.56 0-2.34-.86l.86 1.6c-.95-.15-1.16-1.06-1.73-1.72l.87 1.85c-1.42 0-2.01-.24-2.58-1.61h-.13l.25 1.11-.88-.62.46-1.6.66-3.08zm-66.55 13.8c.91.27 1.43.9 1.48 1.86l-2.83 1.97 1.35-3.83zm54.83 3.22l1.86 2.7-2.71-1.23.85-1.47zm-44.48 5.53c2.64.23.84 2.67-.24 3.82l.24-3.82zm33.88 2.97l1.12 3.44c-.91-.64-1.99-1.69-2.46-2.7l1.34-.74zM47.59 83l1.4.24-1.11 3.94h-.13l-.24-3.08.08-1.1zm11.64.71c.26 0 .5.05.69.21.67.57-.28 3.29-.58 4l-1.36-3.94c.35-.09.82-.26 1.25-.27z"/><path class="st0" d="M49.36 12.87l.12.13-.12-.13m-.13.37l.12.12-.12-.12zm14.79.5l.12.12-.12-.12zm-7.76.24l.12.12-.12-.12zm7.64.25l.12.12-.12-.12zm-7.77.12l.12.12-.12-.12zm-20.33.99l.12.12-.12-.12zm19.72 0l.12.12-.12-.12m-.13.12l.12.12-.12-.12m2.84.12l.12.12-.12-.12m-16.88.13l.12.12-.12-.12m17.12 0l.12.12-.12-.12m-22.3.12l.12.12-.12-.12m6.04 0l.12.12-.12-.12m16.51 0l.12.12-.12-.12zm-16.14.37l.12.12-.12-.12m11.09 0l.12.12-.12-.12zm19.47 0l.12.12-.12-.12zm-.08.21l.04.08-.04-.08zm-36.89.04l.12.12-.12-.12m25.26 0l.12.12-.12-.12zm-19.84.49l.12.12-.12-.12zm31.3 0l.12.12-.12-.12zm-36.1 1.11l.12.12-.12-.12m.61 0l.12.12-.12-.12m.13.25l.12.12-.12-.12zm18.23.49l-1.97 8.87c1.52-.93 1.84-4.3 1.97-5.92h.12c.26 1.42.39 2.84.97 4.19.23.53.48 1.24 1.12 1.23l-1.58-5.55-.63-2.82zM51.33 18.91l.12.12-.12-.12m-10.48.25l.12.12-.12-.12m-.61.49l.12.12-.12-.12m-.62.25l.12.12-.12-.12m15.77.37l.12.12-.12-.12zm-11.7.12c.03 3.15 1.58 6.02.99 9.24.59-.36.61-1.21.62-1.85.02-1.49-.24-2.95-.25-4.44h.12c.43 1.49 1.59 4.45 3.33 4.68-.21-.8-.86-1.41-1.3-2.09-.98-1.52-1.94-4.61-3.51-5.54zm-4.93.12l.12.12-.12-.12zM43.93 20.51l.12.12-.12-.12zm16.89.13l.12.12-.12-.12zm-5.55.24l.12.12-.12-.12m6.04 0l.12.12-.12-.12zm10.47 0l.12.12-.12-.12zm-10.59.13l.12.12-.12-.12m-.74.12l.12.12-.12-.12m.61 0l.12.12-.12-.12zm-16.63.12l.12.12-.12-.12m8.13.13l.12.12-.12-.12zm19.96 0l.12.12-.12-.12zm-12.07.24l.12.12-.12-.12zm8.5.13c-1.37 2.15-3 5.09-5.05 6.65v.12c1.55-.28 3.23-2.24 3.7-3.7h.12c-.02 2.19-1.03 4.52-.12 6.65h.12c.66-2.22.31-4.84.88-7.15.17-.71.83-1.92.35-2.57zm-31.79.24l.12.12-.12-.12zm7.76.13l.12.12-.12-.12m-6.78.24l.12.12-.12-.12m-.86.13l.12.12-.12-.12m2.83 0l.12.12-.12-.12m16.39 0l.12.12-.12-.12m-.98.24l.12.12-.12-.12zM68.95 22.73l.12.12-.12-.12zm7.52.13l.12.12-.12-.12m-46.22.12l.12.12-.12-.12zm15.16 0l.12.12-.12-.12zm31.06 0l.12.12-.12-.12zm-8.51.25l.12.12-.12-.12zm-26.86.24l.12.12-.12-.12zm23.17 0l.12.12-.12-.12zm-22.06.25l.12.12-.12-.12zm.12.12l.12.12-.12-.12zm25.14 0l.12.12-.12-.12zm-25.02.12l.12.12-.12-.12zm-10.1.13l.12.12-.12-.12zm43.13 0l.12.12-.12-.12m-.12.12l.12.12-.12-.12m-51.51.25l.12.12-.12-.12zm7.14 0l.12.12-.12-.12zm14.67.12l.12.12-.12-.12zm22.06.12l.12.12-.12-.12zm5.91 0l.12.12-.12-.12zm1.23 0l.12.12-.12-.12zm-7.27.13l.12.12-.12-.12zm-23.04.49l.12.12-.12-.12zm31.05.12l.12.12-.12-.12zm-30.43.25l.12.12-.12-.12zm26.86.12l.12.12-.12-.12zm-24.89.13l.12.12-.12-.12zm30.68.24l.12.12-.12-.12zm6.66 0l.12.12-.12-.12zm-37.1.13l.12.12-.12-.12zm19.23 0l.12.12-.12-.12zm17.87 0l.12.12-.12-.12zm-.5.12l.12.12-.12-.12m.37 0l.12.12-.12-.12zm-17.99.12l.12.12-.12-.12zm17.87 0l.12.12-.12-.12zm-37.46.13l.12.12-.12-.12zm14.05 0c-.73 1.64-1.08 3.17-2.59 4.31v.25c1.08.28 1.84-1.07 2.09-1.97h.12c.11.83.21 2.55 1.11 2.83l-.61-2.83-.12-2.59zm17.37 0l.12.12-.12-.12zm5.92 0l.12.12-.12-.12zm-49.67.12c.27 3.03 4.34 5.08 3.82 8.38.66-.38.48-1.1.26-1.73-.46-1.3-1.22-2.43-1.74-3.7 1.18 1.08 2.92 2.29 4.56 1.6l-2.59-1.07-4.31-3.48zm49.54 0l.12.12-.12-.12zm-.12.12l.12.12-.12-.12zm-7.76.13l.12.12-.12-.12zm6.65 0l.12.12-.12-.12zm.99 0l.12.12-.12-.12zm-36.6.12l.12.12-.12-.12zm18.73 0l.12.12-.12-.12zm17.74 0l.12.12-.12-.12zm-49.17.12l.12.12-.12-.12m31.31 0l.12.12-.12-.12zm17.74 0l.12.12-.12-.12zm-48.18.13l.12.12-.12-.12zm48.06 0l.12.12-.12-.12zm-54.96.12l.12.12-.12-.12zm37.09 0l.12.12-.12-.12m-.12.12l.12.12-.12-.12zm-38.58.12l.12.12-.12-.12zm20.95 0l.12.12-.12-.12zm3.7 0c-.37 1.23-1.42 3.62-.99 4.81h.25l.86-2.96h.12c.3 1.12.62 2.81 1.97 2.96l-1.97-4.81h-.24zm-24.52.13l.12.12-.12-.12zm55.94 0l.13.12-.13-.12zm-55.82.12l.12.12-.12-.12zm3.94 0l.12.12-.12-.12m33.28 0l.12.12-.12-.12zm-37.1.12l.12.12-.12-.12zm2.22 0l.12.12-.12-.12zm30.81 0l.12.12-.12-.12m.74 0l.12.12-.12-.12zm3.2 0l.12.12-.12-.12zm-36.84.13l.12.12-.12-.12zm36.72 0l.12.12-.12-.12m-27.48.24l.12.12-.12-.12zm30.68 0l.12.12-.12-.12zM35.31 28.89l.12.12-.12-.12m24.52.13l.12.12-.12-.12zm-28.47.12l.12.12-.12-.12m-3.08.12l.12.12-.12-.12zm9.12 0l.12.12-.12-.12m7.27 0l.12.12-.12-.12zm30.93 0l.12.12-.12-.12zm-30.68.25l.12.12-.12-.12m6.65.12l.12.12-.12-.12m8.88 0l.12.12-.12-.12m-24.28.5l.12.12-.12-.12zm45.47 0l.12.12-.12-.12zm-43.87.37l.12.12-.12-.12zm43.26 0l.12.12-.12-.12zm-44.49.12l.12.12-.12-.12m22.8.12l.12.12-.12-.12zm-16.15.13l.62 5.18h.25l-.12-3.7c.8.56 1.89 1.94 2.96 1.48-.41-.45-1.01-.52-1.48-.9-.77-.63-1.18-1.98-2.23-2.06zm-5.79.24l.12.12-.12-.12m20.83.13l.12.12-.12-.12m-21.2.12l.12.12-.12-.12m13.31 0l.12.12-.12-.12zm17.13 0l.12.12-.12-.12m.25 0l.12.12-.12-.12zm2.59.25c-1.3 1.3-2.39 2.2-4.19 2.71v.25c1.07.31 2.1-.29 2.96-.86-.14.72-1.06 2.62-.37 3.08l1.18-3.57.42-1.61zm-26.01.12l.12.12-.12-.12m-14.05.12l.12.12-.12-.12m19.85 0l.12.12-.12-.12m11.46 0l.12.12-.12-.12zm8.38 0l.12.12-.12-.12zm-48.07.25l.13.12-.13-.12zm31.43 0l.12.12-.12-.12zm-24.77.12l.12.12-.12-.12zm53.24 0l.12.12-.12-.12zm-44.24.12l.12.12-.12-.12m.49 0l.12.12-.12-.12m12.69 0l.12.12-.12-.12m-21.44.13l.12.12-.12-.12zm39.93.24l.12.12-.12-.12m.74.13l.12.12-.12-.12zm7.76 0l.12.12-.12-.12zm-56.19.12l.12.12-.12-.12zm23.41.12l.12.12-.12-.12m-6.53.13l.12.12-.12-.12m7.39 0l.12.12-.12-.12zm-23.91.12l.13.12-.13-.12zm46.46 0l.12.12-.12-.12zm-22.92.12l.12.12-.12-.12m1.36.13l.12.12-.12-.12zm22.06.12l.12.12-.12-.12zm-22.8.12l.12.12-.12-.12m.24.13l.12.12-.12-.12m20.83 0l.12.12-.12-.12zm7.89 0l.12.12-.12-.12m-52.5.12l.12.12-.12-.12zm45.35.25l.12.12-.12-.12zm6.66 0l.12.12-.12-.12zm-25.27.12l-.74 3.82c.62-.47.76-1.96.86-2.71l1.11 1.23c-.12-.83-.61-1.77-1.23-2.34zM66.12 34.56l.12.12-.12-.12zm2.71 0l.12.12-.12-.12m8.5.13l.12.12-.12-.12zm-16.02.12l-2.34 2.34 2.22-1.6.37 2.22c.43-.63.2-2.37-.25-2.96m-26.13.37v.12c1.04 1.05 1.89 2.49 2.54 3.82.36.73.26 1.54 1.03 1.97-.06-1.44-.68-2.53-1.23-3.82.87.51 2.04 1.27 3.08.99v-.25c-1.4-.62-2.48-1.15-3.7-2.12-.51-.41-1.04-.94-1.72-.71zm39.68-.12l.12.12-.12-.12m-25.01.24l.12.12-.12-.12m-14.54.13l.12.12-.12-.12m14.66.12l.12.12-.12-.12zm28.1 0l.12.12-.12-.12zm-28.47.12l.12.12-.12-.12zm23.54 0l.12.12-.12-.12zm6.16 0l.12.12-.12-.12zm-55.95.13l.12.12-.12-.12zm36.85 0l.12.12-.12-.12m.99 0l.12.12-.12-.12m7.27 0l.12.12-.12-.12m-31.55.12l.12.12-.12-.12m12.32 0l.12.12-.12-.12zm33.77 0l.12.12-.12-.12zm-9.24.12l.12.12-.12-.12zM60.32 36.16l.12.12-.12-.12zm-33.39.13c.12 1.04.97 1.43 1.73 2 1.04.79 2.01 1.64 2.81 2.68.52.68.84 1.85 1.51 2.34-.14-1.81-1.21-3.94-2.96-4.68v-.12c1.77.34 3.54 1 5.3.25v-.25l-2.09-.08-6.3-2.14zm9.12 0l.12.12-.12-.12m23.41.12l.12.12-.12-.12m9.24 0l.12.12-.12-.12m-31.05.12l.12.12-.12-.12m21.69 0l.12.12-.12-.12zm20.58 0l.12.12-.12-.12zm-7.64.13l.12.12-.12-.12zm-21.82.12l.12.12-.12-.12zm3.95 0l-1.11 2.09 1.23-1.36.74 1.23-.86-1.96zm14.17 0l.12.12-.12-.12zm15.65 0l.12.12-.12-.12zm-47.81.12l.12.12-.12-.12m1.72 0l.12.12-.12-.12zm41.04 0l.12.12-.12-.12zm-56.07.13l.12.12-.12-.12zm30.93.12l.12.12-.12-.12m-15.28.12l.12.12-.12-.12m-.74.25l.12.12-.12-.12m23.66 0l.12.12-.12-.12m23.66 0l.12.12-.12-.12m-30.81.12l.12.12-.12-.12m30.93 0l.12.12-.12-.12m-54.59.13l.12.12-.12-.12m54.72 0l.12.12-.12-.12m-57.43.12l.12.12-.12-.12m26.86 0l.12.12-.12-.12zm-32.16.25l.12.12-.12-.12zm5.67 0l.12.12-.12-.12zm43.87 0l.12.12-.12-.12zm-23.78.12l.12.12-.12-.12m5.17.12l.12.12-.12-.12zm-31.05.25l.12.12-.12-.12zm8.13 0l.12.12-.12-.12m7.27 0l.12.12-.12-.12m-.61.12l.12.12-.12-.12zm34.5 0l.12.12-.12-.12zm5.3 0l.12.12-.12-.12zm2.22.13l.12.12-.12-.12zM29.76 39.12l.12.12-.12-.12m8.01.13l.12.12-.12-.12zm49.17.24l.12.12-.12-.12zm-20.7.25l-2.09 1.6 1.85-.99-.25 1.48c.52-.36.72-1.51.49-2.09zm15.77.12l.12.12-.12-.12zm4.44 0l.12.12-.12-.12m.74 0l-.12.25.12-.25zm-7.4.12l.12.12-.12-.12zm7.4 0l.12.12-.12-.12zm-63.84.13l.12.12-.12-.12zm42.15 0l.12.12-.12-.12zm-45.47.12l.12.12-.12-.12zm52.99 0l.12.12-.12-.12m6.9 0l.12.12-.12-.12m-41.29.12l.12.12-.12-.12m27.24 0l.12.12-.12-.12zm-45.1.13l.12.12-.12-.12zm44.11 0l.12.12-.12-.12zm15.16 0l.12.12-.12-.12zm-60.75.12l.12.12-.12-.12zm12.81.12l.12.12-.12-.12m33.15 0l.12.12-.12-.12m6.16 0l.12.12-.12-.12zm8.75 0l.12.12-.12-.12m5.92 0l.12.12-.12-.12zm-66.42.13l.12.12-.12-.12zm51.51 0l.12.12-.12-.12m-32.66.12l.12.12-.12-.12zm41.78 0l.12.12-.12-.12zm-60.26.12l.12.12-.12-.12zm.37.25l.12.12-.12-.12zm64.69 0l.12.12-.12-.12zm.13 0l.12.12-.12-.12zm-52.75.12l.12.12-.12-.12zm19.6 0c0 .63-.12 1.26.49 1.6v-1.23l1.48.49-1.97-.86zm.24 0l.12.12-.12-.12zm32.17 0l.25.25v-.25h-.25m.61 0l.12.12-.12-.12zm-32.41.13l.12.12-.12-.12zm6.9 1.6l.62-1.11.74.49c-.54-1.45-1.35-.41-1.36.62zm19.84-1.48l.12.12-.12-.12m4.56 0l.12.12-.12-.12zm-39.31.12c.22.8.56 1.47 1.23 1.97l-.74-1.6 1.48.12c-.38-.69-1.27-.49-1.97-.49zM46.4 41.83l.12.12-.12-.12m6.16 0l.12.12-.12-.12zm-31.3.13l.12.12-.12-.12zm39.31 0l.12.12-.12-.12zm-7.52.12l.12.12-.12-.12zm-14.66.49l1.73 2.09-.99-1.73 1.48-.25-.12-.49-2.1.38zm6.78-.37l.12.12-.12-.12zm-.37.13l.12.12-.12-.12zm-11.96.37l.12.12-.12-.12m5.55 0l.12.12-.12-.12zm40.95.2l.04.08-.04-.08m6.86-.08l.12.12-.12-.12zm-53.6.12l.12.12-.12-.12m19.59 0l.12.12-.12-.12m-29.58.13l.12.12-.12-.12m22.56 0l.12.12-.12-.12zm-22.43.12l.12.12-.12-.12zm63.13.33l.04.08-.04-.08zm.09-.08l.12.12-.12-.12zm-62.85.12l.12.12-.12-.12zm50.4.12l.12.12-.12-.12zm-47.57 2.34v.25l3.57 1.23c-.07-.94-1.28-1.22-2.09-1.36l2.46-2.22c-1.3-.15-2.88 1.45-3.94 2.1zm59.03-2.21v.12h.37l-.37-.12zm-61.49.12l.12.12-.12-.12zm56.81 0l.12.12-.12-.12m4.68 0l.12.12-.12-.12zm-10.47.12l.12.12-.12-.12zm-43.38 1.48v.25l2.71.97 1.6 1.12c-.18-1.31-1.56-1.53-2.46-2.22 1.14-.22 2.7-.23 3.2-1.48l-5.05 1.36zm41.03-1.23l.12.12-.12-.12zm2.96 0l.12.12-.12-.12zm-46.83.12l.12.12-.12-.12m6.9.12l.12.12-.12-.12m.74 0l.12.12-.12-.12m50.65 0l.12.12-.12-.12m-62.48.13l.12.12-.12-.12zm62.48 0l.12.12-.12-.12zm-58.9.12l.12.12-.12-.12m8.01 0l.12.12-.12-.12m44.36.12l.12.12-.12-.12m4.68 0l.12.12-.12-.12m-57.42.13l.12.12-.12-.12zm53.97 0l.12.12-.12-.12m-70.36.24l.12.12-.12-.12zm73.81 0l.12.12-.12-.12zm-61.12.25l.12.12-.12-.12zm24.89.86l.37-.86c-.52.08-.93.49-.37.86zm-22.06-.74l.12.12-.12-.12zm-14.78.13l.12.12-.12-.12zm64.2 0l.12.12-.12-.12zm-42.64.12l.12.12-.12-.12zm51.64 0l.12.12-.12-.12zm-60.88.12l.12.12-.12-.12zm52.25 0l.12.12-.12-.12zm3.33 0l.12.12-.12-.12zm-74.19.13l.12.12-.12-.12zm6.78 0l.12.12-.12-.12zm8.87 0l.12.12-.12-.12zm64.82 0l.12.12-.12-.12zm-51.76.12l.12.12-.12-.12zm18.86 0l-.12.86c.39-.23.45-.43.37-.86h-.25zm.25 0l.12.12-.12-.12zm4.93.86l.37-.86c-.48.14-.88.48-.37.86zm21.31-.86l.12.12-.12-.12zm6.29 0l.12.12-.12-.12zM33.46 46.52l.12.12-.12-.12zm44.73 0l.12.12-.12-.12zm2.47 0l.12.12-.12-.12zm4.8 0l.12.12-.12-.12m-.12.12l.12.12-.12-.12zm-50.53.12l.12.12-.12-.12zM13 46.89l.12.12-.12-.12zm65.44 0l.12.12-.12-.12zm-70.49.12l.12.12-.12-.12zm45.1 0l.12.12-.12-.12m4.81 0l.12.12-.12-.12zm3.94.86v.49l1.23-.86-1.23.37zm-26.86-.24l.12.12-.12-.12m27.36 0l.12.12-.12-.12m.61 0l.12.12-.12-.12zm4.81 0v1.48c.46-.46.46-1.03 0-1.48zm16.39 0l.12.12-.12-.12zm5.05 0l.12.12-.12-.12zm-26.99.12l.12.12-.12-.12m.62 0l.12.12-.12-.12m4.8 0l.12.12-.12-.12zm12.33 0l.12.12-.12-.12zm3.57.12l.12.13-.12-.13zm-21.44.37l.12.12-.12-.12m-17.62.12l.12.12-.12-.12zm-.99 1.73l1.48.37-.82-.79.45-1.18c-.59.31-.96.96-1.11 1.6zm40.79-1.6l.12.12-.12-.12zm-76.03.24l.12.12-.12-.12zm12.94 2.47c.16.92 1.07.43 1.73.38.94-.06 2.68.24 3.2 1.1l.86-.12c-.22-1.39-2.23-1.39-3.33-1.48.81-.82 1.96-1.06 2.22-2.34l-4.68 2.46zm67.16-2.47l.12.12-.12-.12zm-73.2.13l.12.12-.12-.12zm74.68.12l.12.12-.12-.12zm-78.01.12l.12.12-.12-.12zm32.04 0l.12.12-.12-.12m-18.98.13l.12.12-.12-.12m19.1.12l.12.12-.12-.12zm-27.97.25l.12.12-.12-.12zm8.38 0l.12.12-.12-.12m.99 0l.12.12-.12-.12zm-16.89.12l.12.12-.12-.12zm41.16 0l-1.36 1.73 1.73.62-1.23-.74c.26-.55 1.26-1.01.86-1.61zm38.33 0l.12.12-.12-.12zm-68.77.12l.12.12-.12-.12zm4.81 0l.12.12-.12-.12m19.35 0l.12.12-.12-.12zm-26.87.13l.12.12-.12-.12m2.47 0l.12.12-.12-.12zm5.91.12l.12.12-.12-.12m13.93 0l.12.12-.12-.12zM38.88 50.09l-1.48 1.36c.58.19 1.91.95 2.34.37l-1.6-.62.74-1.11m31.92 0l1.73 1.36v.25l-1.6.86c.84-.07 1.56-.32 2.22-.86-.49-.82-1.43-1.43-2.35-1.61zm-53.98.12l.12.12-.12-.12zm71.35 0l.12.12-.12-.12zm2.1 0l.12.12-.12-.12m-81.33.13l.12.12-.12-.12zm39.92 0l.12.12-.12-.12m.62 0l.12.12-.12-.12m22.06 0l.12.12-.12-.12zm10.72 0l.12.12-.12-.12m5.91 0l.12.12-.12-.12zm-49.91.12l.12.12-.12-.12m.5 0l.12.12-.12-.12m9.98 0l.12.12-.12-.12zm-39.56.12l.12.12-.12-.12zm22.06 0c-.75 1.67-1.89 3.03-3.2 4.31-.75.73-1.92 1.41-2.22 2.47l5.42-1.15 2.83-.57c-1.69-1.2-4.65.14-6.28.86 1.12-2.25 3.32-3.14 3.82-5.79l-.12-.12h-.25zM38.63 50.58l.12.12-.12-.12m9.99 0l.12.12-.12-.12m22.67 0l.12.12-.12-.12m-47.44.13l.12.12-.12-.12zm29.94 1.11l.74.12v-1.23c-.53.17-.59.6-.74 1.11zm-31.67-.99l.12.12-.12-.12zm49.54 0l.12.12-.12-.12m-40.67.12l.12.12-.12-.12zm-21.44.13l.12.12-.12-.12zm14.54 0l.12.12-.12-.12m24.65.12l.12.12-.12-.12zm39.56 0l.12.12-.12-.12zm-15.41.12l.12.12-.12-.12zm7.89 0l.12.12-.12-.12zm-42.02.13l.12.12-.12-.12zm46.7 0l.12.12-.12-.12zm-47.56.12l.12.12-.12-.12m15.89 0l.12.12-.12-.12zm5.79 0l.12 1.36c.57-.3.95-.73 1.11-1.36l-.86.62-.37-.62zm-33.15.12l.12.12-.12-.12m33.03 0l.12.12-.12-.12m.99 0l.12.12-.12-.12zm12.57 0l.12.12-.12-.12zm12.69 0l.12.12-.12-.12zm-75.67.13l.12.12-.12-.12zm28.59 0l.12.12-.12-.12m21.69 0l.12.12-.12-.12m11.46.12l.12.12-.12-.12zm9.12.25l.12.12-.12-.12zm7.15 0l.12.12-.12-.12zm2.84.12l.12.12-.12-.12zm-2.96.24l.12.12-.12-.12zm-57.06.13l.12.12-.12-.12zm-17.5.12l.12.12-.12-.12zm70.49.12l.12.12-.12-.12zm-3.7.13l.12.12-.12-.12zm3.58 0l.12.12-.12-.12m-3.7.12l.12.12-.12-.12zm-37.83.99l.25-.86c-.53.15-.82.53-.25.86zm-31.3-.74l.12.12-.12-.12zM41.84 53.42l.12.12-.12-.12m-12.57.12l.12.12-.12-.12zm53.48 0l.12.12-.12-.12zm-53.6.12l.12.12-.12-.12zm58.16 0l.12.12-.12-.12m-5.17.13l.12.12-.12-.12zm5.05 0l.12.12-.12-.12zm-22.92.24l-.12 1.73-1.11-.74c.12.75.64 1.1 1.36 1.23l.12-2.22h-.25zm16.76 0v.12h.37l-.37-.12zm-47.2 3.82c.82-.03 3.66.07 4.07-.49l-2.71-.37 1.48-2.83c-.9.28-2.44 2.82-2.84 3.69m9.98 10.72c.93-.53 2.14-2.12 2.59-3.08-.99.3-1.42 1.26-2.09 1.97l-.37-2.59c2.88-.25 4.15-3.4 5.84-5.29 1.03-1.15 2.33-1.65 3.64-2.35-.78-.93-1.86.05-2.59.61-1.96 1.51-3.08 3.33-4.81 5.05l.99-2.59h-.12c-.54 1.29-1.18 2.66-2.46 3.33l.49-1.73h-.12c-.52 1.24-1.1 1.85-2.46 1.85l1.23-2.83h-.12l-1.6 2.71-.49-.12 1.23-2.34h-.12c-.62 1-1.28 2.42-2.59 2.09l1.11-2.09c-.62.48-.88 1.64-1.61 1.93-.33.13-.96-.11-.83-.55.17-.57 1.11-1.13 1.48-1.62 1.26-1.66 2.29-4.36 4.16-5.38 1.53-.83 3.87.22 5.55.2.96-.01 2.05-.34 2.34-1.36-.78-.08-1.52.42-2.34.42-2.07 0-5.47-1.03-7.25.38-1.62 1.28-1.71 3-2.73 4.62-.5.79-1.38 1.33-2.1 1.9-.27.21-.75.52-.65.93.12.5.97.77 1.39.96.93.43 1.95.76 2.96.97.54.11 1.34.09 1.8.42.82.61.54 2.67.65 3.58zm42.64-14.04l.12.12-.12-.12m-2.1.12l.12.12-.12-.12m1.73 0l.12.12-.12-.12zm-65.31.12l-.12.74.49-.74h-.37zm29.08 0l.12.12-.12-.12zm35 0l.12.12-.12-.12zm-20.34.13l.12.12-.12-.12zm-52.62.12l.12.12-.12-.12zm30.69 0l.12.12-.12-.12zm-19.1.12l.12.12-.12-.12zm4.19 0l.12.12-.12-.12m8.5 0l.12.12-.12-.12zm-15.16.13l.12.12-.12-.12zm3.08 0l.12.12-.12-.12m3.45 0l.12.12-.12-.12m17.01 0l.12.12-.12-.12m-17.13.12l.12.12-.12-.12zm-6.53.12l.12.12-.12-.12zm14.54 0l.12.12-.12-.12m6.65 0l.12.12-.12-.12zm8.75 0l.12.12-.12-.12zm35.25 0l.12.12-.12-.12zm-13.43 1.11l.37-.86c-.51.15-.77.43-.37.86zm-37.47-.74l.12.12-.12-.12zm48.93 0l.12.12-.12-.12zm-40.79.13l.12.12-.12-.12zm36.1 0l.12.12-.12-.12zm11.59 0l.12.12-.12-.12zm-59.77.12l.12.12-.12-.12zm11.95 0l.12.12-.12-.12m-22.42.12l.12.12-.12-.12m.49 0l.12.12-.12-.12m21.81 0l.12.12-.12-.12z"/><path class="st0" d="M35.31 56.37l.12.12-.12-.12m5.91 0l.12.12-.12-.12zm-18.36.13l.12.12-.12-.12zm53.73 0l.12.12-.12-.12zm8.13 0l.12.12-.12-.12zm-61.98.24l.12.12-.12-.12zm19.96 0l.12.12-.12-.12zm13.31 0l1.36 1.48.62-1.48-.62.99-1.36-.99m12.45 0l-.12 1.85-1.23-.74c-.07.81 1.18 1.74 1.85 2.09l-.25-3.2h-.25zm-34.14.25l.12.12-.12-.12m2.1 0l.12.12-.12-.12m-2.22.12l.12.12-.12-.12zm42.02 0l.12.12-.12-.12zm-61 .25l.12.12-.12-.12zm7.76.12l.12.12-.12-.12zm10.85 0l.12.12-.12-.12zm17.37 0l.12.12-.12-.12zm24.77 0l.12.12-.12-.12m.87.13l.12.12-.12-.12zm-20.09.12l.12.12-.12-.12m37.83 0l.12.12-.12-.12m-54.1.12l.12.12-.12-.12zm35.25 0l.12.12-.12-.12zm-61.62.13l.12.12-.12-.12m36.48 0l.12.12-.12-.12zm.98 0l.12.12-.12-.12zm-37.83.12l.12.12-.12-.12zm43.26 0l.12.12-.12-.12m10.59 0l.12.12-.12-.12zm8.75.25l.12.12-.12-.12zm-25.63.24l.12.12-.12-.12zm-36.97.13l.12.12-.12-.12zm66.42 0l.12.12-.12-.12m-52.62.12l.12.12-.12-.12zm7.52 0c-.39 1.85-1.71 3.51-2.89 4.93-.56.68-1.43 1.36-1.67 2.22 2.04-.59 4.34-2.66 6.53-2.46-.56-1.09-3.2.42-4.19.62.8-1.18 1.89-2.22 2.41-3.57.22-.58.35-1.35-.19-1.74zm6.29 0l.12.12-.12-.12zm8.01 0l.12.12-.12-.12zm-34.14.12l.12.12-.12-.12m.49 0l.12.12-.12-.12zm19.23.13l.12.12-.12-.12zm39.8 0l.12.12-.12-.12zm5.55.12l.12.12-.12-.12m7.14.12l.12.12-.12-.12zm8.14 0l.12.12-.12-.12zm-45.84.13l.12.12-.12-.12zm-26.25.12l.12.12-.12-.12zm-8.75.12l.12.12-.12-.12zm33.76 0l.12.12-.12-.12zm-33.89.13l.12.12-.12-.12zm53.98 0l.12.12-.12-.12zm-6.04 1.97c-.52-.52-1.05-1.24-1.85-1.11l2.34 2.83.62-3.57c-.94.15-.89 1.08-1.11 1.85zm31.55-1.85l.12.12-.12-.12zM22 60.07l.12.12-.12-.12m2.59 0l.12.12-.12-.12zm26.37 1.11l-.12-.62h-.37l.12 1.6c.72-.12 1.46-1.41 1.6-2.09l-1.23 1.11zm36.35-1.11l.12.12-.12-.12zm-60.63.13l.12.12-.12-.12m21.44 0l.12.12-.12-.12m.99 0l.12.12-.12-.12m14.54 0l.12.12-.12-.12zm11.34 0l.12.12-.12-.12zm21.93.12l.12.12-.12-.12zm-57.79.12l.12.12-.12-.12zm52 0l.12.12-.12-.12zm-63.46.12l.12.12-.12-.12m6.65 0l.12.12-.12-.12zm9.28.09l.04.08-.04-.08zm30.9.04l.12.12-.12-.12zm13.67 0l.12.12-.12-.12m3.82 0l.12.12-.12-.12zm-56.93.12l.12.12-.12-.12m8.38 0l.12.12-.12-.12m-9.37.25l.12.12-.12-.12m52.87 0l.12.12-.12-.12zm1.11 0l.12.12-.12-.12zm6.66 0l.12.12-.12-.12zm-77.76.12l.12.12-.12-.12zm21.31 0l.12.12-.12-.12zm35.25 0l.12.12-.12-.12zm-56.81.12l.12.12-.12-.12m.25 0l.12.12-.12-.12zm25.38 0l.12.12-.12-.12zM47.38 61.3l.12.12-.12-.12m39.44 0l.12.12-.12-.12m-24.28.25l.12.12-.12-.12m18.73 0l.12.12-.12-.12zm-62.23.12l.12.12-.12-.12zm27.97.13l.12.12-.12-.12m16.02 0l.12.12-.12-.12zm-36.23.12l.12.12-.12-.12zm13.44 0l.12.12-.12-.12zm1.6 0l.12.12-.12-.12zm1.11 0l.12.12-.12-.12zm4.93 0l.12.12-.12-.12zm40.66 0l.12.12-.12-.12zm-51.38.12l.12.12-.12-.12m7.51 0l.12.12-.12-.12zm10.85 0l-.62 1.6h-.12l-.99-1.36.86 2.83h.12c.34-.81 1.5-2.32.75-3.07zm6.41 0l.12.12-.12-.12zm-19.11.13l.12.12-.12-.12zm37.1 0l.12.12-.12-.12zm-41.41.12l.12.12-.12-.12zm16.76 0l.12.12-.12-.12zm-32.16.12l.12.12-.12-.12zm19.34 0l.12.12-.12-.12zm2.22 0l.12.12-.12-.12m1.11 0l.12.12-.12-.12zm-29.94.13l.12.12-.12-.12zm30.19 0l.12.12-.12-.12m35.98 0l.12.12-.12-.12m-49.04.12l.12.12-.12-.12m49.17 0l.12.12-.12-.12zm-66.67.12l.12.12-.12-.12zm24.52 0l.12.12-.12-.12zm1.6 0l.12.12-.12-.12zm4.44 0l.12.12-.12-.12zm22.8.13l.74 4.07c-.79-.69-3.21-3.85-4.19-2.71 2.27.72 3.21 3.37 5.18 4.56l-.61-2.34-.74-3.7-.38.12zm13.43-.13l.12.12-.12-.12zm2.34.13l.12.12-.12-.12zm3.08 0l.12.12-.12-.12zm-72.58.12l.12.12-.12-.12zm3.2 0l.12.12-.12-.12zm15.16 0l.12.12-.12-.12zm6.04 0l.12.12-.12-.12m.37 0l.12.12-.12-.12zm2.21 0l.12.12-.12-.12zm40.79 0l.13.12-.13-.12zm4.69 0l.12.12-.12-.12zm-54.96.12l.12.12-.12-.12zm6.65 0l.12.12-.12-.12m1.73 0l.12.12-.12-.12zm-16.27.13l.12.12-.12-.12zm20.09.12l.12.12-.12-.12zm-26.87.12l.12.12-.12-.12zm23.79 0l.12.12-.12-.12zm2.83 0l.12.12-.12-.12zm-10.11.13l.12.12-.12-.12zm47.08 0l.12.12-.12-.12zm-42.64.12l.12.12-.12-.12zm36.48 0c-.62 1.53.9 3.17 1.48 4.56-1.6-.83-3.02-2.2-4.93-2.22v.49c2.74.24 4.21 3.05 6.41 4.31-.02-2.3-1.99-4.94-2.71-7.15h-.25zm3.69 0l.12.12-.12-.12zm-45.34.12l.12.12-.12-.12zm48.3 0l.12.12-.12-.12zm4.69 0l.12.12-.12-.12zm-40.79.13l.12.12-.12-.12zm40.66 0l.12.12-.12-.12zm-59.77.12l.12.12-.12-.12m42.15 0l.12.12-.12-.12zm17.5 0l.12.12-.12-.12zm-59.77.12l.12.12-.12-.12zm13.68 0l.12.12-.12-.12m5.18 0l.12.12-.12-.12zm34.25 0l.12.12-.12-.12zm-53.23.13l.12.12-.12-.12m-.13.12l.12.12-.12-.12zm28.47 0l.12.12-.12-.12zm-28.59.12l.12.12-.12-.12zm5.05 0l.12.12-.12-.12zm38.21.12l.12.12-.12-.12zm5.66.37l.12.12-.12-.12zm-49.41.13l.12.12-.12-.12zm6.16 0l.12.12-.12-.12m-.25.12l.12.12-.12-.12zm18.61.25l-.86.12c.29.69.8 1.25 1.04 1.97.27.8.09 1.9.93 2.34.39-.87 1.33-2.28 1.11-3.2-.7.34-1.03 1.09-1.11 1.85h-.12l-.99-3.08zm-24.89.12l.12.12-.12-.12zm13.43 0c0 2.42-.33 4.69-.99 7.02.86.03 1.31-.86 1.77-1.48.92-1.22 1.84-2.57 3.28-3.2v-.12c-1.46-.19-3.29 2-3.82 3.2H39c.43-1.68.82-3.77.12-5.42h-.24zm7.39 0l.12.12-.12-.12zm35.5 0l.12.12-.12-.12zm2.95 0l.12.12-.12-.12zm-24.89 2.71L57 66.48c.16.5.56.65.93 1 .74.68 1.38 2.28 2.4 2.45l.25-4.07c-1 .38-.75 1.72-.75 2.59zm15.77-2.59l.12.12-.12-.12zm9 0l.12.12-.12-.12zm-34.14.13l.12.12-.12-.12zM69.32 66.11l.12.12-.12-.12zm-19.59.12l.12.12-.12-.12zm18.23 0l.12.12-.12-.12m.87.13l.12.12-.12-.12zm.12.12l.12.12-.12-.12zm-23.54.12l.12.12-.12-.12m12.08 0l.12.12-.12-.12zm16.64.13l.12.12-.12-.12zm-48.44.12l.12.12-.12-.12zm26.87 0l.12.12-.12-.12m-7.52.25l.12.12-.12-.12zm23.66 0l.12.12-.12-.12zm8.14 0l.12.12-.12-.12zm5.91 0l.12.12-.12-.12zm.62 0l.12.12-.12-.12zm-57.43.12l.12.12-.12-.12zm57.3 0l.12.12-.12-.12zm-25.38.12l.12.12-.12-.12zm17.37 0l.12.12-.12-.12zm7.89 0l.12.12-.12-.12zm-51.14.25l.12.12-.12-.12m18.48 0l.12.12-.12-.12m7.89.25l.12.12-.12-.12zm-26.49.24l.12.12-.12-.12zm27.6.13l.12.12-.12-.12zm7.39 0c-.87 1.54.4 4.72.62 6.41h-.12c-.69-1.45-2.01-2.65-3.08-3.82-.15-.17-.93-1.23-1.21-.78-.29.47 1.14 1.57 1.4 1.89.98 1.17 1.87 2.49 2.62 3.82.43.77.81 1.8 1.62 2.22-.62-3.18-1.59-6.48-1.6-9.74h-.25zm8.38 0l.12.12-.12-.12zm-33.64.12l.12.12-.12-.12zm.62 0l.12.12-.12-.12m8.99 0l.12.12-.12-.12zm18.74 0l.12.12-.12-.12zm-3.33.12l.12.12-.12-.12zm16.02 0l.12.12-.12-.12zm-38.82.12l.12.12-.12-.12zm7.52 0l.12.12-.12-.12zm28.46.13l.12.12-.12-.12m1.61 0l.12.12-.12-.12zm-39.81.12l.12.12-.12-.12m17.5 0l.12.12-.12-.12zm16.76 0l.12.12-.12-.12zm-44.24.12l.12.12-.12-.12zm48.8.13l.12.12-.12-.12zm-41.78.12l.12.12-.12-.12zm-11.09.12l.12.12-.12-.12zM59.46 69.31l.12.12-.12-.12m7.15 0l.12.12-.12-.12zm16.02 0l.12.12-.12-.12zm-41.78.25l.12.12-.12-.12m18.86.12l.12.12-.12-.12zm-28.59.5l.12.12-.12-.12zm46.21 0l.12.12-.12-.12zm-13.56.12l.12.12-.12-.12zm-26.98.12l.12.12-.12-.12zm9.48 0l-.12.12c.6 1.66 1.2 3.03 1.49 4.81.14.83.05 1.9.73 2.46.69-1.31.94-2.84 1.58-4.19.36-.77.96-1.46.77-2.34-1.18.58-1.88 3.21-2.22 4.44-.62-1.63-.43-4.46-2.23-5.3zm17.01.25l.12.12-.12-.12m.12.12l.12.12-.12-.12zm-24.4.13l.12.12-.12-.12zm24.53 0l.12.12-.12-.12zm-34.26.12l.12.12-.12-.12zm2.59 0l.12.12-.12-.12zm7.14 0l.12.12-.12-.12zm24.65 0l.12.12-.12-.12zm16.76 0l.12.12-.12-.12zm-40.79.12l.12.12-.12-.12m10.72.13l.12.12-.12-.12zm16.51 0l.12.12-.12-.12zm-16.14.12l.12.12-.12-.12zm14.05 0l.12.12-.12-.12zm.12.12l.12.12-.12-.12zm-34.87.13l.12.12-.12-.12m9.24 0l.12.12-.12-.12zm15.4 0c1.39 2.77 2.43 5.37 3.2 8.38.87-.49.75-1.35.74-2.22-.02-2.03.76-4.05.62-6.04-.58.2-.69.8-.79 1.36-.24 1.34-.25 2.73-.57 4.07-.66-1.56-1.19-5.23-3.2-5.55zm.37 0l.12.12-.12-.12zm19.72 0l.12.12-.12-.12zm-27.97.12l.12.12-.12-.12zm17.62 0l.12.12-.12-.12m-32.78.12l.12.12-.12-.12zm9.37 0l.12.12-.12-.12zm17.74 0l.12.12-.12-.12zm21.07 0l.12.12-.12-.12zm-53.97.13l.12.12-.12-.12zm32.78.12l.12.12-.12-.12m-25.02.25l.12.12-.12-.12zm16.15 0l.12.12-.12-.12m.73 0l.12.12-.12-.12zm14.42 0l.12.12-.12-.12m-31.42.12l.12.12-.12-.12zm41.65 0l.12.12-.12-.12zm4.19 0l.12.12-.12-.12zm-45.96.12l.12.12-.12-.12zm17 0l.12.12-.12-.12zm5.55 0l.12.12-.12-.12zm10.1.12l.12.12-.12-.12zm-15.77.13l.12.12-.12-.12zm5.17.12l.12.12-.12-.12zm-30.8.12l.12.12-.12-.12zm9.85 0l.12.12-.12-.12zm-10.1.13l.12.12-.12-.12zm25.02 0l.12.12-.12-.12zm6.16 0l.12.12-.12-.12zm23.17 0l.12.12-.12-.12zM55.64 73.5l.12.12-.12-.12m.74 0l.12.12-.12-.12m-.62.25l.12.12-.12-.12m.74 0l.12.12-.12-.12m-7.39.12l.12.13-.12-.13m.62 0l.12.13-.12-.13zm21.44 0l.12.13-.12-.13zM56.63 74l.12.12-.12-.12zm23.29.12l.12.12-.12-.12zm-48.06.12l.12.12-.12-.12zm13.92.13l.12.12-.12-.12zm20.46 0l.12.12-.12-.12zm-17.38.12l.12.12-.12-.12zm23.17 0l.12.12-.12-.12zm-38.08.12l.12.12-.12-.12zm12.08 0l.12.12-.12-.12zm26.49.25l.12.12-.12-.12m-7.88.12l.12.12-.12-.12m.24 0l.12.12-.12-.12zm-33.76.13l.12.12-.12-.12zm17.5 0l.12.12-.12-.12zm18.11 0l.12.12-.12-.12m-31.3.49l.12.12-.12-.12zm15.4 0l.12.12-.12-.12m-20.21.12l.12.12-.12-.12zm37.59 0l.12.12-.12-.12zm-10.84.13l.12.12-.12-.12m-21.45.12l.12.12-.12-.12zm31.3 0l.12.12-.12-.12zm-7.51.12l.12.12-.12-.12zm-23.54.13l.12.12-.12-.12zm38.08.12l.12.12-.12-.12zm-44.12.12l.12.12-.12-.12zm17.62 0l.12.12-.12-.12zm7.52 0l.12.12-.12-.12zm19.1 0l.12.12-.12-.12zm-33.64.13l.12.12-.12-.12m16.88.12l.12.12-.12-.12m-20.58.12l.12.12-.12-.12m24.16 0l.12.12-.12-.12m-23.79.25l.12.12-.12-.12m23.05.12l.12.12-.12-.12m-16.64.12l.12.12-.12-.12m17.75 0l.12.12-.12-.12m-17.87.25l.12.12-.12-.12m-5.06.12l.12.12-.12-.12m1.61 0l.12.12-.12-.12m21.56 0l.12.12-.12-.12m-22.8.13l.12.12-.12-.12m12.94.12l.12.12-.12-.12zm-7.64.25l.12.12-.12-.12zm27.73.49l.12.12-.12-.12zm4.93 0l.12.12-.12-.12zm-18.24.12l.12.12-.12-.12zm12.82.13l.12.12-.12-.12zm-19.1.24l.12.12-.12-.12m5.17 0l.12.12-.12-.12zm13.06.13l.12.12-.12-.12zm-12.32.37l.12.12-.12-.12zm3.58 0l.12.12-.12-.12zm8.01 0l.12.12-.12-.12zm-25.88.12l.12.12-.12-.12m14.17 0l.12.12-.12-.12zm11.46 0l.12.12-.12-.12zm-14.3.25l.12.12-.12-.12zm6.66 0l.12.12-.12-.12m.98 0l.12.12-.12-.12zm-26.12.24l.12.12-.12-.12zm9 .13l.12.12-.12-.12m7.02.24l.12.12-.12-.12zm14.66 0l.12.12-.12-.12m-.37.12l.12.12-.12-.12zm10.85.13l.12.12-.12-.12m.25 0l.12.12-.12-.12zm-11.96.12l.12.12-.12-.12zm-2.83.25l.12.12-.12-.12m-21.45.24l.12.12-.12-.12zm7.65 0l.12.12-.12-.12zm19.22.13l.12.12-.12-.12zm-18.12.12l.12.12-.12-.12zm18.37.86l.12.12-.12-.12m.12.13l.12.12-.12-.12zm.12.12l.12.12-.12-.12m1.23.49l.12.12-.12-.12zm-12.44.5l.12.12-.12-.12zm12.08 0l.12.12-.12-.12m-5.8.49l.12.12-.12-.12zm6.41.12l.12.12-.12-.12m-12.81.13l.12.12-.12-.12m12.93 0l.25.25-.25-.25zm.13 0l.12.12-.12-.12zm-6.04.24l.12.12-.12-.12zm-16.76.12l.12.12-.12-.12zm31.45-42.15c0 .73-.59 1.33-1.33 1.33s-1.33-.59-1.33-1.33.59-1.33 1.33-1.33 1.33.6 1.33 1.33z"/></svg>