<svg xmlns="http://www.w3.org/2000/svg" viewBox="0 0 100 100"><style>.st0{fill:#444545}</style><path class="st0" d="M20.27 19.55s-.28-.65-1.06-.21c-.65.36-.31 1.03-.31 1.03l12.24 25.88h2.97l-13.84-26.7M55.01 86.6l-9.26-17.87h-3.99l9.3 19.67s.94 1.85 2.95.83c2.02-1.03 1.01-2.63 1-2.63M89.14 17.78c-11.6-5.57-22.1-2.91-33.85.6-11.82 3.54-22.34 5.45-34.15.63 1.29 2.3 1.93 3.45 3.22 5.75 1.18 2.11 2.37 4.23 3.55 6.34 1.29 2.3 1.93 3.45 3.22 5.75 9.41 2.66 17.19-.79 25.55-4.97 10.04-5.01 19.1-9.53 30.57-6.91-9.69-4.85-18.48-3.65-28.61-.9 9.93-5.06 19.27-8.98 30.5-6.29M20.42 59.09c0 1.94 0 3.82.06 4.8-.21.36-1.04.69-1.76.69-.03 0-1.01-1.52-2.42-3.25L9.42 52.8c-1.7-2.15-2.71-3.37-3.25-3.82-.15.3-.15.8-.15 1.91v5.79c0 2.42.12 4.65.45 5.46.27.63.95.8 1.73.95l.83.12c.24.24.18.87 0 1.04-1.61-.06-2.8-.09-4-.09-1.1 0-2.21.03-3.34.09-.18-.18-.24-.8 0-1.04l.51-.09c.8-.18 1.37-.36 1.64-.98.3-.81.42-3.04.42-5.46V49.1c0-1.64 0-2.12-.21-2.53-.21-.51-.66-.81-1.7-1.01l-.83-.12c-.21-.24-.18-.95.12-1.04 1.4.06 2.89.09 4.11.09 1.01 0 1.88-.03 2.5-.09.3 1.34 2.24 3.61 4.92 6.8l2.5 2.95c1.34 1.55 2.18 2.59 2.86 3.28.12-.3.12-.81.12-1.34v-4.12c0-2.41-.12-4.65-.45-5.46-.27-.63-.92-.8-1.73-.95l-.81-.12c-.24-.24-.18-.86 0-1.04 1.61.06 2.77.09 4 .09 1.1 0 2.18-.03 3.34-.09.18.18.24.8 0 1.04l-.54.09c-.77.18-1.34.36-1.61.98-.33.8-.45 3.04-.45 5.46l.02 7.12"/><path class="st0" d="M27.51 55.78c.42 0 .89-.06 1.22-.27.15-.09.21-.39.21-.69 0-.98-.57-1.64-1.58-1.64-1.25 0-2.33 1.19-2.33 2.15 0 .42.42.45 1.37.45h1.11zm-1.97 1.31c-.69 0-.75.06-.75.54 0 2.24 1.43 4.41 4.2 4.41.84 0 1.97-.18 2.77-1.55.33-.06.78.18.78.69-1.22 2.54-3.43 3.4-5.22 3.4-4.02 0-6.2-2.83-6.2-6.08 0-3.76 2.71-6.68 6.44-6.68 3.1 0 4.77 2 4.77 4.29 0 .57-.15.98-1.07.98h-5.72M38.22 53.84c-.39 0-.42.03-.42.69V59c0 1.67 0 3.52 2.09 3.52.42 0 .89-.21 1.25-.45.3.09.48.42.42.77-.83.89-2.44 1.73-4.29 1.73-2.47 0-3.34-1.43-3.34-3.4v-6.65c0-.63-.03-.69-.57-.69h-.92c-.33-.12-.42-.72-.18-.93.92-.33 1.76-.86 2.47-1.34.54-.39 1.28-1.01 2.21-2.33.21-.12.75-.09.89.15v2.24c0 .57.03.6.57.6h2.65c.15.12.24.3.24.57 0 .33-.09.86-.39 1.04h-2.68M48.98 59.12c0 2.33.3 3.79 2.62 3.79 2.21 0 3.37-1.7 3.37-4.12 0-2.59-1.49-4.41-4.35-4.41-1.64 0-1.64.03-1.64 1.22v3.52zm0-6.89c0 .78.03.83 1.58.83 2.56 0 3.52-1.64 3.52-3.43 0-2.59-1.61-3.88-3.67-3.88-1.4 0-1.43.24-1.43 1.55v4.93zm-4.11-2.89c0-3.01-.06-3.34-1.31-3.49l-.81-.12c-.27-.15-.33-1.04.12-1.07 2.27-.15 4.44-.27 7.42-.27 2.86 0 4.77.33 6.08 1.1 1.28.78 2.06 2.03 2.06 3.79 0 2.51-2.12 3.49-3.04 3.73-.3.06-.6.18-.6.33 0 .09.15.18.42.24 2.36.51 4.35 2.06 4.38 4.95.03 2.74-1.61 4.35-3.49 5.01-1.88.66-4.11.75-5.93.75-1.07 0-2.21-.12-3.07-.12-1.46 0-2.92.03-4.62.09-.24-.18-.24-.95 0-1.04l.86-.18c1.34-.27 1.52-.48 1.52-3.16l.01-10.54M66.1 64.64c-2.74 0-4.44-.78-5.07-1.13-.57-.66-.95-2.8-.95-4.83.21-.39.89-.42 1.13-.09.6 1.94 2.59 4.68 5.13 4.68 2.21 0 3.22-1.52 3.22-3.01 0-2.42-2.27-3.85-4.05-4.74-2.15-1.07-4.47-2.86-4.5-5.82 0-3.37 2.59-5.7 6.92-5.7.98 0 2.21.12 3.4.48.39.12.66.18 1.01.24.24.66.54 2.27.54 4.26-.15.36-.89.39-1.16.09-.51-1.52-1.79-3.7-3.94-3.7-1.97 0-3.04 1.28-3.04 2.77 0 1.37 1.22 2.62 2.71 3.4l1.97 1.04c1.85.98 4.2 2.71 4.2 5.99-.01 3.68-3.02 6.07-7.52 6.07"/><path class="st0" d="M80.16 58.76c0 1.64.06 2.71.6 3.34.54.6 1.4.86 2.47.86 5.16 0 6.92-4.59 6.92-8.65 0-5.37-2.83-8.56-8.23-8.56-.8 0-1.37.15-1.55.39-.18.24-.21.8-.21 1.73v10.89zm-4.26-9.45c0-2.83-.06-3.4-1.43-3.55l-.57-.06c-.3-.15-.3-1.01.06-1.04 2.5-.15 4.83-.27 7.99-.27 2.44 0 4.89.24 6.95.98 3.91 1.4 6.05 4.92 6.05 8.65 0 4-1.91 7.22-5.34 8.92-2.03 1.01-4.47 1.4-7.54 1.4-1.4 0-2.89-.18-3.97-.18-1.43 0-2.95.03-4.65.09-.24-.18-.24-.89 0-1.04l.92-.15c1.34-.24 1.52-.45 1.52-3.19l.01-10.56M93.83 46.68c0-.74.26-1.37.79-1.89.52-.52 1.16-.78 1.89-.78.74 0 1.37.26 1.89.78.52.52.78 1.15.78 1.89s-.26 1.37-.78 1.89c-.52.52-1.15.79-1.89.79s-1.37-.26-1.89-.79c-.53-.52-.79-1.16-.79-1.89zm4.92 0c0-.62-.22-1.15-.65-1.58-.44-.44-.96-.65-1.58-.65-.62 0-1.15.22-1.58.65-.44.44-.66.96-.66 1.58 0 .62.22 1.15.66 1.58.44.44.97.66 1.58.66.62 0 1.15-.22 1.58-.66.43-.44.65-.97.65-1.58zm-1.41 1.61l-.84-1.42h-.48v1.42h-.47V45h.84c.79 0 1.19.3 1.19.91 0 .42-.21.72-.64.9l.9 1.49h-.5v-.01zm-1.32-2.9v1.1c.04.01.14.01.31.01.31 0 .51-.04.62-.12.11-.08.16-.23.16-.45 0-.36-.24-.55-.71-.55h-.19l-.19.01"/></svg>