<svg xmlns="http://www.w3.org/2000/svg" viewBox="0 0 720 625"><style>.st0{fill:#24e6aa}.st1{fill:#d387ff}.st2{fill:#214075}.st3{fill:#bff8e6}.st4{fill:#f0f2f4}</style><path class="st0" d="M593.4 64.2c-10.7 0-19.4 8.7-19.4 19.4s8.7 19.4 19.4 19.4 19.4-8.7 19.4-19.4c.1-10.7-8.6-19.4-19.4-19.4zM269 564.2c-10.7 0-19.4 8.7-19.4 19.4S258.3 603 269 603s19.4-8.7 19.4-19.4-8.7-19.4-19.4-19.4z"/><path class="st1" d="M173.4 67.7c-.7-1.7-1.6-3.4-2.4-5-.5-.9-1-1.8-1.6-2.7-.6-.9-1.2-1.8-1.8-2.6-14.2-19.7-40.6-27.8-63.9-17.9-27 11.5-39.6 42.7-28.2 69.7 1.8 4.1 4 7.9 6.6 11.4.6.8 1.3 1.6 1.9 2.4.7.8 1.4 1.6 2.1 2.3 14.8 15.4 38.2 20.9 59.1 12.1 27-11.5 39.7-42.7 28.2-69.7zm-21.2 31.9c-3 7.4-8.7 13.2-16 16.3-3.8 1.6-7.7 2.4-11.7 2.4-3.8 0-7.6-.7-11.2-2.2-4.4-1.8-8.3-4.6-11.4-8.1-.7-.8-1.3-1.6-1.9-2.5-.6-.8-1.1-1.7-1.6-2.6-.5-.9-1-1.9-1.4-2.9-6.4-15.2.7-32.8 15.9-39.2 7.4-3.1 15.5-3.2 22.9-.2 4 1.6 7.5 4 10.4 7 .7.7 1.4 1.5 2 2.4.6.8 1.2 1.7 1.8 2.5.8 1.3 1.5 2.7 2.1 4.1 3 7.5 3.1 15.6.1 23z"/><path class="st2" d="M86.1 584.2c1.3 1.6 2.7 3.2 4.1 4.7l4.3-4.1c-1.3-1.4-2.6-2.8-3.8-4.3l-4.6 3.7zM84.4 570.9l-5.3 2.9c1 1.8 2.1 3.6 3.2 5.3l5-3.3c-.9-1.5-1.9-3.2-2.9-4.9zM76.4 549.3l-5.9 1.3c.5 2 1 4.1 1.5 6l5.8-1.7c-.5-1.8-1-3.7-1.4-5.6zM79.7 560.4l-5.6 2.1c.7 2 1.5 3.9 2.4 5.8l5.5-2.5c-.9-1.7-1.7-3.5-2.3-5.4zM104.8 600.7c1.7 1.1 3.6 2.1 5.4 3l2.7-5.3c-1.7-.9-3.4-1.8-5-2.8l-3.1 5.1zM94.7 593.3c1.6 1.4 3.2 2.7 4.9 3.9l3.6-4.8c-1.5-1.1-3-2.3-4.5-3.6l-4 4.5zM82.9 467.9l-5.8-1.7c-.6 2-1.1 3.9-1.6 5.8l5.8 1.6c.5-1.9 1-3.8 1.6-5.7zM115.9 606.3c1.9.8 3.8 1.5 5.8 2.2l1.9-5.7c-1.8-.6-3.7-1.3-5.4-2l-2.3 5.5zM70.3 495.8l5.9 1c.3-1.9.7-3.9 1-5.8l-5.9-1.1c-.3 1.9-.7 3.9-1 5.9zM68.7 507.9l6 .6c.2-1.9.4-3.9.7-5.9l-5.9-.8c-.4 2.1-.6 4.1-.8 6.1zM67.9 520.1l6 .2c.1-1.9.1-3.9.3-5.9l-6-.4c-.1 2-.2 4.1-.3 6.1zM74.5 537.8l-6 .6c.2 2.1.5 4.1.8 6.1l5.9-1c-.2-1.8-.4-3.7-.7-5.7zM152 613.8c2 .1 4.1.1 6.1.1v-6c-2 0-4-.1-5.9-.1l-.2 6zM222 597l1.8 5.7c1.9-.6 3.8-1.2 5.8-1.9l-1.9-5.7c-1.9.8-3.8 1.4-5.7 1.9zM210.6 600.4l1.6 5.8c1.9-.5 3.9-1.1 5.8-1.6l-1.7-5.8c-1.9.5-3.8 1-5.7 1.6zM127.6 610.3c2 .5 4 1 6 1.4l1.2-5.9c-1.9-.4-3.8-.8-5.7-1.3l-1.5 5.8zM199.1 603.2l1.3 5.9c1.9-.4 3.9-.9 5.9-1.4l-1.4-5.8c-2 .4-3.9.9-5.8 1.3zM72.6 483.9l5.9 1.3c.4-1.9.9-3.8 1.3-5.8L74 478c-.5 1.9-1 3.9-1.4 5.9zM187.5 605.4l1 5.9c2-.3 4-.7 6-1.1l-1.1-5.9c-2.1.4-4 .8-5.9 1.1zM139.7 612.7c2 .3 4.1.5 6.1.7l.5-6c-1.9-.2-3.9-.4-5.8-.7l-.8 6zM164 607.9l.2 6c2-.1 4-.2 6.1-.3l-.4-6c-2 .1-4 .2-5.9.3zM175.8 607l.6 6c2-.2 4-.5 6-.7l-.8-5.9c-1.9.2-3.9.4-5.8.6zM499.1 69l-1.3-5.9c-1.9.4-3.9.9-5.9 1.3l1.4 5.8c2-.4 3.9-.8 5.8-1.2zM73.9 526.1l-6 .1c0 2.1.1 4.1.2 6.1l6-.3c-.2-1.9-.2-3.9-.2-5.9zM487.6 71.7l-1.5-5.8c-1.9.5-3.9 1-5.8 1.6l1.6 5.8c1.9-.6 3.8-1.1 5.7-1.6zM476.1 75l-1.8-5.7c-1.9.6-3.8 1.2-5.8 1.8l1.9 5.7c2-.7 3.9-1.3 5.7-1.8zM510.7 66.8l-.9-5.9c-2 .3-4 .7-6 1l1.1 5.9c2-.4 3.9-.7 5.8-1zM534.2 64.5l-.2-6c-2 .1-4 .1-6.1.3l.4 6c2-.1 4-.2 5.9-.3zM546.3 58.7c-2-.1-4.1-.2-6.1-.2l-.1 6c2 0 4 .1 5.9.2l.3-6zM453.7 82.7l-2.2-5.6c-1.9.7-3.7 1.5-5.6 2.2l2.2 5.6c1.9-.7 3.7-1.5 5.6-2.2zM431.7 92l-2.5-5.5c-1.8.8-3.7 1.7-5.5 2.5l2.5 5.4c1.9-.8 3.7-1.6 5.5-2.4zM420.9 97l-2.6-5.4-5.4 2.7 2.7 5.4c1.7-.9 3.5-1.8 5.3-2.7zM442.6 87.2l-2.3-5.5c-1.8.8-3.7 1.6-5.6 2.4l2.4 5.5c1.9-.9 3.7-1.7 5.5-2.4zM464.8 78.7l-2-5.7c-1.9.7-3.8 1.3-5.7 2l2.1 5.6c1.9-.6 3.8-1.3 5.6-1.9zM522.5 65.3l-.6-6c-2 .2-4 .4-6.1.7l.8 6c2-.3 3.9-.5 5.9-.7zM558.5 60c-2-.3-4-.6-6.1-.8l-.6 6c2 .2 3.9.5 5.8.8l.9-6z"/><path class="st2" d="M655.4 471.7c22.8-35.4 34.8-76.3 34.8-118.5 0-58.5-22.8-113.6-64.2-155-1.1-1.1-2.3-2.2-3.4-3.3 8.8-36 8.2-66.9-2.1-90.1 4.6-6 7.4-13.5 7.4-21.7 0-19.6-16-35.6-35.6-35.6s-35.6 16-35.6 35.6 16 35.6 35.6 35.6c9.2 0 17.5-3.5 23.8-9.2 8.7 21.5 8.9 49.2 1.6 80.6-40.3-36.4-91.9-56.3-146.6-56.3-13 0-25.8 1.1-38.3 3.3-7.7-11.4-16.6-22.1-26.6-32.1l-.5-.5 4.5-2.4-2.7-5.3c-1.8.9-3.6 1.8-5.3 2.8l1.6 3C362.6 62.9 308.6 41 251.2 41c-29.1 0-57.4 5.7-83.6 16.4.6.8 1.2 1.7 1.8 2.6.5.9 1.1 1.7 1.6 2.7 3.5-1.4 7-2.7 10.5-4 .2.4.4.7.5 1.1l5.4-2.7c0-.1-.1-.2-.2-.3 20.2-6.4 41.7-9.8 64-9.8 55.6 0 106.3 21.4 144.3 56.4 1.2 1.1 2.4 2.2 3.6 3.4 10 9.7 19.1 20.3 27.1 31.7.6.9 1.3 1.8 1.9 2.7l1.8 2.7c21.8 33.5 34.5 73.4 34.5 116.2 0 103.4-74.1 189.9-172 209.2l-3.3.6c-1.1.2-2.2.4-3.3.5-11.3 1.9-22.9 2.8-34.7 2.8-41.5 0-81.8-12-116.5-34.7-.5-.3-1.1-.5-1.6-.5-.3 0-.7.1-1 .2l-48.3 17.3L80 457l-40.1 14.4 33-92.1c.3-.9.2-1.9-.3-2.7C50 342 38 301.7 38 260.2c0-44.9 14-86.7 37.8-121.1l.6.6 4.1-4.4c-.4-.4-.8-.8-1.2-1.1 2.2-3 4.5-6 6.9-8.9-.7-.8-1.4-1.5-2.1-2.3-.7-.8-1.3-1.6-1.9-2.4-2.4 2.9-4.8 5.9-7.1 9-.8-.9-1.5-1.8-2.2-2.8l-4.8 3.6c.8 1.1 1.7 2.2 2.6 3.3l3.7-3.1C46.8 167.9 32 212.9 32 260.2c0 42.2 12 83.1 34.8 118.5l-34.7 96.6c-.4 1.1-.1 2.3.7 3.1.6.6 1.3.9 2.1.9.3 0 .7-.1 1-.2l48-17.1.7.2c.1-.2.1-.4.2-.6l47.8-17.2c35.4 22.8 76.3 34.8 118.5 34.8 13 0 25.8-1.1 38.3-3.3C297.1 487.3 306 498 316 508c9.6 9.6 20 18.2 31 25.8-16.4 11.1-32.8 21.2-49.1 30.1-6.4-9.5-17.3-15.8-29.6-15.8-19.6 0-35.6 16-35.6 35.6 0 3.2.4 6.3 1.2 9.3-.2.1-.4.1-.6.2l2 5.7c.2-.1.4-.2.7-.2 5.7 12.2 18 20.7 32.4 20.7 19.6 0 35.6-16 35.6-35.6 0-5.2-1.1-10.1-3.1-14.6 17.1-9.4 34.4-20 51.6-31.7 35 22.6 75.9 34.8 118.6 34.8 42.2 0 83.1-12 118.5-34.8l96.6 34.7c.3.1.7.2 1 .2.8 0 1.5-.3 2.1-.9.8-.8 1.1-2 .7-3.1l-34.6-96.7zM562.6 83.1c0-16.3 13.3-29.6 29.6-29.6s29.6 13.3 29.6 29.6c0 7.2-2.6 13.8-6.9 19-.5.6-1 1.2-1.6 1.7-5.4 5.5-12.9 8.9-21.2 8.9-16.2 0-29.5-13.3-29.5-29.6zM298 583.8c0 16.3-13.3 29.6-29.6 29.6s-29.6-13.3-29.6-29.6 13.3-29.6 29.6-29.6c10 0 18.9 5 24.3 12.7 1.1 1.6 2.1 3.4 2.9 5.2 1.5 3.6 2.4 7.6 2.4 11.7zm292.2-52.5c-.9-.3-1.9-.2-2.7.3-34.7 22.7-75 34.7-116.5 34.7s-80.3-11.9-113.1-32.6c34.7-24.2 69-52.8 101.5-84.8 62.5-61.6 113-130.8 142.2-194.9 8.3-18.3 14.8-35.9 19.3-52.4 39.1 38.7 63.4 92.3 63.4 151.5 0 41.5-12 81.8-34.7 116.5-.5.8-.6 1.8-.3 2.7l33 92.1-92.1-33.1zM470.3 260.2c0-42.2-11.9-82.6-34-117.4 11.3-1.9 22.9-2.8 34.7-2.8 55.9 0 106.9 21.7 144.9 57-19.2 73.2-77.2 165.3-160.8 247.7-32.9 32.4-67.6 61.3-102.7 85.6-22.1-14.8-41.2-33.7-56.4-55.4 41.4-8.6 79.5-29 110.1-59.6 41.4-41.5 64.2-96.6 64.2-155.1zM90.8 33.7l-3.1-5.1c-1.2.7-2.4 1.5-3.5 2.3l3.4 4.9c1.1-.8 2.1-1.5 3.2-2.1zM73.9 48.8l-4.7-3.7c-.9 1.1-1.7 2.2-2.5 3.4l4.9 3.4c.7-1.1 1.5-2.1 2.3-3.1zM78.9 43.1l-4.3-4.2c-1 1-1.9 2-2.8 3l4.5 4c.8-1 1.7-1.9 2.6-2.8zM84.6 38l-3.7-4.7c-1.1.9-2.2 1.8-3.2 2.7l4 4.5c.9-.9 1.9-1.7 2.9-2.5zM70.7 123.7c-.7-1.1-1.4-2.1-2-3.2l-5.2 3c.7 1.2 1.4 2.4 2.2 3.6l5-3.4zM97.5 30.1L95 24.6c-1.3.6-2.5 1.2-3.7 1.9l2.8 5.3c1.1-.6 2.3-1.2 3.4-1.7zM69.5 55.1L64.4 52l-2.1 3.6 5.3 2.8c.7-1.1 1.3-2.3 1.9-3.3zM66 61.8l-5.5-2.5c-.6 1.3-1.1 2.5-1.6 3.8l5.6 2.2c.5-1.2 1-2.4 1.5-3.5zM61.8 102.7c-.3-1.2-.5-2.5-.7-3.7l-5.9 1c.2 1.4.5 2.7.8 4.1l5.8-1.4zM63.2 68.9l-5.7-1.8c-.4 1.3-.8 2.7-1.2 4l5.8 1.5c.4-1.3.8-2.5 1.1-3.7zM54.3 91.7l.3 4.2 6-.6c-.1-1.3-.2-2.5-.3-3.8l-6 .2zM66.9 117.1c-.6-1.1-1.1-2.3-1.6-3.5l-5.5 2.3c.5 1.3 1.1 2.5 1.7 3.8l5.4-2.6zM64 110.1l-1.2-3.6-5.8 1.7c.4 1.3.8 2.7 1.3 4l5.7-2.1zM112 25.4l-1.2-5.9c-1.4.3-2.7.6-4.1.9l1.5 5.8c1.3-.3 2.6-.6 3.8-.8zM166.1 31.8c-1.1-.8-2.3-1.6-3.4-2.4l-3.3 5c1.1.7 2.1 1.4 3.1 2.2l3.6-4.8zM159.1 27.3c-1.2-.7-2.4-1.3-3.7-1.9l-2.6 5.4c1.1.6 2.3 1.2 3.4 1.8l2.9-5.3zM168.4 41.5l4.1-4.4c-1-.9-2.1-1.9-3.1-2.8l-3.8 4.6c.9.9 1.9 1.8 2.8 2.6zM151.7 23.6l-3.9-1.5-2 5.7c1.2.4 2.4.9 3.6 1.4l2.3-5.6z"/><path class="st2" d="M178.2 53.2l5-3.3c-.8-1.2-1.6-2.3-2.4-3.4L176 50c.8 1 1.5 2.1 2.2 3.2zM104.6 27.3l-1.9-5.7c-1.3.4-2.6.9-3.9 1.4l2.2 5.6c1.2-.5 2.4-.9 3.6-1.3zM173.7 47l4.6-3.9c-.9-1.1-1.8-2.1-2.8-3.1l-4.4 4.1c.9 1 1.7 2 2.6 2.9zM60.4 83.8l-6-.4c-.1 1.4-.2 2.8-.2 4.2l6 .1c0-1.3.1-2.6.2-3.9zM119.5 24.3l-.5-6c-1.4.1-2.8.3-4.1.4l.8 5.9c1.3 0 2.6-.2 3.8-.3zM135.7 19.1c-1.4-.2-2.8-.4-4.1-.5l-.6 6c1.3.1 2.5.3 3.8.5l.9-6zM143.8 20.9c-1.3-.4-2.7-.7-4-1l-1.3 5.9c1.2.3 2.5.6 3.7.9l1.6-5.8zM127.2 24.2l.3-6c-1.4-.1-2.8-.1-4.2-.1l.1 6c1.2 0 2.5.1 3.8.1zM61.4 76.3l-5.9-1.1c-.3 1.4-.5 2.7-.7 4.1l5.9.8c.2-1.3.4-2.6.7-3.8zM109.1 157c1.3.3 2.7.6 4.1.8l1-5.9c-1.3-.2-2.5-.4-3.7-.7l-1.4 5.8zM140.6 150.7l1.5 5.8c1.3-.3 2.7-.7 4-1.2l-1.9-5.7c-1.2.4-2.4.7-3.6 1.1zM154.8 145.1l2.8 5.3c1.2-.7 2.4-1.3 3.6-2.1l-3.1-5.1c-1.1.7-2.2 1.3-3.3 1.9zM149.6 147.6c-.6.2-1.2.5-1.7.7l2.2 5.6c.6-.2 1.3-.5 1.9-.8.7-.3 1.3-.6 1.9-.9l-2.5-5.5c-.6.4-1.2.6-1.8.9zM79.5 142.4c1.1.9 2.2 1.7 3.3 2.6l3.6-4.8c-1-.7-2-1.5-3-2.3l-3.9 4.5zM161.3 141.1l3.4 4.9c1.1-.8 2.3-1.6 3.3-2.5l-3.7-4.7c-1 .9-2 1.6-3 2.3zM167.2 136.4l4 4.5c1-.9 2-1.9 3-2.9l-4.3-4.2c-.8.9-1.7 1.8-2.7 2.6zM92.7 144.3c-1.1-.6-2.2-1.3-3.3-2l-3.3 5c1.2.7 2.4 1.5 3.6 2.2l3-5.2zM93.4 151.5c1.2.6 2.5 1.2 3.8 1.7l2.3-5.5c-1.2-.5-2.3-1-3.5-1.6l-2.6 5.4zM105.1 156l1.7-5.8c-1.2-.4-2.4-.7-3.6-1.2l-2 5.7c1.2.5 2.5.9 3.9 1.3zM194.6 93.6l-6-.4c-.1 1.3-.2 2.5-.4 3.8l5.9.8c.2-1.5.4-2.9.5-4.2zM193.5 101.8l-5.9-1.1c-.2 1.2-.5 2.5-.8 3.7l5.8 1.5c.3-1.4.6-2.7.9-4.1zM184.4 111.6l5.6 2.2c.5-1.3 1-2.6 1.4-3.9l-5.7-1.8c-.4 1.1-.8 2.3-1.3 3.5zM133.9 158.1c1.4-.2 2.8-.4 4.1-.7l-1.2-5.9c-1.2.2-2.5.5-3.8.6l.9 6zM125.6 158.7c1.4 0 2.8-.1 4.2-.2l-.5-6c-1.3.1-2.5.2-3.8.2l.1 6zM121.5 158.7l.3-6c-1.3-.1-2.5-.1-3.8-.3l-.6 6c1.3.1 2.7.2 4.1.3zM172.6 131l4.5 4c.9-1 1.8-2.1 2.7-3.2l-4.7-3.7c-.8 1-1.7 2-2.5 2.9zM194.8 88.4c0-1.1 0-2.1-.1-3.2l-6 .3c0 1 .1 1.9.1 2.9v.9l6 .1v-1zM181.2 118.6l5.3 2.8c.6-1.2 1.3-2.5 1.8-3.7l-5.5-2.5c-.4 1.1-1 2.2-1.6 3.4zM189.1 60.9l-5.5 2.3v.1c.5 1.2 1 2.4 1.4 3.5l5.7-2-1.5-3.9h-.1zM186.2 70.5c.4 1.2.7 2.5 1 3.7l5.8-1.3c-.3-1.3-.7-2.7-1-4l-5.8 1.6zM187.9 77.9c.2 1.3.4 2.5.5 3.8l6-.6c-.1-1.4-.3-2.8-.6-4.1l-5.9.9zM177.3 125.1l4.9 3.4c.8-1.1 1.5-2.3 2.3-3.5l-5.1-3.1c-.7 1-1.4 2.1-2.1 3.2zM96.9 100.1c.4 1 .9 2 1.4 2.9.5.9 1 1.8 1.6 2.6.6.9 1.2 1.7 1.9 2.5 3.1 3.5 6.9 6.3 11.4 8.1 3.6 1.5 7.4 2.2 11.2 2.2 4 0 7.9-.8 11.7-2.4 7.4-3.1 13.1-8.9 16-16.3s2.9-15.5-.2-22.9c-.6-1.4-1.3-2.8-2.1-4.1-.5-.9-1.1-1.7-1.8-2.5-.6-.8-1.3-1.6-2-2.4-2.9-3-6.4-5.4-10.4-7-7.4-3-15.5-2.9-22.9.2-15.1 6.3-22.2 23.9-15.8 39.1zm36.5-33.8c2.7 1.1 5.1 2.6 7.2 4.5-13.4 7.9-26 17.2-37.7 27.9-.1-.3-.3-.6-.5-.9-2.5-5.9-2.6-12.4-.2-18.3s6.9-10.6 12.8-13.1c3-1.3 6.2-1.9 9.3-1.9 3.2 0 6.2.6 9.1 1.8zm13.1 12.8c2.5 5.9 2.6 12.4.2 18.3s-6.9 10.6-12.8 13.1-12.4 2.6-18.3.2c-3.6-1.5-6.8-3.8-9.3-6.7 11.7-10.8 24.5-20.4 38.4-28.4.6 1.1 1.3 2.3 1.8 3.5z"/><circle class="st3" cx="559.6" cy="603.7" r="13.1"/><path class="st3" d="M694 176.2c0 10.7-8.7 19.4-19.4 19.4s-19.4-8.7-19.4-19.4 8.7-19.4 19.4-19.4 19.4 8.7 19.4 19.4z"/><circle class="st0" cx="467.3" cy="18.3" r="13.1"/><path class="st1" d="M702.4 61.7l-9.8-9.8 9.8-9.8 9.8 9.8-9.8 9.8zm-4.2-9.7l4.2 4.2 4.2-4.2-4.2-4.2-4.2 4.2zM24.2 617.8l-14.1-14.1 14.1-14.1 14.1 14.1-14.1 14.1zm-8.5-14.1l8.5 8.5 8.5-8.5-8.5-8.5-8.5 8.5z"/><path class="st4" d="M24.2 48.7L6.9 31.4l17.3-17.3 17.3 17.3-17.3 17.3zM15 31.4l9.2 9.2 9.2-9.2-9.2-9.2-9.2 9.2z"/><path class="st1" d="M687.2 484.7c-4.6 0-8.4-3.8-8.4-8.4 0-4.6 3.8-8.4 8.4-8.4s8.4 3.8 8.4 8.4c0 4.7-3.8 8.4-8.4 8.4zm0-12.8c-2.4 0-4.4 2-4.4 4.4 0 2.4 2 4.4 4.4 4.4s4.4-2 4.4-4.4c0-2.4-1.9-4.4-4.4-4.4z"/><path class="st2" d="M352.1 247.3c5.6-7.4 9-16.7 9-26.7 0-24.5-19.9-44.4-44.4-44.4s-44.4 19.9-44.4 44.4 19.9 44.4 44.4 44.4c11.5 0 22-4.4 29.9-11.6l6 6c.8.8 1.8 1.2 2.9 1.2s2.1-.4 2.9-1.2c1.6-1.6 1.6-4.2 0-5.8l-6.3-6.3zm-35.4 9.5c-20 0-36.2-16.2-36.2-36.2 0-20 16.3-36.2 36.2-36.2 20 0 36.2 16.3 36.2 36.2 0 7.8-2.5 15-6.6 20.9l-10.9-10.9c-1.6-1.6-4.2-1.6-5.8 0-1.6 1.6-1.6 4.2 0 5.8l11.3 11.3c-6.5 5.6-15 9.1-24.2 9.1zM629.6 444.1l-32.3-86.5c-.6-1.6-2.1-2.6-3.8-2.6-1.7 0-3.2 1.1-3.8 2.6l-32.3 86.5c-.8 2.1.3 4.4 2.4 5.2.5.2 1 .3 1.4.3 1.6 0 3.2-1 3.8-2.6l11.5-30.7h34.1l11.5 30.7c.8 2.1 3.1 3.2 5.2 2.4 2-.9 3-3.2 2.3-5.3zm-50.2-36l14-37.5 14 37.5h-28z"/><circle class="st4" cx="269" cy="344.4" r="14.6"/><path class="st4" d="M132.1 308.8c0 5.2-4.2 9.4-9.4 9.4s-9.4-4.2-9.4-9.4 4.2-9.4 9.4-9.4 9.4 4.2 9.4 9.4z"/></svg>