<svg xmlns="http://www.w3.org/2000/svg" viewBox="0 0 100 100"><path fill="#6486aa" d="M97.5 40.2c-2.2-1.5-7.3-2.1-11.3-1.4-.5-3.9-2.6-7.2-6.3-10.2l-2.1-1.5-1.5 2.2c-1.9 2.9-2.8 6.9-2.5 10.8.1 1.4.6 3.8 1.9 5.9-1.3.8-4 1.7-7.5 1.7h-67l-.2.8C.4 52.4.4 64.4 8 73.7c5.7 7 14.3 10.6 25.5 10.6 24.3 0 42.3-11.7 50.7-32.8 3.3.1 10.5 0 14.1-7.2.1-.2.3-.6.9-2l.4-.8-2.1-1.3zM54.8 13H44.6v9.7h10.2V13zm0 11.6H44.6v9.7h10.2v-9.7zm-12.1 0H32.5v9.7h10.2v-9.7zm-12 0H20.5v9.7h10.2v-9.7zM18.6 36.2H8.4v9.7h10.2v-9.7zm12.1 0H20.5v9.7h10.2v-9.7zm12 0H32.5v9.7h10.2v-9.7zm12.1 0H44.6v9.7h10.2v-9.7zm12 0H56.6v9.7h10.2v-9.7z"/></svg>