<svg id="Layer_3" xmlns="http://www.w3.org/2000/svg" viewBox="0 0 100 100"><style>.st1{fill:#6486aa}</style><path d="M49.95.72C22.78.72.75 22.75.75 49.92c0 21.74 14.1 40.18 33.64 46.68 2.46.46 3.36-1.07 3.36-2.37 0-1.17-.05-5.05-.07-9.16-13.69 2.98-16.57-5.8-16.57-5.8-2.24-5.69-5.46-7.2-5.46-7.2-4.46-3.05.34-2.99.34-2.99 4.94.35 7.54 5.07 7.54 5.07 4.39 7.52 11.51 5.35 14.32 4.09.44-3.18 1.72-5.35 3.12-6.58-10.93-1.24-22.42-5.46-22.42-24.31 0-5.37 1.92-9.76 5.07-13.21-.51-1.24-2.2-6.24.48-13.02 0 0 4.13-1.32 13.53 5.04 3.92-1.09 8.13-1.64 12.31-1.66 4.18.02 8.39.57 12.32 1.66 9.39-6.37 13.52-5.04 13.52-5.04 2.68 6.78.99 11.78.48 13.02 3.15 3.45 5.06 7.83 5.06 13.21 0 18.9-11.51 23.06-22.46 24.27 1.76 1.53 3.34 4.52 3.34 9.11 0 6.58-.06 11.88-.06 13.5 0 1.31.89 2.84 3.38 2.36 19.54-6.51 33.62-24.95 33.62-46.68C99.14 22.75 77.12.72 49.95.72z" fill-rule="evenodd" clip-rule="evenodd" fill="#6486aa"/><path class="st1" d="M19.38 71.36c-.11.25-.49.32-.84.15-.36-.16-.56-.49-.44-.74.11-.25.49-.32.85-.15.35.16.55.49.43.74zm-.6-.45M21.37 73.58c-.23.22-.69.12-1-.23-.32-.34-.38-.8-.14-1.02.24-.22.69-.12 1.01.23.32.35.38.8.13 1.02zm-.46-.5M23.31 76.42c-.3.21-.79.01-1.1-.42-.3-.44-.3-.96.01-1.17.3-.21.79-.02 1.1.41.3.44.3.96-.01 1.18zm0 0M25.97 79.15c-.27.3-.84.22-1.26-.19-.43-.4-.55-.96-.28-1.26.27-.3.85-.21 1.27.19.43.4.56.97.27 1.26zm0 0M29.64 80.74c-.12.39-.67.56-1.23.4-.56-.17-.92-.62-.81-1.01.12-.39.67-.57 1.23-.4.56.17.92.62.81 1.01zm0 0M33.66 81.04c.01.41-.46.74-1.04.75-.59.01-1.06-.32-1.07-.71 0-.41.46-.74 1.05-.75.58-.02 1.06.3 1.06.71zm0 0M37.41 80.4c.07.4-.34.8-.92.91-.57.11-1.1-.14-1.17-.53-.07-.41.34-.81.91-.92.59-.1 1.11.14 1.18.54zm0 0"/></svg>